G04*
G04 #@! TF.GenerationSoftware,Altium Limited,Altium Designer,25.3.3 (18)*
G04*
G04 Layer_Color=32768*
%FSLAX44Y44*%
%MOMM*%
G71*
G04*
G04 #@! TF.SameCoordinates,017A41BD-DD39-4079-982F-C60C01D90CF4*
G04*
G04*
G04 #@! TF.FilePolarity,Positive*
G04*
G01*
G75*
%ADD13C,0.2000*%
%ADD96C,0.1000*%
G36*
X675500Y-269500D02*
X667500D01*
X675500Y-261500D01*
Y-269500D01*
D02*
G37*
G36*
X675500Y-232000D02*
X667500D01*
X675500Y-224000D01*
Y-232000D01*
D02*
G37*
G36*
X675500Y-194500D02*
X667500D01*
X675500Y-186500D01*
Y-194500D01*
D02*
G37*
G36*
X752919Y-67509D02*
X752993Y-67518D01*
X753067Y-67528D01*
X753261Y-67565D01*
X753465Y-67620D01*
X753677Y-67703D01*
X753788Y-67759D01*
X753890Y-67824D01*
X753982Y-67898D01*
X754075Y-67981D01*
X754084Y-67990D01*
X754093Y-67999D01*
X754112Y-68036D01*
X754140Y-68073D01*
X754176Y-68119D01*
X754213Y-68184D01*
X754250Y-68258D01*
X754297Y-68341D01*
X754334Y-68434D01*
X754371Y-68545D01*
X754408Y-68656D01*
X754445Y-68785D01*
X754463Y-68924D01*
X754491Y-69081D01*
X754500Y-69238D01*
Y-69414D01*
X753733Y-69525D01*
Y-69515D01*
Y-69497D01*
Y-69460D01*
X753724Y-69405D01*
X753714Y-69349D01*
Y-69284D01*
X753687Y-69127D01*
X753659Y-68961D01*
X753603Y-68794D01*
X753548Y-68646D01*
X753511Y-68582D01*
X753465Y-68526D01*
X753455Y-68517D01*
X753418Y-68489D01*
X753363Y-68443D01*
X753289Y-68397D01*
X753187Y-68341D01*
X753076Y-68304D01*
X752938Y-68267D01*
X752790Y-68258D01*
X752734D01*
X752679Y-68267D01*
X752596Y-68277D01*
X752512Y-68295D01*
X752420Y-68313D01*
X752327Y-68351D01*
X752235Y-68397D01*
X752226Y-68406D01*
X752198Y-68425D01*
X752161Y-68461D01*
X752105Y-68498D01*
X752059Y-68563D01*
X752004Y-68628D01*
X751958Y-68702D01*
X751921Y-68794D01*
Y-68804D01*
X751902Y-68840D01*
X751893Y-68905D01*
X751874Y-68988D01*
X751856Y-69099D01*
X751847Y-69238D01*
X751828Y-69405D01*
Y-69599D01*
Y-74009D01*
X750978D01*
Y-69645D01*
Y-69636D01*
Y-69608D01*
Y-69571D01*
Y-69515D01*
X750987Y-69441D01*
Y-69367D01*
X751005Y-69192D01*
X751024Y-68988D01*
X751061Y-68776D01*
X751116Y-68582D01*
X751181Y-68397D01*
Y-68387D01*
X751190Y-68378D01*
X751218Y-68323D01*
X751264Y-68249D01*
X751329Y-68147D01*
X751421Y-68045D01*
X751523Y-67934D01*
X751653Y-67824D01*
X751800Y-67731D01*
X751819Y-67722D01*
X751874Y-67694D01*
X751958Y-67657D01*
X752078Y-67620D01*
X752226Y-67574D01*
X752392Y-67537D01*
X752577Y-67509D01*
X752781Y-67500D01*
X752864D01*
X752919Y-67509D01*
D02*
G37*
G36*
X747742Y-72613D02*
X747751Y-72604D01*
X747797Y-72566D01*
X747853Y-72511D01*
X747945Y-72446D01*
X748047Y-72363D01*
X748176Y-72271D01*
X748324Y-72169D01*
X748491Y-72067D01*
X748500D01*
X748509Y-72058D01*
X748565Y-72021D01*
X748657Y-71975D01*
X748768Y-71919D01*
X748897Y-71855D01*
X749036Y-71790D01*
X749175Y-71725D01*
X749313Y-71670D01*
Y-72428D01*
X749304D01*
X749286Y-72446D01*
X749249Y-72456D01*
X749202Y-72483D01*
X749147Y-72511D01*
X749082Y-72548D01*
X748925Y-72640D01*
X748740Y-72742D01*
X748555Y-72872D01*
X748361Y-73019D01*
X748167Y-73177D01*
X748158Y-73186D01*
X748148Y-73195D01*
X748121Y-73223D01*
X748084Y-73251D01*
X748000Y-73343D01*
X747889Y-73454D01*
X747779Y-73583D01*
X747658Y-73731D01*
X747557Y-73879D01*
X747464Y-74036D01*
X746956D01*
Y-67611D01*
X747742D01*
Y-72613D01*
D02*
G37*
G36*
X742767D02*
X742777Y-72604D01*
X742823Y-72566D01*
X742878Y-72511D01*
X742971Y-72446D01*
X743073Y-72363D01*
X743202Y-72271D01*
X743350Y-72169D01*
X743516Y-72067D01*
X743526D01*
X743535Y-72058D01*
X743590Y-72021D01*
X743683Y-71975D01*
X743794Y-71919D01*
X743923Y-71855D01*
X744062Y-71790D01*
X744201Y-71725D01*
X744339Y-71670D01*
Y-72428D01*
X744330D01*
X744312Y-72446D01*
X744275Y-72456D01*
X744228Y-72483D01*
X744173Y-72511D01*
X744108Y-72548D01*
X743951Y-72640D01*
X743766Y-72742D01*
X743581Y-72872D01*
X743387Y-73019D01*
X743193Y-73177D01*
X743184Y-73186D01*
X743174Y-73195D01*
X743147Y-73223D01*
X743110Y-73251D01*
X743026Y-73343D01*
X742915Y-73454D01*
X742804Y-73583D01*
X742684Y-73731D01*
X742583Y-73879D01*
X742490Y-74036D01*
X741982D01*
Y-67611D01*
X742767D01*
Y-72613D01*
D02*
G37*
G36*
X831022Y-920105D02*
Y-920114D01*
Y-920142D01*
Y-920179D01*
Y-920235D01*
X831013Y-920309D01*
Y-920383D01*
X830995Y-920558D01*
X830976Y-920762D01*
X830939Y-920974D01*
X830884Y-921168D01*
X830819Y-921353D01*
Y-921363D01*
X830810Y-921372D01*
X830782Y-921427D01*
X830736Y-921501D01*
X830671Y-921603D01*
X830579Y-921705D01*
X830477Y-921816D01*
X830348Y-921927D01*
X830200Y-922019D01*
X830181Y-922028D01*
X830126Y-922056D01*
X830042Y-922093D01*
X829922Y-922130D01*
X829774Y-922176D01*
X829608Y-922213D01*
X829423Y-922241D01*
X829220Y-922250D01*
X829136D01*
X829081Y-922241D01*
X829007Y-922232D01*
X828933Y-922222D01*
X828739Y-922185D01*
X828535Y-922130D01*
X828323Y-922047D01*
X828212Y-921991D01*
X828110Y-921927D01*
X828018Y-921853D01*
X827925Y-921769D01*
X827916Y-921760D01*
X827907Y-921751D01*
X827888Y-921714D01*
X827860Y-921677D01*
X827823Y-921631D01*
X827786Y-921566D01*
X827749Y-921492D01*
X827703Y-921409D01*
X827666Y-921316D01*
X827629Y-921205D01*
X827592Y-921094D01*
X827555Y-920965D01*
X827537Y-920826D01*
X827509Y-920669D01*
X827500Y-920512D01*
Y-920336D01*
X828267Y-920225D01*
Y-920235D01*
Y-920253D01*
Y-920290D01*
X828277Y-920346D01*
X828286Y-920401D01*
Y-920466D01*
X828314Y-920623D01*
X828341Y-920789D01*
X828397Y-920956D01*
X828452Y-921104D01*
X828489Y-921168D01*
X828535Y-921224D01*
X828545Y-921233D01*
X828582Y-921261D01*
X828637Y-921307D01*
X828711Y-921353D01*
X828813Y-921409D01*
X828924Y-921446D01*
X829062Y-921483D01*
X829210Y-921492D01*
X829266D01*
X829321Y-921483D01*
X829405Y-921473D01*
X829488Y-921455D01*
X829580Y-921436D01*
X829673Y-921400D01*
X829765Y-921353D01*
X829774Y-921344D01*
X829802Y-921326D01*
X829839Y-921289D01*
X829894Y-921252D01*
X829941Y-921187D01*
X829996Y-921122D01*
X830042Y-921048D01*
X830079Y-920956D01*
Y-920947D01*
X830098Y-920910D01*
X830107Y-920845D01*
X830126Y-920762D01*
X830144Y-920651D01*
X830153Y-920512D01*
X830172Y-920346D01*
Y-920151D01*
Y-915741D01*
X831022D01*
Y-920105D01*
D02*
G37*
G36*
X834360Y-915723D02*
X834434Y-915732D01*
X834527Y-915741D01*
X834628Y-915760D01*
X834730Y-915778D01*
X834970Y-915843D01*
X835211Y-915935D01*
X835331Y-915991D01*
X835451Y-916056D01*
X835562Y-916139D01*
X835664Y-916231D01*
X835673Y-916240D01*
X835692Y-916250D01*
X835710Y-916287D01*
X835747Y-916324D01*
X835793Y-916370D01*
X835839Y-916435D01*
X835886Y-916499D01*
X835941Y-916583D01*
X836034Y-916758D01*
X836126Y-916980D01*
X836163Y-917091D01*
X836181Y-917221D01*
X836200Y-917350D01*
X836209Y-917489D01*
Y-917507D01*
Y-917553D01*
X836200Y-917627D01*
X836191Y-917729D01*
X836172Y-917840D01*
X836135Y-917969D01*
X836098Y-918108D01*
X836043Y-918247D01*
X836034Y-918265D01*
X836015Y-918311D01*
X835978Y-918385D01*
X835923Y-918487D01*
X835849Y-918598D01*
X835756Y-918737D01*
X835645Y-918876D01*
X835516Y-919033D01*
X835497Y-919051D01*
X835451Y-919107D01*
X835405Y-919153D01*
X835359Y-919199D01*
X835303Y-919255D01*
X835229Y-919329D01*
X835155Y-919402D01*
X835063Y-919486D01*
X834970Y-919578D01*
X834859Y-919680D01*
X834739Y-919782D01*
X834610Y-919902D01*
X834462Y-920022D01*
X834314Y-920151D01*
X834305Y-920161D01*
X834286Y-920179D01*
X834249Y-920207D01*
X834203Y-920244D01*
X834147Y-920299D01*
X834083Y-920355D01*
X833935Y-920475D01*
X833778Y-920614D01*
X833630Y-920752D01*
X833500Y-920873D01*
X833445Y-920919D01*
X833399Y-920965D01*
X833389Y-920974D01*
X833362Y-921002D01*
X833325Y-921039D01*
X833278Y-921094D01*
X833232Y-921159D01*
X833177Y-921224D01*
X833066Y-921381D01*
X836218D01*
Y-922139D01*
X831975D01*
Y-922130D01*
Y-922093D01*
Y-922038D01*
X831984Y-921964D01*
X831993Y-921880D01*
X832012Y-921788D01*
X832030Y-921695D01*
X832067Y-921594D01*
Y-921584D01*
X832076Y-921575D01*
X832095Y-921520D01*
X832132Y-921436D01*
X832187Y-921326D01*
X832261Y-921196D01*
X832354Y-921048D01*
X832456Y-920900D01*
X832585Y-920743D01*
Y-920734D01*
X832603Y-920725D01*
X832650Y-920669D01*
X832733Y-920586D01*
X832853Y-920466D01*
X832992Y-920327D01*
X833167Y-920161D01*
X833380Y-919976D01*
X833611Y-919782D01*
X833621Y-919772D01*
X833657Y-919745D01*
X833713Y-919698D01*
X833778Y-919643D01*
X833861Y-919569D01*
X833962Y-919486D01*
X834064Y-919393D01*
X834184Y-919292D01*
X834416Y-919070D01*
X834647Y-918848D01*
X834758Y-918737D01*
X834859Y-918626D01*
X834952Y-918524D01*
X835026Y-918422D01*
Y-918413D01*
X835044Y-918404D01*
X835063Y-918376D01*
X835081Y-918339D01*
X835146Y-918238D01*
X835220Y-918117D01*
X835285Y-917969D01*
X835349Y-917812D01*
X835386Y-917637D01*
X835405Y-917470D01*
Y-917461D01*
Y-917452D01*
X835396Y-917396D01*
X835386Y-917304D01*
X835359Y-917202D01*
X835322Y-917073D01*
X835257Y-916943D01*
X835174Y-916814D01*
X835063Y-916684D01*
X835044Y-916666D01*
X834998Y-916629D01*
X834933Y-916583D01*
X834832Y-916518D01*
X834702Y-916462D01*
X834554Y-916407D01*
X834379Y-916370D01*
X834184Y-916361D01*
X834129D01*
X834092Y-916370D01*
X833981Y-916379D01*
X833852Y-916407D01*
X833713Y-916444D01*
X833556Y-916509D01*
X833408Y-916592D01*
X833269Y-916703D01*
X833251Y-916721D01*
X833214Y-916768D01*
X833158Y-916842D01*
X833103Y-916952D01*
X833038Y-917082D01*
X832982Y-917248D01*
X832945Y-917433D01*
X832927Y-917646D01*
X832123Y-917563D01*
Y-917553D01*
X832132Y-917526D01*
Y-917479D01*
X832141Y-917415D01*
X832160Y-917341D01*
X832178Y-917258D01*
X832206Y-917156D01*
X832234Y-917054D01*
X832308Y-916832D01*
X832419Y-916610D01*
X832483Y-916499D01*
X832567Y-916388D01*
X832650Y-916287D01*
X832742Y-916194D01*
X832751Y-916185D01*
X832770Y-916176D01*
X832798Y-916148D01*
X832844Y-916120D01*
X832899Y-916083D01*
X832964Y-916046D01*
X833038Y-916000D01*
X833130Y-915954D01*
X833232Y-915908D01*
X833343Y-915861D01*
X833463Y-915825D01*
X833593Y-915788D01*
X833731Y-915760D01*
X833879Y-915732D01*
X834036Y-915723D01*
X834203Y-915714D01*
X834295D01*
X834360Y-915723D01*
D02*
G37*
G36*
X839279D02*
X839353Y-915732D01*
X839436Y-915741D01*
X839528Y-915751D01*
X839621Y-915778D01*
X839843Y-915834D01*
X840065Y-915917D01*
X840176Y-915972D01*
X840286Y-916037D01*
X840388Y-916120D01*
X840490Y-916204D01*
X840499Y-916213D01*
X840508Y-916222D01*
X840536Y-916250D01*
X840573Y-916287D01*
X840610Y-916342D01*
X840656Y-916398D01*
X840749Y-916536D01*
X840841Y-916712D01*
X840925Y-916915D01*
X840989Y-917147D01*
X840998Y-917267D01*
X841008Y-917396D01*
Y-917405D01*
Y-917415D01*
Y-917470D01*
X840998Y-917553D01*
X840980Y-917655D01*
X840952Y-917785D01*
X840906Y-917914D01*
X840851Y-918043D01*
X840767Y-918173D01*
X840758Y-918191D01*
X840721Y-918228D01*
X840666Y-918284D01*
X840592Y-918358D01*
X840490Y-918441D01*
X840370Y-918524D01*
X840231Y-918607D01*
X840065Y-918681D01*
X840074D01*
X840092Y-918691D01*
X840120Y-918700D01*
X840157Y-918718D01*
X840268Y-918765D01*
X840397Y-918829D01*
X840536Y-918922D01*
X840684Y-919023D01*
X840823Y-919153D01*
X840952Y-919301D01*
Y-919310D01*
X840962Y-919319D01*
X840998Y-919375D01*
X841054Y-919467D01*
X841109Y-919587D01*
X841165Y-919735D01*
X841220Y-919911D01*
X841257Y-920105D01*
X841267Y-920318D01*
Y-920327D01*
Y-920355D01*
Y-920401D01*
X841257Y-920456D01*
X841248Y-920521D01*
X841239Y-920604D01*
X841220Y-920697D01*
X841193Y-920799D01*
X841128Y-921011D01*
X841082Y-921131D01*
X841017Y-921242D01*
X840952Y-921363D01*
X840878Y-921473D01*
X840786Y-921584D01*
X840684Y-921695D01*
X840675Y-921705D01*
X840656Y-921723D01*
X840629Y-921751D01*
X840582Y-921779D01*
X840518Y-921825D01*
X840453Y-921871D01*
X840370Y-921917D01*
X840277Y-921973D01*
X840176Y-922028D01*
X840055Y-922075D01*
X839926Y-922121D01*
X839797Y-922167D01*
X839649Y-922195D01*
X839491Y-922222D01*
X839334Y-922241D01*
X839159Y-922250D01*
X839066D01*
X839001Y-922241D01*
X838918Y-922232D01*
X838826Y-922222D01*
X838724Y-922204D01*
X838613Y-922176D01*
X838363Y-922112D01*
X838234Y-922065D01*
X838114Y-922019D01*
X837984Y-921954D01*
X837855Y-921880D01*
X837735Y-921797D01*
X837624Y-921695D01*
X837615Y-921686D01*
X837596Y-921668D01*
X837568Y-921640D01*
X837531Y-921594D01*
X837494Y-921538D01*
X837439Y-921473D01*
X837393Y-921400D01*
X837337Y-921307D01*
X837282Y-921215D01*
X837235Y-921104D01*
X837143Y-920873D01*
X837106Y-920734D01*
X837078Y-920595D01*
X837060Y-920447D01*
X837051Y-920299D01*
Y-920290D01*
Y-920272D01*
Y-920235D01*
X837060Y-920198D01*
Y-920142D01*
X837069Y-920077D01*
X837088Y-919930D01*
X837124Y-919763D01*
X837180Y-919597D01*
X837263Y-919421D01*
X837365Y-919255D01*
Y-919245D01*
X837383Y-919236D01*
X837420Y-919190D01*
X837494Y-919116D01*
X837596Y-919023D01*
X837726Y-918931D01*
X837883Y-918829D01*
X838058Y-918746D01*
X838271Y-918681D01*
X838262D01*
X838252Y-918672D01*
X838225Y-918663D01*
X838188Y-918644D01*
X838105Y-918607D01*
X837994Y-918552D01*
X837873Y-918478D01*
X837753Y-918385D01*
X837642Y-918284D01*
X837541Y-918173D01*
X837531Y-918154D01*
X837504Y-918117D01*
X837467Y-918043D01*
X837430Y-917951D01*
X837383Y-917831D01*
X837346Y-917692D01*
X837319Y-917535D01*
X837309Y-917368D01*
Y-917359D01*
Y-917341D01*
Y-917304D01*
X837319Y-917248D01*
X837328Y-917193D01*
X837337Y-917119D01*
X837374Y-916962D01*
X837430Y-916777D01*
X837522Y-916583D01*
X837578Y-916481D01*
X837642Y-916379D01*
X837726Y-916287D01*
X837809Y-916194D01*
X837818Y-916185D01*
X837836Y-916176D01*
X837864Y-916148D01*
X837901Y-916120D01*
X837947Y-916083D01*
X838012Y-916046D01*
X838086Y-916000D01*
X838160Y-915954D01*
X838252Y-915908D01*
X838354Y-915861D01*
X838465Y-915825D01*
X838585Y-915788D01*
X838844Y-915732D01*
X838992Y-915723D01*
X839140Y-915714D01*
X839223D01*
X839279Y-915723D01*
D02*
G37*
G36*
X929639Y-396768D02*
X924637D01*
X924647Y-396777D01*
X924684Y-396823D01*
X924739Y-396878D01*
X924804Y-396971D01*
X924887Y-397073D01*
X924979Y-397202D01*
X925081Y-397350D01*
X925183Y-397516D01*
Y-397526D01*
X925192Y-397535D01*
X925229Y-397590D01*
X925275Y-397683D01*
X925331Y-397794D01*
X925396Y-397923D01*
X925460Y-398062D01*
X925525Y-398200D01*
X925580Y-398339D01*
X924822D01*
Y-398330D01*
X924804Y-398312D01*
X924794Y-398274D01*
X924767Y-398228D01*
X924739Y-398173D01*
X924702Y-398108D01*
X924610Y-397951D01*
X924508Y-397766D01*
X924378Y-397581D01*
X924230Y-397387D01*
X924073Y-397193D01*
X924064Y-397183D01*
X924055Y-397174D01*
X924027Y-397146D01*
X923999Y-397109D01*
X923907Y-397026D01*
X923796Y-396915D01*
X923667Y-396804D01*
X923519Y-396684D01*
X923371Y-396582D01*
X923214Y-396490D01*
Y-395982D01*
X929639D01*
Y-396768D01*
D02*
G37*
G36*
X927892Y-399726D02*
X927966Y-399735D01*
X928049Y-399754D01*
X928141Y-399772D01*
X928243Y-399791D01*
X928465Y-399865D01*
X928585Y-399920D01*
X928696Y-399976D01*
X928816Y-400050D01*
X928936Y-400133D01*
X929057Y-400225D01*
X929168Y-400336D01*
X929177Y-400345D01*
X929195Y-400364D01*
X929223Y-400401D01*
X929260Y-400447D01*
X929306Y-400503D01*
X929353Y-400577D01*
X929408Y-400660D01*
X929454Y-400762D01*
X929510Y-400863D01*
X929565Y-400984D01*
X929612Y-401104D01*
X929658Y-401242D01*
X929695Y-401390D01*
X929722Y-401547D01*
X929741Y-401705D01*
X929750Y-401880D01*
Y-401964D01*
X929741Y-402019D01*
X929732Y-402093D01*
X929722Y-402176D01*
X929704Y-402269D01*
X929685Y-402370D01*
X929630Y-402592D01*
X929538Y-402823D01*
X929482Y-402943D01*
X929417Y-403055D01*
X929334Y-403165D01*
X929251Y-403276D01*
X929242Y-403286D01*
X929223Y-403304D01*
X929195Y-403332D01*
X929158Y-403360D01*
X929112Y-403406D01*
X929047Y-403452D01*
X928983Y-403507D01*
X928900Y-403563D01*
X928807Y-403618D01*
X928715Y-403674D01*
X928493Y-403776D01*
X928234Y-403859D01*
X928095Y-403887D01*
X927947Y-403905D01*
X927846Y-403119D01*
X927855D01*
X927873Y-403110D01*
X927910Y-403101D01*
X927956Y-403091D01*
X928012Y-403082D01*
X928077Y-403064D01*
X928215Y-403018D01*
X928382Y-402953D01*
X928539Y-402870D01*
X928687Y-402777D01*
X928816Y-402666D01*
X928826Y-402648D01*
X928863Y-402611D01*
X928909Y-402537D01*
X928955Y-402444D01*
X929010Y-402333D01*
X929057Y-402195D01*
X929094Y-402037D01*
X929103Y-401871D01*
Y-401816D01*
X929094Y-401779D01*
X929084Y-401677D01*
X929057Y-401547D01*
X929010Y-401399D01*
X928946Y-401242D01*
X928853Y-401085D01*
X928724Y-400937D01*
X928705Y-400919D01*
X928650Y-400872D01*
X928567Y-400817D01*
X928456Y-400743D01*
X928317Y-400669D01*
X928160Y-400614D01*
X927975Y-400567D01*
X927772Y-400549D01*
X927762D01*
X927744D01*
X927716D01*
X927679Y-400558D01*
X927577Y-400567D01*
X927457Y-400595D01*
X927309Y-400632D01*
X927161Y-400697D01*
X927013Y-400789D01*
X926875Y-400910D01*
X926856Y-400928D01*
X926819Y-400974D01*
X926764Y-401048D01*
X926699Y-401150D01*
X926634Y-401279D01*
X926579Y-401437D01*
X926542Y-401612D01*
X926523Y-401806D01*
Y-401889D01*
X926533Y-401954D01*
X926542Y-402037D01*
X926560Y-402130D01*
X926579Y-402241D01*
X926607Y-402361D01*
X925913Y-402269D01*
Y-402222D01*
X925922Y-402185D01*
Y-402065D01*
X925904Y-401964D01*
X925885Y-401843D01*
X925858Y-401705D01*
X925811Y-401547D01*
X925747Y-401399D01*
X925664Y-401242D01*
Y-401233D01*
X925654Y-401224D01*
X925617Y-401178D01*
X925553Y-401113D01*
X925469Y-401039D01*
X925349Y-400965D01*
X925210Y-400900D01*
X925053Y-400854D01*
X924961Y-400835D01*
X924859D01*
X924850D01*
X924841D01*
X924785D01*
X924711Y-400854D01*
X924610Y-400872D01*
X924499Y-400910D01*
X924378Y-400956D01*
X924258Y-401030D01*
X924147Y-401131D01*
X924138Y-401141D01*
X924101Y-401187D01*
X924055Y-401252D01*
X923999Y-401335D01*
X923953Y-401446D01*
X923907Y-401575D01*
X923870Y-401723D01*
X923861Y-401889D01*
Y-401964D01*
X923879Y-402047D01*
X923898Y-402158D01*
X923935Y-402278D01*
X923981Y-402398D01*
X924055Y-402528D01*
X924147Y-402648D01*
X924156Y-402657D01*
X924203Y-402694D01*
X924268Y-402749D01*
X924360Y-402814D01*
X924480Y-402879D01*
X924628Y-402943D01*
X924804Y-402999D01*
X925007Y-403036D01*
X924868Y-403822D01*
X924859D01*
X924831Y-403813D01*
X924794Y-403803D01*
X924739Y-403794D01*
X924674Y-403776D01*
X924600Y-403748D01*
X924425Y-403692D01*
X924221Y-403600D01*
X924018Y-403489D01*
X923824Y-403350D01*
X923648Y-403175D01*
X923639Y-403165D01*
X923630Y-403147D01*
X923611Y-403119D01*
X923583Y-403082D01*
X923546Y-403036D01*
X923509Y-402971D01*
X923472Y-402906D01*
X923426Y-402823D01*
X923352Y-402638D01*
X923278Y-402426D01*
X923232Y-402176D01*
X923214Y-402047D01*
Y-401816D01*
X923223Y-401714D01*
X923241Y-401594D01*
X923269Y-401446D01*
X923315Y-401279D01*
X923371Y-401113D01*
X923445Y-400947D01*
Y-400937D01*
X923454Y-400928D01*
X923482Y-400872D01*
X923537Y-400789D01*
X923602Y-400697D01*
X923694Y-400586D01*
X923796Y-400475D01*
X923916Y-400364D01*
X924055Y-400271D01*
X924073Y-400262D01*
X924120Y-400235D01*
X924203Y-400198D01*
X924305Y-400151D01*
X924425Y-400105D01*
X924563Y-400068D01*
X924721Y-400040D01*
X924878Y-400031D01*
X924896D01*
X924952D01*
X925026Y-400040D01*
X925127Y-400059D01*
X925247Y-400087D01*
X925377Y-400133D01*
X925506Y-400188D01*
X925636Y-400262D01*
X925654Y-400271D01*
X925691Y-400299D01*
X925756Y-400355D01*
X925830Y-400429D01*
X925913Y-400521D01*
X926006Y-400632D01*
X926089Y-400762D01*
X926172Y-400919D01*
Y-400910D01*
X926181Y-400891D01*
X926191Y-400863D01*
X926200Y-400826D01*
X926237Y-400725D01*
X926292Y-400595D01*
X926366Y-400447D01*
X926459Y-400299D01*
X926579Y-400161D01*
X926718Y-400031D01*
X926736Y-400022D01*
X926792Y-399985D01*
X926884Y-399930D01*
X927004Y-399874D01*
X927152Y-399818D01*
X927328Y-399763D01*
X927531Y-399726D01*
X927753Y-399717D01*
X927762D01*
X927790D01*
X927836D01*
X927892Y-399726D01*
D02*
G37*
G36*
X927809Y-404987D02*
X927883D01*
X928058Y-405005D01*
X928262Y-405024D01*
X928474Y-405061D01*
X928668Y-405116D01*
X928853Y-405181D01*
X928863D01*
X928872Y-405190D01*
X928927Y-405218D01*
X929001Y-405264D01*
X929103Y-405329D01*
X929205Y-405421D01*
X929316Y-405523D01*
X929426Y-405653D01*
X929519Y-405800D01*
X929528Y-405819D01*
X929556Y-405874D01*
X929593Y-405958D01*
X929630Y-406078D01*
X929676Y-406226D01*
X929713Y-406392D01*
X929741Y-406577D01*
X929750Y-406780D01*
Y-406864D01*
X929741Y-406919D01*
X929732Y-406993D01*
X929722Y-407067D01*
X929685Y-407261D01*
X929630Y-407465D01*
X929547Y-407677D01*
X929491Y-407788D01*
X929426Y-407890D01*
X929353Y-407982D01*
X929269Y-408075D01*
X929260Y-408084D01*
X929251Y-408093D01*
X929214Y-408112D01*
X929177Y-408139D01*
X929131Y-408176D01*
X929066Y-408214D01*
X928992Y-408251D01*
X928909Y-408297D01*
X928816Y-408334D01*
X928705Y-408371D01*
X928594Y-408408D01*
X928465Y-408445D01*
X928326Y-408463D01*
X928169Y-408491D01*
X928012Y-408500D01*
X927836D01*
X927725Y-407733D01*
X927735D01*
X927753D01*
X927790D01*
X927846Y-407724D01*
X927901Y-407714D01*
X927966D01*
X928123Y-407687D01*
X928289Y-407659D01*
X928456Y-407603D01*
X928604Y-407548D01*
X928668Y-407511D01*
X928724Y-407465D01*
X928733Y-407455D01*
X928761Y-407418D01*
X928807Y-407363D01*
X928853Y-407289D01*
X928909Y-407187D01*
X928946Y-407076D01*
X928983Y-406938D01*
X928992Y-406790D01*
Y-406734D01*
X928983Y-406679D01*
X928973Y-406595D01*
X928955Y-406512D01*
X928936Y-406420D01*
X928900Y-406327D01*
X928853Y-406235D01*
X928844Y-406226D01*
X928826Y-406198D01*
X928789Y-406161D01*
X928752Y-406105D01*
X928687Y-406059D01*
X928622Y-406004D01*
X928548Y-405958D01*
X928456Y-405921D01*
X928447D01*
X928410Y-405902D01*
X928345Y-405893D01*
X928262Y-405874D01*
X928151Y-405856D01*
X928012Y-405847D01*
X927846Y-405828D01*
X927651D01*
X923241D01*
Y-404977D01*
X927605D01*
X927614D01*
X927642D01*
X927679D01*
X927735D01*
X927809Y-404987D01*
D02*
G37*
G36*
X929639Y-532051D02*
X929630D01*
X929593D01*
X929538D01*
X929464Y-532042D01*
X929380Y-532033D01*
X929288Y-532014D01*
X929195Y-531996D01*
X929094Y-531959D01*
X929084D01*
X929075Y-531949D01*
X929020Y-531931D01*
X928936Y-531894D01*
X928826Y-531838D01*
X928696Y-531764D01*
X928548Y-531672D01*
X928400Y-531570D01*
X928243Y-531441D01*
X928234D01*
X928225Y-531422D01*
X928169Y-531376D01*
X928086Y-531293D01*
X927966Y-531173D01*
X927827Y-531034D01*
X927661Y-530858D01*
X927476Y-530646D01*
X927281Y-530415D01*
X927272Y-530405D01*
X927245Y-530368D01*
X927198Y-530313D01*
X927143Y-530248D01*
X927069Y-530165D01*
X926986Y-530063D01*
X926893Y-529962D01*
X926792Y-529841D01*
X926570Y-529610D01*
X926348Y-529379D01*
X926237Y-529268D01*
X926126Y-529166D01*
X926024Y-529074D01*
X925922Y-529000D01*
X925913D01*
X925904Y-528982D01*
X925876Y-528963D01*
X925839Y-528945D01*
X925738Y-528880D01*
X925617Y-528806D01*
X925469Y-528741D01*
X925312Y-528676D01*
X925137Y-528639D01*
X924970Y-528621D01*
X924961D01*
X924952D01*
X924896Y-528630D01*
X924804Y-528639D01*
X924702Y-528667D01*
X924573Y-528704D01*
X924443Y-528769D01*
X924314Y-528852D01*
X924184Y-528963D01*
X924166Y-528982D01*
X924129Y-529028D01*
X924083Y-529092D01*
X924018Y-529194D01*
X923962Y-529324D01*
X923907Y-529472D01*
X923870Y-529647D01*
X923861Y-529841D01*
Y-529897D01*
X923870Y-529934D01*
X923879Y-530045D01*
X923907Y-530174D01*
X923944Y-530313D01*
X924009Y-530470D01*
X924092Y-530618D01*
X924203Y-530757D01*
X924221Y-530775D01*
X924268Y-530812D01*
X924341Y-530868D01*
X924452Y-530923D01*
X924582Y-530988D01*
X924748Y-531043D01*
X924933Y-531080D01*
X925146Y-531099D01*
X925063Y-531903D01*
X925053D01*
X925026Y-531894D01*
X924979D01*
X924915Y-531885D01*
X924841Y-531866D01*
X924758Y-531848D01*
X924656Y-531820D01*
X924554Y-531792D01*
X924332Y-531718D01*
X924110Y-531607D01*
X923999Y-531543D01*
X923888Y-531459D01*
X923787Y-531376D01*
X923694Y-531284D01*
X923685Y-531274D01*
X923676Y-531256D01*
X923648Y-531228D01*
X923620Y-531182D01*
X923583Y-531127D01*
X923546Y-531062D01*
X923500Y-530988D01*
X923454Y-530895D01*
X923408Y-530794D01*
X923361Y-530683D01*
X923324Y-530563D01*
X923287Y-530433D01*
X923260Y-530294D01*
X923232Y-530146D01*
X923223Y-529989D01*
X923214Y-529823D01*
Y-529730D01*
X923223Y-529666D01*
X923232Y-529592D01*
X923241Y-529499D01*
X923260Y-529398D01*
X923278Y-529296D01*
X923343Y-529055D01*
X923435Y-528815D01*
X923491Y-528695D01*
X923556Y-528575D01*
X923639Y-528464D01*
X923731Y-528362D01*
X923740Y-528353D01*
X923750Y-528334D01*
X923787Y-528316D01*
X923824Y-528279D01*
X923870Y-528233D01*
X923935Y-528186D01*
X923999Y-528140D01*
X924083Y-528085D01*
X924258Y-527992D01*
X924480Y-527900D01*
X924591Y-527863D01*
X924721Y-527844D01*
X924850Y-527826D01*
X924989Y-527817D01*
X925007D01*
X925053D01*
X925127Y-527826D01*
X925229Y-527835D01*
X925340Y-527854D01*
X925469Y-527891D01*
X925608Y-527928D01*
X925747Y-527983D01*
X925765Y-527992D01*
X925811Y-528011D01*
X925885Y-528048D01*
X925987Y-528103D01*
X926098Y-528177D01*
X926237Y-528270D01*
X926376Y-528381D01*
X926533Y-528510D01*
X926551Y-528529D01*
X926607Y-528575D01*
X926653Y-528621D01*
X926699Y-528667D01*
X926755Y-528723D01*
X926829Y-528797D01*
X926902Y-528871D01*
X926986Y-528963D01*
X927078Y-529055D01*
X927180Y-529166D01*
X927281Y-529287D01*
X927402Y-529416D01*
X927522Y-529564D01*
X927651Y-529712D01*
X927661Y-529721D01*
X927679Y-529740D01*
X927707Y-529777D01*
X927744Y-529823D01*
X927799Y-529878D01*
X927855Y-529943D01*
X927975Y-530091D01*
X928114Y-530248D01*
X928252Y-530396D01*
X928372Y-530526D01*
X928419Y-530581D01*
X928465Y-530627D01*
X928474Y-530636D01*
X928502Y-530664D01*
X928539Y-530701D01*
X928594Y-530747D01*
X928659Y-530794D01*
X928724Y-530849D01*
X928881Y-530960D01*
Y-527807D01*
X929639D01*
Y-532051D01*
D02*
G37*
G36*
X927892Y-532726D02*
X927966Y-532735D01*
X928049Y-532754D01*
X928141Y-532772D01*
X928243Y-532791D01*
X928465Y-532865D01*
X928585Y-532920D01*
X928696Y-532976D01*
X928816Y-533050D01*
X928936Y-533133D01*
X929057Y-533225D01*
X929168Y-533336D01*
X929177Y-533345D01*
X929195Y-533364D01*
X929223Y-533401D01*
X929260Y-533447D01*
X929306Y-533503D01*
X929352Y-533577D01*
X929408Y-533660D01*
X929454Y-533761D01*
X929510Y-533863D01*
X929565Y-533983D01*
X929611Y-534104D01*
X929658Y-534242D01*
X929695Y-534390D01*
X929722Y-534547D01*
X929741Y-534705D01*
X929750Y-534880D01*
Y-534963D01*
X929741Y-535019D01*
X929732Y-535093D01*
X929722Y-535176D01*
X929704Y-535269D01*
X929685Y-535370D01*
X929630Y-535592D01*
X929538Y-535823D01*
X929482Y-535943D01*
X929417Y-536054D01*
X929334Y-536165D01*
X929251Y-536276D01*
X929242Y-536286D01*
X929223Y-536304D01*
X929195Y-536332D01*
X929158Y-536360D01*
X929112Y-536406D01*
X929047Y-536452D01*
X928983Y-536507D01*
X928900Y-536563D01*
X928807Y-536618D01*
X928715Y-536674D01*
X928493Y-536776D01*
X928234Y-536859D01*
X928095Y-536887D01*
X927947Y-536905D01*
X927846Y-536119D01*
X927855D01*
X927873Y-536110D01*
X927910Y-536101D01*
X927956Y-536091D01*
X928012Y-536082D01*
X928077Y-536064D01*
X928215Y-536017D01*
X928382Y-535953D01*
X928539Y-535869D01*
X928687Y-535777D01*
X928816Y-535666D01*
X928826Y-535648D01*
X928863Y-535611D01*
X928909Y-535537D01*
X928955Y-535444D01*
X929010Y-535333D01*
X929057Y-535195D01*
X929094Y-535037D01*
X929103Y-534871D01*
Y-534815D01*
X929094Y-534779D01*
X929084Y-534677D01*
X929057Y-534547D01*
X929010Y-534399D01*
X928946Y-534242D01*
X928853Y-534085D01*
X928724Y-533937D01*
X928705Y-533919D01*
X928650Y-533872D01*
X928567Y-533817D01*
X928456Y-533743D01*
X928317Y-533669D01*
X928160Y-533614D01*
X927975Y-533567D01*
X927772Y-533549D01*
X927762D01*
X927744D01*
X927716D01*
X927679Y-533558D01*
X927577Y-533567D01*
X927457Y-533595D01*
X927309Y-533632D01*
X927161Y-533697D01*
X927013Y-533789D01*
X926875Y-533909D01*
X926856Y-533928D01*
X926819Y-533974D01*
X926764Y-534048D01*
X926699Y-534150D01*
X926634Y-534279D01*
X926579Y-534436D01*
X926542Y-534612D01*
X926523Y-534806D01*
Y-534889D01*
X926533Y-534954D01*
X926542Y-535037D01*
X926560Y-535130D01*
X926579Y-535241D01*
X926607Y-535361D01*
X925913Y-535269D01*
Y-535222D01*
X925922Y-535185D01*
Y-535065D01*
X925904Y-534963D01*
X925885Y-534843D01*
X925858Y-534705D01*
X925811Y-534547D01*
X925747Y-534399D01*
X925664Y-534242D01*
Y-534233D01*
X925654Y-534224D01*
X925617Y-534178D01*
X925553Y-534113D01*
X925469Y-534039D01*
X925349Y-533965D01*
X925210Y-533900D01*
X925053Y-533854D01*
X924961Y-533835D01*
X924859D01*
X924850D01*
X924841D01*
X924785D01*
X924711Y-533854D01*
X924610Y-533872D01*
X924499Y-533909D01*
X924378Y-533956D01*
X924258Y-534030D01*
X924147Y-534131D01*
X924138Y-534141D01*
X924101Y-534187D01*
X924055Y-534252D01*
X923999Y-534335D01*
X923953Y-534446D01*
X923907Y-534575D01*
X923870Y-534723D01*
X923861Y-534889D01*
Y-534963D01*
X923879Y-535047D01*
X923898Y-535158D01*
X923935Y-535278D01*
X923981Y-535398D01*
X924055Y-535527D01*
X924147Y-535648D01*
X924156Y-535657D01*
X924203Y-535694D01*
X924268Y-535749D01*
X924360Y-535814D01*
X924480Y-535879D01*
X924628Y-535943D01*
X924804Y-535999D01*
X925007Y-536036D01*
X924868Y-536822D01*
X924859D01*
X924831Y-536813D01*
X924794Y-536803D01*
X924739Y-536794D01*
X924674Y-536776D01*
X924600Y-536748D01*
X924425Y-536692D01*
X924221Y-536600D01*
X924018Y-536489D01*
X923824Y-536350D01*
X923648Y-536175D01*
X923639Y-536165D01*
X923630Y-536147D01*
X923611Y-536119D01*
X923583Y-536082D01*
X923546Y-536036D01*
X923509Y-535971D01*
X923472Y-535906D01*
X923426Y-535823D01*
X923352Y-535638D01*
X923278Y-535426D01*
X923232Y-535176D01*
X923214Y-535047D01*
Y-534815D01*
X923223Y-534714D01*
X923241Y-534594D01*
X923269Y-534446D01*
X923315Y-534279D01*
X923371Y-534113D01*
X923445Y-533946D01*
Y-533937D01*
X923454Y-533928D01*
X923482Y-533872D01*
X923537Y-533789D01*
X923602Y-533697D01*
X923694Y-533586D01*
X923796Y-533475D01*
X923916Y-533364D01*
X924055Y-533271D01*
X924073Y-533262D01*
X924119Y-533234D01*
X924203Y-533198D01*
X924305Y-533151D01*
X924425Y-533105D01*
X924563Y-533068D01*
X924721Y-533040D01*
X924878Y-533031D01*
X924896D01*
X924952D01*
X925026Y-533040D01*
X925127Y-533059D01*
X925247Y-533087D01*
X925377Y-533133D01*
X925506Y-533188D01*
X925636Y-533262D01*
X925654Y-533271D01*
X925691Y-533299D01*
X925756Y-533355D01*
X925830Y-533429D01*
X925913Y-533521D01*
X926006Y-533632D01*
X926089Y-533761D01*
X926172Y-533919D01*
Y-533909D01*
X926181Y-533891D01*
X926191Y-533863D01*
X926200Y-533826D01*
X926237Y-533725D01*
X926292Y-533595D01*
X926366Y-533447D01*
X926459Y-533299D01*
X926579Y-533161D01*
X926718Y-533031D01*
X926736Y-533022D01*
X926792Y-532985D01*
X926884Y-532929D01*
X927004Y-532874D01*
X927152Y-532818D01*
X927328Y-532763D01*
X927531Y-532726D01*
X927753Y-532717D01*
X927762D01*
X927790D01*
X927836D01*
X927892Y-532726D01*
D02*
G37*
G36*
X927809Y-537987D02*
X927883D01*
X928058Y-538005D01*
X928262Y-538024D01*
X928474Y-538061D01*
X928668Y-538116D01*
X928853Y-538181D01*
X928863D01*
X928872Y-538190D01*
X928927Y-538218D01*
X929001Y-538264D01*
X929103Y-538329D01*
X929205Y-538421D01*
X929316Y-538523D01*
X929426Y-538652D01*
X929519Y-538800D01*
X929528Y-538819D01*
X929556Y-538874D01*
X929593Y-538958D01*
X929630Y-539078D01*
X929676Y-539226D01*
X929713Y-539392D01*
X929741Y-539577D01*
X929750Y-539780D01*
Y-539864D01*
X929741Y-539919D01*
X929732Y-539993D01*
X929722Y-540067D01*
X929685Y-540261D01*
X929630Y-540465D01*
X929547Y-540677D01*
X929491Y-540788D01*
X929426Y-540890D01*
X929352Y-540982D01*
X929269Y-541075D01*
X929260Y-541084D01*
X929251Y-541093D01*
X929214Y-541112D01*
X929177Y-541139D01*
X929131Y-541176D01*
X929066Y-541213D01*
X928992Y-541250D01*
X928909Y-541297D01*
X928816Y-541334D01*
X928705Y-541371D01*
X928594Y-541408D01*
X928465Y-541445D01*
X928326Y-541463D01*
X928169Y-541491D01*
X928012Y-541500D01*
X927836D01*
X927725Y-540733D01*
X927735D01*
X927753D01*
X927790D01*
X927846Y-540723D01*
X927901Y-540714D01*
X927966D01*
X928123Y-540686D01*
X928289Y-540659D01*
X928456Y-540603D01*
X928604Y-540548D01*
X928668Y-540511D01*
X928724Y-540465D01*
X928733Y-540455D01*
X928761Y-540418D01*
X928807Y-540363D01*
X928853Y-540289D01*
X928909Y-540187D01*
X928946Y-540076D01*
X928983Y-539938D01*
X928992Y-539790D01*
Y-539734D01*
X928983Y-539679D01*
X928973Y-539595D01*
X928955Y-539512D01*
X928936Y-539420D01*
X928900Y-539327D01*
X928853Y-539235D01*
X928844Y-539226D01*
X928826Y-539198D01*
X928789Y-539161D01*
X928752Y-539105D01*
X928687Y-539059D01*
X928622Y-539004D01*
X928548Y-538958D01*
X928456Y-538921D01*
X928447D01*
X928410Y-538902D01*
X928345Y-538893D01*
X928262Y-538874D01*
X928151Y-538856D01*
X928012Y-538847D01*
X927846Y-538828D01*
X927651D01*
X923241D01*
Y-537977D01*
X927605D01*
X927614D01*
X927642D01*
X927679D01*
X927735D01*
X927809Y-537987D01*
D02*
G37*
G36*
X927725Y-633752D02*
X927781D01*
X927929Y-633780D01*
X928104Y-633807D01*
X928289Y-633854D01*
X928493Y-633918D01*
X928687Y-634011D01*
X928696D01*
X928705Y-634020D01*
X928733Y-634039D01*
X928770Y-634057D01*
X928863Y-634113D01*
X928983Y-634196D01*
X929112Y-634297D01*
X929242Y-634418D01*
X929371Y-634566D01*
X929482Y-634723D01*
Y-634732D01*
X929491Y-634741D01*
X929510Y-634769D01*
X929519Y-634806D01*
X929565Y-634898D01*
X929611Y-635019D01*
X929667Y-635176D01*
X929704Y-635351D01*
X929741Y-635546D01*
X929750Y-635758D01*
Y-635804D01*
X929741Y-635851D01*
Y-635925D01*
X929732Y-636008D01*
X929713Y-636100D01*
X929685Y-636211D01*
X929658Y-636322D01*
X929621Y-636452D01*
X929574Y-636581D01*
X929519Y-636711D01*
X929445Y-636849D01*
X929362Y-636979D01*
X929269Y-637108D01*
X929158Y-637238D01*
X929029Y-637358D01*
X929020Y-637367D01*
X928992Y-637385D01*
X928955Y-637413D01*
X928890Y-637450D01*
X928807Y-637506D01*
X928715Y-637552D01*
X928594Y-637607D01*
X928465Y-637663D01*
X928308Y-637728D01*
X928132Y-637783D01*
X927938Y-637829D01*
X927725Y-637876D01*
X927485Y-637922D01*
X927226Y-637949D01*
X926949Y-637968D01*
X926653Y-637977D01*
X926644D01*
X926634D01*
X926607D01*
X926570D01*
X926477Y-637968D01*
X926348D01*
X926200Y-637959D01*
X926024Y-637940D01*
X925830Y-637922D01*
X925617Y-637894D01*
X925405Y-637857D01*
X925173Y-637811D01*
X924952Y-637755D01*
X924730Y-637691D01*
X924517Y-637607D01*
X924314Y-637515D01*
X924119Y-637413D01*
X923953Y-637293D01*
X923944Y-637284D01*
X923925Y-637265D01*
X923888Y-637228D01*
X923833Y-637182D01*
X923777Y-637127D01*
X923722Y-637053D01*
X923648Y-636960D01*
X923583Y-636868D01*
X923519Y-636757D01*
X923445Y-636637D01*
X923389Y-636498D01*
X923324Y-636359D01*
X923278Y-636202D01*
X923241Y-636036D01*
X923223Y-635860D01*
X923214Y-635675D01*
Y-635601D01*
X923223Y-635546D01*
Y-635481D01*
X923232Y-635407D01*
X923269Y-635231D01*
X923315Y-635037D01*
X923389Y-634834D01*
X923500Y-634630D01*
X923565Y-634529D01*
X923639Y-634436D01*
X923648Y-634427D01*
X923657Y-634418D01*
X923685Y-634390D01*
X923713Y-634362D01*
X923759Y-634316D01*
X923814Y-634279D01*
X923944Y-634177D01*
X924110Y-634076D01*
X924314Y-633983D01*
X924545Y-633900D01*
X924804Y-633844D01*
X924868Y-634630D01*
X924859D01*
X924850Y-634640D01*
X924794Y-634649D01*
X924711Y-634677D01*
X924610Y-634714D01*
X924499Y-634751D01*
X924388Y-634806D01*
X924286Y-634871D01*
X924203Y-634935D01*
X924184Y-634954D01*
X924147Y-634991D01*
X924092Y-635056D01*
X924027Y-635148D01*
X923972Y-635268D01*
X923916Y-635398D01*
X923879Y-635555D01*
X923861Y-635721D01*
Y-635786D01*
X923870Y-635860D01*
X923888Y-635943D01*
X923916Y-636054D01*
X923953Y-636165D01*
X923999Y-636276D01*
X924073Y-636387D01*
X924083Y-636405D01*
X924119Y-636452D01*
X924184Y-636516D01*
X924277Y-636600D01*
X924388Y-636692D01*
X924517Y-636794D01*
X924684Y-636886D01*
X924868Y-636979D01*
X924878D01*
X924896Y-636988D01*
X924924Y-636997D01*
X924961Y-637016D01*
X925016Y-637025D01*
X925081Y-637043D01*
X925155Y-637062D01*
X925247Y-637080D01*
X925349Y-637108D01*
X925460Y-637127D01*
X925580Y-637145D01*
X925710Y-637154D01*
X925858Y-637173D01*
X926006Y-637182D01*
X926172Y-637191D01*
X926339D01*
X926329Y-637182D01*
X926274Y-637145D01*
X926200Y-637080D01*
X926107Y-636997D01*
X925996Y-636905D01*
X925895Y-636785D01*
X925793Y-636655D01*
X925701Y-636507D01*
Y-636498D01*
X925691Y-636489D01*
X925664Y-636433D01*
X925636Y-636350D01*
X925590Y-636239D01*
X925553Y-636110D01*
X925525Y-635962D01*
X925497Y-635804D01*
X925488Y-635638D01*
Y-635564D01*
X925497Y-635509D01*
X925506Y-635435D01*
X925516Y-635361D01*
X925534Y-635268D01*
X925562Y-635176D01*
X925627Y-634963D01*
X925673Y-634852D01*
X925738Y-634741D01*
X925802Y-634630D01*
X925876Y-634510D01*
X925969Y-634399D01*
X926070Y-634297D01*
X926080Y-634288D01*
X926098Y-634270D01*
X926126Y-634242D01*
X926172Y-634214D01*
X926237Y-634168D01*
X926301Y-634122D01*
X926385Y-634076D01*
X926477Y-634020D01*
X926579Y-633965D01*
X926690Y-633918D01*
X926819Y-633872D01*
X926949Y-633826D01*
X927087Y-633798D01*
X927245Y-633770D01*
X927402Y-633752D01*
X927568Y-633743D01*
X927577D01*
X927596D01*
X927624D01*
X927670D01*
X927725Y-633752D01*
D02*
G37*
G36*
X929639Y-643025D02*
X929630D01*
X929593D01*
X929538D01*
X929464Y-643016D01*
X929380Y-643007D01*
X929288Y-642988D01*
X929195Y-642970D01*
X929094Y-642933D01*
X929084D01*
X929075Y-642924D01*
X929020Y-642905D01*
X928936Y-642868D01*
X928826Y-642813D01*
X928696Y-642739D01*
X928548Y-642646D01*
X928400Y-642544D01*
X928243Y-642415D01*
X928234D01*
X928225Y-642397D01*
X928169Y-642350D01*
X928086Y-642267D01*
X927966Y-642147D01*
X927827Y-642008D01*
X927661Y-641833D01*
X927476Y-641620D01*
X927281Y-641389D01*
X927272Y-641380D01*
X927245Y-641343D01*
X927198Y-641287D01*
X927143Y-641222D01*
X927069Y-641139D01*
X926986Y-641038D01*
X926893Y-640936D01*
X926792Y-640816D01*
X926570Y-640584D01*
X926348Y-640353D01*
X926237Y-640242D01*
X926126Y-640141D01*
X926024Y-640048D01*
X925922Y-639974D01*
X925913D01*
X925904Y-639956D01*
X925876Y-639937D01*
X925839Y-639919D01*
X925738Y-639854D01*
X925617Y-639780D01*
X925469Y-639715D01*
X925312Y-639651D01*
X925137Y-639614D01*
X924970Y-639595D01*
X924961D01*
X924952D01*
X924896Y-639604D01*
X924804Y-639614D01*
X924702Y-639641D01*
X924573Y-639678D01*
X924443Y-639743D01*
X924314Y-639826D01*
X924184Y-639937D01*
X924166Y-639956D01*
X924129Y-640002D01*
X924083Y-640067D01*
X924018Y-640168D01*
X923962Y-640298D01*
X923907Y-640446D01*
X923870Y-640621D01*
X923861Y-640816D01*
Y-640871D01*
X923870Y-640908D01*
X923879Y-641019D01*
X923907Y-641148D01*
X923944Y-641287D01*
X924009Y-641444D01*
X924092Y-641592D01*
X924203Y-641731D01*
X924221Y-641749D01*
X924268Y-641786D01*
X924341Y-641842D01*
X924452Y-641897D01*
X924582Y-641962D01*
X924748Y-642018D01*
X924933Y-642055D01*
X925146Y-642073D01*
X925063Y-642877D01*
X925053D01*
X925026Y-642868D01*
X924979D01*
X924915Y-642859D01*
X924841Y-642840D01*
X924758Y-642822D01*
X924656Y-642794D01*
X924554Y-642766D01*
X924332Y-642692D01*
X924110Y-642581D01*
X923999Y-642517D01*
X923888Y-642434D01*
X923787Y-642350D01*
X923694Y-642258D01*
X923685Y-642249D01*
X923676Y-642230D01*
X923648Y-642202D01*
X923620Y-642156D01*
X923583Y-642101D01*
X923546Y-642036D01*
X923500Y-641962D01*
X923454Y-641870D01*
X923408Y-641768D01*
X923361Y-641657D01*
X923324Y-641537D01*
X923287Y-641407D01*
X923260Y-641269D01*
X923232Y-641121D01*
X923223Y-640964D01*
X923214Y-640797D01*
Y-640705D01*
X923223Y-640640D01*
X923232Y-640566D01*
X923241Y-640473D01*
X923260Y-640372D01*
X923278Y-640270D01*
X923343Y-640030D01*
X923435Y-639789D01*
X923491Y-639669D01*
X923556Y-639549D01*
X923639Y-639438D01*
X923731Y-639336D01*
X923740Y-639327D01*
X923750Y-639309D01*
X923787Y-639290D01*
X923824Y-639253D01*
X923870Y-639207D01*
X923935Y-639161D01*
X923999Y-639114D01*
X924083Y-639059D01*
X924258Y-638966D01*
X924480Y-638874D01*
X924591Y-638837D01*
X924721Y-638819D01*
X924850Y-638800D01*
X924989Y-638791D01*
X925007D01*
X925053D01*
X925127Y-638800D01*
X925229Y-638809D01*
X925340Y-638828D01*
X925469Y-638865D01*
X925608Y-638902D01*
X925747Y-638957D01*
X925765Y-638966D01*
X925811Y-638985D01*
X925885Y-639022D01*
X925987Y-639077D01*
X926098Y-639151D01*
X926237Y-639244D01*
X926376Y-639355D01*
X926533Y-639484D01*
X926551Y-639503D01*
X926607Y-639549D01*
X926653Y-639595D01*
X926699Y-639641D01*
X926755Y-639697D01*
X926829Y-639771D01*
X926902Y-639845D01*
X926986Y-639937D01*
X927078Y-640030D01*
X927180Y-640141D01*
X927281Y-640261D01*
X927402Y-640390D01*
X927522Y-640538D01*
X927651Y-640686D01*
X927661Y-640695D01*
X927679Y-640714D01*
X927707Y-640751D01*
X927744Y-640797D01*
X927799Y-640853D01*
X927855Y-640917D01*
X927975Y-641065D01*
X928114Y-641222D01*
X928252Y-641370D01*
X928372Y-641500D01*
X928419Y-641555D01*
X928465Y-641601D01*
X928474Y-641611D01*
X928502Y-641638D01*
X928539Y-641675D01*
X928594Y-641722D01*
X928659Y-641768D01*
X928724Y-641823D01*
X928881Y-641934D01*
Y-638782D01*
X929639D01*
Y-643025D01*
D02*
G37*
G36*
X927809Y-643987D02*
X927883D01*
X928058Y-644005D01*
X928262Y-644024D01*
X928474Y-644061D01*
X928668Y-644116D01*
X928853Y-644181D01*
X928863D01*
X928872Y-644190D01*
X928927Y-644218D01*
X929001Y-644264D01*
X929103Y-644329D01*
X929205Y-644421D01*
X929316Y-644523D01*
X929426Y-644652D01*
X929519Y-644800D01*
X929528Y-644819D01*
X929556Y-644874D01*
X929593Y-644958D01*
X929630Y-645078D01*
X929676Y-645226D01*
X929713Y-645392D01*
X929741Y-645577D01*
X929750Y-645780D01*
Y-645864D01*
X929741Y-645919D01*
X929732Y-645993D01*
X929722Y-646067D01*
X929685Y-646261D01*
X929630Y-646465D01*
X929547Y-646677D01*
X929491Y-646788D01*
X929426Y-646890D01*
X929352Y-646982D01*
X929269Y-647075D01*
X929260Y-647084D01*
X929251Y-647093D01*
X929214Y-647112D01*
X929177Y-647140D01*
X929131Y-647177D01*
X929066Y-647214D01*
X928992Y-647251D01*
X928909Y-647297D01*
X928816Y-647334D01*
X928705Y-647371D01*
X928594Y-647408D01*
X928465Y-647445D01*
X928326Y-647463D01*
X928169Y-647491D01*
X928012Y-647500D01*
X927836D01*
X927725Y-646733D01*
X927735D01*
X927753D01*
X927790D01*
X927846Y-646723D01*
X927901Y-646714D01*
X927966D01*
X928123Y-646686D01*
X928289Y-646659D01*
X928456Y-646603D01*
X928604Y-646548D01*
X928668Y-646511D01*
X928724Y-646465D01*
X928733Y-646455D01*
X928761Y-646418D01*
X928807Y-646363D01*
X928853Y-646289D01*
X928909Y-646187D01*
X928946Y-646076D01*
X928983Y-645938D01*
X928992Y-645790D01*
Y-645734D01*
X928983Y-645679D01*
X928973Y-645596D01*
X928955Y-645512D01*
X928936Y-645420D01*
X928900Y-645327D01*
X928853Y-645235D01*
X928844Y-645226D01*
X928826Y-645198D01*
X928789Y-645161D01*
X928752Y-645106D01*
X928687Y-645059D01*
X928622Y-645004D01*
X928548Y-644958D01*
X928456Y-644921D01*
X928447D01*
X928410Y-644902D01*
X928345Y-644893D01*
X928262Y-644874D01*
X928151Y-644856D01*
X928012Y-644847D01*
X927846Y-644828D01*
X927651D01*
X923241D01*
Y-643978D01*
X927605D01*
X927614D01*
X927642D01*
X927679D01*
X927735D01*
X927809Y-643987D01*
D02*
G37*
G36*
X696022Y-920105D02*
Y-920114D01*
Y-920142D01*
Y-920179D01*
Y-920235D01*
X696013Y-920309D01*
Y-920383D01*
X695995Y-920558D01*
X695976Y-920762D01*
X695939Y-920974D01*
X695884Y-921168D01*
X695819Y-921353D01*
Y-921363D01*
X695810Y-921372D01*
X695782Y-921427D01*
X695736Y-921501D01*
X695671Y-921603D01*
X695579Y-921705D01*
X695477Y-921816D01*
X695348Y-921927D01*
X695200Y-922019D01*
X695181Y-922028D01*
X695126Y-922056D01*
X695042Y-922093D01*
X694922Y-922130D01*
X694774Y-922176D01*
X694608Y-922213D01*
X694423Y-922241D01*
X694220Y-922250D01*
X694136D01*
X694081Y-922241D01*
X694007Y-922232D01*
X693933Y-922222D01*
X693739Y-922185D01*
X693535Y-922130D01*
X693323Y-922047D01*
X693212Y-921991D01*
X693110Y-921927D01*
X693018Y-921853D01*
X692925Y-921769D01*
X692916Y-921760D01*
X692907Y-921751D01*
X692888Y-921714D01*
X692860Y-921677D01*
X692823Y-921631D01*
X692786Y-921566D01*
X692749Y-921492D01*
X692703Y-921409D01*
X692666Y-921316D01*
X692629Y-921205D01*
X692592Y-921094D01*
X692555Y-920965D01*
X692537Y-920826D01*
X692509Y-920669D01*
X692500Y-920512D01*
Y-920336D01*
X693267Y-920225D01*
Y-920235D01*
Y-920253D01*
Y-920290D01*
X693277Y-920346D01*
X693286Y-920401D01*
Y-920466D01*
X693314Y-920623D01*
X693341Y-920789D01*
X693397Y-920956D01*
X693452Y-921104D01*
X693489Y-921168D01*
X693535Y-921224D01*
X693545Y-921233D01*
X693582Y-921261D01*
X693637Y-921307D01*
X693711Y-921353D01*
X693813Y-921409D01*
X693924Y-921446D01*
X694062Y-921483D01*
X694210Y-921492D01*
X694266D01*
X694321Y-921483D01*
X694405Y-921473D01*
X694488Y-921455D01*
X694580Y-921436D01*
X694673Y-921400D01*
X694765Y-921353D01*
X694774Y-921344D01*
X694802Y-921326D01*
X694839Y-921289D01*
X694894Y-921252D01*
X694941Y-921187D01*
X694996Y-921122D01*
X695042Y-921048D01*
X695079Y-920956D01*
Y-920947D01*
X695098Y-920910D01*
X695107Y-920845D01*
X695126Y-920762D01*
X695144Y-920651D01*
X695153Y-920512D01*
X695172Y-920346D01*
Y-920151D01*
Y-915741D01*
X696022D01*
Y-920105D01*
D02*
G37*
G36*
X706257Y-916444D02*
X706248Y-916453D01*
X706230Y-916472D01*
X706193Y-916509D01*
X706156Y-916564D01*
X706100Y-916629D01*
X706026Y-916703D01*
X705952Y-916795D01*
X705869Y-916906D01*
X705786Y-917017D01*
X705684Y-917147D01*
X705582Y-917294D01*
X705481Y-917442D01*
X705370Y-917609D01*
X705259Y-917785D01*
X705148Y-917979D01*
X705037Y-918173D01*
X705028Y-918182D01*
X705009Y-918219D01*
X704981Y-918275D01*
X704935Y-918358D01*
X704889Y-918459D01*
X704834Y-918570D01*
X704769Y-918700D01*
X704704Y-918848D01*
X704630Y-919014D01*
X704547Y-919181D01*
X704473Y-919365D01*
X704399Y-919560D01*
X704251Y-919957D01*
X704112Y-920383D01*
Y-920392D01*
X704103Y-920419D01*
X704094Y-920466D01*
X704075Y-920521D01*
X704057Y-920595D01*
X704038Y-920688D01*
X704011Y-920789D01*
X703992Y-920900D01*
X703964Y-921030D01*
X703937Y-921168D01*
X703891Y-921464D01*
X703844Y-921788D01*
X703817Y-922139D01*
X703012D01*
Y-922130D01*
Y-922102D01*
Y-922065D01*
X703021Y-922010D01*
Y-921936D01*
X703031Y-921843D01*
X703040Y-921742D01*
X703049Y-921631D01*
X703068Y-921501D01*
X703086Y-921372D01*
X703114Y-921215D01*
X703142Y-921058D01*
X703169Y-920891D01*
X703206Y-920706D01*
X703299Y-920327D01*
Y-920318D01*
X703308Y-920281D01*
X703326Y-920225D01*
X703354Y-920142D01*
X703382Y-920050D01*
X703419Y-919939D01*
X703456Y-919809D01*
X703511Y-919671D01*
X703567Y-919513D01*
X703622Y-919356D01*
X703761Y-919005D01*
X703927Y-918635D01*
X704112Y-918265D01*
X704122Y-918256D01*
X704140Y-918219D01*
X704168Y-918173D01*
X704205Y-918099D01*
X704251Y-918016D01*
X704316Y-917914D01*
X704380Y-917803D01*
X704454Y-917683D01*
X704630Y-917415D01*
X704815Y-917137D01*
X705028Y-916851D01*
X705250Y-916583D01*
X702115D01*
Y-915825D01*
X706257D01*
Y-916444D01*
D02*
G37*
G36*
X699360Y-915723D02*
X699434Y-915732D01*
X699527Y-915741D01*
X699628Y-915760D01*
X699730Y-915778D01*
X699970Y-915843D01*
X700211Y-915935D01*
X700331Y-915991D01*
X700451Y-916056D01*
X700562Y-916139D01*
X700664Y-916231D01*
X700673Y-916240D01*
X700692Y-916250D01*
X700710Y-916287D01*
X700747Y-916324D01*
X700793Y-916370D01*
X700839Y-916435D01*
X700886Y-916499D01*
X700941Y-916583D01*
X701034Y-916758D01*
X701126Y-916980D01*
X701163Y-917091D01*
X701181Y-917221D01*
X701200Y-917350D01*
X701209Y-917489D01*
Y-917507D01*
Y-917553D01*
X701200Y-917627D01*
X701191Y-917729D01*
X701172Y-917840D01*
X701135Y-917969D01*
X701098Y-918108D01*
X701043Y-918247D01*
X701034Y-918265D01*
X701015Y-918311D01*
X700978Y-918385D01*
X700923Y-918487D01*
X700849Y-918598D01*
X700756Y-918737D01*
X700645Y-918876D01*
X700516Y-919033D01*
X700497Y-919051D01*
X700451Y-919107D01*
X700405Y-919153D01*
X700359Y-919199D01*
X700303Y-919255D01*
X700229Y-919329D01*
X700155Y-919402D01*
X700063Y-919486D01*
X699970Y-919578D01*
X699859Y-919680D01*
X699739Y-919782D01*
X699610Y-919902D01*
X699462Y-920022D01*
X699314Y-920151D01*
X699305Y-920161D01*
X699286Y-920179D01*
X699249Y-920207D01*
X699203Y-920244D01*
X699147Y-920299D01*
X699083Y-920355D01*
X698935Y-920475D01*
X698778Y-920614D01*
X698630Y-920752D01*
X698500Y-920873D01*
X698445Y-920919D01*
X698399Y-920965D01*
X698389Y-920974D01*
X698362Y-921002D01*
X698325Y-921039D01*
X698278Y-921094D01*
X698232Y-921159D01*
X698177Y-921224D01*
X698066Y-921381D01*
X701218D01*
Y-922139D01*
X696975D01*
Y-922130D01*
Y-922093D01*
Y-922038D01*
X696984Y-921964D01*
X696993Y-921880D01*
X697012Y-921788D01*
X697030Y-921695D01*
X697067Y-921594D01*
Y-921584D01*
X697076Y-921575D01*
X697095Y-921520D01*
X697132Y-921436D01*
X697187Y-921326D01*
X697261Y-921196D01*
X697354Y-921048D01*
X697456Y-920900D01*
X697585Y-920743D01*
Y-920734D01*
X697604Y-920725D01*
X697650Y-920669D01*
X697733Y-920586D01*
X697853Y-920466D01*
X697992Y-920327D01*
X698167Y-920161D01*
X698380Y-919976D01*
X698611Y-919782D01*
X698621Y-919772D01*
X698658Y-919745D01*
X698713Y-919698D01*
X698778Y-919643D01*
X698861Y-919569D01*
X698963Y-919486D01*
X699064Y-919393D01*
X699184Y-919292D01*
X699416Y-919070D01*
X699647Y-918848D01*
X699758Y-918737D01*
X699859Y-918626D01*
X699952Y-918524D01*
X700026Y-918422D01*
Y-918413D01*
X700044Y-918404D01*
X700063Y-918376D01*
X700081Y-918339D01*
X700146Y-918238D01*
X700220Y-918117D01*
X700285Y-917969D01*
X700349Y-917812D01*
X700386Y-917637D01*
X700405Y-917470D01*
Y-917461D01*
Y-917452D01*
X700396Y-917396D01*
X700386Y-917304D01*
X700359Y-917202D01*
X700322Y-917073D01*
X700257Y-916943D01*
X700174Y-916814D01*
X700063Y-916684D01*
X700044Y-916666D01*
X699998Y-916629D01*
X699933Y-916583D01*
X699832Y-916518D01*
X699702Y-916462D01*
X699554Y-916407D01*
X699379Y-916370D01*
X699184Y-916361D01*
X699129D01*
X699092Y-916370D01*
X698981Y-916379D01*
X698852Y-916407D01*
X698713Y-916444D01*
X698556Y-916509D01*
X698408Y-916592D01*
X698269Y-916703D01*
X698251Y-916721D01*
X698214Y-916768D01*
X698158Y-916842D01*
X698103Y-916952D01*
X698038Y-917082D01*
X697982Y-917248D01*
X697945Y-917433D01*
X697927Y-917646D01*
X697123Y-917563D01*
Y-917553D01*
X697132Y-917526D01*
Y-917479D01*
X697141Y-917415D01*
X697160Y-917341D01*
X697178Y-917258D01*
X697206Y-917156D01*
X697234Y-917054D01*
X697308Y-916832D01*
X697419Y-916610D01*
X697483Y-916499D01*
X697567Y-916388D01*
X697650Y-916287D01*
X697742Y-916194D01*
X697751Y-916185D01*
X697770Y-916176D01*
X697798Y-916148D01*
X697844Y-916120D01*
X697899Y-916083D01*
X697964Y-916046D01*
X698038Y-916000D01*
X698130Y-915954D01*
X698232Y-915908D01*
X698343Y-915861D01*
X698463Y-915825D01*
X698593Y-915788D01*
X698731Y-915760D01*
X698879Y-915732D01*
X699036Y-915723D01*
X699203Y-915714D01*
X699295D01*
X699360Y-915723D01*
D02*
G37*
G36*
X90650Y-316767D02*
X90640D01*
X90622D01*
X90585D01*
X90529Y-316777D01*
X90474Y-316786D01*
X90409D01*
X90252Y-316814D01*
X90086Y-316841D01*
X89919Y-316897D01*
X89771Y-316952D01*
X89707Y-316989D01*
X89651Y-317035D01*
X89642Y-317045D01*
X89614Y-317082D01*
X89568Y-317137D01*
X89522Y-317211D01*
X89466Y-317313D01*
X89429Y-317424D01*
X89392Y-317562D01*
X89383Y-317710D01*
Y-317766D01*
X89392Y-317821D01*
X89402Y-317904D01*
X89420Y-317988D01*
X89438Y-318080D01*
X89475Y-318173D01*
X89522Y-318265D01*
X89531Y-318274D01*
X89549Y-318302D01*
X89586Y-318339D01*
X89623Y-318395D01*
X89688Y-318441D01*
X89753Y-318496D01*
X89827Y-318542D01*
X89919Y-318579D01*
X89929D01*
X89965Y-318598D01*
X90030Y-318607D01*
X90113Y-318626D01*
X90224Y-318644D01*
X90363Y-318653D01*
X90529Y-318672D01*
X90724D01*
X95134D01*
Y-319522D01*
X90770D01*
X90761D01*
X90733D01*
X90696D01*
X90640D01*
X90566Y-319513D01*
X90492D01*
X90317Y-319495D01*
X90113Y-319476D01*
X89901Y-319439D01*
X89707Y-319384D01*
X89522Y-319319D01*
X89512D01*
X89503Y-319310D01*
X89448Y-319282D01*
X89374Y-319236D01*
X89272Y-319171D01*
X89170Y-319079D01*
X89059Y-318977D01*
X88948Y-318848D01*
X88856Y-318700D01*
X88847Y-318681D01*
X88819Y-318626D01*
X88782Y-318542D01*
X88745Y-318422D01*
X88699Y-318274D01*
X88662Y-318108D01*
X88634Y-317923D01*
X88625Y-317720D01*
Y-317636D01*
X88634Y-317581D01*
X88643Y-317507D01*
X88653Y-317433D01*
X88690Y-317239D01*
X88745Y-317035D01*
X88828Y-316823D01*
X88884Y-316712D01*
X88948Y-316610D01*
X89022Y-316518D01*
X89106Y-316425D01*
X89115Y-316416D01*
X89124Y-316407D01*
X89161Y-316388D01*
X89198Y-316360D01*
X89244Y-316324D01*
X89309Y-316287D01*
X89383Y-316250D01*
X89466Y-316203D01*
X89559Y-316166D01*
X89670Y-316129D01*
X89781Y-316092D01*
X89910Y-316055D01*
X90049Y-316037D01*
X90206Y-316009D01*
X90363Y-316000D01*
X90539D01*
X90650Y-316767D01*
D02*
G37*
G36*
X88912Y-320484D02*
X88995Y-320493D01*
X89087Y-320512D01*
X89180Y-320530D01*
X89281Y-320567D01*
X89291D01*
X89300Y-320577D01*
X89355Y-320595D01*
X89438Y-320632D01*
X89549Y-320687D01*
X89679Y-320761D01*
X89827Y-320854D01*
X89975Y-320956D01*
X90132Y-321085D01*
X90141D01*
X90150Y-321104D01*
X90206Y-321150D01*
X90289Y-321233D01*
X90409Y-321353D01*
X90548Y-321492D01*
X90714Y-321668D01*
X90899Y-321880D01*
X91093Y-322111D01*
X91103Y-322121D01*
X91130Y-322158D01*
X91177Y-322213D01*
X91232Y-322278D01*
X91306Y-322361D01*
X91389Y-322463D01*
X91482Y-322564D01*
X91583Y-322685D01*
X91805Y-322916D01*
X92027Y-323147D01*
X92138Y-323258D01*
X92249Y-323359D01*
X92351Y-323452D01*
X92452Y-323526D01*
X92462D01*
X92471Y-323544D01*
X92499Y-323563D01*
X92536Y-323581D01*
X92638Y-323646D01*
X92758Y-323720D01*
X92906Y-323785D01*
X93063Y-323849D01*
X93238Y-323886D01*
X93405Y-323905D01*
X93414D01*
X93423D01*
X93479Y-323896D01*
X93571Y-323886D01*
X93673Y-323859D01*
X93802Y-323822D01*
X93932Y-323757D01*
X94061Y-323674D01*
X94191Y-323563D01*
X94209Y-323544D01*
X94246Y-323498D01*
X94292Y-323433D01*
X94357Y-323332D01*
X94413Y-323202D01*
X94468Y-323054D01*
X94505Y-322879D01*
X94514Y-322685D01*
Y-322629D01*
X94505Y-322592D01*
X94496Y-322481D01*
X94468Y-322352D01*
X94431Y-322213D01*
X94366Y-322056D01*
X94283Y-321908D01*
X94172Y-321769D01*
X94154Y-321751D01*
X94108Y-321714D01*
X94033Y-321658D01*
X93923Y-321603D01*
X93793Y-321538D01*
X93627Y-321483D01*
X93442Y-321446D01*
X93229Y-321427D01*
X93312Y-320623D01*
X93322D01*
X93349Y-320632D01*
X93396D01*
X93460Y-320641D01*
X93534Y-320660D01*
X93617Y-320678D01*
X93719Y-320706D01*
X93821Y-320734D01*
X94043Y-320808D01*
X94265Y-320919D01*
X94376Y-320983D01*
X94487Y-321067D01*
X94588Y-321150D01*
X94681Y-321242D01*
X94690Y-321251D01*
X94699Y-321270D01*
X94727Y-321298D01*
X94755Y-321344D01*
X94792Y-321399D01*
X94829Y-321464D01*
X94875Y-321538D01*
X94921Y-321631D01*
X94967Y-321732D01*
X95014Y-321843D01*
X95051Y-321963D01*
X95087Y-322093D01*
X95115Y-322231D01*
X95143Y-322379D01*
X95152Y-322537D01*
X95162Y-322703D01*
Y-322795D01*
X95152Y-322860D01*
X95143Y-322934D01*
X95134Y-323027D01*
X95115Y-323128D01*
X95097Y-323230D01*
X95032Y-323470D01*
X94940Y-323711D01*
X94884Y-323831D01*
X94819Y-323951D01*
X94736Y-324062D01*
X94644Y-324164D01*
X94635Y-324173D01*
X94625Y-324192D01*
X94588Y-324210D01*
X94551Y-324247D01*
X94505Y-324293D01*
X94440Y-324339D01*
X94376Y-324386D01*
X94292Y-324441D01*
X94117Y-324534D01*
X93895Y-324626D01*
X93784Y-324663D01*
X93654Y-324682D01*
X93525Y-324700D01*
X93386Y-324709D01*
X93368D01*
X93322D01*
X93248Y-324700D01*
X93146Y-324691D01*
X93035Y-324672D01*
X92906Y-324635D01*
X92767Y-324598D01*
X92628Y-324543D01*
X92610Y-324534D01*
X92563Y-324515D01*
X92490Y-324478D01*
X92388Y-324423D01*
X92277Y-324349D01*
X92138Y-324256D01*
X92000Y-324145D01*
X91842Y-324016D01*
X91824Y-323997D01*
X91768Y-323951D01*
X91722Y-323905D01*
X91676Y-323859D01*
X91620Y-323803D01*
X91546Y-323729D01*
X91473Y-323655D01*
X91389Y-323563D01*
X91297Y-323470D01*
X91195Y-323359D01*
X91093Y-323239D01*
X90973Y-323110D01*
X90853Y-322962D01*
X90724Y-322814D01*
X90714Y-322805D01*
X90696Y-322786D01*
X90668Y-322749D01*
X90631Y-322703D01*
X90576Y-322648D01*
X90520Y-322583D01*
X90400Y-322435D01*
X90261Y-322278D01*
X90123Y-322130D01*
X90002Y-322000D01*
X89956Y-321945D01*
X89910Y-321899D01*
X89901Y-321889D01*
X89873Y-321862D01*
X89836Y-321825D01*
X89781Y-321778D01*
X89716Y-321732D01*
X89651Y-321677D01*
X89494Y-321566D01*
Y-324719D01*
X88736D01*
Y-320475D01*
X88745D01*
X88782D01*
X88837D01*
X88912Y-320484D01*
D02*
G37*
G36*
X616519Y-68399D02*
X616593Y-68408D01*
X616667Y-68418D01*
X616861Y-68455D01*
X617065Y-68510D01*
X617277Y-68593D01*
X617388Y-68649D01*
X617490Y-68713D01*
X617582Y-68787D01*
X617675Y-68871D01*
X617684Y-68880D01*
X617693Y-68889D01*
X617712Y-68926D01*
X617739Y-68963D01*
X617776Y-69009D01*
X617813Y-69074D01*
X617850Y-69148D01*
X617897Y-69231D01*
X617934Y-69324D01*
X617971Y-69435D01*
X618008Y-69546D01*
X618045Y-69675D01*
X618063Y-69814D01*
X618091Y-69971D01*
X618100Y-70128D01*
Y-70304D01*
X617333Y-70415D01*
Y-70406D01*
Y-70387D01*
Y-70350D01*
X617323Y-70294D01*
X617314Y-70239D01*
Y-70174D01*
X617286Y-70017D01*
X617259Y-69851D01*
X617203Y-69684D01*
X617148Y-69536D01*
X617111Y-69472D01*
X617065Y-69416D01*
X617055Y-69407D01*
X617018Y-69379D01*
X616963Y-69333D01*
X616889Y-69287D01*
X616787Y-69231D01*
X616676Y-69194D01*
X616538Y-69157D01*
X616390Y-69148D01*
X616334D01*
X616279Y-69157D01*
X616195Y-69167D01*
X616112Y-69185D01*
X616020Y-69204D01*
X615927Y-69240D01*
X615835Y-69287D01*
X615826Y-69296D01*
X615798Y-69314D01*
X615761Y-69352D01*
X615705Y-69388D01*
X615659Y-69453D01*
X615604Y-69518D01*
X615558Y-69592D01*
X615521Y-69684D01*
Y-69694D01*
X615502Y-69731D01*
X615493Y-69795D01*
X615474Y-69879D01*
X615456Y-69989D01*
X615447Y-70128D01*
X615428Y-70294D01*
Y-70489D01*
Y-74899D01*
X614577D01*
Y-70535D01*
Y-70526D01*
Y-70498D01*
Y-70461D01*
Y-70406D01*
X614587Y-70332D01*
Y-70258D01*
X614605Y-70082D01*
X614624Y-69879D01*
X614661Y-69666D01*
X614716Y-69472D01*
X614781Y-69287D01*
Y-69278D01*
X614790Y-69268D01*
X614818Y-69213D01*
X614864Y-69139D01*
X614929Y-69037D01*
X615021Y-68935D01*
X615123Y-68825D01*
X615252Y-68713D01*
X615400Y-68621D01*
X615419Y-68612D01*
X615474Y-68584D01*
X615558Y-68547D01*
X615678Y-68510D01*
X615826Y-68464D01*
X615992Y-68427D01*
X616177Y-68399D01*
X616380Y-68390D01*
X616464D01*
X616519Y-68399D01*
D02*
G37*
G36*
X611573D02*
X611656Y-68408D01*
X611748Y-68418D01*
X611850Y-68436D01*
X611961Y-68464D01*
X612211Y-68529D01*
X612340Y-68575D01*
X612460Y-68621D01*
X612590Y-68686D01*
X612719Y-68760D01*
X612839Y-68843D01*
X612950Y-68945D01*
X612960Y-68954D01*
X612978Y-68972D01*
X613006Y-69000D01*
X613043Y-69046D01*
X613080Y-69102D01*
X613135Y-69167D01*
X613181Y-69240D01*
X613237Y-69333D01*
X613292Y-69425D01*
X613339Y-69536D01*
X613431Y-69767D01*
X613468Y-69906D01*
X613496Y-70045D01*
X613514Y-70193D01*
X613523Y-70341D01*
Y-70350D01*
Y-70368D01*
Y-70406D01*
X613514Y-70443D01*
Y-70498D01*
X613505Y-70563D01*
X613487Y-70711D01*
X613450Y-70877D01*
X613394Y-71043D01*
X613311Y-71219D01*
X613209Y-71385D01*
Y-71395D01*
X613191Y-71404D01*
X613154Y-71450D01*
X613080Y-71524D01*
X612978Y-71617D01*
X612849Y-71709D01*
X612691Y-71811D01*
X612516Y-71894D01*
X612303Y-71959D01*
X612312D01*
X612322Y-71968D01*
X612349Y-71977D01*
X612386Y-71996D01*
X612469Y-72033D01*
X612580Y-72088D01*
X612701Y-72162D01*
X612821Y-72255D01*
X612932Y-72356D01*
X613033Y-72467D01*
X613043Y-72486D01*
X613070Y-72523D01*
X613107Y-72597D01*
X613144Y-72689D01*
X613191Y-72809D01*
X613228Y-72948D01*
X613255Y-73105D01*
X613265Y-73272D01*
Y-73281D01*
Y-73299D01*
Y-73336D01*
X613255Y-73392D01*
X613246Y-73447D01*
X613237Y-73521D01*
X613200Y-73678D01*
X613144Y-73863D01*
X613052Y-74057D01*
X612996Y-74159D01*
X612932Y-74261D01*
X612849Y-74353D01*
X612765Y-74446D01*
X612756Y-74455D01*
X612738Y-74464D01*
X612710Y-74492D01*
X612673Y-74520D01*
X612627Y-74557D01*
X612562Y-74594D01*
X612488Y-74640D01*
X612414Y-74686D01*
X612322Y-74732D01*
X612220Y-74779D01*
X612109Y-74816D01*
X611989Y-74853D01*
X611730Y-74908D01*
X611582Y-74917D01*
X611434Y-74927D01*
X611351D01*
X611295Y-74917D01*
X611221Y-74908D01*
X611138Y-74899D01*
X611046Y-74890D01*
X610953Y-74862D01*
X610731Y-74806D01*
X610509Y-74723D01*
X610398Y-74668D01*
X610288Y-74603D01*
X610186Y-74520D01*
X610084Y-74437D01*
X610075Y-74427D01*
X610066Y-74418D01*
X610038Y-74390D01*
X610001Y-74353D01*
X609964Y-74298D01*
X609918Y-74242D01*
X609825Y-74104D01*
X609733Y-73928D01*
X609650Y-73725D01*
X609585Y-73493D01*
X609576Y-73373D01*
X609566Y-73244D01*
Y-73235D01*
Y-73225D01*
Y-73170D01*
X609576Y-73087D01*
X609594Y-72985D01*
X609622Y-72856D01*
X609668Y-72726D01*
X609724Y-72597D01*
X609807Y-72467D01*
X609816Y-72449D01*
X609853Y-72412D01*
X609908Y-72356D01*
X609982Y-72282D01*
X610084Y-72199D01*
X610204Y-72116D01*
X610343Y-72033D01*
X610509Y-71959D01*
X610500D01*
X610482Y-71950D01*
X610454Y-71940D01*
X610417Y-71922D01*
X610306Y-71876D01*
X610177Y-71811D01*
X610038Y-71718D01*
X609890Y-71617D01*
X609751Y-71487D01*
X609622Y-71339D01*
Y-71330D01*
X609613Y-71321D01*
X609576Y-71265D01*
X609520Y-71173D01*
X609465Y-71053D01*
X609409Y-70905D01*
X609354Y-70729D01*
X609317Y-70535D01*
X609308Y-70322D01*
Y-70313D01*
Y-70285D01*
Y-70239D01*
X609317Y-70184D01*
X609326Y-70119D01*
X609335Y-70036D01*
X609354Y-69943D01*
X609381Y-69841D01*
X609446Y-69629D01*
X609492Y-69509D01*
X609557Y-69398D01*
X609622Y-69278D01*
X609696Y-69167D01*
X609788Y-69056D01*
X609890Y-68945D01*
X609899Y-68935D01*
X609918Y-68917D01*
X609945Y-68889D01*
X609992Y-68861D01*
X610056Y-68815D01*
X610121Y-68769D01*
X610204Y-68723D01*
X610297Y-68667D01*
X610398Y-68612D01*
X610519Y-68566D01*
X610648Y-68519D01*
X610778Y-68473D01*
X610925Y-68445D01*
X611083Y-68418D01*
X611240Y-68399D01*
X611415Y-68390D01*
X611508D01*
X611573Y-68399D01*
D02*
G37*
G36*
X926616Y-873743D02*
X926736D01*
X926875Y-873752D01*
X927013Y-873770D01*
X927328Y-873798D01*
X927661Y-873844D01*
X927975Y-873909D01*
X928132Y-873955D01*
X928271Y-874002D01*
X928280D01*
X928299Y-874011D01*
X928336Y-874029D01*
X928391Y-874048D01*
X928447Y-874075D01*
X928521Y-874112D01*
X928678Y-874205D01*
X928853Y-874316D01*
X929038Y-874445D01*
X929214Y-874612D01*
X929371Y-874797D01*
Y-874806D01*
X929390Y-874824D01*
X929408Y-874852D01*
X929426Y-874889D01*
X929454Y-874945D01*
X929491Y-875000D01*
X929528Y-875074D01*
X929556Y-875148D01*
X929630Y-875324D01*
X929695Y-875536D01*
X929732Y-875768D01*
X929750Y-876026D01*
Y-876100D01*
X929741Y-876146D01*
Y-876211D01*
X929732Y-876285D01*
X929695Y-876461D01*
X929648Y-876655D01*
X929575Y-876858D01*
X929473Y-877062D01*
X929408Y-877163D01*
X929334Y-877256D01*
X929325Y-877265D01*
X929316Y-877274D01*
X929288Y-877302D01*
X929260Y-877330D01*
X929214Y-877367D01*
X929158Y-877413D01*
X929029Y-877506D01*
X928863Y-877598D01*
X928659Y-877691D01*
X928428Y-877765D01*
X928160Y-877820D01*
X928095Y-877062D01*
X928104D01*
X928123Y-877053D01*
X928141D01*
X928178Y-877043D01*
X928280Y-877016D01*
X928391Y-876979D01*
X928521Y-876932D01*
X928650Y-876868D01*
X928770Y-876794D01*
X928872Y-876701D01*
X928881Y-876692D01*
X928909Y-876655D01*
X928946Y-876590D01*
X928983Y-876516D01*
X929029Y-876415D01*
X929066Y-876294D01*
X929094Y-876156D01*
X929103Y-876008D01*
Y-875943D01*
X929094Y-875878D01*
X929084Y-875795D01*
X929066Y-875694D01*
X929038Y-875592D01*
X929001Y-875481D01*
X928946Y-875379D01*
X928936Y-875370D01*
X928918Y-875333D01*
X928881Y-875277D01*
X928826Y-875222D01*
X928761Y-875148D01*
X928687Y-875074D01*
X928604Y-875000D01*
X928502Y-874926D01*
X928493Y-874917D01*
X928447Y-874898D01*
X928382Y-874861D01*
X928299Y-874824D01*
X928188Y-874778D01*
X928058Y-874732D01*
X927910Y-874686D01*
X927744Y-874640D01*
X927735D01*
X927725Y-874630D01*
X927698D01*
X927661Y-874621D01*
X927568Y-874603D01*
X927448Y-874575D01*
X927300Y-874556D01*
X927143Y-874538D01*
X926967Y-874529D01*
X926782Y-874519D01*
X926773D01*
X926745D01*
X926699D01*
X926625D01*
X926644Y-874529D01*
X926690Y-874566D01*
X926755Y-874621D01*
X926847Y-874686D01*
X926939Y-874778D01*
X927041Y-874889D01*
X927143Y-875019D01*
X927235Y-875166D01*
X927245Y-875185D01*
X927272Y-875240D01*
X927309Y-875324D01*
X927346Y-875425D01*
X927393Y-875564D01*
X927430Y-875712D01*
X927457Y-875878D01*
X927467Y-876054D01*
Y-876128D01*
X927457Y-876183D01*
X927448Y-876257D01*
X927439Y-876331D01*
X927420Y-876424D01*
X927393Y-876516D01*
X927328Y-876729D01*
X927282Y-876840D01*
X927226Y-876951D01*
X927161Y-877071D01*
X927078Y-877182D01*
X926995Y-877293D01*
X926893Y-877395D01*
X926884Y-877404D01*
X926865Y-877422D01*
X926838Y-877441D01*
X926792Y-877478D01*
X926727Y-877524D01*
X926662Y-877570D01*
X926579Y-877617D01*
X926486Y-877663D01*
X926385Y-877718D01*
X926274Y-877765D01*
X926144Y-877811D01*
X926015Y-877857D01*
X925867Y-877894D01*
X925710Y-877912D01*
X925553Y-877931D01*
X925377Y-877940D01*
X925368D01*
X925331D01*
X925285D01*
X925220Y-877931D01*
X925137Y-877922D01*
X925035Y-877912D01*
X924933Y-877894D01*
X924813Y-877866D01*
X924573Y-877802D01*
X924443Y-877755D01*
X924305Y-877700D01*
X924175Y-877635D01*
X924055Y-877552D01*
X923925Y-877469D01*
X923814Y-877367D01*
X923805Y-877358D01*
X923787Y-877339D01*
X923759Y-877311D01*
X923722Y-877265D01*
X923676Y-877210D01*
X923620Y-877136D01*
X923574Y-877062D01*
X923509Y-876969D01*
X923454Y-876877D01*
X923408Y-876766D01*
X923306Y-876516D01*
X923269Y-876387D01*
X923241Y-876239D01*
X923223Y-876091D01*
X923214Y-875934D01*
Y-875869D01*
X923223Y-875823D01*
Y-875777D01*
X923232Y-875712D01*
X923260Y-875555D01*
X923297Y-875379D01*
X923361Y-875185D01*
X923445Y-874991D01*
X923556Y-874797D01*
Y-874787D01*
X923574Y-874778D01*
X923593Y-874750D01*
X923620Y-874714D01*
X923694Y-874621D01*
X923796Y-874501D01*
X923935Y-874381D01*
X924101Y-874242D01*
X924295Y-874122D01*
X924517Y-874011D01*
X924526D01*
X924545Y-874002D01*
X924582Y-873983D01*
X924628Y-873965D01*
X924693Y-873946D01*
X924776Y-873918D01*
X924868Y-873900D01*
X924970Y-873872D01*
X925090Y-873844D01*
X925229Y-873817D01*
X925377Y-873798D01*
X925534Y-873780D01*
X925710Y-873761D01*
X925895Y-873743D01*
X926098Y-873733D01*
X926311D01*
X926320D01*
X926366D01*
X926431D01*
X926514D01*
X926616Y-873743D01*
D02*
G37*
G36*
X929639Y-883025D02*
X929630D01*
X929593D01*
X929538D01*
X929464Y-883016D01*
X929380Y-883007D01*
X929288Y-882988D01*
X929195Y-882970D01*
X929094Y-882933D01*
X929084D01*
X929075Y-882924D01*
X929020Y-882905D01*
X928936Y-882868D01*
X928826Y-882813D01*
X928696Y-882739D01*
X928548Y-882646D01*
X928400Y-882544D01*
X928243Y-882415D01*
X928234D01*
X928225Y-882397D01*
X928169Y-882350D01*
X928086Y-882267D01*
X927966Y-882147D01*
X927827Y-882008D01*
X927661Y-881833D01*
X927476Y-881620D01*
X927282Y-881389D01*
X927272Y-881379D01*
X927245Y-881343D01*
X927198Y-881287D01*
X927143Y-881222D01*
X927069Y-881139D01*
X926986Y-881038D01*
X926893Y-880936D01*
X926792Y-880816D01*
X926570Y-880584D01*
X926348Y-880353D01*
X926237Y-880242D01*
X926126Y-880141D01*
X926024Y-880048D01*
X925922Y-879974D01*
X925913D01*
X925904Y-879956D01*
X925876Y-879937D01*
X925839Y-879919D01*
X925738Y-879854D01*
X925617Y-879780D01*
X925469Y-879715D01*
X925312Y-879651D01*
X925137Y-879614D01*
X924970Y-879595D01*
X924961D01*
X924952D01*
X924896Y-879604D01*
X924804Y-879614D01*
X924702Y-879641D01*
X924573Y-879678D01*
X924443Y-879743D01*
X924314Y-879826D01*
X924184Y-879937D01*
X924166Y-879956D01*
X924129Y-880002D01*
X924083Y-880067D01*
X924018Y-880168D01*
X923962Y-880298D01*
X923907Y-880446D01*
X923870Y-880621D01*
X923861Y-880816D01*
Y-880871D01*
X923870Y-880908D01*
X923879Y-881019D01*
X923907Y-881148D01*
X923944Y-881287D01*
X924009Y-881444D01*
X924092Y-881592D01*
X924203Y-881731D01*
X924221Y-881749D01*
X924268Y-881786D01*
X924342Y-881842D01*
X924452Y-881897D01*
X924582Y-881962D01*
X924748Y-882018D01*
X924933Y-882055D01*
X925146Y-882073D01*
X925063Y-882877D01*
X925053D01*
X925026Y-882868D01*
X924979D01*
X924915Y-882859D01*
X924841Y-882840D01*
X924758Y-882822D01*
X924656Y-882794D01*
X924554Y-882766D01*
X924332Y-882692D01*
X924110Y-882581D01*
X923999Y-882517D01*
X923888Y-882433D01*
X923787Y-882350D01*
X923694Y-882258D01*
X923685Y-882249D01*
X923676Y-882230D01*
X923648Y-882202D01*
X923620Y-882156D01*
X923583Y-882101D01*
X923546Y-882036D01*
X923500Y-881962D01*
X923454Y-881870D01*
X923408Y-881768D01*
X923361Y-881657D01*
X923324Y-881537D01*
X923288Y-881407D01*
X923260Y-881269D01*
X923232Y-881121D01*
X923223Y-880964D01*
X923214Y-880797D01*
Y-880705D01*
X923223Y-880640D01*
X923232Y-880566D01*
X923241Y-880473D01*
X923260Y-880372D01*
X923278Y-880270D01*
X923343Y-880030D01*
X923435Y-879789D01*
X923491Y-879669D01*
X923556Y-879549D01*
X923639Y-879438D01*
X923731Y-879336D01*
X923740Y-879327D01*
X923750Y-879308D01*
X923787Y-879290D01*
X923824Y-879253D01*
X923870Y-879207D01*
X923935Y-879161D01*
X923999Y-879114D01*
X924083Y-879059D01*
X924258Y-878966D01*
X924480Y-878874D01*
X924591Y-878837D01*
X924721Y-878819D01*
X924850Y-878800D01*
X924989Y-878791D01*
X925007D01*
X925053D01*
X925127Y-878800D01*
X925229Y-878809D01*
X925340Y-878828D01*
X925469Y-878865D01*
X925608Y-878902D01*
X925747Y-878957D01*
X925765Y-878966D01*
X925811Y-878985D01*
X925885Y-879022D01*
X925987Y-879077D01*
X926098Y-879151D01*
X926237Y-879244D01*
X926376Y-879355D01*
X926533Y-879484D01*
X926551Y-879503D01*
X926607Y-879549D01*
X926653Y-879595D01*
X926699Y-879641D01*
X926755Y-879697D01*
X926829Y-879771D01*
X926902Y-879845D01*
X926986Y-879937D01*
X927078Y-880030D01*
X927180Y-880141D01*
X927282Y-880261D01*
X927402Y-880390D01*
X927522Y-880538D01*
X927651Y-880686D01*
X927661Y-880695D01*
X927679Y-880714D01*
X927707Y-880751D01*
X927744Y-880797D01*
X927799Y-880853D01*
X927855Y-880917D01*
X927975Y-881065D01*
X928114Y-881222D01*
X928252Y-881370D01*
X928372Y-881500D01*
X928419Y-881555D01*
X928465Y-881601D01*
X928474Y-881611D01*
X928502Y-881638D01*
X928539Y-881675D01*
X928594Y-881722D01*
X928659Y-881768D01*
X928724Y-881823D01*
X928881Y-881934D01*
Y-878782D01*
X929639D01*
Y-883025D01*
D02*
G37*
G36*
X927809Y-883987D02*
X927883D01*
X928058Y-884005D01*
X928262Y-884024D01*
X928474Y-884061D01*
X928668Y-884116D01*
X928853Y-884181D01*
X928863D01*
X928872Y-884190D01*
X928927Y-884218D01*
X929001Y-884264D01*
X929103Y-884329D01*
X929205Y-884421D01*
X929316Y-884523D01*
X929426Y-884652D01*
X929519Y-884800D01*
X929528Y-884819D01*
X929556Y-884874D01*
X929593Y-884958D01*
X929630Y-885078D01*
X929676Y-885226D01*
X929713Y-885392D01*
X929741Y-885577D01*
X929750Y-885780D01*
Y-885864D01*
X929741Y-885919D01*
X929732Y-885993D01*
X929722Y-886067D01*
X929685Y-886261D01*
X929630Y-886465D01*
X929547Y-886677D01*
X929491Y-886788D01*
X929426Y-886890D01*
X929353Y-886982D01*
X929269Y-887075D01*
X929260Y-887084D01*
X929251Y-887093D01*
X929214Y-887112D01*
X929177Y-887140D01*
X929131Y-887177D01*
X929066Y-887214D01*
X928992Y-887251D01*
X928909Y-887297D01*
X928816Y-887334D01*
X928705Y-887371D01*
X928594Y-887408D01*
X928465Y-887445D01*
X928326Y-887463D01*
X928169Y-887491D01*
X928012Y-887500D01*
X927836D01*
X927725Y-886733D01*
X927735D01*
X927753D01*
X927790D01*
X927846Y-886723D01*
X927901Y-886714D01*
X927966D01*
X928123Y-886686D01*
X928289Y-886659D01*
X928456Y-886603D01*
X928604Y-886548D01*
X928668Y-886511D01*
X928724Y-886465D01*
X928733Y-886455D01*
X928761Y-886418D01*
X928807Y-886363D01*
X928853Y-886289D01*
X928909Y-886187D01*
X928946Y-886076D01*
X928983Y-885938D01*
X928992Y-885790D01*
Y-885734D01*
X928983Y-885679D01*
X928973Y-885595D01*
X928955Y-885512D01*
X928936Y-885420D01*
X928900Y-885327D01*
X928853Y-885235D01*
X928844Y-885226D01*
X928826Y-885198D01*
X928789Y-885161D01*
X928752Y-885106D01*
X928687Y-885059D01*
X928622Y-885004D01*
X928548Y-884958D01*
X928456Y-884921D01*
X928447D01*
X928410Y-884902D01*
X928345Y-884893D01*
X928262Y-884874D01*
X928151Y-884856D01*
X928012Y-884847D01*
X927846Y-884828D01*
X927651D01*
X923241D01*
Y-883978D01*
X927605D01*
X927614D01*
X927642D01*
X927679D01*
X927735D01*
X927809Y-883987D01*
D02*
G37*
G36*
X926773Y-738770D02*
X926884D01*
X927004Y-738780D01*
X927134Y-738789D01*
X927430Y-738817D01*
X927735Y-738863D01*
X928030Y-738918D01*
X928169Y-738955D01*
X928308Y-739001D01*
X928317D01*
X928335Y-739011D01*
X928372Y-739029D01*
X928419Y-739048D01*
X928484Y-739066D01*
X928548Y-739103D01*
X928705Y-739177D01*
X928872Y-739270D01*
X929057Y-739390D01*
X929223Y-739529D01*
X929380Y-739695D01*
Y-739704D01*
X929399Y-739713D01*
X929417Y-739741D01*
X929436Y-739778D01*
X929464Y-739824D01*
X929501Y-739871D01*
X929565Y-740009D01*
X929630Y-740176D01*
X929695Y-740370D01*
X929732Y-740601D01*
X929750Y-740851D01*
Y-740943D01*
X929741Y-741008D01*
X929732Y-741082D01*
X929713Y-741174D01*
X929695Y-741276D01*
X929667Y-741387D01*
X929630Y-741498D01*
X929593Y-741618D01*
X929538Y-741738D01*
X929473Y-741858D01*
X929399Y-741979D01*
X929306Y-742099D01*
X929205Y-742210D01*
X929094Y-742311D01*
X929084Y-742321D01*
X929057Y-742339D01*
X929010Y-742367D01*
X928936Y-742413D01*
X928853Y-742459D01*
X928742Y-742506D01*
X928613Y-742570D01*
X928465Y-742626D01*
X928298Y-742681D01*
X928104Y-742737D01*
X927892Y-742792D01*
X927651Y-742838D01*
X927393Y-742885D01*
X927115Y-742912D01*
X926810Y-742931D01*
X926486Y-742940D01*
X926477D01*
X926440D01*
X926376D01*
X926301D01*
X926200Y-742931D01*
X926089D01*
X925969Y-742922D01*
X925830Y-742912D01*
X925543Y-742885D01*
X925238Y-742838D01*
X924933Y-742783D01*
X924794Y-742746D01*
X924656Y-742709D01*
X924647D01*
X924628Y-742700D01*
X924591Y-742681D01*
X924545Y-742663D01*
X924480Y-742644D01*
X924415Y-742607D01*
X924258Y-742533D01*
X924092Y-742441D01*
X923916Y-742321D01*
X923740Y-742182D01*
X923593Y-742016D01*
Y-742006D01*
X923574Y-741997D01*
X923556Y-741969D01*
X923537Y-741932D01*
X923500Y-741886D01*
X923472Y-741831D01*
X923398Y-741692D01*
X923334Y-741526D01*
X923269Y-741331D01*
X923232Y-741100D01*
X923214Y-740851D01*
Y-740767D01*
X923223Y-740666D01*
X923241Y-740546D01*
X923269Y-740407D01*
X923306Y-740259D01*
X923352Y-740102D01*
X923426Y-739954D01*
Y-739945D01*
X923435Y-739935D01*
X923463Y-739889D01*
X923509Y-739815D01*
X923574Y-739723D01*
X923667Y-739621D01*
X923768Y-739510D01*
X923888Y-739408D01*
X924027Y-739307D01*
X924046Y-739297D01*
X924092Y-739260D01*
X924175Y-739223D01*
X924295Y-739159D01*
X924434Y-739103D01*
X924591Y-739029D01*
X924776Y-738964D01*
X924979Y-738909D01*
X924989D01*
X925007Y-738900D01*
X925035Y-738891D01*
X925081Y-738881D01*
X925137Y-738872D01*
X925201Y-738863D01*
X925285Y-738844D01*
X925377Y-738835D01*
X925479Y-738817D01*
X925590Y-738807D01*
X925719Y-738798D01*
X925848Y-738780D01*
X925996Y-738770D01*
X926144D01*
X926311Y-738761D01*
X926486D01*
X926496D01*
X926533D01*
X926597D01*
X926671D01*
X926773Y-738770D01*
D02*
G37*
G36*
X927892Y-743726D02*
X927966Y-743735D01*
X928049Y-743754D01*
X928141Y-743772D01*
X928243Y-743791D01*
X928465Y-743865D01*
X928585Y-743920D01*
X928696Y-743976D01*
X928816Y-744050D01*
X928936Y-744133D01*
X929057Y-744225D01*
X929168Y-744336D01*
X929177Y-744345D01*
X929195Y-744364D01*
X929223Y-744401D01*
X929260Y-744447D01*
X929306Y-744503D01*
X929352Y-744577D01*
X929408Y-744660D01*
X929454Y-744762D01*
X929510Y-744863D01*
X929565Y-744983D01*
X929611Y-745104D01*
X929658Y-745242D01*
X929695Y-745390D01*
X929722Y-745547D01*
X929741Y-745705D01*
X929750Y-745880D01*
Y-745964D01*
X929741Y-746019D01*
X929732Y-746093D01*
X929722Y-746176D01*
X929704Y-746269D01*
X929685Y-746370D01*
X929630Y-746592D01*
X929538Y-746823D01*
X929482Y-746944D01*
X929417Y-747054D01*
X929334Y-747165D01*
X929251Y-747276D01*
X929242Y-747286D01*
X929223Y-747304D01*
X929195Y-747332D01*
X929158Y-747359D01*
X929112Y-747406D01*
X929047Y-747452D01*
X928983Y-747507D01*
X928900Y-747563D01*
X928807Y-747618D01*
X928715Y-747674D01*
X928493Y-747776D01*
X928234Y-747859D01*
X928095Y-747887D01*
X927947Y-747905D01*
X927846Y-747119D01*
X927855D01*
X927873Y-747110D01*
X927910Y-747101D01*
X927956Y-747091D01*
X928012Y-747082D01*
X928077Y-747064D01*
X928215Y-747018D01*
X928382Y-746953D01*
X928539Y-746870D01*
X928687Y-746777D01*
X928816Y-746666D01*
X928826Y-746648D01*
X928863Y-746611D01*
X928909Y-746537D01*
X928955Y-746444D01*
X929010Y-746333D01*
X929057Y-746195D01*
X929094Y-746037D01*
X929103Y-745871D01*
Y-745816D01*
X929094Y-745779D01*
X929084Y-745677D01*
X929057Y-745547D01*
X929010Y-745399D01*
X928946Y-745242D01*
X928853Y-745085D01*
X928724Y-744937D01*
X928705Y-744919D01*
X928650Y-744873D01*
X928567Y-744817D01*
X928456Y-744743D01*
X928317Y-744669D01*
X928160Y-744614D01*
X927975Y-744567D01*
X927772Y-744549D01*
X927762D01*
X927744D01*
X927716D01*
X927679Y-744558D01*
X927577Y-744567D01*
X927457Y-744595D01*
X927309Y-744632D01*
X927161Y-744697D01*
X927013Y-744789D01*
X926875Y-744910D01*
X926856Y-744928D01*
X926819Y-744974D01*
X926764Y-745048D01*
X926699Y-745150D01*
X926634Y-745279D01*
X926579Y-745436D01*
X926542Y-745612D01*
X926523Y-745806D01*
Y-745890D01*
X926533Y-745954D01*
X926542Y-746037D01*
X926560Y-746130D01*
X926579Y-746241D01*
X926607Y-746361D01*
X925913Y-746269D01*
Y-746222D01*
X925922Y-746185D01*
Y-746065D01*
X925904Y-745964D01*
X925885Y-745843D01*
X925858Y-745705D01*
X925811Y-745547D01*
X925747Y-745399D01*
X925664Y-745242D01*
Y-745233D01*
X925654Y-745224D01*
X925617Y-745178D01*
X925553Y-745113D01*
X925469Y-745039D01*
X925349Y-744965D01*
X925210Y-744900D01*
X925053Y-744854D01*
X924961Y-744836D01*
X924859D01*
X924850D01*
X924841D01*
X924785D01*
X924711Y-744854D01*
X924610Y-744873D01*
X924499Y-744910D01*
X924378Y-744956D01*
X924258Y-745030D01*
X924147Y-745131D01*
X924138Y-745141D01*
X924101Y-745187D01*
X924055Y-745251D01*
X923999Y-745335D01*
X923953Y-745446D01*
X923907Y-745575D01*
X923870Y-745723D01*
X923861Y-745890D01*
Y-745964D01*
X923879Y-746047D01*
X923898Y-746158D01*
X923935Y-746278D01*
X923981Y-746398D01*
X924055Y-746527D01*
X924147Y-746648D01*
X924156Y-746657D01*
X924203Y-746694D01*
X924268Y-746749D01*
X924360Y-746814D01*
X924480Y-746879D01*
X924628Y-746944D01*
X924804Y-746999D01*
X925007Y-747036D01*
X924868Y-747822D01*
X924859D01*
X924831Y-747813D01*
X924794Y-747803D01*
X924739Y-747794D01*
X924674Y-747776D01*
X924600Y-747748D01*
X924425Y-747692D01*
X924221Y-747600D01*
X924018Y-747489D01*
X923824Y-747350D01*
X923648Y-747175D01*
X923639Y-747165D01*
X923630Y-747147D01*
X923611Y-747119D01*
X923583Y-747082D01*
X923546Y-747036D01*
X923509Y-746971D01*
X923472Y-746907D01*
X923426Y-746823D01*
X923352Y-746638D01*
X923278Y-746426D01*
X923232Y-746176D01*
X923214Y-746047D01*
Y-745816D01*
X923223Y-745714D01*
X923241Y-745594D01*
X923269Y-745446D01*
X923315Y-745279D01*
X923371Y-745113D01*
X923445Y-744946D01*
Y-744937D01*
X923454Y-744928D01*
X923482Y-744873D01*
X923537Y-744789D01*
X923602Y-744697D01*
X923694Y-744586D01*
X923796Y-744475D01*
X923916Y-744364D01*
X924055Y-744271D01*
X924073Y-744262D01*
X924119Y-744234D01*
X924203Y-744197D01*
X924305Y-744151D01*
X924425Y-744105D01*
X924563Y-744068D01*
X924721Y-744040D01*
X924878Y-744031D01*
X924896D01*
X924952D01*
X925026Y-744040D01*
X925127Y-744059D01*
X925247Y-744087D01*
X925377Y-744133D01*
X925506Y-744188D01*
X925636Y-744262D01*
X925654Y-744271D01*
X925691Y-744299D01*
X925756Y-744355D01*
X925830Y-744429D01*
X925913Y-744521D01*
X926006Y-744632D01*
X926089Y-744762D01*
X926172Y-744919D01*
Y-744910D01*
X926181Y-744891D01*
X926191Y-744863D01*
X926200Y-744826D01*
X926237Y-744725D01*
X926292Y-744595D01*
X926366Y-744447D01*
X926459Y-744299D01*
X926579Y-744161D01*
X926718Y-744031D01*
X926736Y-744022D01*
X926792Y-743985D01*
X926884Y-743929D01*
X927004Y-743874D01*
X927152Y-743819D01*
X927328Y-743763D01*
X927531Y-743726D01*
X927753Y-743717D01*
X927762D01*
X927790D01*
X927836D01*
X927892Y-743726D01*
D02*
G37*
G36*
X927809Y-748987D02*
X927883D01*
X928058Y-749005D01*
X928262Y-749024D01*
X928474Y-749061D01*
X928668Y-749116D01*
X928853Y-749181D01*
X928863D01*
X928872Y-749190D01*
X928927Y-749218D01*
X929001Y-749264D01*
X929103Y-749329D01*
X929205Y-749421D01*
X929316Y-749523D01*
X929426Y-749652D01*
X929519Y-749800D01*
X929528Y-749819D01*
X929556Y-749874D01*
X929593Y-749958D01*
X929630Y-750078D01*
X929676Y-750226D01*
X929713Y-750392D01*
X929741Y-750577D01*
X929750Y-750780D01*
Y-750864D01*
X929741Y-750919D01*
X929732Y-750993D01*
X929722Y-751067D01*
X929685Y-751261D01*
X929630Y-751465D01*
X929547Y-751677D01*
X929491Y-751788D01*
X929426Y-751890D01*
X929352Y-751982D01*
X929269Y-752075D01*
X929260Y-752084D01*
X929251Y-752093D01*
X929214Y-752112D01*
X929177Y-752140D01*
X929131Y-752177D01*
X929066Y-752214D01*
X928992Y-752251D01*
X928909Y-752297D01*
X928816Y-752334D01*
X928705Y-752371D01*
X928594Y-752408D01*
X928465Y-752445D01*
X928326Y-752463D01*
X928169Y-752491D01*
X928012Y-752500D01*
X927836D01*
X927725Y-751733D01*
X927735D01*
X927753D01*
X927790D01*
X927846Y-751723D01*
X927901Y-751714D01*
X927966D01*
X928123Y-751686D01*
X928289Y-751659D01*
X928456Y-751603D01*
X928604Y-751548D01*
X928668Y-751511D01*
X928724Y-751465D01*
X928733Y-751455D01*
X928761Y-751418D01*
X928807Y-751363D01*
X928853Y-751289D01*
X928909Y-751187D01*
X928946Y-751076D01*
X928983Y-750938D01*
X928992Y-750790D01*
Y-750734D01*
X928983Y-750679D01*
X928973Y-750595D01*
X928955Y-750512D01*
X928936Y-750420D01*
X928900Y-750327D01*
X928853Y-750235D01*
X928844Y-750226D01*
X928826Y-750198D01*
X928789Y-750161D01*
X928752Y-750106D01*
X928687Y-750059D01*
X928622Y-750004D01*
X928548Y-749958D01*
X928456Y-749921D01*
X928447D01*
X928410Y-749902D01*
X928345Y-749893D01*
X928262Y-749874D01*
X928151Y-749856D01*
X928012Y-749847D01*
X927846Y-749828D01*
X927651D01*
X923241D01*
Y-748978D01*
X927605D01*
X927614D01*
X927642D01*
X927679D01*
X927735D01*
X927809Y-748987D01*
D02*
G37*
%LPC*%
G36*
X839159Y-916361D02*
X839085D01*
X839001Y-916379D01*
X838890Y-916398D01*
X838770Y-916435D01*
X838641Y-916481D01*
X838521Y-916555D01*
X838400Y-916657D01*
X838391Y-916666D01*
X838354Y-916703D01*
X838308Y-916768D01*
X838262Y-916851D01*
X838206Y-916952D01*
X838160Y-917073D01*
X838123Y-917202D01*
X838114Y-917350D01*
Y-917359D01*
Y-917368D01*
X838123Y-917424D01*
X838132Y-917507D01*
X838151Y-917609D01*
X838188Y-917729D01*
X838234Y-917849D01*
X838308Y-917979D01*
X838400Y-918090D01*
X838410Y-918099D01*
X838456Y-918136D01*
X838521Y-918182D01*
X838604Y-918228D01*
X838715Y-918284D01*
X838844Y-918330D01*
X838992Y-918367D01*
X839159Y-918376D01*
X839177D01*
X839232Y-918367D01*
X839316Y-918358D01*
X839427Y-918339D01*
X839547Y-918302D01*
X839667Y-918256D01*
X839797Y-918182D01*
X839908Y-918090D01*
X839917Y-918080D01*
X839954Y-918034D01*
X840000Y-917979D01*
X840055Y-917896D01*
X840111Y-917794D01*
X840157Y-917674D01*
X840194Y-917535D01*
X840203Y-917387D01*
Y-917378D01*
Y-917368D01*
Y-917313D01*
X840185Y-917230D01*
X840166Y-917128D01*
X840129Y-917017D01*
X840074Y-916897D01*
X840000Y-916777D01*
X839898Y-916657D01*
X839889Y-916647D01*
X839843Y-916610D01*
X839778Y-916564D01*
X839695Y-916509D01*
X839584Y-916453D01*
X839464Y-916407D01*
X839316Y-916370D01*
X839159Y-916361D01*
D02*
G37*
G36*
X839131Y-919014D02*
X839075D01*
X839038Y-919023D01*
X838937Y-919033D01*
X838807Y-919060D01*
X838659Y-919107D01*
X838511Y-919171D01*
X838354Y-919264D01*
X838215Y-919384D01*
X838197Y-919402D01*
X838160Y-919449D01*
X838105Y-919532D01*
X838040Y-919634D01*
X837966Y-919772D01*
X837910Y-919930D01*
X837873Y-920105D01*
X837855Y-920299D01*
Y-920318D01*
Y-920355D01*
X837864Y-920419D01*
X837873Y-920503D01*
X837892Y-920604D01*
X837920Y-920715D01*
X837957Y-920826D01*
X838003Y-920947D01*
X838012Y-920956D01*
X838031Y-921002D01*
X838068Y-921058D01*
X838123Y-921122D01*
X838188Y-921205D01*
X838271Y-921289D01*
X838363Y-921363D01*
X838474Y-921436D01*
X838493Y-921446D01*
X838530Y-921464D01*
X838595Y-921492D01*
X838678Y-921520D01*
X838780Y-921547D01*
X838900Y-921575D01*
X839029Y-921594D01*
X839159Y-921603D01*
X839214D01*
X839251Y-921594D01*
X839362Y-921584D01*
X839491Y-921557D01*
X839639Y-921510D01*
X839797Y-921455D01*
X839944Y-921363D01*
X840092Y-921242D01*
X840111Y-921224D01*
X840148Y-921178D01*
X840213Y-921094D01*
X840277Y-920993D01*
X840342Y-920863D01*
X840407Y-920706D01*
X840444Y-920521D01*
X840462Y-920327D01*
Y-920318D01*
Y-920299D01*
Y-920272D01*
X840453Y-920235D01*
X840444Y-920133D01*
X840416Y-919994D01*
X840370Y-919855D01*
X840305Y-919698D01*
X840213Y-919541D01*
X840083Y-919393D01*
X840065Y-919375D01*
X840018Y-919338D01*
X839935Y-919273D01*
X839824Y-919199D01*
X839686Y-919134D01*
X839519Y-919070D01*
X839334Y-919033D01*
X839131Y-919014D01*
D02*
G37*
G36*
X927614Y-634547D02*
X927605D01*
X927587D01*
X927550D01*
X927503Y-634556D01*
X927448D01*
X927383Y-634566D01*
X927235Y-634593D01*
X927069Y-634630D01*
X926893Y-634695D01*
X926727Y-634787D01*
X926570Y-634908D01*
X926551Y-634926D01*
X926505Y-634972D01*
X926449Y-635046D01*
X926376Y-635148D01*
X926301Y-635277D01*
X926246Y-635425D01*
X926200Y-635601D01*
X926181Y-635795D01*
Y-635851D01*
X926191Y-635888D01*
X926200Y-635980D01*
X926227Y-636110D01*
X926274Y-636248D01*
X926348Y-636405D01*
X926440Y-636553D01*
X926570Y-636701D01*
X926588Y-636720D01*
X926634Y-636757D01*
X926718Y-636822D01*
X926838Y-636886D01*
X926976Y-636951D01*
X927152Y-637016D01*
X927346Y-637053D01*
X927568Y-637071D01*
X927587D01*
X927633D01*
X927716Y-637062D01*
X927818Y-637053D01*
X927938Y-637034D01*
X928067Y-636997D01*
X928206Y-636960D01*
X928345Y-636905D01*
X928363Y-636895D01*
X928410Y-636868D01*
X928474Y-636831D01*
X928557Y-636775D01*
X928641Y-636711D01*
X928742Y-636627D01*
X928826Y-636535D01*
X928909Y-636424D01*
X928918Y-636405D01*
X928936Y-636368D01*
X928973Y-636304D01*
X929001Y-636221D01*
X929038Y-636128D01*
X929075Y-636017D01*
X929094Y-635897D01*
X929103Y-635768D01*
Y-635721D01*
X929094Y-635684D01*
X929084Y-635592D01*
X929057Y-635472D01*
X929001Y-635342D01*
X928936Y-635194D01*
X928835Y-635046D01*
X928779Y-634972D01*
X928705Y-634908D01*
X928696D01*
X928687Y-634889D01*
X928631Y-634852D01*
X928539Y-634797D01*
X928419Y-634723D01*
X928262Y-634658D01*
X928077Y-634603D01*
X927864Y-634566D01*
X927614Y-634547D01*
D02*
G37*
G36*
X611415Y-69037D02*
X611360D01*
X611323Y-69046D01*
X611212Y-69056D01*
X611083Y-69083D01*
X610935Y-69130D01*
X610778Y-69185D01*
X610630Y-69278D01*
X610482Y-69398D01*
X610463Y-69416D01*
X610426Y-69462D01*
X610362Y-69546D01*
X610297Y-69647D01*
X610232Y-69777D01*
X610167Y-69934D01*
X610130Y-70119D01*
X610112Y-70313D01*
Y-70322D01*
Y-70341D01*
Y-70368D01*
X610121Y-70406D01*
X610130Y-70507D01*
X610158Y-70646D01*
X610204Y-70785D01*
X610269Y-70942D01*
X610362Y-71099D01*
X610491Y-71247D01*
X610509Y-71265D01*
X610556Y-71302D01*
X610639Y-71367D01*
X610750Y-71441D01*
X610888Y-71506D01*
X611055Y-71570D01*
X611240Y-71607D01*
X611443Y-71626D01*
X611499D01*
X611536Y-71617D01*
X611637Y-71607D01*
X611767Y-71580D01*
X611915Y-71533D01*
X612063Y-71469D01*
X612220Y-71376D01*
X612359Y-71256D01*
X612377Y-71238D01*
X612414Y-71191D01*
X612469Y-71108D01*
X612534Y-71006D01*
X612608Y-70868D01*
X612664Y-70711D01*
X612701Y-70535D01*
X612719Y-70341D01*
Y-70322D01*
Y-70285D01*
X612710Y-70221D01*
X612701Y-70137D01*
X612682Y-70036D01*
X612654Y-69925D01*
X612617Y-69814D01*
X612571Y-69694D01*
X612562Y-69684D01*
X612543Y-69638D01*
X612506Y-69583D01*
X612451Y-69518D01*
X612386Y-69435D01*
X612303Y-69352D01*
X612211Y-69278D01*
X612100Y-69204D01*
X612081Y-69194D01*
X612044Y-69176D01*
X611979Y-69148D01*
X611896Y-69120D01*
X611795Y-69093D01*
X611674Y-69065D01*
X611545Y-69046D01*
X611415Y-69037D01*
D02*
G37*
G36*
Y-72264D02*
X611397D01*
X611342Y-72273D01*
X611258Y-72282D01*
X611147Y-72301D01*
X611027Y-72338D01*
X610907Y-72384D01*
X610778Y-72458D01*
X610667Y-72551D01*
X610657Y-72560D01*
X610620Y-72606D01*
X610574Y-72661D01*
X610519Y-72745D01*
X610463Y-72846D01*
X610417Y-72966D01*
X610380Y-73105D01*
X610371Y-73253D01*
Y-73262D01*
Y-73272D01*
Y-73327D01*
X610389Y-73410D01*
X610408Y-73512D01*
X610445Y-73623D01*
X610500Y-73743D01*
X610574Y-73863D01*
X610676Y-73983D01*
X610685Y-73993D01*
X610731Y-74030D01*
X610796Y-74076D01*
X610879Y-74131D01*
X610990Y-74187D01*
X611110Y-74233D01*
X611258Y-74270D01*
X611415Y-74279D01*
X611489D01*
X611573Y-74261D01*
X611684Y-74242D01*
X611804Y-74205D01*
X611933Y-74159D01*
X612053Y-74085D01*
X612174Y-73983D01*
X612183Y-73974D01*
X612220Y-73937D01*
X612266Y-73873D01*
X612312Y-73789D01*
X612368Y-73688D01*
X612414Y-73568D01*
X612451Y-73438D01*
X612460Y-73290D01*
Y-73281D01*
Y-73272D01*
X612451Y-73216D01*
X612442Y-73133D01*
X612423Y-73031D01*
X612386Y-72911D01*
X612340Y-72791D01*
X612266Y-72661D01*
X612174Y-72551D01*
X612164Y-72541D01*
X612118Y-72504D01*
X612053Y-72458D01*
X611970Y-72412D01*
X611859Y-72356D01*
X611730Y-72310D01*
X611582Y-72273D01*
X611415Y-72264D01*
D02*
G37*
G36*
X925340Y-874603D02*
X925331D01*
X925312D01*
X925275D01*
X925229Y-874612D01*
X925164D01*
X925100Y-874621D01*
X924952Y-874649D01*
X924776Y-874686D01*
X924591Y-874750D01*
X924415Y-874843D01*
X924258Y-874963D01*
X924249D01*
X924240Y-874982D01*
X924193Y-875028D01*
X924129Y-875102D01*
X924055Y-875203D01*
X923990Y-875333D01*
X923925Y-875481D01*
X923879Y-875647D01*
X923861Y-875740D01*
Y-875888D01*
X923870Y-875925D01*
X923879Y-876026D01*
X923916Y-876146D01*
X923962Y-876294D01*
X924046Y-876452D01*
X924147Y-876609D01*
X924221Y-876683D01*
X924295Y-876757D01*
X924305D01*
X924314Y-876775D01*
X924342Y-876794D01*
X924369Y-876812D01*
X924462Y-876877D01*
X924591Y-876942D01*
X924748Y-877016D01*
X924942Y-877080D01*
X925164Y-877117D01*
X925405Y-877136D01*
X925414D01*
X925432D01*
X925460D01*
X925506Y-877127D01*
X925562D01*
X925617Y-877117D01*
X925756Y-877090D01*
X925913Y-877043D01*
X926080Y-876988D01*
X926246Y-876895D01*
X926394Y-876775D01*
X926413Y-876757D01*
X926450Y-876711D01*
X926514Y-876627D01*
X926579Y-876526D01*
X926653Y-876387D01*
X926718Y-876230D01*
X926755Y-876054D01*
X926773Y-875860D01*
Y-875804D01*
X926764Y-875768D01*
X926755Y-875666D01*
X926727Y-875546D01*
X926681Y-875398D01*
X926616Y-875250D01*
X926523Y-875102D01*
X926394Y-874963D01*
X926376Y-874945D01*
X926320Y-874908D01*
X926237Y-874852D01*
X926117Y-874778D01*
X925969Y-874714D01*
X925793Y-874658D01*
X925580Y-874621D01*
X925340Y-874603D01*
D02*
G37*
G36*
X926773Y-739566D02*
X926486D01*
X926477D01*
X926468D01*
X926422D01*
X926339D01*
X926227Y-739575D01*
X926107D01*
X925959Y-739584D01*
X925802Y-739593D01*
X925627Y-739612D01*
X925275Y-739658D01*
X925100Y-739686D01*
X924933Y-739723D01*
X924776Y-739760D01*
X924628Y-739815D01*
X924499Y-739871D01*
X924388Y-739935D01*
X924378D01*
X924369Y-739954D01*
X924341Y-739972D01*
X924305Y-740000D01*
X924221Y-740083D01*
X924119Y-740185D01*
X924027Y-740324D01*
X923944Y-740481D01*
X923907Y-740564D01*
X923879Y-740657D01*
X923870Y-740758D01*
X923861Y-740860D01*
Y-740915D01*
X923870Y-740952D01*
X923888Y-741054D01*
X923916Y-741174D01*
X923972Y-741313D01*
X924055Y-741461D01*
X924110Y-741535D01*
X924166Y-741609D01*
X924240Y-741674D01*
X924323Y-741738D01*
X924332D01*
X924351Y-741757D01*
X924388Y-741775D01*
X924434Y-741803D01*
X924508Y-741831D01*
X924591Y-741868D01*
X924693Y-741895D01*
X924813Y-741932D01*
X924952Y-741969D01*
X925109Y-742006D01*
X925285Y-742043D01*
X925479Y-742071D01*
X925701Y-742099D01*
X925941Y-742117D01*
X926200Y-742126D01*
X926486Y-742136D01*
X926505D01*
X926551D01*
X926634D01*
X926745Y-742126D01*
X926865D01*
X927013Y-742117D01*
X927171Y-742108D01*
X927337Y-742089D01*
X927698Y-742043D01*
X927873Y-742016D01*
X928040Y-741979D01*
X928197Y-741942D01*
X928345Y-741886D01*
X928474Y-741831D01*
X928585Y-741766D01*
X928594D01*
X928604Y-741748D01*
X928668Y-741701D01*
X928752Y-741618D01*
X928844Y-741516D01*
X928936Y-741378D01*
X929020Y-741220D01*
X929084Y-741045D01*
X929094Y-740952D01*
X929103Y-740851D01*
Y-740795D01*
X929094Y-740758D01*
X929075Y-740666D01*
X929038Y-740536D01*
X928973Y-740398D01*
X928881Y-740240D01*
X928826Y-740166D01*
X928752Y-740092D01*
X928678Y-740018D01*
X928585Y-739945D01*
X928576D01*
X928557Y-739926D01*
X928530Y-739908D01*
X928484Y-739889D01*
X928419Y-739852D01*
X928335Y-739824D01*
X928243Y-739787D01*
X928132Y-739750D01*
X927993Y-739723D01*
X927846Y-739686D01*
X927670Y-739649D01*
X927485Y-739621D01*
X927263Y-739603D01*
X927032Y-739584D01*
X926773Y-739566D01*
D02*
G37*
%LPD*%
D13*
X691500Y-97250D02*
X817500D01*
X691500D02*
Y-37750D01*
X817500D01*
Y-97250D02*
Y-37750D01*
X764500Y-952000D02*
Y-892500D01*
Y-952000D02*
X890500D01*
Y-892500D01*
X764500D02*
X890500D01*
X900000Y-471500D02*
X959500D01*
Y-345500D01*
X900000D02*
X959500D01*
X900000Y-471500D02*
Y-345500D01*
Y-604500D02*
X959500D01*
Y-478500D01*
X900000D02*
X959500D01*
X900000Y-604500D02*
Y-478500D01*
Y-685500D02*
Y-609500D01*
X959500D01*
Y-685500D02*
Y-609500D01*
X900000Y-685500D02*
X959500D01*
X629500Y-892500D02*
X755500D01*
Y-952000D02*
Y-892500D01*
X629500Y-952000D02*
X755500D01*
X629500D02*
Y-892500D01*
X129650Y-365650D02*
Y-266350D01*
X47600Y-365650D02*
X129650D01*
X47600D02*
Y-266350D01*
X129650D01*
X681100Y-98140D02*
Y-38640D01*
X555100D02*
X681100D01*
X555100Y-98140D02*
Y-38640D01*
Y-98140D02*
X681100D01*
X900000Y-950500D02*
Y-824500D01*
X959500D01*
Y-950500D02*
Y-824500D01*
X900000Y-950500D02*
X959500D01*
X900000Y-815500D02*
Y-689500D01*
X959500D01*
Y-815500D02*
Y-689500D01*
X900000Y-815500D02*
X959500D01*
D96*
X675500Y-232000D02*
Y-204000D01*
X643500D02*
X675500D01*
X643500Y-232000D02*
Y-204000D01*
Y-232000D02*
X675500D01*
X675500Y-269500D02*
Y-241500D01*
X643500D02*
X675500D01*
X643500Y-269500D02*
Y-241500D01*
Y-269500D02*
X675500D01*
Y-194500D02*
Y-166500D01*
X643500D02*
X675500D01*
X643500Y-194500D02*
Y-166500D01*
Y-194500D02*
X675500D01*
X667831Y-222998D02*
Y-213002D01*
X662832D01*
X661166Y-214668D01*
Y-221332D01*
X662832Y-222998D01*
X667831D01*
X651169Y-213002D02*
X657834D01*
X651169Y-219666D01*
Y-221332D01*
X652835Y-222998D01*
X656168D01*
X657834Y-221332D01*
X666164Y-260498D02*
Y-250502D01*
X661166D01*
X659500Y-252168D01*
Y-258832D01*
X661166Y-260498D01*
X666164D01*
X656168Y-250502D02*
X652835D01*
X654502D01*
Y-260498D01*
X656168Y-258832D01*
X667831Y-185498D02*
Y-175502D01*
X662832D01*
X661166Y-177168D01*
Y-183832D01*
X662832Y-185498D01*
X667831D01*
X657834Y-183832D02*
X656168Y-185498D01*
X652835D01*
X651169Y-183832D01*
Y-182166D01*
X652835Y-180500D01*
X654502D01*
X652835D01*
X651169Y-178834D01*
Y-177168D01*
X652835Y-175502D01*
X656168D01*
X657834Y-177168D01*
M02*
