G04*
G04 #@! TF.GenerationSoftware,Altium Limited,Altium Designer,25.3.3 (18)*
G04*
G04 Layer_Physical_Order=2*
G04 Layer_Color=16711680*
%FSLAX44Y44*%
%MOMM*%
G71*
G04*
G04 #@! TF.SameCoordinates,017A41BD-DD39-4079-982F-C60C01D90CF4*
G04*
G04*
G04 #@! TF.FilePolarity,Positive*
G04*
G01*
G75*
%ADD10C,0.2540*%
%ADD16R,0.6000X0.8000*%
%ADD58C,1.4000*%
%ADD59R,1.4000X1.4000*%
%ADD63R,1.4000X1.4000*%
%ADD64R,1.5500X1.5500*%
%ADD65C,1.5500*%
%ADD66C,1.1000*%
G04:AMPARAMS|DCode=68|XSize=1mm|YSize=1.8mm|CornerRadius=0.5mm|HoleSize=0mm|Usage=FLASHONLY|Rotation=270.000|XOffset=0mm|YOffset=0mm|HoleType=Round|Shape=RoundedRectangle|*
%AMROUNDEDRECTD68*
21,1,1.0000,0.8000,0,0,270.0*
21,1,0.0000,1.8000,0,0,270.0*
1,1,1.0000,-0.4000,0.0000*
1,1,1.0000,-0.4000,0.0000*
1,1,1.0000,0.4000,0.0000*
1,1,1.0000,0.4000,0.0000*
%
%ADD68ROUNDEDRECTD68*%
G04:AMPARAMS|DCode=69|XSize=1mm|YSize=2.1mm|CornerRadius=0.5mm|HoleSize=0mm|Usage=FLASHONLY|Rotation=270.000|XOffset=0mm|YOffset=0mm|HoleType=Round|Shape=RoundedRectangle|*
%AMROUNDEDRECTD69*
21,1,1.0000,1.1000,0,0,270.0*
21,1,0.0000,2.1000,0,0,270.0*
1,1,1.0000,-0.5500,0.0000*
1,1,1.0000,-0.5500,0.0000*
1,1,1.0000,0.5500,0.0000*
1,1,1.0000,0.5500,0.0000*
%
%ADD69ROUNDEDRECTD69*%
%ADD70C,0.6500*%
%ADD79C,0.7500*%
%ADD80C,0.4000*%
%ADD81C,1.5000*%
%ADD82C,1.9000*%
%ADD83R,1.9000X1.9000*%
%ADD84C,1.8000*%
%ADD85R,1.8000X1.8000*%
%ADD86R,1.9000X1.9000*%
%ADD87C,1.5000*%
%ADD88C,0.7000*%
%ADD89C,0.7112*%
%ADD90C,1.5100*%
%ADD91C,0.7110*%
%ADD92C,0.6100*%
%ADD93C,4.0000*%
G36*
X959286Y-1272D02*
X964653Y-2562D01*
X969807Y-4542D01*
X974658Y-7177D01*
X979124Y-10423D01*
X983128Y-14223D01*
X986601Y-18514D01*
X989486Y-23221D01*
X991731Y-28265D01*
X993299Y-33558D01*
X994163Y-39010D01*
X994235Y-41777D01*
X994235Y-949997D01*
X994235Y-949998D01*
X994235Y-949999D01*
X994235Y-950128D01*
Y-953027D01*
X993478Y-958783D01*
X991979Y-964390D01*
X989761Y-969755D01*
X986863Y-974784D01*
X983335Y-979394D01*
X979236Y-983504D01*
X974637Y-987045D01*
X969615Y-989957D01*
X964257Y-992189D01*
X958653Y-993704D01*
X952900Y-994477D01*
X949995Y-994485D01*
X43023Y-994235D01*
X42987Y-994242D01*
X42950Y-994236D01*
X40281Y-994331D01*
X34964Y-993823D01*
X29759Y-992625D01*
X24754Y-990759D01*
X20035Y-988255D01*
X15684Y-985157D01*
X11774Y-981518D01*
X8372Y-977400D01*
X5537Y-972873D01*
X3316Y-968015D01*
X1749Y-962908D01*
X861Y-957642D01*
X765Y-954955D01*
X765Y-397156D01*
X715Y-396904D01*
X701Y-396648D01*
X638Y-396517D01*
X610Y-396375D01*
X1001Y-394188D01*
X1020Y-394138D01*
X1245Y-393642D01*
X43469Y-366359D01*
X43619Y-366213D01*
X43795Y-366097D01*
X43902Y-365938D01*
X44040Y-365805D01*
X44123Y-365612D01*
X44241Y-365439D01*
X44280Y-365251D01*
X44356Y-365075D01*
X44359Y-364865D01*
X44401Y-364659D01*
X45026Y-268363D01*
X44998Y-268221D01*
X45007Y-268076D01*
X44924Y-267833D01*
X44876Y-267582D01*
X44796Y-267461D01*
X44748Y-267323D01*
X44579Y-267132D01*
X44438Y-266917D01*
X44318Y-266836D01*
X44221Y-266727D01*
X528Y-233486D01*
X533Y-231240D01*
X610Y-231125D01*
X638Y-230983D01*
X701Y-230852D01*
X715Y-230596D01*
X765Y-230344D01*
Y-114726D01*
X903Y-45895D01*
X958Y-44691D01*
X1982Y-38705D01*
X3734Y-32890D01*
X6187Y-27334D01*
X9305Y-22122D01*
X13039Y-17333D01*
X17333Y-13039D01*
X22122Y-9305D01*
X27334Y-6187D01*
X32890Y-3734D01*
X38705Y-1982D01*
X44692Y-958D01*
X47725Y-818D01*
X47826Y-793D01*
X47930Y-798D01*
X48150Y-765D01*
X950983D01*
X951010Y-760D01*
X951036Y-765D01*
X953795Y-693D01*
X959286Y-1272D01*
D02*
G37*
%LPC*%
G36*
X183852Y-42230D02*
X183135D01*
Y-51865D01*
X192770D01*
Y-51148D01*
X192070Y-48536D01*
X190718Y-46194D01*
X188806Y-44282D01*
X186464Y-42930D01*
X183852Y-42230D01*
D02*
G37*
G36*
X181865D02*
X181148D01*
X178536Y-42930D01*
X176194Y-44282D01*
X174282Y-46194D01*
X172930Y-48536D01*
X172230Y-51148D01*
Y-51865D01*
X181865D01*
Y-42230D01*
D02*
G37*
G36*
X870152D02*
X869435D01*
Y-51865D01*
X879070D01*
Y-51148D01*
X878370Y-48536D01*
X877018Y-46194D01*
X875106Y-44282D01*
X872764Y-42930D01*
X870152Y-42230D01*
D02*
G37*
G36*
X868165D02*
X867448D01*
X864836Y-42930D01*
X862494Y-44282D01*
X860582Y-46194D01*
X859230Y-48536D01*
X858530Y-51148D01*
Y-51865D01*
X868165D01*
Y-42230D01*
D02*
G37*
G36*
X946352D02*
X943648D01*
X941036Y-42930D01*
X938694Y-44282D01*
X936782Y-46194D01*
X935430Y-48536D01*
X934730Y-51148D01*
Y-53852D01*
X935430Y-56464D01*
X936782Y-58806D01*
X938694Y-60718D01*
X941036Y-62070D01*
X943648Y-62770D01*
X946352D01*
X948964Y-62070D01*
X951306Y-60718D01*
X953218Y-58806D01*
X954570Y-56464D01*
X955270Y-53852D01*
Y-51148D01*
X954570Y-48536D01*
X953218Y-46194D01*
X951306Y-44282D01*
X948964Y-42930D01*
X946352Y-42230D01*
D02*
G37*
G36*
X899290Y-29600D02*
X353810D01*
X352819Y-29797D01*
X351979Y-30359D01*
X315169Y-67169D01*
X314607Y-68009D01*
X314410Y-69000D01*
Y-80512D01*
X314607Y-81503D01*
X315169Y-82343D01*
X323657Y-90831D01*
X324497Y-91393D01*
X325488Y-91590D01*
X341200D01*
X342191Y-91393D01*
X343031Y-90831D01*
X348092Y-85770D01*
X365970D01*
Y-64230D01*
X347825D01*
X346772Y-61690D01*
X369873Y-38590D01*
X876627D01*
X885341Y-47304D01*
X884630Y-48536D01*
X883930Y-51148D01*
Y-53852D01*
X884630Y-56464D01*
X885982Y-58806D01*
X887894Y-60718D01*
X890236Y-62070D01*
X892848Y-62770D01*
X895552D01*
X898164Y-62070D01*
X900506Y-60718D01*
X902418Y-58806D01*
X903770Y-56464D01*
X904470Y-53852D01*
Y-51148D01*
X903770Y-48536D01*
X902418Y-46194D01*
X900506Y-44282D01*
X898164Y-42930D01*
X895552Y-42230D01*
X892848D01*
X890236Y-42930D01*
X889004Y-43641D01*
X882489Y-37126D01*
X883461Y-34780D01*
X898217D01*
X910741Y-47304D01*
X910030Y-48536D01*
X909330Y-51148D01*
Y-53852D01*
X910030Y-56464D01*
X911382Y-58806D01*
X913294Y-60718D01*
X915636Y-62070D01*
X918248Y-62770D01*
X920952D01*
X923564Y-62070D01*
X925906Y-60718D01*
X927818Y-58806D01*
X929170Y-56464D01*
X929870Y-53852D01*
Y-51148D01*
X929170Y-48536D01*
X927818Y-46194D01*
X925906Y-44282D01*
X923564Y-42930D01*
X920952Y-42230D01*
X918248D01*
X915636Y-42930D01*
X914404Y-43641D01*
X901121Y-30359D01*
X900281Y-29797D01*
X899290Y-29600D01*
D02*
G37*
G36*
X879070Y-53135D02*
X869435D01*
Y-62770D01*
X870152D01*
X872764Y-62070D01*
X875106Y-60718D01*
X877018Y-58806D01*
X878370Y-56464D01*
X879070Y-53852D01*
Y-53135D01*
D02*
G37*
G36*
X868165D02*
X858530D01*
Y-53852D01*
X859230Y-56464D01*
X860582Y-58806D01*
X862494Y-60718D01*
X864836Y-62070D01*
X867448Y-62770D01*
X868165D01*
Y-53135D01*
D02*
G37*
G36*
X853670Y-42230D02*
X833130D01*
Y-62770D01*
X853670D01*
Y-42230D01*
D02*
G37*
G36*
X268970D02*
X248430D01*
Y-62770D01*
X268970D01*
Y-42230D01*
D02*
G37*
G36*
X234652D02*
X231948D01*
X229336Y-42930D01*
X226994Y-44282D01*
X225082Y-46194D01*
X223730Y-48536D01*
X223030Y-51148D01*
Y-53852D01*
X223730Y-56464D01*
X225082Y-58806D01*
X226994Y-60718D01*
X229336Y-62070D01*
X231948Y-62770D01*
X234652D01*
X237264Y-62070D01*
X239606Y-60718D01*
X241518Y-58806D01*
X242870Y-56464D01*
X243570Y-53852D01*
Y-51148D01*
X242870Y-48536D01*
X241518Y-46194D01*
X239606Y-44282D01*
X237264Y-42930D01*
X234652Y-42230D01*
D02*
G37*
G36*
X209252D02*
X206548D01*
X203936Y-42930D01*
X201594Y-44282D01*
X199682Y-46194D01*
X198330Y-48536D01*
X197630Y-51148D01*
Y-53852D01*
X198330Y-56464D01*
X199682Y-58806D01*
X201594Y-60718D01*
X203936Y-62070D01*
X206548Y-62770D01*
X209252D01*
X211864Y-62070D01*
X214206Y-60718D01*
X216118Y-58806D01*
X217470Y-56464D01*
X218170Y-53852D01*
Y-51148D01*
X217470Y-48536D01*
X216118Y-46194D01*
X214206Y-44282D01*
X211864Y-42930D01*
X209252Y-42230D01*
D02*
G37*
G36*
X192770Y-53135D02*
X183135D01*
Y-62770D01*
X183852D01*
X186464Y-62070D01*
X188806Y-60718D01*
X190718Y-58806D01*
X192070Y-56464D01*
X192770Y-53852D01*
Y-53135D01*
D02*
G37*
G36*
X181865D02*
X172230D01*
Y-53852D01*
X172930Y-56464D01*
X174282Y-58806D01*
X176194Y-60718D01*
X178536Y-62070D01*
X181148Y-62770D01*
X181865D01*
Y-53135D01*
D02*
G37*
G36*
X793089Y-53980D02*
X790911D01*
X788808Y-54544D01*
X786922Y-55632D01*
X785382Y-57172D01*
X784294Y-59058D01*
X783730Y-61161D01*
Y-63339D01*
X784294Y-65442D01*
X785382Y-67328D01*
X786922Y-68868D01*
X788808Y-69956D01*
X790911Y-70520D01*
X793089D01*
X795192Y-69956D01*
X797078Y-68868D01*
X798618Y-67328D01*
X799706Y-65442D01*
X800270Y-63339D01*
Y-61161D01*
X799706Y-59058D01*
X798618Y-57172D01*
X797078Y-55632D01*
X795192Y-54544D01*
X793089Y-53980D01*
D02*
G37*
G36*
X748940Y-41600D02*
X568422D01*
X567431Y-41797D01*
X566591Y-42359D01*
X556359Y-52591D01*
X555797Y-53431D01*
X555600Y-54422D01*
Y-195797D01*
X548266Y-203131D01*
X545726Y-202078D01*
Y-201753D01*
X545000Y-200000D01*
X543658Y-198658D01*
X541905Y-197932D01*
X540007D01*
X538254Y-198658D01*
X536912Y-200000D01*
X536186Y-201753D01*
Y-202757D01*
X527421Y-211523D01*
X526698Y-212604D01*
X526454Y-213831D01*
X517793Y-222492D01*
X471526D01*
X469826Y-219960D01*
Y-218040D01*
X469766Y-217896D01*
X532431Y-155231D01*
X532993Y-154391D01*
X533190Y-153400D01*
Y-85770D01*
X541370D01*
Y-64230D01*
X519830D01*
Y-85770D01*
X528010D01*
Y-152327D01*
X466104Y-214234D01*
X465960Y-214174D01*
X464040D01*
X462266Y-214909D01*
X460909Y-216266D01*
X460174Y-218040D01*
Y-219960D01*
X458474Y-222492D01*
X444174D01*
X442898Y-222746D01*
X441816Y-223468D01*
X430055Y-235230D01*
X429051D01*
X427298Y-235956D01*
X426588Y-236666D01*
X383412D01*
X382702Y-235956D01*
X380949Y-235230D01*
X379051D01*
X377298Y-235956D01*
X375956Y-237298D01*
X375230Y-239051D01*
Y-240949D01*
X375718Y-242126D01*
X374910Y-243964D01*
X374328Y-244666D01*
X290750D01*
X289474Y-244920D01*
X288393Y-245643D01*
X274643Y-259393D01*
X273920Y-260474D01*
X273666Y-261750D01*
X273920Y-263026D01*
X274643Y-264107D01*
X275724Y-264830D01*
X277000Y-265084D01*
X278276Y-264830D01*
X279357Y-264107D01*
X292131Y-251334D01*
X337167D01*
X337289Y-251643D01*
X337590Y-253874D01*
X337209Y-254129D01*
X319427Y-271910D01*
X180573D01*
X175270Y-266607D01*
Y-259730D01*
X166730D01*
Y-270270D01*
X171607D01*
X177669Y-276331D01*
X178509Y-276893D01*
X179500Y-277090D01*
X320500D01*
X321491Y-276893D01*
X322331Y-276331D01*
X340113Y-258550D01*
X406887D01*
X412234Y-263896D01*
X412174Y-264040D01*
Y-265960D01*
X412909Y-267734D01*
X413607Y-268432D01*
X414025Y-270000D01*
X413607Y-271568D01*
X412909Y-272266D01*
X412849Y-272410D01*
X353000D01*
X352009Y-272607D01*
X351169Y-273169D01*
X312427Y-311910D01*
X180073D01*
X174770Y-306607D01*
Y-299730D01*
X166230D01*
Y-310270D01*
X171108D01*
X177169Y-316331D01*
X178009Y-316893D01*
X179000Y-317090D01*
X313500D01*
X314491Y-316893D01*
X315331Y-316331D01*
X354073Y-277590D01*
X412849D01*
X412909Y-277734D01*
X413854Y-278679D01*
X413872Y-278725D01*
X413886Y-280772D01*
X413698Y-281605D01*
X413643Y-281642D01*
X412920Y-282724D01*
X412666Y-284000D01*
X412920Y-285276D01*
X413643Y-286357D01*
X414724Y-287080D01*
X416000Y-287334D01*
X416842D01*
X418118Y-287080D01*
X419200Y-286357D01*
X420539Y-285019D01*
X421103Y-284906D01*
X422185Y-284184D01*
X426184Y-280185D01*
X426906Y-279103D01*
X427160Y-277827D01*
Y-262173D01*
X426906Y-260897D01*
X426184Y-259815D01*
X412243Y-245874D01*
X412367Y-244906D01*
X413128Y-243334D01*
X426588D01*
X427298Y-244044D01*
X429051Y-244770D01*
X430949D01*
X432702Y-244044D01*
X434044Y-242702D01*
X434770Y-240949D01*
Y-239945D01*
X445555Y-229160D01*
X518645D01*
X519478Y-230432D01*
X519764Y-231632D01*
X501987Y-249410D01*
X493687D01*
X492696Y-249607D01*
X491856Y-250169D01*
X467036Y-274989D01*
X465742D01*
X463969Y-275723D01*
X462611Y-277081D01*
X461876Y-278855D01*
Y-280774D01*
X462611Y-282548D01*
X463969Y-283906D01*
X465742Y-284641D01*
X467662D01*
X469436Y-283906D01*
X469977Y-283364D01*
X484234Y-297620D01*
X483181Y-300160D01*
X444493D01*
X444091Y-299189D01*
X442734Y-297832D01*
X440960Y-297097D01*
X439040D01*
X437266Y-297832D01*
X435909Y-299189D01*
X435174Y-300963D01*
Y-302883D01*
X435909Y-304657D01*
X437266Y-306014D01*
X439040Y-306749D01*
X440960D01*
X442734Y-306014D01*
X443408Y-305340D01*
X449679D01*
X450651Y-307686D01*
X444161Y-314176D01*
X443040D01*
X441266Y-314911D01*
X439909Y-316268D01*
X439174Y-318042D01*
Y-319962D01*
X439909Y-321736D01*
X441266Y-323093D01*
X443040Y-323828D01*
X444960D01*
X446174Y-324639D01*
Y-324960D01*
X446909Y-326734D01*
X448266Y-328091D01*
X450040Y-328826D01*
X451960D01*
X453734Y-328091D01*
X455091Y-326734D01*
X455826Y-324960D01*
Y-323040D01*
X455766Y-322896D01*
X465189Y-313473D01*
X467709Y-313648D01*
X469174Y-315506D01*
Y-317426D01*
X469234Y-317570D01*
X448393Y-338410D01*
X426000D01*
X425045Y-338600D01*
X423422D01*
X422431Y-338797D01*
X421591Y-339359D01*
X374539Y-386410D01*
X196000D01*
X195009Y-386607D01*
X194169Y-387169D01*
X181598Y-399739D01*
X180885Y-399328D01*
X178655Y-398730D01*
X176345D01*
X174115Y-399328D01*
X172115Y-400482D01*
X170482Y-402115D01*
X169328Y-404115D01*
X168730Y-406345D01*
Y-408655D01*
X169328Y-410885D01*
X170482Y-412885D01*
X172115Y-414518D01*
X174115Y-415672D01*
X176345Y-416270D01*
X178655D01*
X180885Y-415672D01*
X182885Y-414518D01*
X184518Y-412885D01*
X185672Y-410885D01*
X186270Y-408655D01*
Y-406345D01*
X185672Y-404115D01*
X185261Y-403402D01*
X197073Y-391590D01*
X268429D01*
X269401Y-393936D01*
X262885Y-400453D01*
X261045Y-399960D01*
X258735D01*
X256505Y-400558D01*
X254505Y-401712D01*
X252872Y-403345D01*
X251718Y-405345D01*
X251120Y-407575D01*
Y-409884D01*
X251718Y-412115D01*
X252872Y-414115D01*
X254505Y-415748D01*
X256505Y-416902D01*
X258735Y-417500D01*
X261045D01*
X263275Y-416902D01*
X265275Y-415748D01*
X266908Y-414115D01*
X268062Y-412115D01*
X268660Y-409884D01*
Y-407575D01*
X268062Y-405345D01*
X267058Y-403605D01*
X275073Y-395590D01*
X377000D01*
X377991Y-395393D01*
X378831Y-394831D01*
X426073Y-347590D01*
X458000D01*
X458991Y-347393D01*
X459831Y-346831D01*
X481896Y-324766D01*
X482040Y-324826D01*
X483960D01*
X485734Y-324091D01*
X487091Y-322734D01*
X487384Y-322027D01*
X490051Y-321259D01*
X490232Y-321283D01*
X508216Y-339267D01*
Y-356214D01*
X508413Y-357205D01*
X508975Y-358045D01*
X558181Y-407252D01*
X557209Y-409598D01*
X542135D01*
X541629Y-407058D01*
X541664Y-407044D01*
X543006Y-405702D01*
X543732Y-403949D01*
Y-402051D01*
X543006Y-400298D01*
X541664Y-398956D01*
X539911Y-398230D01*
X538013D01*
X536260Y-398956D01*
X535550Y-399666D01*
X513381D01*
X496320Y-382605D01*
Y-382141D01*
X495662Y-380553D01*
X494447Y-379338D01*
X492859Y-378680D01*
X491141D01*
X489553Y-379338D01*
X489225Y-379666D01*
X455381D01*
X452357Y-376642D01*
X451276Y-375920D01*
X450000Y-375666D01*
X426775D01*
X426447Y-375338D01*
X424859Y-374680D01*
X423141D01*
X421553Y-375338D01*
X420338Y-376553D01*
X419680Y-378141D01*
Y-378605D01*
X394619Y-403666D01*
X356491D01*
X355734Y-402909D01*
X353960Y-402174D01*
X352040D01*
X350266Y-402909D01*
X348909Y-404266D01*
X348174Y-406040D01*
Y-407960D01*
X348909Y-409734D01*
X350266Y-411091D01*
X352040Y-411826D01*
X353960D01*
X355734Y-411091D01*
X356491Y-410334D01*
X396000D01*
X397276Y-410080D01*
X398358Y-409357D01*
X424395Y-383320D01*
X424859D01*
X426447Y-382662D01*
X426775Y-382334D01*
X448619D01*
X451642Y-385358D01*
X452724Y-386080D01*
X454000Y-386334D01*
X489225D01*
X489553Y-386662D01*
X491141Y-387320D01*
X491605D01*
X509642Y-405358D01*
X510724Y-406080D01*
X512000Y-406334D01*
X533956D01*
X534572Y-407058D01*
X533397Y-409598D01*
X410233D01*
X409241Y-409795D01*
X408401Y-410357D01*
X407403Y-411355D01*
X407278Y-411439D01*
X379879Y-438838D01*
X378040D01*
X376266Y-439573D01*
X374909Y-440930D01*
X374174Y-442704D01*
Y-444624D01*
X374177Y-444630D01*
X372479Y-447170D01*
X170199D01*
X169208Y-447367D01*
X168368Y-447929D01*
X121929Y-494368D01*
X121367Y-495208D01*
X121170Y-496199D01*
Y-653927D01*
X103487Y-671610D01*
X95770D01*
Y-663430D01*
X74230D01*
Y-684970D01*
X95770D01*
Y-676790D01*
X104560D01*
X105551Y-676593D01*
X106391Y-676031D01*
X122634Y-659789D01*
X124980Y-660761D01*
Y-683927D01*
X111984Y-696924D01*
X95369D01*
X94949Y-695357D01*
X93531Y-692901D01*
X91526Y-690895D01*
X89070Y-689478D01*
X86331Y-688744D01*
X83495D01*
X80756Y-689478D01*
X78300Y-690895D01*
X76295Y-692901D01*
X74877Y-695357D01*
X74143Y-698096D01*
Y-700931D01*
X74877Y-703671D01*
X76295Y-706126D01*
X78300Y-708132D01*
X80756Y-709550D01*
X83495Y-710284D01*
X86331D01*
X89070Y-709550D01*
X91526Y-708132D01*
X93531Y-706126D01*
X94949Y-703671D01*
X95369Y-702103D01*
X113056D01*
X114047Y-701906D01*
X114888Y-701345D01*
X126444Y-689789D01*
X128790Y-690761D01*
Y-701927D01*
X108307Y-722410D01*
X95456D01*
X95036Y-720843D01*
X93618Y-718387D01*
X91613Y-716382D01*
X89157Y-714964D01*
X86418Y-714230D01*
X83582D01*
X80843Y-714964D01*
X78387Y-716382D01*
X76382Y-718387D01*
X74964Y-720843D01*
X74230Y-723582D01*
Y-726418D01*
X74964Y-729157D01*
X76382Y-731613D01*
X78387Y-733618D01*
X80843Y-735036D01*
X83582Y-735770D01*
X86418D01*
X89157Y-735036D01*
X91613Y-733618D01*
X93618Y-731613D01*
X95036Y-729157D01*
X95456Y-727590D01*
X109380D01*
X110371Y-727393D01*
X111211Y-726831D01*
X130254Y-707789D01*
X132600Y-708761D01*
Y-732927D01*
X117717Y-747810D01*
X95456D01*
X95036Y-746243D01*
X93618Y-743787D01*
X91613Y-741782D01*
X89157Y-740364D01*
X86418Y-739630D01*
X83582D01*
X80843Y-740364D01*
X78387Y-741782D01*
X76382Y-743787D01*
X74964Y-746243D01*
X74230Y-748982D01*
Y-751818D01*
X74964Y-754557D01*
X76382Y-757013D01*
X78387Y-759018D01*
X80843Y-760436D01*
X83582Y-761170D01*
X86418D01*
X89157Y-760436D01*
X91613Y-759018D01*
X93618Y-757013D01*
X95036Y-754557D01*
X95456Y-752990D01*
X118790D01*
X119781Y-752793D01*
X120621Y-752231D01*
X134064Y-738789D01*
X136410Y-739761D01*
Y-771927D01*
X124027Y-784310D01*
X95770D01*
Y-776130D01*
X74230D01*
Y-797670D01*
X95770D01*
Y-789490D01*
X125100D01*
X126091Y-789293D01*
X126931Y-788731D01*
X138444Y-777219D01*
X140790Y-778191D01*
Y-787927D01*
X119094Y-809624D01*
X95369D01*
X94949Y-808056D01*
X93531Y-805601D01*
X91526Y-803596D01*
X89070Y-802178D01*
X86331Y-801444D01*
X83495D01*
X80756Y-802178D01*
X78300Y-803596D01*
X76295Y-805601D01*
X74877Y-808056D01*
X74143Y-810796D01*
Y-813632D01*
X74877Y-816371D01*
X76295Y-818827D01*
X78300Y-820832D01*
X80756Y-822250D01*
X83495Y-822984D01*
X86331D01*
X89070Y-822250D01*
X91526Y-820832D01*
X93531Y-818827D01*
X94949Y-816371D01*
X95369Y-814803D01*
X120166D01*
X121157Y-814606D01*
X121998Y-814045D01*
X142254Y-793789D01*
X144600Y-794761D01*
Y-813927D01*
X123417Y-835110D01*
X95456D01*
X95036Y-833543D01*
X93618Y-831087D01*
X91613Y-829082D01*
X89157Y-827664D01*
X86418Y-826930D01*
X83582D01*
X80843Y-827664D01*
X78387Y-829082D01*
X76382Y-831087D01*
X74964Y-833543D01*
X74230Y-836282D01*
Y-839118D01*
X74964Y-841857D01*
X76382Y-844313D01*
X78387Y-846318D01*
X80843Y-847736D01*
X83582Y-848470D01*
X86418D01*
X89157Y-847736D01*
X91613Y-846318D01*
X93618Y-844313D01*
X95036Y-841857D01*
X95456Y-840290D01*
X124490D01*
X125481Y-840093D01*
X126321Y-839531D01*
X146064Y-819789D01*
X148410Y-820761D01*
Y-835927D01*
X123827Y-860510D01*
X95456D01*
X95036Y-858943D01*
X93618Y-856487D01*
X91613Y-854482D01*
X89157Y-853064D01*
X86418Y-852330D01*
X83582D01*
X80843Y-853064D01*
X78387Y-854482D01*
X76382Y-856487D01*
X74964Y-858943D01*
X74230Y-861682D01*
Y-864518D01*
X74964Y-867257D01*
X76382Y-869713D01*
X78387Y-871718D01*
X80843Y-873136D01*
X83582Y-873870D01*
X86418D01*
X89157Y-873136D01*
X91613Y-871718D01*
X93618Y-869713D01*
X95036Y-867257D01*
X95456Y-865690D01*
X124900D01*
X125891Y-865493D01*
X126731Y-864931D01*
X152831Y-838831D01*
X153393Y-837991D01*
X153590Y-837000D01*
Y-703071D01*
X155936Y-702099D01*
X198169Y-744331D01*
X199009Y-744893D01*
X200000Y-745090D01*
X238349D01*
X238409Y-745234D01*
X239766Y-746591D01*
X241540Y-747326D01*
X243460D01*
X245234Y-746591D01*
X246591Y-745234D01*
X246651Y-745090D01*
X413891D01*
X414661Y-747630D01*
X414642Y-747643D01*
X412605Y-749680D01*
X412141D01*
X410553Y-750338D01*
X409338Y-751553D01*
X408680Y-753141D01*
Y-754859D01*
X409338Y-756447D01*
X410553Y-757662D01*
X412141Y-758320D01*
X413859D01*
X415447Y-757662D01*
X416662Y-756447D01*
X417320Y-754859D01*
Y-754395D01*
X418381Y-753334D01*
X695225D01*
X695553Y-753662D01*
X697141Y-754320D01*
X698859D01*
X700447Y-753662D01*
X701662Y-752447D01*
X702320Y-750859D01*
Y-749141D01*
X701662Y-747553D01*
X702791Y-745090D01*
X730849D01*
X730909Y-745234D01*
X732266Y-746591D01*
X734040Y-747326D01*
X735960D01*
X737734Y-746591D01*
X739091Y-745234D01*
X739826Y-743460D01*
Y-741540D01*
X739242Y-740130D01*
X739823Y-738642D01*
X740507Y-737590D01*
X755849D01*
X755909Y-737734D01*
X757266Y-739091D01*
X759040Y-739826D01*
X760960D01*
X762734Y-739091D01*
X764091Y-737734D01*
X764826Y-735960D01*
Y-734040D01*
X764242Y-732630D01*
X764823Y-731142D01*
X765507Y-730090D01*
X783349D01*
X783409Y-730234D01*
X784766Y-731591D01*
X786540Y-732326D01*
X788460D01*
X790234Y-731591D01*
X791591Y-730234D01*
X792326Y-728460D01*
Y-726540D01*
X791686Y-724996D01*
X792096Y-723857D01*
X792873Y-722456D01*
X805794D01*
X805909Y-722734D01*
X807266Y-724091D01*
X809040Y-724826D01*
X810960D01*
X812734Y-724091D01*
X814091Y-722734D01*
X814826Y-720960D01*
Y-719040D01*
X814242Y-717630D01*
X814823Y-716142D01*
X815507Y-715090D01*
X830849D01*
X830909Y-715234D01*
X832266Y-716591D01*
X834040Y-717326D01*
X835960D01*
X837734Y-716591D01*
X839091Y-715234D01*
X839826Y-713460D01*
Y-711540D01*
X839091Y-709766D01*
X838650Y-709325D01*
X838052Y-707549D01*
X838617Y-706025D01*
X845256Y-699386D01*
X846101Y-699613D01*
X848806D01*
X851418Y-698913D01*
X853759Y-697561D01*
X855671Y-695648D01*
X857024Y-693307D01*
X857723Y-690695D01*
Y-688554D01*
X859141Y-687651D01*
X860167Y-687406D01*
X884882Y-712120D01*
Y-760000D01*
X885271Y-761959D01*
X886381Y-763619D01*
X916381Y-793619D01*
X918041Y-794729D01*
X920000Y-795118D01*
X928423D01*
X929922Y-796618D01*
X931808Y-797706D01*
X933911Y-798270D01*
X936089D01*
X938192Y-797706D01*
X940078Y-796618D01*
X941618Y-795078D01*
X942706Y-793192D01*
X943270Y-791089D01*
Y-788911D01*
X942706Y-786808D01*
X941618Y-784922D01*
X940078Y-783382D01*
X938192Y-782294D01*
X936089Y-781730D01*
X933911D01*
X931808Y-782294D01*
X929922Y-783382D01*
X928423Y-784882D01*
X922120D01*
X895118Y-757880D01*
Y-751750D01*
X897658Y-750698D01*
X915580Y-768619D01*
X917240Y-769729D01*
X919199Y-770118D01*
X928423D01*
X929922Y-771618D01*
X931808Y-772706D01*
X933911Y-773270D01*
X936089D01*
X938192Y-772706D01*
X940078Y-771618D01*
X941618Y-770078D01*
X942706Y-768192D01*
X943270Y-766089D01*
Y-763911D01*
X942706Y-761808D01*
X941618Y-759922D01*
X940078Y-758382D01*
X938192Y-757294D01*
X936089Y-756730D01*
X933911D01*
X931808Y-757294D01*
X929922Y-758382D01*
X928423Y-759882D01*
X921319D01*
X905158Y-743721D01*
Y-720989D01*
X907698Y-719937D01*
X926730Y-738968D01*
Y-741089D01*
X927294Y-743192D01*
X928382Y-745078D01*
X929922Y-746618D01*
X931808Y-747706D01*
X933911Y-748270D01*
X936089D01*
X938192Y-747706D01*
X940078Y-746618D01*
X941618Y-745078D01*
X942706Y-743192D01*
X943270Y-741089D01*
Y-738911D01*
X942706Y-736808D01*
X941618Y-734922D01*
X940078Y-733382D01*
X938192Y-732294D01*
X936089Y-731730D01*
X933969D01*
X928048Y-725810D01*
X929101Y-723270D01*
X943270D01*
Y-706730D01*
X933969D01*
X865619Y-638381D01*
X863959Y-637271D01*
X862000Y-636882D01*
X329631D01*
X316769Y-624019D01*
X317124Y-622695D01*
Y-619990D01*
X316424Y-617378D01*
X315072Y-615037D01*
X313159Y-613124D01*
X310818Y-611772D01*
X308206Y-611073D01*
X305501D01*
X302889Y-611772D01*
X300548Y-613124D01*
X298635Y-615037D01*
X297283Y-617378D01*
X296583Y-619990D01*
Y-622695D01*
X297283Y-625307D01*
X298635Y-627648D01*
X300548Y-629561D01*
X302889Y-630913D01*
X305501Y-631613D01*
X308206D01*
X309530Y-631258D01*
X323614Y-645342D01*
X323437Y-646486D01*
X322706Y-647882D01*
X315231D01*
X291369Y-624019D01*
X291723Y-622695D01*
Y-619990D01*
X291024Y-617378D01*
X289671Y-615037D01*
X287759Y-613124D01*
X285418Y-611772D01*
X282806Y-611073D01*
X280101D01*
X277489Y-611772D01*
X275148Y-613124D01*
X273235Y-615037D01*
X271883Y-617378D01*
X271183Y-619990D01*
Y-622695D01*
X271883Y-625307D01*
X273235Y-627648D01*
X275148Y-629561D01*
X277489Y-630913D01*
X280101Y-631613D01*
X282806D01*
X284130Y-631258D01*
X307214Y-654342D01*
X306162Y-656882D01*
X298831D01*
X265969Y-624019D01*
X266324Y-622695D01*
Y-619990D01*
X265624Y-617378D01*
X264272Y-615037D01*
X262359Y-613124D01*
X260018Y-611772D01*
X257406Y-611073D01*
X254701D01*
X252089Y-611772D01*
X249748Y-613124D01*
X247835Y-615037D01*
X246483Y-617378D01*
X245784Y-619990D01*
Y-622695D01*
X246483Y-625307D01*
X247835Y-627648D01*
X249748Y-629561D01*
X252089Y-630913D01*
X254701Y-631613D01*
X257406D01*
X258730Y-631258D01*
X292367Y-664894D01*
X291341Y-667434D01*
X283984D01*
X240569Y-624019D01*
X240924Y-622695D01*
Y-619990D01*
X240224Y-617378D01*
X238871Y-615037D01*
X236959Y-613124D01*
X234618Y-611772D01*
X232006Y-611073D01*
X229301D01*
X227772Y-611482D01*
X226458Y-609205D01*
X285896Y-549766D01*
X286040Y-549826D01*
X287960D01*
X289734Y-549091D01*
X291091Y-547734D01*
X291151Y-547590D01*
X602849D01*
X602909Y-547734D01*
X604266Y-549091D01*
X606040Y-549826D01*
X607960D01*
X609734Y-549091D01*
X611091Y-547734D01*
X611151Y-547590D01*
X733869D01*
X734921Y-550130D01*
X734880Y-550171D01*
X734880Y-550171D01*
X714237Y-570814D01*
X523296D01*
X521338Y-571204D01*
X519677Y-572313D01*
X479998Y-611992D01*
X479618Y-611772D01*
X477006Y-611073D01*
X474301D01*
X473256Y-611353D01*
X471942Y-609075D01*
X502159Y-578857D01*
X502882Y-577776D01*
X503136Y-576500D01*
Y-570610D01*
X504044Y-569702D01*
X504770Y-567949D01*
Y-566051D01*
X504044Y-564298D01*
X502702Y-562956D01*
X500949Y-562230D01*
X499051D01*
X497298Y-562956D01*
X495956Y-564298D01*
X495230Y-566051D01*
Y-567949D01*
X495956Y-569702D01*
X496468Y-570214D01*
Y-575119D01*
X487360Y-584227D01*
X486201Y-584050D01*
X484680Y-583315D01*
X484570Y-582906D01*
X484544Y-582711D01*
X484469Y-582529D01*
X484219Y-581596D01*
X483736Y-580759D01*
X483661Y-580577D01*
X483541Y-580421D01*
X483058Y-579584D01*
X482374Y-578901D01*
X482255Y-578745D01*
X482099Y-578625D01*
X481416Y-577942D01*
X480579Y-577459D01*
X480423Y-577339D01*
X480241Y-577264D01*
X479404Y-576781D01*
X478471Y-576531D01*
X478289Y-576456D01*
X478094Y-576430D01*
X477161Y-576180D01*
X476195D01*
X476000Y-576154D01*
X434161D01*
X431871Y-576456D01*
X429738Y-577339D01*
X427906Y-578745D01*
X394154Y-612497D01*
X382327D01*
X381355Y-610150D01*
X397237Y-594268D01*
X397255Y-594255D01*
X397608Y-593795D01*
X398018Y-593385D01*
X398308Y-592883D01*
X398661Y-592423D01*
X398882Y-591887D01*
X399172Y-591385D01*
X399322Y-590825D01*
X399544Y-590289D01*
X399620Y-589715D01*
X399770Y-589155D01*
Y-588575D01*
X399846Y-588000D01*
X399770Y-587425D01*
Y-586845D01*
X399620Y-586285D01*
X399544Y-585711D01*
X399322Y-585175D01*
X399172Y-584615D01*
X398882Y-584113D01*
X398661Y-583577D01*
X398308Y-583117D01*
X398018Y-582615D01*
X397608Y-582205D01*
X397255Y-581745D01*
X396795Y-581392D01*
X396385Y-580982D01*
X395883Y-580692D01*
X395423Y-580339D01*
X394887Y-580117D01*
X394385Y-579828D01*
X393825Y-579678D01*
X393289Y-579456D01*
X392715Y-579380D01*
X392155Y-579230D01*
X391575D01*
X391000Y-579154D01*
X390996D01*
X390421Y-579230D01*
X389845D01*
X389289Y-579379D01*
X388707Y-579456D01*
X388163Y-579681D01*
X387615Y-579828D01*
X387123Y-580112D01*
X386573Y-580339D01*
X386101Y-580702D01*
X385615Y-580982D01*
X385219Y-581379D01*
X384741Y-581745D01*
X384741Y-581745D01*
X355089Y-611397D01*
X353689Y-611772D01*
X351348Y-613124D01*
X349435Y-615037D01*
X348083Y-617378D01*
X347383Y-619990D01*
Y-622695D01*
X348083Y-625307D01*
X349435Y-627648D01*
X351348Y-629561D01*
X353689Y-630913D01*
X356301Y-631613D01*
X359006D01*
X361618Y-630913D01*
X362872Y-630188D01*
X397818D01*
X400108Y-629887D01*
X402241Y-629003D01*
X404073Y-627597D01*
X412154Y-619516D01*
X412763Y-619635D01*
X414584Y-620679D01*
Y-620708D01*
X424218D01*
Y-611073D01*
X424190D01*
X423146Y-609252D01*
X423027Y-608643D01*
X437825Y-593846D01*
X474149D01*
X475201Y-596386D01*
X457717Y-613870D01*
X457373Y-613938D01*
X456559Y-613124D01*
X454218Y-611772D01*
X451605Y-611073D01*
X448901D01*
X446289Y-611772D01*
X443948Y-613124D01*
X442035Y-615037D01*
X440683Y-617378D01*
X439983Y-619990D01*
Y-622695D01*
X440683Y-625307D01*
X442035Y-627648D01*
X443948Y-629561D01*
X446289Y-630913D01*
X448901Y-631613D01*
X451605D01*
X454218Y-630913D01*
X456559Y-629561D01*
X458471Y-627648D01*
X459824Y-625307D01*
X460523Y-622695D01*
Y-620146D01*
X461571Y-619446D01*
X463386Y-617631D01*
X465663Y-618945D01*
X465383Y-619990D01*
Y-622695D01*
X466083Y-625307D01*
X467435Y-627648D01*
X469348Y-629561D01*
X471689Y-630913D01*
X474301Y-631613D01*
X477006D01*
X479618Y-630913D01*
X481959Y-629561D01*
X483871Y-627648D01*
X485224Y-625307D01*
X485924Y-622695D01*
Y-620544D01*
X488768Y-617699D01*
X491045Y-619014D01*
X490784Y-619990D01*
Y-622695D01*
X491483Y-625307D01*
X492835Y-627648D01*
X494748Y-629561D01*
X497089Y-630913D01*
X499701Y-631613D01*
X502406D01*
X505018Y-630913D01*
X507359Y-629561D01*
X509272Y-627648D01*
X510624Y-625307D01*
X511324Y-622695D01*
Y-619990D01*
X510969Y-618666D01*
X538544Y-591091D01*
X545875D01*
X546927Y-593631D01*
X529130Y-611427D01*
X527805Y-611073D01*
X525101D01*
X522489Y-611772D01*
X520148Y-613124D01*
X518235Y-615037D01*
X516883Y-617378D01*
X516184Y-619990D01*
Y-622695D01*
X516883Y-625307D01*
X518235Y-627648D01*
X520148Y-629561D01*
X522489Y-630913D01*
X525101Y-631613D01*
X527805D01*
X530418Y-630913D01*
X532759Y-629561D01*
X534672Y-627648D01*
X536024Y-625307D01*
X536724Y-622695D01*
Y-619990D01*
X536368Y-618666D01*
X553904Y-601131D01*
X561235D01*
X562287Y-603671D01*
X554530Y-611427D01*
X553205Y-611073D01*
X550501D01*
X547889Y-611772D01*
X545548Y-613124D01*
X543635Y-615037D01*
X542283Y-617378D01*
X541584Y-619990D01*
Y-622695D01*
X542283Y-625307D01*
X543635Y-627648D01*
X545548Y-629561D01*
X547889Y-630913D01*
X550501Y-631613D01*
X553205D01*
X555818Y-630913D01*
X558159Y-629561D01*
X560071Y-627648D01*
X561424Y-625307D01*
X562123Y-622695D01*
Y-619990D01*
X561768Y-618666D01*
X567452Y-612983D01*
X567488Y-612992D01*
X567896Y-613530D01*
X568560Y-615860D01*
X567683Y-617378D01*
X566983Y-619990D01*
Y-620708D01*
X577253D01*
X587523D01*
Y-619990D01*
X586824Y-617378D01*
X585471Y-615037D01*
X584146Y-613711D01*
X584941Y-611274D01*
X585018Y-611171D01*
X594889D01*
X594965Y-611274D01*
X595761Y-613711D01*
X594435Y-615037D01*
X593083Y-617378D01*
X592383Y-619990D01*
Y-622695D01*
X593083Y-625307D01*
X594435Y-627648D01*
X596348Y-629561D01*
X598689Y-630913D01*
X601301Y-631613D01*
X604006D01*
X606618Y-630913D01*
X608959Y-629561D01*
X610872Y-627648D01*
X612224Y-625307D01*
X612924Y-622695D01*
Y-619990D01*
X612224Y-617378D01*
X610872Y-615037D01*
X609546Y-613711D01*
X610341Y-611274D01*
X610418Y-611171D01*
X660313D01*
X661365Y-613711D01*
X660382Y-614694D01*
X659030Y-617036D01*
X658330Y-619648D01*
Y-620365D01*
X668600D01*
X678870D01*
Y-619648D01*
X678170Y-617036D01*
X676818Y-614694D01*
X675835Y-613711D01*
X676887Y-611171D01*
X685713D01*
X686765Y-613711D01*
X685782Y-614694D01*
X684430Y-617036D01*
X683730Y-619648D01*
Y-622352D01*
X684430Y-624964D01*
X685782Y-627306D01*
X687694Y-629218D01*
X690036Y-630570D01*
X692648Y-631270D01*
X695352D01*
X697964Y-630570D01*
X700306Y-629218D01*
X702218Y-627306D01*
X703570Y-624964D01*
X704270Y-622352D01*
Y-619648D01*
X703570Y-617036D01*
X702218Y-614694D01*
X701235Y-613711D01*
X702287Y-611171D01*
X711113D01*
X712165Y-613711D01*
X711182Y-614694D01*
X709830Y-617036D01*
X709130Y-619648D01*
Y-622352D01*
X709830Y-624964D01*
X711182Y-627306D01*
X713094Y-629218D01*
X715436Y-630570D01*
X718048Y-631270D01*
X720752D01*
X723364Y-630570D01*
X725706Y-629218D01*
X727618Y-627306D01*
X728970Y-624964D01*
X729670Y-622352D01*
Y-621264D01*
X732125Y-618809D01*
X733680Y-619351D01*
X734530Y-619996D01*
Y-622352D01*
X735230Y-624964D01*
X736582Y-627306D01*
X738494Y-629218D01*
X740836Y-630570D01*
X743448Y-631270D01*
X746152D01*
X748764Y-630570D01*
X751106Y-629218D01*
X753018Y-627306D01*
X754370Y-624964D01*
X755070Y-622352D01*
Y-621264D01*
X757525Y-618809D01*
X759080Y-619351D01*
X759930Y-619996D01*
Y-622352D01*
X760630Y-624964D01*
X761982Y-627306D01*
X763894Y-629218D01*
X766236Y-630570D01*
X768848Y-631270D01*
X771552D01*
X774164Y-630570D01*
X776506Y-629218D01*
X778418Y-627306D01*
X779770Y-624964D01*
X780470Y-622352D01*
Y-621264D01*
X782925Y-618809D01*
X784480Y-619351D01*
X785330Y-619996D01*
Y-622352D01*
X786030Y-624964D01*
X787382Y-627306D01*
X789294Y-629218D01*
X791636Y-630570D01*
X794248Y-631270D01*
X796952D01*
X799564Y-630570D01*
X801906Y-629218D01*
X803818Y-627306D01*
X805170Y-624964D01*
X805870Y-622352D01*
Y-621954D01*
X807164Y-621696D01*
X808190Y-621011D01*
X810116Y-621729D01*
X810730Y-622273D01*
Y-622352D01*
X811430Y-624964D01*
X812782Y-627306D01*
X814694Y-629218D01*
X817036Y-630570D01*
X819648Y-631270D01*
X820365D01*
Y-621000D01*
X821000D01*
Y-620365D01*
X831270D01*
Y-619648D01*
X830570Y-617036D01*
X829218Y-614694D01*
X829162Y-614638D01*
X830214Y-612098D01*
X837186D01*
X838238Y-614638D01*
X838182Y-614694D01*
X836830Y-617036D01*
X836130Y-619648D01*
Y-622352D01*
X836830Y-624964D01*
X838182Y-627306D01*
X840094Y-629218D01*
X842436Y-630570D01*
X845048Y-631270D01*
X847752D01*
X850364Y-630570D01*
X852706Y-629218D01*
X854618Y-627306D01*
X855970Y-624964D01*
X856670Y-622352D01*
Y-619648D01*
X855970Y-617036D01*
X854618Y-614694D01*
X854582Y-614658D01*
X855634Y-612118D01*
X906919D01*
X907489Y-612725D01*
X907765Y-613069D01*
X908349Y-614440D01*
X907508Y-615897D01*
X906960Y-617942D01*
Y-620059D01*
X907508Y-622103D01*
X908566Y-623937D01*
X910063Y-625434D01*
X911897Y-626492D01*
X913941Y-627040D01*
X916059D01*
X918103Y-626492D01*
X919937Y-625434D01*
X921434Y-623937D01*
X922492Y-622103D01*
X923040Y-620059D01*
Y-617942D01*
X922492Y-615897D01*
X921434Y-614063D01*
X919937Y-612566D01*
X918103Y-611508D01*
X916059Y-610960D01*
X913941D01*
X913845Y-610986D01*
X912530Y-608709D01*
X933969Y-587270D01*
X936089D01*
X938192Y-586706D01*
X940078Y-585618D01*
X941618Y-584078D01*
X942706Y-582192D01*
X943270Y-580089D01*
Y-577911D01*
X942706Y-575808D01*
X941618Y-573922D01*
X940078Y-572382D01*
X938192Y-571294D01*
X936089Y-570730D01*
X933911D01*
X931808Y-571294D01*
X929922Y-572382D01*
X928382Y-573922D01*
X927294Y-575808D01*
X926730Y-577911D01*
Y-580032D01*
X904880Y-601882D01*
X897949D01*
X896897Y-599342D01*
X933969Y-562270D01*
X936089D01*
X938192Y-561706D01*
X940078Y-560618D01*
X941618Y-559078D01*
X942706Y-557192D01*
X943270Y-555089D01*
Y-552911D01*
X942706Y-550808D01*
X941618Y-548922D01*
X940078Y-547382D01*
X938192Y-546294D01*
X936089Y-545730D01*
X933911D01*
X931808Y-546294D01*
X929922Y-547382D01*
X928382Y-548922D01*
X927294Y-550808D01*
X926730Y-552911D01*
Y-555032D01*
X889908Y-591854D01*
X882977D01*
X881924Y-589314D01*
X933969Y-537270D01*
X936089D01*
X938192Y-536706D01*
X940078Y-535618D01*
X941618Y-534078D01*
X942706Y-532192D01*
X943270Y-530089D01*
Y-527911D01*
X942706Y-525808D01*
X941618Y-523922D01*
X940078Y-522382D01*
X938192Y-521294D01*
X936089Y-520730D01*
X933911D01*
X931808Y-521294D01*
X929922Y-522382D01*
X928382Y-523922D01*
X927294Y-525808D01*
X926730Y-527911D01*
Y-530032D01*
X873678Y-583084D01*
X866734D01*
X865694Y-580544D01*
X933969Y-512270D01*
X943270D01*
Y-495730D01*
X926730D01*
Y-505032D01*
X859220Y-572542D01*
X849090D01*
X848038Y-570002D01*
X912619Y-505420D01*
X913729Y-503760D01*
X914118Y-501801D01*
Y-469120D01*
X930365Y-452873D01*
X931808Y-453706D01*
X933911Y-454270D01*
X936089D01*
X938192Y-453706D01*
X940078Y-452618D01*
X941618Y-451078D01*
X942706Y-449192D01*
X943270Y-447089D01*
Y-444911D01*
X942706Y-442808D01*
X941618Y-440922D01*
X940078Y-439382D01*
X938192Y-438294D01*
X936089Y-437730D01*
X933911D01*
X931808Y-438294D01*
X929922Y-439382D01*
X928382Y-440922D01*
X927549Y-442365D01*
X926798Y-442515D01*
X925137Y-443624D01*
X906704Y-462058D01*
X904218Y-461105D01*
X903993Y-459245D01*
X933969Y-429270D01*
X936089D01*
X938192Y-428706D01*
X940078Y-427618D01*
X941618Y-426078D01*
X942706Y-424192D01*
X943270Y-422089D01*
Y-419911D01*
X942706Y-417808D01*
X941618Y-415922D01*
X940078Y-414382D01*
X938192Y-413294D01*
X936089Y-412730D01*
X933911D01*
X931808Y-413294D01*
X929922Y-414382D01*
X928382Y-415922D01*
X927294Y-417808D01*
X926730Y-419911D01*
Y-422032D01*
X896081Y-452680D01*
X893541Y-451628D01*
Y-443294D01*
X932850Y-403986D01*
X933911Y-404270D01*
X936089D01*
X938192Y-403706D01*
X940078Y-402618D01*
X941618Y-401078D01*
X942706Y-399192D01*
X943270Y-397089D01*
Y-394911D01*
X942706Y-392808D01*
X941618Y-390922D01*
X940078Y-389382D01*
X938192Y-388294D01*
X936089Y-387730D01*
X933911D01*
X931808Y-388294D01*
X929922Y-389382D01*
X928382Y-390922D01*
X927294Y-392808D01*
X926730Y-394911D01*
Y-395629D01*
X886041Y-436317D01*
X883502Y-435265D01*
Y-429538D01*
X933770Y-379270D01*
X943270D01*
Y-362730D01*
X926730D01*
Y-371833D01*
X874764Y-423799D01*
X873654Y-425459D01*
X873265Y-427418D01*
Y-487702D01*
X828585Y-532382D01*
X818369D01*
X817317Y-529842D01*
X843303Y-503856D01*
X844848Y-504270D01*
X847552D01*
X850164Y-503570D01*
X852506Y-502218D01*
X854418Y-500306D01*
X855770Y-497964D01*
X856470Y-495352D01*
Y-492648D01*
X855770Y-490036D01*
X854418Y-487694D01*
X852506Y-485782D01*
X850164Y-484430D01*
X847552Y-483730D01*
X844848D01*
X842236Y-484430D01*
X839894Y-485782D01*
X837982Y-487694D01*
X836630Y-490036D01*
X835930Y-492648D01*
Y-495352D01*
X836630Y-497964D01*
X837982Y-500306D01*
X838755Y-501079D01*
X809441Y-530393D01*
X794828D01*
X794726Y-530264D01*
X793906Y-527853D01*
X817903Y-503856D01*
X819448Y-504270D01*
X822152D01*
X824764Y-503570D01*
X827106Y-502218D01*
X829018Y-500306D01*
X830370Y-497964D01*
X831070Y-495352D01*
Y-492648D01*
X830370Y-490036D01*
X829018Y-487694D01*
X827106Y-485782D01*
X824764Y-484430D01*
X822152Y-483730D01*
X819448D01*
X816836Y-484430D01*
X814494Y-485782D01*
X812582Y-487694D01*
X811230Y-490036D01*
X810530Y-492648D01*
Y-495352D01*
X811230Y-497964D01*
X812582Y-500306D01*
X813355Y-501079D01*
X790391Y-524043D01*
X779774D01*
X778783Y-524240D01*
X777943Y-524801D01*
X775393Y-527350D01*
X772600D01*
X771548Y-524810D01*
X792503Y-503856D01*
X794048Y-504270D01*
X796752D01*
X799364Y-503570D01*
X801706Y-502218D01*
X803618Y-500306D01*
X804970Y-497964D01*
X805670Y-495352D01*
Y-492648D01*
X804970Y-490036D01*
X803618Y-487694D01*
X801706Y-485782D01*
X799364Y-484430D01*
X796752Y-483730D01*
X794048D01*
X791436Y-484430D01*
X789094Y-485782D01*
X787182Y-487694D01*
X785830Y-490036D01*
X785130Y-492648D01*
Y-495352D01*
X785830Y-497964D01*
X787182Y-500306D01*
X787955Y-501079D01*
X766763Y-522270D01*
X752280D01*
X751228Y-519730D01*
X767103Y-503856D01*
X768648Y-504270D01*
X771352D01*
X773964Y-503570D01*
X776306Y-502218D01*
X778218Y-500306D01*
X779570Y-497964D01*
X780270Y-495352D01*
Y-492648D01*
X779570Y-490036D01*
X778218Y-487694D01*
X776306Y-485782D01*
X773964Y-484430D01*
X771352Y-483730D01*
X768648D01*
X766036Y-484430D01*
X763694Y-485782D01*
X761782Y-487694D01*
X760430Y-490036D01*
X759730Y-492648D01*
Y-495352D01*
X760430Y-497964D01*
X761782Y-500306D01*
X762555Y-501079D01*
X746443Y-517190D01*
X742061D01*
X741070Y-517387D01*
X740230Y-517949D01*
X735769Y-522410D01*
X723143D01*
X722373Y-519870D01*
X722431Y-519831D01*
X739404Y-502859D01*
X740636Y-503570D01*
X743248Y-504270D01*
X745952D01*
X748564Y-503570D01*
X750906Y-502218D01*
X752818Y-500306D01*
X754170Y-497964D01*
X754870Y-495352D01*
Y-492648D01*
X754170Y-490036D01*
X753459Y-488804D01*
X792181Y-450082D01*
X794882Y-450056D01*
X796794Y-451968D01*
X799136Y-453320D01*
X801748Y-454020D01*
X804452D01*
X807064Y-453320D01*
X809406Y-451968D01*
X811318Y-450056D01*
X812670Y-447714D01*
X813370Y-445102D01*
Y-442398D01*
X812670Y-439786D01*
X811318Y-437444D01*
X811214Y-437340D01*
X812266Y-434800D01*
X816187D01*
X819941Y-438554D01*
X819230Y-439786D01*
X818530Y-442398D01*
Y-445102D01*
X819230Y-447714D01*
X820582Y-450056D01*
X822494Y-451968D01*
X824836Y-453320D01*
X827448Y-454020D01*
X830152D01*
X832764Y-453320D01*
X835106Y-451968D01*
X837018Y-450056D01*
X838370Y-447714D01*
X839070Y-445102D01*
Y-442398D01*
X838370Y-439786D01*
X837018Y-437444D01*
X835106Y-435532D01*
X832764Y-434180D01*
X830152Y-433480D01*
X827448D01*
X824836Y-434180D01*
X823604Y-434891D01*
X819091Y-430379D01*
X818251Y-429817D01*
X817260Y-429620D01*
X809199D01*
X808519Y-427080D01*
X809406Y-426568D01*
X811318Y-424656D01*
X812670Y-422314D01*
X813370Y-419702D01*
Y-416998D01*
X812670Y-414386D01*
X811318Y-412044D01*
X809406Y-410132D01*
X807064Y-408780D01*
X804452Y-408080D01*
X801748D01*
X799136Y-408780D01*
X796794Y-410132D01*
X794882Y-412044D01*
X793530Y-414386D01*
X792830Y-416998D01*
Y-419702D01*
X793530Y-422314D01*
X794882Y-424656D01*
X796794Y-426568D01*
X797681Y-427080D01*
X797001Y-429620D01*
X783499D01*
X782819Y-427080D01*
X783706Y-426568D01*
X785618Y-424656D01*
X786970Y-422314D01*
X787670Y-419702D01*
Y-416998D01*
X786970Y-414386D01*
X785618Y-412044D01*
X783706Y-410132D01*
X781364Y-408780D01*
X778752Y-408080D01*
X776048D01*
X773436Y-408780D01*
X771094Y-410132D01*
X769182Y-412044D01*
X767830Y-414386D01*
X767130Y-416998D01*
Y-419702D01*
X767830Y-422314D01*
X769182Y-424656D01*
X771094Y-426568D01*
X772081Y-427138D01*
X771639Y-429815D01*
X771629Y-429817D01*
X770789Y-430379D01*
X763361Y-437807D01*
X760218Y-437444D01*
X758306Y-435532D01*
X755964Y-434180D01*
X753352Y-433480D01*
X750648D01*
X748036Y-434180D01*
X745694Y-435532D01*
X745437Y-435789D01*
X742897Y-434737D01*
Y-431116D01*
X746804Y-427209D01*
X748036Y-427920D01*
X750648Y-428620D01*
X753352D01*
X755964Y-427920D01*
X758306Y-426568D01*
X760218Y-424656D01*
X761570Y-422314D01*
X762270Y-419702D01*
Y-416998D01*
X761570Y-414386D01*
X760218Y-412044D01*
X758306Y-410132D01*
X755964Y-408780D01*
X753352Y-408080D01*
X750648D01*
X748036Y-408780D01*
X745694Y-410132D01*
X743782Y-412044D01*
X742430Y-414386D01*
X741730Y-416998D01*
Y-419702D01*
X742430Y-422314D01*
X743141Y-423546D01*
X738476Y-428212D01*
X737914Y-429052D01*
X737717Y-430043D01*
Y-437732D01*
X735177Y-438413D01*
X734618Y-437444D01*
X732706Y-435532D01*
X730364Y-434180D01*
X727752Y-433480D01*
X725048D01*
X722436Y-434180D01*
X720094Y-435532D01*
X718182Y-437444D01*
X716830Y-439786D01*
X716130Y-442398D01*
Y-445102D01*
X716830Y-447714D01*
X718182Y-450056D01*
X718286Y-450160D01*
X717234Y-452700D01*
X710870D01*
Y-436270D01*
X710920Y-436020D01*
X710870Y-435770D01*
Y-433480D01*
X712996Y-432480D01*
X714760D01*
X715751Y-432283D01*
X716591Y-431721D01*
X721104Y-427209D01*
X722336Y-427920D01*
X724948Y-428620D01*
X727652D01*
X730264Y-427920D01*
X732606Y-426568D01*
X734518Y-424656D01*
X735870Y-422314D01*
X736570Y-419702D01*
Y-416998D01*
X735870Y-414386D01*
X734518Y-412044D01*
X732606Y-410132D01*
X730264Y-408780D01*
X727652Y-408080D01*
X724948D01*
X722336Y-408780D01*
X719994Y-410132D01*
X718082Y-412044D01*
X716730Y-414386D01*
X716030Y-416998D01*
Y-419702D01*
X716730Y-422314D01*
X717441Y-423546D01*
X713687Y-427300D01*
X710870D01*
Y-408080D01*
X690330D01*
Y-412410D01*
X667000D01*
X666009Y-412607D01*
X665169Y-413169D01*
X664008Y-414330D01*
X661945Y-413035D01*
X661826Y-412919D01*
Y-411040D01*
X661091Y-409266D01*
X659734Y-407909D01*
X657960Y-407174D01*
X656040D01*
X654266Y-407909D01*
X654257Y-407918D01*
X651950Y-408532D01*
X651030Y-407826D01*
X650423Y-407219D01*
X648649Y-406484D01*
X646730D01*
X644956Y-407219D01*
X644568Y-407607D01*
X642632Y-408122D01*
X641341Y-407516D01*
X640734Y-406909D01*
X638960Y-406174D01*
X637040D01*
X635266Y-406909D01*
X635135Y-407040D01*
X632415Y-406999D01*
X632113Y-406743D01*
X631011Y-405641D01*
X631005Y-405638D01*
X630409Y-402642D01*
X656767Y-376284D01*
X660306D01*
X661297Y-376087D01*
X662137Y-375525D01*
X678896Y-358766D01*
X679040Y-358826D01*
X680960D01*
X682734Y-358091D01*
X684091Y-356734D01*
X684826Y-354960D01*
Y-353040D01*
X684091Y-351266D01*
X682734Y-349909D01*
X680960Y-349174D01*
X679040D01*
X677266Y-349909D01*
X676568Y-350607D01*
X675000Y-351025D01*
X673432Y-350607D01*
X672734Y-349909D01*
X670960Y-349174D01*
X669040D01*
X667266Y-349909D01*
X667259Y-349916D01*
X664493Y-349868D01*
X664239Y-349617D01*
X663132Y-348510D01*
X661359Y-347775D01*
X659439D01*
X657665Y-348510D01*
X656307Y-349868D01*
X655573Y-351641D01*
Y-353561D01*
X655632Y-353705D01*
X648169Y-361169D01*
X647607Y-362009D01*
X647410Y-363000D01*
Y-366022D01*
X601090Y-412342D01*
X598094Y-411747D01*
X598091Y-411740D01*
X596734Y-410383D01*
X594960Y-409648D01*
X593173D01*
X592967Y-409588D01*
X590826Y-407816D01*
Y-407040D01*
X590091Y-405266D01*
X588734Y-403909D01*
X586960Y-403174D01*
X584935Y-402022D01*
X584826Y-400827D01*
Y-400040D01*
X584091Y-398266D01*
X582734Y-396909D01*
X580960Y-396174D01*
X580173D01*
X578952Y-396013D01*
X577826Y-393944D01*
X577091Y-392170D01*
X575734Y-390813D01*
X575590Y-390753D01*
Y-343230D01*
X575393Y-342239D01*
X574831Y-341399D01*
X510842Y-277410D01*
X510902Y-277266D01*
Y-275346D01*
X510842Y-275202D01*
X530810Y-255235D01*
X533156Y-256207D01*
Y-258746D01*
X533354Y-259737D01*
X533915Y-260577D01*
X563410Y-290073D01*
Y-311849D01*
X563266Y-311909D01*
X561909Y-313266D01*
X561174Y-315040D01*
Y-316960D01*
X561909Y-318734D01*
X563266Y-320091D01*
X565040Y-320826D01*
X566960D01*
X568734Y-320091D01*
X570091Y-318734D01*
X570826Y-316960D01*
Y-315040D01*
X570091Y-313266D01*
X568734Y-311909D01*
X568590Y-311849D01*
Y-289000D01*
X568393Y-288009D01*
X567831Y-287169D01*
X538336Y-257673D01*
Y-254753D01*
X539284Y-254098D01*
X540876Y-253457D01*
X542234Y-254020D01*
X544154D01*
X545928Y-253285D01*
X546685Y-252528D01*
X588782D01*
X589298Y-253044D01*
X591051Y-253770D01*
X592949D01*
X594702Y-253044D01*
X595218Y-252528D01*
X667806D01*
X669082Y-252274D01*
X670164Y-251551D01*
X715945Y-205770D01*
X716949D01*
X718702Y-205044D01*
X720044Y-203702D01*
X720770Y-201949D01*
Y-200051D01*
X720044Y-198298D01*
X718702Y-196956D01*
X716949Y-196230D01*
X715051D01*
X713298Y-196956D01*
X711956Y-198298D01*
X711230Y-200051D01*
Y-201055D01*
X666425Y-245860D01*
X595606D01*
X594702Y-244956D01*
X592949Y-244230D01*
X591051D01*
X589298Y-244956D01*
X588394Y-245860D01*
X546685D01*
X545928Y-245103D01*
X544672Y-244583D01*
X543958Y-242808D01*
X543835Y-241828D01*
X651831Y-133831D01*
X652393Y-132991D01*
X652590Y-132000D01*
Y-108073D01*
X668073Y-92590D01*
X917029D01*
X917709Y-95130D01*
X915887Y-96182D01*
X913882Y-98187D01*
X912464Y-100643D01*
X911730Y-103382D01*
Y-104165D01*
X922500D01*
X933270D01*
Y-103382D01*
X932536Y-100643D01*
X931118Y-98187D01*
X929113Y-96182D01*
X927291Y-95130D01*
X927971Y-92590D01*
X946000D01*
X946991Y-92393D01*
X947831Y-91831D01*
X955896Y-83766D01*
X956040Y-83826D01*
X957960D01*
X959734Y-83091D01*
X961091Y-81734D01*
X961826Y-79960D01*
Y-78040D01*
X961091Y-76266D01*
X959734Y-74909D01*
X957960Y-74174D01*
X956040D01*
X954266Y-74909D01*
X952909Y-76266D01*
X952174Y-78040D01*
Y-79960D01*
X952234Y-80104D01*
X944927Y-87410D01*
X667000D01*
X666009Y-87607D01*
X665169Y-88169D01*
X650746Y-102591D01*
X648400Y-101619D01*
Y-74003D01*
X651868Y-70535D01*
X652408Y-70846D01*
X654511Y-71410D01*
X656689D01*
X658792Y-70846D01*
X660678Y-69758D01*
X662218Y-68218D01*
X663306Y-66332D01*
X663870Y-64229D01*
Y-62051D01*
X663306Y-59948D01*
X662603Y-58730D01*
X663391Y-56784D01*
X663937Y-56190D01*
X707277D01*
X708730Y-57642D01*
Y-70520D01*
X725270D01*
Y-53980D01*
X713939D01*
X713343Y-53130D01*
X714664Y-50590D01*
X726677D01*
X734605Y-58518D01*
X734294Y-59058D01*
X733730Y-61161D01*
Y-63339D01*
X734294Y-65442D01*
X735382Y-67328D01*
X736922Y-68868D01*
X738808Y-69956D01*
X740911Y-70520D01*
X743089D01*
X745192Y-69956D01*
X747078Y-68868D01*
X748618Y-67328D01*
X749706Y-65442D01*
X750270Y-63339D01*
Y-61161D01*
X749706Y-59058D01*
X748618Y-57172D01*
X747078Y-55632D01*
X745192Y-54544D01*
X743089Y-53980D01*
X740911D01*
X738808Y-54544D01*
X738268Y-54855D01*
X732539Y-49126D01*
X733511Y-46780D01*
X747867D01*
X759605Y-58518D01*
X759294Y-59058D01*
X758730Y-61161D01*
Y-63339D01*
X759294Y-65442D01*
X760382Y-67328D01*
X761922Y-68868D01*
X763808Y-69956D01*
X765911Y-70520D01*
X768089D01*
X770192Y-69956D01*
X772078Y-68868D01*
X773618Y-67328D01*
X774706Y-65442D01*
X775270Y-63339D01*
Y-61161D01*
X774706Y-59058D01*
X773618Y-57172D01*
X772078Y-55632D01*
X770192Y-54544D01*
X768089Y-53980D01*
X765911D01*
X763808Y-54544D01*
X763268Y-54855D01*
X750771Y-42359D01*
X749931Y-41797D01*
X748940Y-41600D01*
D02*
G37*
G36*
X428670Y-64230D02*
X407130D01*
Y-85770D01*
X428670D01*
Y-64230D01*
D02*
G37*
G36*
X393918D02*
X391082D01*
X388343Y-64964D01*
X385887Y-66382D01*
X383882Y-68387D01*
X382464Y-70843D01*
X381730Y-73582D01*
Y-76418D01*
X382464Y-79157D01*
X383882Y-81613D01*
X385887Y-83618D01*
X388343Y-85036D01*
X391082Y-85770D01*
X393918D01*
X396657Y-85036D01*
X399113Y-83618D01*
X401118Y-81613D01*
X402536Y-79157D01*
X403270Y-76418D01*
Y-73582D01*
X402536Y-70843D01*
X401118Y-68387D01*
X399113Y-66382D01*
X396657Y-64964D01*
X393918Y-64230D01*
D02*
G37*
G36*
X305960Y-86174D02*
X304040D01*
X302266Y-86909D01*
X301509Y-87666D01*
X274491D01*
X273734Y-86909D01*
X271960Y-86174D01*
X270040D01*
X268266Y-86909D01*
X266909Y-88266D01*
X266174Y-90040D01*
Y-91960D01*
X266909Y-93734D01*
X268266Y-95091D01*
X270040Y-95826D01*
X271960D01*
X273734Y-95091D01*
X274491Y-94334D01*
X301509D01*
X302266Y-95091D01*
X304040Y-95826D01*
X305960D01*
X307734Y-95091D01*
X309091Y-93734D01*
X309826Y-91960D01*
Y-90040D01*
X309091Y-88266D01*
X307734Y-86909D01*
X305960Y-86174D01*
D02*
G37*
G36*
X95857Y-43916D02*
X74317D01*
Y-65456D01*
X92194D01*
X136069Y-109331D01*
X136910Y-109893D01*
X137901Y-110090D01*
X153230D01*
Y-112770D01*
X161770D01*
Y-102230D01*
X153230D01*
Y-104910D01*
X138973D01*
X95857Y-61794D01*
Y-43916D01*
D02*
G37*
G36*
X933270Y-105435D02*
X923135D01*
Y-115570D01*
X923918D01*
X926657Y-114836D01*
X929113Y-113418D01*
X931118Y-111413D01*
X932536Y-108957D01*
X933270Y-106218D01*
Y-105435D01*
D02*
G37*
G36*
X921865D02*
X911730D01*
Y-106218D01*
X912464Y-108957D01*
X913882Y-111413D01*
X915887Y-113418D01*
X918343Y-114836D01*
X921082Y-115570D01*
X921865D01*
Y-105435D01*
D02*
G37*
G36*
X933270Y-119430D02*
X911730D01*
Y-140970D01*
X933270D01*
Y-119430D01*
D02*
G37*
G36*
X455818Y-64230D02*
X452982D01*
X450243Y-64964D01*
X447787Y-66382D01*
X445782Y-68387D01*
X444364Y-70843D01*
X443630Y-73582D01*
Y-76418D01*
X444364Y-79157D01*
X445782Y-81613D01*
X447787Y-83618D01*
X450243Y-85036D01*
X451810Y-85456D01*
Y-96527D01*
X400658Y-147680D01*
X399141D01*
X397553Y-148338D01*
X396480Y-149410D01*
X363073D01*
X333522Y-119859D01*
X332682Y-119298D01*
X331691Y-119101D01*
X266763D01*
X255831Y-108169D01*
X254991Y-107607D01*
X254000Y-107410D01*
X174770D01*
Y-102230D01*
X166230D01*
Y-112770D01*
X174770D01*
Y-112590D01*
X252927D01*
X263859Y-123522D01*
X264699Y-124083D01*
X265691Y-124280D01*
X330618D01*
X360169Y-153831D01*
X361009Y-154393D01*
X362000Y-154590D01*
X396480D01*
X397553Y-155662D01*
X399141Y-156320D01*
X400859D01*
X402447Y-155662D01*
X403662Y-154447D01*
X404320Y-152859D01*
Y-151342D01*
X456231Y-99431D01*
X456793Y-98591D01*
X456990Y-97600D01*
Y-85456D01*
X458557Y-85036D01*
X461013Y-83618D01*
X463018Y-81613D01*
X464436Y-79157D01*
X465170Y-76418D01*
Y-73582D01*
X464436Y-70843D01*
X463018Y-68387D01*
X461013Y-66382D01*
X458557Y-64964D01*
X455818Y-64230D01*
D02*
G37*
G36*
X86418Y-69230D02*
X83582D01*
X80843Y-69964D01*
X78387Y-71382D01*
X76382Y-73387D01*
X74964Y-75843D01*
X74230Y-78582D01*
Y-81418D01*
X74964Y-84157D01*
X76382Y-86613D01*
X78387Y-88618D01*
X80843Y-90036D01*
X83582Y-90770D01*
X86418D01*
X89157Y-90036D01*
X90562Y-89225D01*
X148169Y-146831D01*
X149009Y-147393D01*
X150000Y-147590D01*
X153730D01*
Y-150270D01*
X162270D01*
Y-139730D01*
X153730D01*
Y-142410D01*
X151073D01*
X94225Y-85562D01*
X95036Y-84157D01*
X95770Y-81418D01*
Y-78582D01*
X95036Y-75843D01*
X93618Y-73387D01*
X91613Y-71382D01*
X89157Y-69964D01*
X86418Y-69230D01*
D02*
G37*
G36*
X923918Y-154030D02*
X923135D01*
Y-164165D01*
X933270D01*
Y-163382D01*
X932536Y-160643D01*
X931118Y-158187D01*
X929113Y-156182D01*
X926657Y-154764D01*
X923918Y-154030D01*
D02*
G37*
G36*
X921865D02*
X921082D01*
X918343Y-154764D01*
X915887Y-156182D01*
X913882Y-158187D01*
X912464Y-160643D01*
X911730Y-163382D01*
Y-164165D01*
X921865D01*
Y-154030D01*
D02*
G37*
G36*
X933270Y-165435D02*
X923135D01*
Y-175570D01*
X923918D01*
X926657Y-174836D01*
X929113Y-173418D01*
X931118Y-171413D01*
X932536Y-168957D01*
X933270Y-166218D01*
Y-165435D01*
D02*
G37*
G36*
X921865D02*
X911730D01*
Y-166218D01*
X912464Y-168957D01*
X913882Y-171413D01*
X915887Y-173418D01*
X918343Y-174836D01*
X921082Y-175570D01*
X921865D01*
Y-165435D01*
D02*
G37*
G36*
X481218Y-64230D02*
X478382D01*
X475643Y-64964D01*
X473187Y-66382D01*
X471182Y-68387D01*
X469764Y-70843D01*
X469030Y-73582D01*
Y-76418D01*
X469764Y-79157D01*
X471182Y-81613D01*
X473187Y-83618D01*
X475643Y-85036D01*
X477210Y-85456D01*
Y-92127D01*
X388657Y-180680D01*
X387141D01*
X385553Y-181338D01*
X384480Y-182410D01*
X373064D01*
X372582Y-182314D01*
X360977D01*
X334331Y-155669D01*
X333491Y-155107D01*
X332500Y-154910D01*
X262573D01*
X255831Y-148169D01*
X254991Y-147607D01*
X254000Y-147410D01*
X197733D01*
X197081Y-145897D01*
X196955Y-144870D01*
X198091Y-143734D01*
X198826Y-141960D01*
Y-140040D01*
X198091Y-138266D01*
X196734Y-136909D01*
X196590Y-136849D01*
Y-131151D01*
X196734Y-131091D01*
X198091Y-129734D01*
X198826Y-127960D01*
Y-126040D01*
X198091Y-124266D01*
X196734Y-122909D01*
X194960Y-122174D01*
X193040D01*
X191266Y-122909D01*
X189909Y-124266D01*
X189174Y-126040D01*
Y-127960D01*
X189909Y-129734D01*
X191266Y-131091D01*
X191410Y-131151D01*
Y-136849D01*
X191266Y-136909D01*
X189909Y-138266D01*
X189174Y-140040D01*
Y-141960D01*
X189909Y-143734D01*
X191045Y-144870D01*
X190919Y-145897D01*
X190267Y-147410D01*
X176073D01*
X175270Y-146608D01*
Y-139730D01*
X166730D01*
Y-150270D01*
X171607D01*
X173169Y-151831D01*
X174009Y-152393D01*
X175000Y-152590D01*
X252927D01*
X259669Y-159331D01*
X260509Y-159893D01*
X261500Y-160090D01*
X331427D01*
X358073Y-186735D01*
X358913Y-187297D01*
X359904Y-187494D01*
X372195D01*
X372678Y-187590D01*
X384480D01*
X385553Y-188662D01*
X387141Y-189320D01*
X388859D01*
X390447Y-188662D01*
X391662Y-187447D01*
X392320Y-185859D01*
Y-184342D01*
X481631Y-95031D01*
X482193Y-94191D01*
X482390Y-93200D01*
Y-85456D01*
X483957Y-85036D01*
X486413Y-83618D01*
X488418Y-81613D01*
X489836Y-79157D01*
X490570Y-76418D01*
Y-73582D01*
X489836Y-70843D01*
X488418Y-68387D01*
X486413Y-66382D01*
X483957Y-64964D01*
X481218Y-64230D01*
D02*
G37*
G36*
X86505Y-94716D02*
X83669D01*
X80930Y-95450D01*
X78474Y-96868D01*
X76469Y-98874D01*
X75051Y-101329D01*
X74317Y-104068D01*
Y-106904D01*
X75051Y-109643D01*
X76469Y-112099D01*
X78474Y-114105D01*
X80930Y-115522D01*
X83669Y-116256D01*
X86505D01*
X89244Y-115522D01*
X90649Y-114711D01*
X153304Y-177366D01*
X153730Y-179730D01*
X153730D01*
Y-190270D01*
X162270D01*
Y-179730D01*
X160590D01*
Y-178400D01*
X160393Y-177408D01*
X159831Y-176568D01*
X94312Y-111049D01*
X95123Y-109643D01*
X95857Y-106904D01*
Y-104068D01*
X95123Y-101329D01*
X93705Y-98874D01*
X91700Y-96868D01*
X89244Y-95450D01*
X86505Y-94716D01*
D02*
G37*
G36*
X933270Y-179430D02*
X911730D01*
Y-200970D01*
X933270D01*
Y-179430D01*
D02*
G37*
G36*
X506704Y-64143D02*
X503868D01*
X501129Y-64877D01*
X498674Y-66295D01*
X496668Y-68300D01*
X495250Y-70756D01*
X494516Y-73495D01*
Y-76331D01*
X495250Y-79070D01*
X496668Y-81526D01*
X498674Y-83531D01*
X501129Y-84949D01*
X502697Y-85369D01*
Y-96641D01*
X394658Y-204680D01*
X393141D01*
X391553Y-205338D01*
X390480Y-206410D01*
X350073D01*
X334331Y-190669D01*
X333491Y-190107D01*
X332500Y-189910D01*
X258190D01*
X255449Y-187169D01*
X254609Y-186607D01*
X253618Y-186410D01*
X175270D01*
Y-179730D01*
X166730D01*
Y-190270D01*
X171607D01*
X172169Y-190831D01*
X173009Y-191393D01*
X174000Y-191590D01*
X252545D01*
X255286Y-194331D01*
X256126Y-194893D01*
X257118Y-195090D01*
X331427D01*
X347169Y-210831D01*
X347227Y-210870D01*
X346457Y-213410D01*
X344000D01*
X343009Y-213607D01*
X342169Y-214169D01*
X326927Y-229410D01*
X178073D01*
X175270Y-226607D01*
Y-219730D01*
X166730D01*
Y-230270D01*
X171607D01*
X175169Y-233831D01*
X176009Y-234393D01*
X177000Y-234590D01*
X328000D01*
X328991Y-234393D01*
X329831Y-233831D01*
X345073Y-218590D01*
X402480D01*
X403553Y-219662D01*
X405141Y-220320D01*
X406859D01*
X408447Y-219662D01*
X409662Y-218447D01*
X410320Y-216859D01*
Y-215141D01*
X409662Y-213553D01*
X408447Y-212338D01*
X406859Y-211680D01*
X405141D01*
X403553Y-212338D01*
X402480Y-213410D01*
X399291D01*
X398710Y-212709D01*
X397901Y-210870D01*
X398320Y-209859D01*
Y-208342D01*
X507118Y-99545D01*
X507679Y-98705D01*
X507876Y-97713D01*
Y-85369D01*
X509444Y-84949D01*
X511899Y-83531D01*
X513905Y-81526D01*
X515322Y-79070D01*
X516056Y-76331D01*
Y-73495D01*
X515322Y-70756D01*
X513905Y-68300D01*
X511899Y-66295D01*
X509444Y-64877D01*
X506704Y-64143D01*
D02*
G37*
G36*
X923918Y-214030D02*
X923135D01*
Y-224165D01*
X933270D01*
Y-223382D01*
X932536Y-220643D01*
X931118Y-218187D01*
X929113Y-216182D01*
X926657Y-214764D01*
X923918Y-214030D01*
D02*
G37*
G36*
X921865D02*
X921082D01*
X918343Y-214764D01*
X915887Y-216182D01*
X913882Y-218187D01*
X912464Y-220643D01*
X911730Y-223382D01*
Y-224165D01*
X921865D01*
Y-214030D01*
D02*
G37*
G36*
X86418Y-206930D02*
X83582D01*
X80843Y-207664D01*
X78387Y-209082D01*
X76382Y-211087D01*
X74964Y-213543D01*
X74230Y-216282D01*
Y-219118D01*
X74964Y-221857D01*
X76382Y-224313D01*
X78387Y-226318D01*
X80843Y-227736D01*
X83582Y-228470D01*
X86418D01*
X89157Y-227736D01*
X91613Y-226318D01*
X93618Y-224313D01*
X95036Y-221857D01*
X95770Y-219118D01*
Y-216282D01*
X95036Y-213543D01*
X93618Y-211087D01*
X91613Y-209082D01*
X89157Y-207664D01*
X86418Y-206930D01*
D02*
G37*
G36*
X86505Y-120116D02*
X83669D01*
X80930Y-120850D01*
X78474Y-122268D01*
X76469Y-124274D01*
X75051Y-126729D01*
X74317Y-129468D01*
Y-132304D01*
X75051Y-135043D01*
X76469Y-137499D01*
X78474Y-139505D01*
X80930Y-140922D01*
X83669Y-141656D01*
X86505D01*
X89244Y-140922D01*
X90649Y-140111D01*
X155410Y-204872D01*
Y-219730D01*
X153730D01*
Y-228375D01*
X151190Y-229428D01*
X95770Y-174007D01*
Y-156130D01*
X74230D01*
Y-177670D01*
X92107D01*
X155410Y-240973D01*
Y-259730D01*
X153730D01*
Y-270270D01*
X162270D01*
Y-259730D01*
X160590D01*
Y-239900D01*
X160393Y-238909D01*
X159831Y-238069D01*
X154572Y-232810D01*
X155625Y-230270D01*
X162270D01*
Y-219730D01*
X160590D01*
Y-203799D01*
X160393Y-202808D01*
X159831Y-201968D01*
X94312Y-136449D01*
X95123Y-135043D01*
X95857Y-132304D01*
Y-129468D01*
X95123Y-126729D01*
X93705Y-124274D01*
X91700Y-122268D01*
X89244Y-120850D01*
X86505Y-120116D01*
D02*
G37*
G36*
X933270Y-225435D02*
X923135D01*
Y-235570D01*
X923918D01*
X926657Y-234836D01*
X929113Y-233418D01*
X931118Y-231413D01*
X932536Y-228957D01*
X933270Y-226218D01*
Y-225435D01*
D02*
G37*
G36*
X921865D02*
X911730D01*
Y-226218D01*
X912464Y-228957D01*
X913882Y-231413D01*
X915887Y-233418D01*
X918343Y-234836D01*
X921082Y-235570D01*
X921865D01*
Y-225435D01*
D02*
G37*
G36*
X86418Y-232330D02*
X83582D01*
X80843Y-233064D01*
X78387Y-234482D01*
X76382Y-236487D01*
X74964Y-238943D01*
X74230Y-241682D01*
Y-244518D01*
X74964Y-247257D01*
X76382Y-249713D01*
X78387Y-251718D01*
X80843Y-253136D01*
X83582Y-253870D01*
X86418D01*
X89157Y-253136D01*
X91613Y-251718D01*
X93618Y-249713D01*
X95036Y-247257D01*
X95770Y-244518D01*
Y-241682D01*
X95036Y-238943D01*
X93618Y-236487D01*
X91613Y-234482D01*
X89157Y-233064D01*
X86418Y-232330D01*
D02*
G37*
G36*
X933270Y-239430D02*
X911730D01*
Y-260970D01*
X933270D01*
Y-239430D01*
D02*
G37*
G36*
X79350Y-266407D02*
X71350D01*
X68904Y-266894D01*
X66830Y-268280D01*
X65444Y-270354D01*
X64957Y-272800D01*
X65444Y-275246D01*
X66830Y-277320D01*
X68904Y-278706D01*
X71350Y-279193D01*
X79350D01*
X81796Y-278706D01*
X83870Y-277320D01*
X85256Y-275246D01*
X85743Y-272800D01*
X85256Y-270354D01*
X83870Y-268280D01*
X81796Y-266894D01*
X79350Y-266407D01*
D02*
G37*
G36*
X923918Y-271530D02*
X923135D01*
Y-281665D01*
X933270D01*
Y-280882D01*
X932536Y-278143D01*
X931118Y-275687D01*
X929113Y-273682D01*
X926657Y-272264D01*
X923918Y-271530D01*
D02*
G37*
G36*
X921865D02*
X921082D01*
X918343Y-272264D01*
X915887Y-273682D01*
X913882Y-275687D01*
X912464Y-278143D01*
X911730Y-280882D01*
Y-281665D01*
X921865D01*
Y-271530D01*
D02*
G37*
G36*
X122650Y-266407D02*
X111650D01*
X109204Y-266894D01*
X107129Y-268280D01*
X105744Y-270354D01*
X105257Y-272800D01*
X105744Y-275246D01*
X107129Y-277320D01*
X109204Y-278706D01*
X110496Y-278963D01*
X110439Y-281542D01*
X108870Y-282192D01*
X107241Y-283820D01*
X106360Y-285948D01*
Y-288252D01*
X107241Y-290380D01*
X108870Y-292008D01*
X110998Y-292890D01*
X113302D01*
X115430Y-292008D01*
X117058Y-290380D01*
X117940Y-288252D01*
Y-285948D01*
X117058Y-283820D01*
X115430Y-282192D01*
X114323Y-281733D01*
X114828Y-279193D01*
X122650D01*
X125096Y-278706D01*
X127170Y-277320D01*
X128556Y-275246D01*
X129043Y-272800D01*
X128556Y-270354D01*
X127170Y-268280D01*
X125096Y-266894D01*
X122650Y-266407D01*
D02*
G37*
G36*
X933270Y-282935D02*
X923135D01*
Y-293070D01*
X923918D01*
X926657Y-292336D01*
X929113Y-290918D01*
X931118Y-288913D01*
X932536Y-286457D01*
X933270Y-283718D01*
Y-282935D01*
D02*
G37*
G36*
X921865D02*
X911730D01*
Y-283718D01*
X912464Y-286457D01*
X913882Y-288913D01*
X915887Y-290918D01*
X918343Y-292336D01*
X921082Y-293070D01*
X921865D01*
Y-282935D01*
D02*
G37*
G36*
X407960Y-291175D02*
X406040D01*
X404267Y-291910D01*
X402910Y-293267D01*
X402850Y-293410D01*
X380000D01*
X379009Y-293607D01*
X378169Y-294169D01*
X371103Y-301234D01*
X370960Y-301175D01*
X369040D01*
X367267Y-301910D01*
X365910Y-303267D01*
X365175Y-305040D01*
Y-306960D01*
X365910Y-308733D01*
X367267Y-310090D01*
X369040Y-310825D01*
X370960D01*
X371423Y-310633D01*
X373367Y-312577D01*
X373175Y-313040D01*
Y-314960D01*
X373910Y-316733D01*
X375267Y-318090D01*
X377040Y-318825D01*
X378960D01*
X380733Y-318090D01*
X382090Y-316733D01*
X382825Y-314960D01*
Y-313040D01*
X382766Y-312897D01*
X387073Y-308590D01*
X402850D01*
X402910Y-308733D01*
X404267Y-310090D01*
X406040Y-310825D01*
X407960D01*
X409733Y-310090D01*
X411090Y-308733D01*
X411825Y-306960D01*
Y-305040D01*
X411090Y-303267D01*
X410391Y-302567D01*
X409975Y-301000D01*
X410391Y-299433D01*
X411090Y-298733D01*
X411825Y-296960D01*
Y-295040D01*
X411090Y-293267D01*
X409733Y-291910D01*
X407960Y-291175D01*
D02*
G37*
G36*
X86331Y-181444D02*
X83495D01*
X80756Y-182178D01*
X78300Y-183595D01*
X76295Y-185601D01*
X74877Y-188057D01*
X74143Y-190796D01*
Y-193631D01*
X74877Y-196371D01*
X76295Y-198827D01*
X78300Y-200832D01*
X80756Y-202250D01*
X83495Y-202983D01*
X86331D01*
X89070Y-202250D01*
X90475Y-201438D01*
X141410Y-252373D01*
Y-290500D01*
X141607Y-291491D01*
X142169Y-292331D01*
X153230Y-303393D01*
Y-310270D01*
X161770D01*
Y-299730D01*
X156892D01*
X146590Y-289427D01*
Y-251301D01*
X146393Y-250310D01*
X145831Y-249469D01*
X94138Y-197776D01*
X94949Y-196371D01*
X95683Y-193631D01*
Y-190796D01*
X94949Y-188057D01*
X93531Y-185601D01*
X91526Y-183595D01*
X89070Y-182178D01*
X86331Y-181444D01*
D02*
G37*
G36*
X933270Y-296930D02*
X911730D01*
Y-318470D01*
X933270D01*
Y-296930D01*
D02*
G37*
G36*
X138859Y-307680D02*
X137141D01*
X135553Y-308338D01*
X134338Y-309553D01*
X133680Y-311141D01*
Y-312859D01*
X134338Y-314447D01*
X134910Y-315020D01*
Y-320190D01*
X134553Y-320338D01*
X133338Y-321553D01*
X132680Y-323141D01*
Y-324859D01*
X133338Y-326447D01*
X134553Y-327662D01*
X136141Y-328320D01*
X137859D01*
X139447Y-327662D01*
X140662Y-326447D01*
X141320Y-324859D01*
Y-323141D01*
X140662Y-321553D01*
X140090Y-320980D01*
Y-315810D01*
X140447Y-315662D01*
X141662Y-314447D01*
X142320Y-312859D01*
Y-311141D01*
X141662Y-309553D01*
X140447Y-308338D01*
X138859Y-307680D01*
D02*
G37*
G36*
X223655Y-333730D02*
X221345D01*
X219115Y-334328D01*
X217115Y-335482D01*
X215482Y-337115D01*
X214328Y-339115D01*
X213730Y-341345D01*
Y-343655D01*
X214328Y-345885D01*
X215482Y-347885D01*
X217115Y-349518D01*
X219115Y-350672D01*
X221345Y-351270D01*
X223655D01*
X225885Y-350672D01*
X227885Y-349518D01*
X229518Y-347885D01*
X230672Y-345885D01*
X231270Y-343655D01*
Y-341345D01*
X230672Y-339115D01*
X229518Y-337115D01*
X227885Y-335482D01*
X225885Y-334328D01*
X223655Y-333730D01*
D02*
G37*
G36*
X178655D02*
X176345D01*
X174115Y-334328D01*
X172115Y-335482D01*
X170482Y-337115D01*
X169328Y-339115D01*
X168730Y-341345D01*
Y-343655D01*
X169328Y-345885D01*
X170482Y-347885D01*
X172115Y-349518D01*
X174115Y-350672D01*
X176345Y-351270D01*
X178655D01*
X180885Y-350672D01*
X182885Y-349518D01*
X184518Y-347885D01*
X185672Y-345885D01*
X186270Y-343655D01*
Y-341345D01*
X185672Y-339115D01*
X184518Y-337115D01*
X182885Y-335482D01*
X180885Y-334328D01*
X178655Y-333730D01*
D02*
G37*
G36*
X306045Y-334960D02*
X303735D01*
X301505Y-335558D01*
X299505Y-336712D01*
X297872Y-338345D01*
X296718Y-340345D01*
X296120Y-342575D01*
Y-344884D01*
X296718Y-347115D01*
X297872Y-349115D01*
X299505Y-350748D01*
X301505Y-351902D01*
X303735Y-352500D01*
X306045D01*
X308275Y-351902D01*
X310275Y-350748D01*
X311908Y-349115D01*
X313062Y-347115D01*
X313660Y-344884D01*
Y-342575D01*
X313062Y-340345D01*
X311908Y-338345D01*
X310275Y-336712D01*
X308275Y-335558D01*
X306045Y-334960D01*
D02*
G37*
G36*
X261045D02*
X258735D01*
X256505Y-335558D01*
X254505Y-336712D01*
X252872Y-338345D01*
X251718Y-340345D01*
X251120Y-342575D01*
Y-344884D01*
X251718Y-347115D01*
X252872Y-349115D01*
X254505Y-350748D01*
X256505Y-351902D01*
X258735Y-352500D01*
X261045D01*
X263275Y-351902D01*
X265275Y-350748D01*
X266908Y-349115D01*
X268062Y-347115D01*
X268660Y-344884D01*
Y-342575D01*
X268062Y-340345D01*
X266908Y-338345D01*
X265275Y-336712D01*
X263275Y-335558D01*
X261045Y-334960D01*
D02*
G37*
G36*
X113302Y-339110D02*
X110998D01*
X108870Y-339991D01*
X107241Y-341620D01*
X106360Y-343748D01*
Y-346052D01*
X107241Y-348180D01*
X108870Y-349809D01*
X110439Y-350458D01*
X110496Y-353037D01*
X109204Y-353294D01*
X107129Y-354680D01*
X105744Y-356754D01*
X105257Y-359200D01*
X105744Y-361646D01*
X107129Y-363720D01*
X109204Y-365106D01*
X111650Y-365593D01*
X122650D01*
X125096Y-365106D01*
X127170Y-363720D01*
X128556Y-361646D01*
X129043Y-359200D01*
X128556Y-356754D01*
X127170Y-354680D01*
X125096Y-353294D01*
X122650Y-352807D01*
X114828D01*
X114323Y-350267D01*
X115430Y-349809D01*
X117058Y-348180D01*
X117940Y-346052D01*
Y-343748D01*
X117058Y-341620D01*
X115430Y-339991D01*
X113302Y-339110D01*
D02*
G37*
G36*
X79350Y-352807D02*
X71350D01*
X68904Y-353294D01*
X66830Y-354680D01*
X65444Y-356754D01*
X64957Y-359200D01*
X65444Y-361646D01*
X66830Y-363720D01*
X68904Y-365106D01*
X71350Y-365593D01*
X79350D01*
X81796Y-365106D01*
X83870Y-363720D01*
X85256Y-361646D01*
X85743Y-359200D01*
X85256Y-356754D01*
X83870Y-354680D01*
X81796Y-353294D01*
X79350Y-352807D01*
D02*
G37*
G36*
X95857Y-380500D02*
X74317D01*
Y-402040D01*
X95857D01*
Y-380500D01*
D02*
G37*
G36*
X223655Y-398730D02*
X223135D01*
Y-406865D01*
X231270D01*
Y-406345D01*
X230672Y-404115D01*
X229518Y-402115D01*
X227885Y-400482D01*
X225885Y-399328D01*
X223655Y-398730D01*
D02*
G37*
G36*
X221865D02*
X221345D01*
X219115Y-399328D01*
X217115Y-400482D01*
X215482Y-402115D01*
X214328Y-404115D01*
X213730Y-406345D01*
Y-406865D01*
X221865D01*
Y-398730D01*
D02*
G37*
G36*
X306045Y-399960D02*
X305525D01*
Y-408095D01*
X313660D01*
Y-407575D01*
X313062Y-405345D01*
X311908Y-403345D01*
X310275Y-401712D01*
X308275Y-400558D01*
X306045Y-399960D01*
D02*
G37*
G36*
X304255D02*
X303735D01*
X301505Y-400558D01*
X299505Y-401712D01*
X297872Y-403345D01*
X296718Y-405345D01*
X296120Y-407575D01*
Y-408095D01*
X304255D01*
Y-399960D01*
D02*
G37*
G36*
X231270Y-408135D02*
X223135D01*
Y-416270D01*
X223655D01*
X225885Y-415672D01*
X227885Y-414518D01*
X229518Y-412885D01*
X230672Y-410885D01*
X231270Y-408655D01*
Y-408135D01*
D02*
G37*
G36*
X221865D02*
X213730D01*
Y-408655D01*
X214328Y-410885D01*
X215482Y-412885D01*
X217115Y-414518D01*
X219115Y-415672D01*
X221345Y-416270D01*
X221865D01*
Y-408135D01*
D02*
G37*
G36*
X313660Y-409365D02*
X305525D01*
Y-417500D01*
X306045D01*
X308275Y-416902D01*
X310275Y-415748D01*
X311908Y-414115D01*
X313062Y-412115D01*
X313660Y-409884D01*
Y-409365D01*
D02*
G37*
G36*
X304255D02*
X296120D01*
Y-409884D01*
X296718Y-412115D01*
X297872Y-414115D01*
X299505Y-415748D01*
X301505Y-416902D01*
X303735Y-417500D01*
X304255D01*
Y-409365D01*
D02*
G37*
G36*
X86418Y-405814D02*
X83582D01*
X80843Y-406548D01*
X78387Y-407966D01*
X76382Y-409971D01*
X74964Y-412427D01*
X74230Y-415166D01*
Y-418002D01*
X74964Y-420741D01*
X76382Y-423197D01*
X78387Y-425202D01*
X80843Y-426620D01*
X83582Y-427354D01*
X86418D01*
X89157Y-426620D01*
X91613Y-425202D01*
X93618Y-423197D01*
X95036Y-420741D01*
X95770Y-418002D01*
Y-415166D01*
X95036Y-412427D01*
X93618Y-409971D01*
X91613Y-407966D01*
X89157Y-406548D01*
X86418Y-405814D01*
D02*
G37*
G36*
X830152Y-408080D02*
X827448D01*
X824836Y-408780D01*
X822494Y-410132D01*
X820582Y-412044D01*
X819230Y-414386D01*
X818530Y-416998D01*
Y-419702D01*
X819230Y-422314D01*
X820582Y-424656D01*
X822494Y-426568D01*
X824836Y-427920D01*
X827448Y-428620D01*
X830152D01*
X832764Y-427920D01*
X835106Y-426568D01*
X837018Y-424656D01*
X838370Y-422314D01*
X839070Y-419702D01*
Y-416998D01*
X838370Y-414386D01*
X837018Y-412044D01*
X835106Y-410132D01*
X832764Y-408780D01*
X830152Y-408080D01*
D02*
G37*
G36*
X86505Y-431300D02*
X83669D01*
X80930Y-432034D01*
X78474Y-433452D01*
X76469Y-435457D01*
X75051Y-437913D01*
X74317Y-440652D01*
Y-443488D01*
X75051Y-446227D01*
X76469Y-448683D01*
X78474Y-450689D01*
X80930Y-452106D01*
X83669Y-452840D01*
X86505D01*
X89244Y-452106D01*
X91700Y-450689D01*
X93705Y-448683D01*
X95123Y-446227D01*
X95857Y-443488D01*
Y-440652D01*
X95123Y-437913D01*
X93705Y-435457D01*
X91700Y-433452D01*
X89244Y-432034D01*
X86505Y-431300D01*
D02*
G37*
G36*
Y-456700D02*
X83669D01*
X80930Y-457434D01*
X78474Y-458852D01*
X76469Y-460857D01*
X75051Y-463313D01*
X74317Y-466052D01*
Y-468888D01*
X75051Y-471627D01*
X76469Y-474083D01*
X78474Y-476088D01*
X80930Y-477506D01*
X83669Y-478240D01*
X86505D01*
X89244Y-477506D01*
X91700Y-476088D01*
X93705Y-474083D01*
X95123Y-471627D01*
X95857Y-468888D01*
Y-466052D01*
X95123Y-463313D01*
X93705Y-460857D01*
X91700Y-458852D01*
X89244Y-457434D01*
X86505Y-456700D01*
D02*
G37*
G36*
X95770Y-490014D02*
X74230D01*
Y-511554D01*
X95770D01*
Y-490014D01*
D02*
G37*
G36*
X86331Y-515327D02*
X83495D01*
X80756Y-516061D01*
X78300Y-517479D01*
X76295Y-519484D01*
X74877Y-521940D01*
X74143Y-524679D01*
Y-527515D01*
X74877Y-530255D01*
X76295Y-532710D01*
X78300Y-534716D01*
X80756Y-536133D01*
X83495Y-536867D01*
X86331D01*
X89070Y-536133D01*
X91526Y-534716D01*
X93531Y-532710D01*
X94949Y-530255D01*
X95683Y-527515D01*
Y-524679D01*
X94949Y-521940D01*
X93531Y-519484D01*
X91526Y-517479D01*
X89070Y-516061D01*
X86331Y-515327D01*
D02*
G37*
G36*
X86418Y-540814D02*
X83582D01*
X80843Y-541548D01*
X78387Y-542966D01*
X76382Y-544971D01*
X74964Y-547427D01*
X74230Y-550166D01*
Y-553002D01*
X74964Y-555741D01*
X76382Y-558197D01*
X78387Y-560202D01*
X80843Y-561620D01*
X83582Y-562354D01*
X86418D01*
X89157Y-561620D01*
X91613Y-560202D01*
X93618Y-558197D01*
X95036Y-555741D01*
X95770Y-553002D01*
Y-550166D01*
X95036Y-547427D01*
X93618Y-544971D01*
X91613Y-542966D01*
X89157Y-541548D01*
X86418Y-540814D01*
D02*
G37*
G36*
Y-566214D02*
X83582D01*
X80843Y-566948D01*
X78387Y-568366D01*
X76382Y-570371D01*
X74964Y-572827D01*
X74230Y-575566D01*
Y-578402D01*
X74964Y-581141D01*
X76382Y-583597D01*
X78387Y-585602D01*
X80843Y-587020D01*
X83582Y-587754D01*
X86418D01*
X89157Y-587020D01*
X91613Y-585602D01*
X93618Y-583597D01*
X95036Y-581141D01*
X95770Y-578402D01*
Y-575566D01*
X95036Y-572827D01*
X93618Y-570371D01*
X91613Y-568366D01*
X89157Y-566948D01*
X86418Y-566214D01*
D02*
G37*
G36*
X95770Y-599230D02*
X85635D01*
Y-609365D01*
X95770D01*
Y-599230D01*
D02*
G37*
G36*
X84365D02*
X74230D01*
Y-609365D01*
X84365D01*
Y-599230D01*
D02*
G37*
G36*
X333606Y-611073D02*
X332888D01*
Y-620708D01*
X342523D01*
Y-619990D01*
X341824Y-617378D01*
X340471Y-615037D01*
X338559Y-613124D01*
X336218Y-611772D01*
X333606Y-611073D01*
D02*
G37*
G36*
X331618D02*
X330901D01*
X328289Y-611772D01*
X325948Y-613124D01*
X324035Y-615037D01*
X322683Y-617378D01*
X321983Y-619990D01*
Y-620708D01*
X331618D01*
Y-611073D01*
D02*
G37*
G36*
X426205D02*
X425489D01*
Y-620708D01*
X435123D01*
Y-619990D01*
X434424Y-617378D01*
X433072Y-615037D01*
X431159Y-613124D01*
X428818Y-611772D01*
X426205Y-611073D01*
D02*
G37*
G36*
X95770Y-610635D02*
X85635D01*
Y-620770D01*
X95770D01*
Y-610635D01*
D02*
G37*
G36*
X84365D02*
X74230D01*
Y-620770D01*
X84365D01*
Y-610635D01*
D02*
G37*
G36*
X831270Y-621635D02*
X821635D01*
Y-631270D01*
X822352D01*
X824964Y-630570D01*
X827306Y-629218D01*
X829218Y-627306D01*
X830570Y-624964D01*
X831270Y-622352D01*
Y-621635D01*
D02*
G37*
G36*
X678870D02*
X669235D01*
Y-631270D01*
X669952D01*
X672564Y-630570D01*
X674906Y-629218D01*
X676818Y-627306D01*
X678170Y-624964D01*
X678870Y-622352D01*
Y-621635D01*
D02*
G37*
G36*
X667965D02*
X658330D01*
Y-622352D01*
X659030Y-624964D01*
X660382Y-627306D01*
X662294Y-629218D01*
X664636Y-630570D01*
X667248Y-631270D01*
X667965D01*
Y-621635D01*
D02*
G37*
G36*
X587523Y-621978D02*
X577888D01*
Y-631613D01*
X578605D01*
X581218Y-630913D01*
X583559Y-629561D01*
X585471Y-627648D01*
X586824Y-625307D01*
X587523Y-622695D01*
Y-621978D01*
D02*
G37*
G36*
X576618D02*
X566983D01*
Y-622695D01*
X567683Y-625307D01*
X569035Y-627648D01*
X570948Y-629561D01*
X573289Y-630913D01*
X575901Y-631613D01*
X576618D01*
Y-621978D01*
D02*
G37*
G36*
X435123D02*
X425489D01*
Y-631613D01*
X426205D01*
X428818Y-630913D01*
X431159Y-629561D01*
X433072Y-627648D01*
X434424Y-625307D01*
X435123Y-622695D01*
Y-621978D01*
D02*
G37*
G36*
X424218D02*
X414584D01*
Y-622695D01*
X415283Y-625307D01*
X416635Y-627648D01*
X418548Y-629561D01*
X420889Y-630913D01*
X423501Y-631613D01*
X424218D01*
Y-621978D01*
D02*
G37*
G36*
X342523Y-621978D02*
X332888D01*
Y-631613D01*
X333606D01*
X336218Y-630913D01*
X338559Y-629561D01*
X340471Y-627648D01*
X341824Y-625307D01*
X342523Y-622695D01*
Y-621978D01*
D02*
G37*
G36*
X331618D02*
X321983D01*
Y-622695D01*
X322683Y-625307D01*
X324035Y-627648D01*
X325948Y-629561D01*
X328289Y-630913D01*
X330901Y-631613D01*
X331618D01*
Y-621978D01*
D02*
G37*
G36*
X86418Y-624630D02*
X85635D01*
Y-634765D01*
X95770D01*
Y-633982D01*
X95036Y-631243D01*
X93618Y-628787D01*
X91613Y-626782D01*
X89157Y-625364D01*
X86418Y-624630D01*
D02*
G37*
G36*
X84365D02*
X83582D01*
X80843Y-625364D01*
X78387Y-626782D01*
X76382Y-628787D01*
X74964Y-631243D01*
X74230Y-633982D01*
Y-634765D01*
X84365D01*
Y-624630D01*
D02*
G37*
G36*
X944020Y-625980D02*
X925980D01*
Y-644020D01*
X944020D01*
Y-625980D01*
D02*
G37*
G36*
X95770Y-636035D02*
X85635D01*
Y-646170D01*
X86418D01*
X89157Y-645436D01*
X91613Y-644018D01*
X93618Y-642013D01*
X95036Y-639557D01*
X95770Y-636818D01*
Y-636035D01*
D02*
G37*
G36*
X84365D02*
X74230D01*
Y-636818D01*
X74964Y-639557D01*
X76382Y-642013D01*
X78387Y-644018D01*
X80843Y-645436D01*
X83582Y-646170D01*
X84365D01*
Y-636035D01*
D02*
G37*
G36*
X936188Y-650980D02*
X935635D01*
Y-659365D01*
X944020D01*
Y-658812D01*
X943405Y-656518D01*
X942218Y-654462D01*
X940538Y-652782D01*
X938482Y-651595D01*
X936188Y-650980D01*
D02*
G37*
G36*
X934365D02*
X933812D01*
X931518Y-651595D01*
X929462Y-652782D01*
X927782Y-654462D01*
X926595Y-656518D01*
X925980Y-658812D01*
Y-659365D01*
X934365D01*
Y-650980D01*
D02*
G37*
G36*
X944020Y-660635D02*
X935635D01*
Y-669020D01*
X936188D01*
X938482Y-668405D01*
X940538Y-667218D01*
X942218Y-665538D01*
X943405Y-663482D01*
X944020Y-661188D01*
Y-660635D01*
D02*
G37*
G36*
X934365D02*
X925980D01*
Y-661188D01*
X926595Y-663482D01*
X927782Y-665538D01*
X929462Y-667218D01*
X931518Y-668405D01*
X933812Y-669020D01*
X934365D01*
Y-660635D01*
D02*
G37*
G36*
X332206Y-804573D02*
X331488D01*
Y-814208D01*
X341123D01*
Y-813490D01*
X340424Y-810878D01*
X339072Y-808537D01*
X337159Y-806624D01*
X334818Y-805272D01*
X332206Y-804573D01*
D02*
G37*
G36*
X179806D02*
X179088D01*
Y-814208D01*
X188723D01*
Y-813490D01*
X188024Y-810878D01*
X186672Y-808537D01*
X184759Y-806624D01*
X182418Y-805272D01*
X179806Y-804573D01*
D02*
G37*
G36*
X330218D02*
X329501D01*
X326889Y-805272D01*
X324548Y-806624D01*
X322635Y-808537D01*
X321283Y-810878D01*
X320583Y-813490D01*
Y-814208D01*
X330218D01*
Y-804573D01*
D02*
G37*
G36*
X177818D02*
X177101D01*
X174489Y-805272D01*
X172148Y-806624D01*
X170235Y-808537D01*
X168883Y-810878D01*
X168183Y-813490D01*
Y-814208D01*
X177818D01*
Y-804573D01*
D02*
G37*
G36*
X583606Y-805573D02*
X582888D01*
Y-815207D01*
X592523D01*
Y-814490D01*
X591824Y-811878D01*
X590472Y-809537D01*
X588559Y-807624D01*
X586218Y-806272D01*
X583606Y-805573D01*
D02*
G37*
G36*
X431206D02*
X430489D01*
Y-815207D01*
X440123D01*
Y-814490D01*
X439424Y-811878D01*
X438072Y-809537D01*
X436159Y-807624D01*
X433818Y-806272D01*
X431206Y-805573D01*
D02*
G37*
G36*
X581618D02*
X580901D01*
X578289Y-806272D01*
X575948Y-807624D01*
X574035Y-809537D01*
X572683Y-811878D01*
X571983Y-814490D01*
Y-815207D01*
X581618D01*
Y-805573D01*
D02*
G37*
G36*
X429218D02*
X428502D01*
X425889Y-806272D01*
X423548Y-807624D01*
X421636Y-809537D01*
X420283Y-811878D01*
X419584Y-814490D01*
Y-815207D01*
X429218D01*
Y-805573D01*
D02*
G37*
G36*
X823606Y-806072D02*
X822888D01*
Y-815707D01*
X832523D01*
Y-814990D01*
X831824Y-812378D01*
X830471Y-810037D01*
X828559Y-808124D01*
X826218Y-806772D01*
X823606Y-806072D01*
D02*
G37*
G36*
X671206D02*
X670489D01*
Y-815707D01*
X680124D01*
Y-814990D01*
X679424Y-812378D01*
X678072Y-810037D01*
X676159Y-808124D01*
X673818Y-806772D01*
X671206Y-806072D01*
D02*
G37*
G36*
X821618D02*
X820901D01*
X818289Y-806772D01*
X815948Y-808124D01*
X814035Y-810037D01*
X812683Y-812378D01*
X811983Y-814990D01*
Y-815707D01*
X821618D01*
Y-806072D01*
D02*
G37*
G36*
X669219D02*
X668501D01*
X665889Y-806772D01*
X663548Y-808124D01*
X661636Y-810037D01*
X660283Y-812378D01*
X659584Y-814990D01*
Y-815707D01*
X669219D01*
Y-806072D01*
D02*
G37*
G36*
X357606Y-804573D02*
X354901D01*
X352289Y-805272D01*
X349948Y-806624D01*
X348035Y-808537D01*
X346683Y-810878D01*
X345984Y-813490D01*
Y-816195D01*
X346683Y-818807D01*
X348035Y-821148D01*
X349948Y-823061D01*
X352289Y-824413D01*
X354901Y-825112D01*
X357606D01*
X360218Y-824413D01*
X362559Y-823061D01*
X364472Y-821148D01*
X365824Y-818807D01*
X366523Y-816195D01*
Y-813490D01*
X365824Y-810878D01*
X364472Y-808537D01*
X362559Y-806624D01*
X360218Y-805272D01*
X357606Y-804573D01*
D02*
G37*
G36*
X341123Y-815478D02*
X331488D01*
Y-825112D01*
X332206D01*
X334818Y-824413D01*
X337159Y-823061D01*
X339072Y-821148D01*
X340424Y-818807D01*
X341123Y-816195D01*
Y-815478D01*
D02*
G37*
G36*
X330218D02*
X320583D01*
Y-816195D01*
X321283Y-818807D01*
X322635Y-821148D01*
X324548Y-823061D01*
X326889Y-824413D01*
X329501Y-825112D01*
X330218D01*
Y-815478D01*
D02*
G37*
G36*
X205205Y-804573D02*
X202501D01*
X199889Y-805272D01*
X197548Y-806624D01*
X195635Y-808537D01*
X194283Y-810878D01*
X193584Y-813490D01*
Y-816195D01*
X194283Y-818807D01*
X195635Y-821148D01*
X197548Y-823061D01*
X199889Y-824413D01*
X202501Y-825112D01*
X205205D01*
X207817Y-824413D01*
X210159Y-823061D01*
X212071Y-821148D01*
X213424Y-818807D01*
X214123Y-816195D01*
Y-813490D01*
X213424Y-810878D01*
X212071Y-808537D01*
X210159Y-806624D01*
X207817Y-805272D01*
X205205Y-804573D01*
D02*
G37*
G36*
X188723Y-815478D02*
X179088D01*
Y-825112D01*
X179806D01*
X182418Y-824413D01*
X184759Y-823061D01*
X186672Y-821148D01*
X188024Y-818807D01*
X188723Y-816195D01*
Y-815478D01*
D02*
G37*
G36*
X177818D02*
X168183D01*
Y-816195D01*
X168883Y-818807D01*
X170235Y-821148D01*
X172148Y-823061D01*
X174489Y-824413D01*
X177101Y-825112D01*
X177818D01*
Y-815478D01*
D02*
G37*
G36*
X456606Y-805573D02*
X453901D01*
X451289Y-806272D01*
X448948Y-807624D01*
X447035Y-809537D01*
X445683Y-811878D01*
X444983Y-814490D01*
Y-817195D01*
X445683Y-819807D01*
X447035Y-822148D01*
X448948Y-824061D01*
X451289Y-825413D01*
X453901Y-826112D01*
X456606D01*
X459218Y-825413D01*
X461559Y-824061D01*
X463472Y-822148D01*
X464824Y-819807D01*
X465523Y-817195D01*
Y-814490D01*
X464824Y-811878D01*
X463472Y-809537D01*
X461559Y-807624D01*
X459218Y-806272D01*
X456606Y-805573D01*
D02*
G37*
G36*
X440123Y-816477D02*
X430489D01*
Y-826112D01*
X431206D01*
X433818Y-825413D01*
X436159Y-824061D01*
X438072Y-822148D01*
X439424Y-819807D01*
X440123Y-817195D01*
Y-816477D01*
D02*
G37*
G36*
X429218D02*
X419584D01*
Y-817195D01*
X420283Y-819807D01*
X421636Y-822148D01*
X423548Y-824061D01*
X425889Y-825413D01*
X428502Y-826112D01*
X429218D01*
Y-816477D01*
D02*
G37*
G36*
X306805Y-804573D02*
X304101D01*
X301489Y-805272D01*
X299148Y-806624D01*
X297235Y-808537D01*
X295883Y-810878D01*
X295184Y-813490D01*
Y-816195D01*
X295883Y-818807D01*
X297235Y-821148D01*
X299148Y-823061D01*
X301489Y-824413D01*
X302569Y-824702D01*
X302734Y-825532D01*
X303843Y-827192D01*
X319033Y-842382D01*
X317981Y-844922D01*
X312371D01*
X288391Y-820941D01*
X289624Y-818807D01*
X290323Y-816195D01*
Y-813490D01*
X289624Y-810878D01*
X288272Y-808537D01*
X286359Y-806624D01*
X284018Y-805272D01*
X281406Y-804573D01*
X278701D01*
X276089Y-805272D01*
X273748Y-806624D01*
X271835Y-808537D01*
X270483Y-810878D01*
X269783Y-813490D01*
Y-816195D01*
X270483Y-818807D01*
X271835Y-821148D01*
X273748Y-823061D01*
X276089Y-824413D01*
X277859Y-824887D01*
X305394Y-852422D01*
X304447Y-854709D01*
X301996Y-854946D01*
X264569Y-817519D01*
X264923Y-816195D01*
Y-813490D01*
X264224Y-810878D01*
X262871Y-808537D01*
X260959Y-806624D01*
X258617Y-805272D01*
X256005Y-804573D01*
X253301D01*
X250689Y-805272D01*
X248348Y-806624D01*
X246435Y-808537D01*
X245083Y-810878D01*
X244384Y-813490D01*
Y-816195D01*
X245083Y-818807D01*
X246435Y-821148D01*
X248348Y-823061D01*
X250689Y-824413D01*
X253301Y-825112D01*
X256005D01*
X257330Y-824758D01*
X295034Y-862462D01*
X293982Y-865002D01*
X286651D01*
X239168Y-817519D01*
X239523Y-816195D01*
Y-813490D01*
X238824Y-810878D01*
X237472Y-808537D01*
X235559Y-806624D01*
X233218Y-805272D01*
X230606Y-804573D01*
X227901D01*
X225289Y-805272D01*
X222948Y-806624D01*
X221035Y-808537D01*
X219683Y-810878D01*
X218983Y-813490D01*
Y-816195D01*
X219683Y-818807D01*
X221035Y-821148D01*
X222948Y-823061D01*
X225289Y-824413D01*
X227901Y-825112D01*
X230606D01*
X231930Y-824758D01*
X280912Y-873739D01*
X282572Y-874849D01*
X284531Y-875238D01*
X319060D01*
X319841Y-876652D01*
X320244Y-877778D01*
X319680Y-879141D01*
Y-880859D01*
X320338Y-882447D01*
X321553Y-883662D01*
X323141Y-884320D01*
X324859D01*
X326447Y-883662D01*
X326775Y-883334D01*
X361225D01*
X361553Y-883662D01*
X363141Y-884320D01*
X364859D01*
X366447Y-883662D01*
X367662Y-882447D01*
X368320Y-880859D01*
Y-879141D01*
X367756Y-877778D01*
X368159Y-876652D01*
X368940Y-875238D01*
X479793D01*
X509884Y-905329D01*
X511544Y-906439D01*
X512897Y-906708D01*
X513457Y-907652D01*
X513602Y-908103D01*
X513701Y-909368D01*
X512182Y-910887D01*
X510764Y-913343D01*
X510030Y-916082D01*
Y-918918D01*
X510764Y-921657D01*
X512182Y-924113D01*
X514187Y-926118D01*
X516643Y-927536D01*
X519382Y-928270D01*
X522218D01*
X524957Y-927536D01*
X527413Y-926118D01*
X529418Y-924113D01*
X530836Y-921657D01*
X531570Y-918918D01*
Y-916082D01*
X530836Y-913343D01*
X529418Y-910887D01*
X527899Y-909368D01*
X528447Y-907345D01*
X528795Y-906828D01*
X538205D01*
X538553Y-907345D01*
X539101Y-909368D01*
X537582Y-910887D01*
X536164Y-913343D01*
X535430Y-916082D01*
Y-918918D01*
X536164Y-921657D01*
X537582Y-924113D01*
X539587Y-926118D01*
X542043Y-927536D01*
X544782Y-928270D01*
X547618D01*
X550357Y-927536D01*
X552813Y-926118D01*
X554818Y-924113D01*
X556236Y-921657D01*
X556970Y-918918D01*
Y-916082D01*
X556236Y-913343D01*
X554818Y-910887D01*
X553299Y-909368D01*
X553848Y-907345D01*
X554195Y-906828D01*
X568830D01*
Y-916865D01*
X590370D01*
Y-906828D01*
X597005D01*
X597352Y-907345D01*
X597901Y-909368D01*
X596382Y-910887D01*
X594964Y-913343D01*
X594230Y-916082D01*
Y-916865D01*
X615770D01*
Y-916082D01*
X615036Y-913343D01*
X613618Y-910887D01*
X612099Y-909368D01*
X612648Y-907345D01*
X612995Y-906828D01*
X643340D01*
X649882Y-913370D01*
Y-920923D01*
X648382Y-922422D01*
X647294Y-924308D01*
X646730Y-926411D01*
Y-928589D01*
X647294Y-930692D01*
X648382Y-932578D01*
X649922Y-934118D01*
X651808Y-935206D01*
X653911Y-935770D01*
X656089D01*
X658192Y-935206D01*
X660078Y-934118D01*
X661618Y-932578D01*
X662706Y-930692D01*
X663270Y-928589D01*
Y-926411D01*
X662706Y-924308D01*
X661618Y-922422D01*
X660118Y-920923D01*
Y-911250D01*
X659729Y-909291D01*
X658619Y-907631D01*
X651147Y-900158D01*
X652199Y-897618D01*
X667880D01*
X674882Y-904620D01*
Y-920923D01*
X673382Y-922422D01*
X672294Y-924308D01*
X671730Y-926411D01*
Y-928589D01*
X672294Y-930692D01*
X673382Y-932578D01*
X674922Y-934118D01*
X676808Y-935206D01*
X678911Y-935770D01*
X681089D01*
X683192Y-935206D01*
X685078Y-934118D01*
X686618Y-932578D01*
X687706Y-930692D01*
X688270Y-928589D01*
Y-926411D01*
X687706Y-924308D01*
X686618Y-922422D01*
X685118Y-920923D01*
Y-902500D01*
X684729Y-900541D01*
X683619Y-898881D01*
X674229Y-889491D01*
X675048Y-887083D01*
X675152Y-886951D01*
X689713D01*
X699882Y-897120D01*
Y-920923D01*
X698382Y-922422D01*
X697294Y-924308D01*
X696730Y-926411D01*
Y-928589D01*
X697294Y-930692D01*
X698382Y-932578D01*
X699922Y-934118D01*
X701808Y-935206D01*
X703911Y-935770D01*
X706089D01*
X708192Y-935206D01*
X710078Y-934118D01*
X711618Y-932578D01*
X712706Y-930692D01*
X713270Y-928589D01*
Y-926411D01*
X712706Y-924308D01*
X711618Y-922422D01*
X710118Y-920923D01*
Y-895949D01*
X712585Y-894824D01*
X724430Y-906669D01*
Y-919230D01*
X721730D01*
Y-935770D01*
X738270D01*
Y-919230D01*
X734667D01*
Y-904549D01*
X734277Y-902590D01*
X733168Y-900929D01*
X702236Y-869998D01*
X703193Y-867510D01*
X705048Y-867287D01*
X746381Y-908619D01*
X748041Y-909729D01*
X750000Y-910118D01*
X770380D01*
X783127Y-922865D01*
X782294Y-924308D01*
X781730Y-926411D01*
Y-928589D01*
X782294Y-930692D01*
X783382Y-932578D01*
X784922Y-934118D01*
X786808Y-935206D01*
X788911Y-935770D01*
X791089D01*
X793192Y-935206D01*
X795078Y-934118D01*
X796618Y-932578D01*
X797706Y-930692D01*
X798270Y-928589D01*
Y-926411D01*
X797706Y-924308D01*
X796618Y-922422D01*
X795078Y-920882D01*
X793634Y-920049D01*
X793485Y-919298D01*
X792375Y-917637D01*
X776119Y-901381D01*
X774459Y-900271D01*
X774745Y-897738D01*
X790500D01*
X808638Y-915876D01*
Y-922167D01*
X808382Y-922422D01*
X807294Y-924308D01*
X806730Y-926411D01*
Y-928589D01*
X807294Y-930692D01*
X808382Y-932578D01*
X809922Y-934118D01*
X811808Y-935206D01*
X813911Y-935770D01*
X816089D01*
X818192Y-935206D01*
X820078Y-934118D01*
X821618Y-932578D01*
X822706Y-930692D01*
X823270Y-928589D01*
Y-926411D01*
X822706Y-924308D01*
X821618Y-922422D01*
X820078Y-920882D01*
X818875Y-920188D01*
Y-913756D01*
X818485Y-911798D01*
X817375Y-910137D01*
X797477Y-890238D01*
X798529Y-887698D01*
X810460D01*
X834132Y-911370D01*
Y-921673D01*
X833382Y-922422D01*
X832294Y-924308D01*
X831730Y-926411D01*
Y-928589D01*
X832294Y-930692D01*
X833382Y-932578D01*
X834922Y-934118D01*
X836808Y-935206D01*
X838911Y-935770D01*
X841089D01*
X843192Y-935206D01*
X845078Y-934118D01*
X846618Y-932578D01*
X847706Y-930692D01*
X848270Y-928589D01*
Y-926411D01*
X847706Y-924308D01*
X846618Y-922422D01*
X845078Y-920882D01*
X844368Y-920473D01*
Y-909250D01*
X843979Y-907291D01*
X842869Y-905631D01*
X817437Y-880198D01*
X818489Y-877658D01*
X832920D01*
X859882Y-904620D01*
Y-919230D01*
X856730D01*
Y-935770D01*
X873270D01*
Y-919230D01*
X870118D01*
Y-902500D01*
X869729Y-900541D01*
X868619Y-898881D01*
X839897Y-870158D01*
X840949Y-867618D01*
X870380D01*
X908680Y-905918D01*
X908680Y-905918D01*
X926730Y-923969D01*
Y-926089D01*
X927294Y-928192D01*
X928382Y-930078D01*
X929922Y-931618D01*
X931808Y-932706D01*
X933911Y-933270D01*
X936089D01*
X938192Y-932706D01*
X940078Y-931618D01*
X941618Y-930078D01*
X942706Y-928192D01*
X943270Y-926089D01*
Y-923911D01*
X942706Y-921808D01*
X941618Y-919922D01*
X940078Y-918382D01*
X938192Y-917294D01*
X936089Y-916730D01*
X933969D01*
X915918Y-898680D01*
X915918Y-898680D01*
X876609Y-859371D01*
X877134Y-857449D01*
X877572Y-856831D01*
X884592D01*
X926730Y-898969D01*
Y-901089D01*
X927294Y-903192D01*
X928382Y-905078D01*
X929922Y-906618D01*
X931808Y-907706D01*
X933911Y-908270D01*
X936089D01*
X938192Y-907706D01*
X940078Y-906618D01*
X941618Y-905078D01*
X942706Y-903192D01*
X943270Y-901089D01*
Y-898911D01*
X942706Y-896808D01*
X941618Y-894922D01*
X940078Y-893382D01*
X938192Y-892294D01*
X936089Y-891730D01*
X933969D01*
X891569Y-849331D01*
X892621Y-846791D01*
X899552D01*
X926730Y-873969D01*
Y-876089D01*
X927294Y-878192D01*
X928382Y-880078D01*
X929922Y-881618D01*
X931808Y-882706D01*
X933911Y-883270D01*
X936089D01*
X938192Y-882706D01*
X940078Y-881618D01*
X941618Y-880078D01*
X942706Y-878192D01*
X943270Y-876089D01*
Y-873911D01*
X942706Y-871808D01*
X941618Y-869922D01*
X940078Y-868382D01*
X938192Y-867294D01*
X936089Y-866730D01*
X933969D01*
X928048Y-860810D01*
X929101Y-858270D01*
X943270D01*
Y-841730D01*
X932245D01*
X931750Y-841632D01*
X923069D01*
X909450Y-828013D01*
X907790Y-826904D01*
X905831Y-826514D01*
X855418D01*
X855341Y-826411D01*
X854546Y-823974D01*
X855872Y-822648D01*
X857224Y-820307D01*
X857924Y-817695D01*
Y-814990D01*
X857224Y-812378D01*
X855872Y-810037D01*
X853959Y-808124D01*
X851618Y-806772D01*
X849006Y-806072D01*
X846301D01*
X843689Y-806772D01*
X841348Y-808124D01*
X839436Y-810037D01*
X838083Y-812378D01*
X837383Y-814990D01*
Y-817695D01*
X838083Y-820307D01*
X839436Y-822648D01*
X840761Y-823974D01*
X839966Y-826411D01*
X839889Y-826514D01*
X830018D01*
X829941Y-826411D01*
X829146Y-823974D01*
X830471Y-822648D01*
X831824Y-820307D01*
X832523Y-817695D01*
Y-816977D01*
X822253D01*
X811983D01*
Y-817695D01*
X812683Y-820307D01*
X813560Y-821825D01*
X812896Y-824155D01*
X812488Y-824693D01*
X812452Y-824702D01*
X806769Y-819019D01*
X807123Y-817695D01*
Y-814990D01*
X806424Y-812378D01*
X805071Y-810037D01*
X803159Y-808124D01*
X800818Y-806772D01*
X798206Y-806072D01*
X795501D01*
X792889Y-806772D01*
X790548Y-808124D01*
X788635Y-810037D01*
X787283Y-812378D01*
X786583Y-814990D01*
Y-817695D01*
X787283Y-820307D01*
X788635Y-822648D01*
X790548Y-824560D01*
X792889Y-825913D01*
X795501Y-826612D01*
X798206D01*
X799530Y-826258D01*
X807287Y-834014D01*
X806235Y-836554D01*
X793904D01*
X779791Y-822441D01*
X781024Y-820307D01*
X781723Y-817695D01*
Y-814990D01*
X781024Y-812378D01*
X779671Y-810037D01*
X777759Y-808124D01*
X775418Y-806772D01*
X772806Y-806072D01*
X770101D01*
X767489Y-806772D01*
X765148Y-808124D01*
X763235Y-810037D01*
X761883Y-812378D01*
X761183Y-814990D01*
Y-817695D01*
X761883Y-820307D01*
X763235Y-822648D01*
X765148Y-824560D01*
X767489Y-825913D01*
X769259Y-826387D01*
X786927Y-844054D01*
X785875Y-846594D01*
X778544D01*
X754391Y-822441D01*
X755624Y-820307D01*
X756323Y-817695D01*
Y-814990D01*
X755624Y-812378D01*
X754271Y-810037D01*
X752359Y-808124D01*
X750018Y-806772D01*
X747406Y-806072D01*
X744701D01*
X742089Y-806772D01*
X739748Y-808124D01*
X737835Y-810037D01*
X736483Y-812378D01*
X735783Y-814990D01*
Y-817695D01*
X736483Y-820307D01*
X737835Y-822648D01*
X739748Y-824560D01*
X742089Y-825913D01*
X743859Y-826387D01*
X772314Y-854842D01*
X771790Y-856763D01*
X771352Y-857382D01*
X766415D01*
X729900Y-820867D01*
X730224Y-820307D01*
X730923Y-817695D01*
Y-814990D01*
X730224Y-812378D01*
X728872Y-810037D01*
X726959Y-808124D01*
X724618Y-806772D01*
X722006Y-806072D01*
X719301D01*
X716689Y-806772D01*
X714348Y-808124D01*
X712436Y-810037D01*
X711083Y-812378D01*
X710384Y-814990D01*
Y-817695D01*
X711083Y-820307D01*
X712436Y-822648D01*
X713761Y-823974D01*
X712965Y-826411D01*
X712889Y-826514D01*
X703018D01*
X702942Y-826411D01*
X702146Y-823974D01*
X703472Y-822648D01*
X704824Y-820307D01*
X705524Y-817695D01*
Y-814990D01*
X704824Y-812378D01*
X703472Y-810037D01*
X701559Y-808124D01*
X699218Y-806772D01*
X696606Y-806072D01*
X693901D01*
X691289Y-806772D01*
X688948Y-808124D01*
X687036Y-810037D01*
X685683Y-812378D01*
X684984Y-814990D01*
Y-817695D01*
X685683Y-820307D01*
X687036Y-822648D01*
X688361Y-823974D01*
X687566Y-826411D01*
X687489Y-826514D01*
X677618D01*
X677542Y-826411D01*
X676746Y-823974D01*
X678072Y-822648D01*
X679424Y-820307D01*
X680124Y-817695D01*
Y-816977D01*
X669854D01*
X659584D01*
Y-817695D01*
X660283Y-820307D01*
X661636Y-822648D01*
X662461Y-823474D01*
X661409Y-826014D01*
X615418D01*
X615342Y-825911D01*
X614546Y-823474D01*
X615872Y-822148D01*
X617224Y-819807D01*
X617924Y-817195D01*
Y-814490D01*
X617224Y-811878D01*
X615872Y-809537D01*
X613959Y-807624D01*
X611618Y-806272D01*
X609006Y-805573D01*
X606301D01*
X603689Y-806272D01*
X601348Y-807624D01*
X599436Y-809537D01*
X598083Y-811878D01*
X597383Y-814490D01*
Y-817195D01*
X598083Y-819807D01*
X599436Y-822148D01*
X600761Y-823474D01*
X599966Y-825911D01*
X599889Y-826014D01*
X590018D01*
X589942Y-825911D01*
X589146Y-823474D01*
X590472Y-822148D01*
X591824Y-819807D01*
X592523Y-817195D01*
Y-816477D01*
X582253D01*
X571983D01*
Y-817195D01*
X572683Y-819807D01*
X573560Y-821325D01*
X572896Y-823655D01*
X572488Y-824193D01*
X572452Y-824202D01*
X566769Y-818519D01*
X567123Y-817195D01*
Y-814490D01*
X566424Y-811878D01*
X565072Y-809537D01*
X563159Y-807624D01*
X560818Y-806272D01*
X558206Y-805573D01*
X555502D01*
X552889Y-806272D01*
X550548Y-807624D01*
X548635Y-809537D01*
X547283Y-811878D01*
X546584Y-814490D01*
Y-817195D01*
X547283Y-819807D01*
X548635Y-822148D01*
X550548Y-824061D01*
X552889Y-825413D01*
X555502Y-826112D01*
X558206D01*
X559530Y-825758D01*
X567287Y-833514D01*
X566235Y-836054D01*
X558904D01*
X541369Y-818519D01*
X541724Y-817195D01*
Y-814490D01*
X541024Y-811878D01*
X539672Y-809537D01*
X537759Y-807624D01*
X535418Y-806272D01*
X532806Y-805573D01*
X530102D01*
X527489Y-806272D01*
X525148Y-807624D01*
X523236Y-809537D01*
X521883Y-811878D01*
X521184Y-814490D01*
Y-817195D01*
X521883Y-819807D01*
X523236Y-822148D01*
X525148Y-824061D01*
X527489Y-825413D01*
X530102Y-826112D01*
X532806D01*
X534130Y-825758D01*
X551927Y-843554D01*
X550875Y-846094D01*
X543544D01*
X515969Y-818519D01*
X516324Y-817195D01*
Y-814490D01*
X515624Y-811878D01*
X514272Y-809537D01*
X512359Y-807624D01*
X510018Y-806272D01*
X507406Y-805573D01*
X504701D01*
X502089Y-806272D01*
X499748Y-807624D01*
X497836Y-809537D01*
X496483Y-811878D01*
X495784Y-814490D01*
Y-817195D01*
X495822Y-817339D01*
X493545Y-818654D01*
X490924Y-816033D01*
Y-814490D01*
X490224Y-811878D01*
X488872Y-809537D01*
X486959Y-807624D01*
X484618Y-806272D01*
X482006Y-805573D01*
X479301D01*
X476689Y-806272D01*
X474348Y-807624D01*
X472435Y-809537D01*
X471083Y-811878D01*
X470383Y-814490D01*
Y-817195D01*
X471083Y-819807D01*
X472435Y-822148D01*
X474348Y-824061D01*
X476689Y-825413D01*
X479301Y-826112D01*
X482006D01*
X484618Y-825413D01*
X485384Y-824970D01*
X491753Y-831339D01*
X493253Y-832342D01*
X493292Y-832612D01*
X491884Y-834882D01*
X326010D01*
X312974Y-821846D01*
X313671Y-821148D01*
X315024Y-818807D01*
X315723Y-816195D01*
Y-813490D01*
X315024Y-810878D01*
X313671Y-808537D01*
X311759Y-806624D01*
X309417Y-805272D01*
X306805Y-804573D01*
D02*
G37*
G36*
X311818Y-906730D02*
X311035D01*
Y-916865D01*
X321170D01*
Y-916082D01*
X320436Y-913343D01*
X319018Y-910887D01*
X317013Y-908882D01*
X314557Y-907464D01*
X311818Y-906730D01*
D02*
G37*
G36*
X309765D02*
X308982D01*
X306243Y-907464D01*
X303787Y-908882D01*
X301782Y-910887D01*
X300364Y-913343D01*
X299630Y-916082D01*
Y-916865D01*
X309765D01*
Y-906730D01*
D02*
G37*
G36*
X295770D02*
X285635D01*
Y-916865D01*
X295770D01*
Y-906730D01*
D02*
G37*
G36*
X284365D02*
X274230D01*
Y-916865D01*
X284365D01*
Y-906730D01*
D02*
G37*
G36*
X615770Y-918135D02*
X605635D01*
Y-928270D01*
X606418D01*
X609157Y-927536D01*
X611613Y-926118D01*
X613618Y-924113D01*
X615036Y-921657D01*
X615770Y-918918D01*
Y-918135D01*
D02*
G37*
G36*
X604365D02*
X594230D01*
Y-918918D01*
X594964Y-921657D01*
X596382Y-924113D01*
X598387Y-926118D01*
X600843Y-927536D01*
X603582Y-928270D01*
X604365D01*
Y-918135D01*
D02*
G37*
G36*
X590370D02*
X580235D01*
Y-928270D01*
X590370D01*
Y-918135D01*
D02*
G37*
G36*
X578965D02*
X568830D01*
Y-928270D01*
X578965D01*
Y-918135D01*
D02*
G37*
G36*
X480770Y-906730D02*
X459230D01*
Y-928270D01*
X480770D01*
Y-906730D01*
D02*
G37*
G36*
X436818D02*
X433982D01*
X431243Y-907464D01*
X428787Y-908882D01*
X426782Y-910887D01*
X425364Y-913343D01*
X424630Y-916082D01*
Y-918918D01*
X425364Y-921657D01*
X426782Y-924113D01*
X428787Y-926118D01*
X431243Y-927536D01*
X433982Y-928270D01*
X436818D01*
X439557Y-927536D01*
X442013Y-926118D01*
X444018Y-924113D01*
X445436Y-921657D01*
X446170Y-918918D01*
Y-916082D01*
X445436Y-913343D01*
X444018Y-910887D01*
X442013Y-908882D01*
X439557Y-907464D01*
X436818Y-906730D01*
D02*
G37*
G36*
X411418D02*
X408582D01*
X405843Y-907464D01*
X403387Y-908882D01*
X401382Y-910887D01*
X399964Y-913343D01*
X399230Y-916082D01*
Y-918918D01*
X399964Y-921657D01*
X401382Y-924113D01*
X403387Y-926118D01*
X405843Y-927536D01*
X408582Y-928270D01*
X411418D01*
X414157Y-927536D01*
X416613Y-926118D01*
X418618Y-924113D01*
X420036Y-921657D01*
X420770Y-918918D01*
Y-916082D01*
X420036Y-913343D01*
X418618Y-910887D01*
X416613Y-908882D01*
X414157Y-907464D01*
X411418Y-906730D01*
D02*
G37*
G36*
X369970D02*
X348430D01*
Y-928270D01*
X369970D01*
Y-906730D01*
D02*
G37*
G36*
X321170Y-918135D02*
X311035D01*
Y-928270D01*
X311818D01*
X314557Y-927536D01*
X317013Y-926118D01*
X319018Y-924113D01*
X320436Y-921657D01*
X321170Y-918918D01*
Y-918135D01*
D02*
G37*
G36*
X309765D02*
X299630D01*
Y-918918D01*
X300364Y-921657D01*
X301782Y-924113D01*
X303787Y-926118D01*
X306243Y-927536D01*
X308982Y-928270D01*
X309765D01*
Y-918135D01*
D02*
G37*
G36*
X295770D02*
X285635D01*
Y-928270D01*
X295770D01*
Y-918135D01*
D02*
G37*
G36*
X284365D02*
X274230D01*
Y-928270D01*
X284365D01*
Y-918135D01*
D02*
G37*
G36*
X251418Y-906730D02*
X248582D01*
X245843Y-907464D01*
X243387Y-908882D01*
X241382Y-910887D01*
X239964Y-913343D01*
X239230Y-916082D01*
Y-918918D01*
X239964Y-921657D01*
X241382Y-924113D01*
X243387Y-926118D01*
X245843Y-927536D01*
X248582Y-928270D01*
X251418D01*
X254157Y-927536D01*
X256613Y-926118D01*
X258618Y-924113D01*
X260036Y-921657D01*
X260770Y-918918D01*
Y-916082D01*
X260036Y-913343D01*
X258618Y-910887D01*
X256613Y-908882D01*
X254157Y-907464D01*
X251418Y-906730D01*
D02*
G37*
G36*
X226018D02*
X223182D01*
X220443Y-907464D01*
X217987Y-908882D01*
X215982Y-910887D01*
X214564Y-913343D01*
X213830Y-916082D01*
Y-918918D01*
X214564Y-921657D01*
X215982Y-924113D01*
X217987Y-926118D01*
X220443Y-927536D01*
X223182Y-928270D01*
X226018D01*
X228757Y-927536D01*
X231213Y-926118D01*
X233218Y-924113D01*
X234636Y-921657D01*
X235370Y-918918D01*
Y-916082D01*
X234636Y-913343D01*
X233218Y-910887D01*
X231213Y-908882D01*
X228757Y-907464D01*
X226018Y-906730D01*
D02*
G37*
G36*
X184570D02*
X163030D01*
Y-928270D01*
X184570D01*
Y-906730D01*
D02*
G37*
G36*
X141818D02*
X138982D01*
X136243Y-907464D01*
X133787Y-908882D01*
X131782Y-910887D01*
X130364Y-913343D01*
X129630Y-916082D01*
Y-918918D01*
X130364Y-921657D01*
X131782Y-924113D01*
X133787Y-926118D01*
X136243Y-927536D01*
X138982Y-928270D01*
X141818D01*
X144557Y-927536D01*
X147013Y-926118D01*
X149018Y-924113D01*
X150436Y-921657D01*
X151170Y-918918D01*
Y-916082D01*
X150436Y-913343D01*
X149018Y-910887D01*
X147013Y-908882D01*
X144557Y-907464D01*
X141818Y-906730D01*
D02*
G37*
G36*
X116418D02*
X113582D01*
X110843Y-907464D01*
X108387Y-908882D01*
X106382Y-910887D01*
X104964Y-913343D01*
X104230Y-916082D01*
Y-918918D01*
X104964Y-921657D01*
X106382Y-924113D01*
X108387Y-926118D01*
X110843Y-927536D01*
X113582Y-928270D01*
X116418D01*
X119157Y-927536D01*
X121613Y-926118D01*
X123618Y-924113D01*
X125036Y-921657D01*
X125770Y-918918D01*
Y-916082D01*
X125036Y-913343D01*
X123618Y-910887D01*
X121613Y-908882D01*
X119157Y-907464D01*
X116418Y-906730D01*
D02*
G37*
G36*
X74970D02*
X53430D01*
Y-928270D01*
X74970D01*
Y-906730D01*
D02*
G37*
G36*
X496731Y-906817D02*
X493896D01*
X491157Y-907551D01*
X488701Y-908969D01*
X486695Y-910974D01*
X485277Y-913430D01*
X484544Y-916169D01*
Y-919005D01*
X485277Y-921744D01*
X486695Y-924200D01*
X488701Y-926205D01*
X491157Y-927623D01*
X493896Y-928357D01*
X496731D01*
X499471Y-927623D01*
X501926Y-926205D01*
X503932Y-924200D01*
X505350Y-921744D01*
X506083Y-919005D01*
Y-916169D01*
X505350Y-913430D01*
X503932Y-910974D01*
X501926Y-908969D01*
X499471Y-907551D01*
X496731Y-906817D01*
D02*
G37*
G36*
X385932D02*
X383096D01*
X380356Y-907551D01*
X377901Y-908969D01*
X375895Y-910974D01*
X374478Y-913430D01*
X373744Y-916169D01*
Y-919005D01*
X374478Y-921744D01*
X375895Y-924200D01*
X377901Y-926205D01*
X380356Y-927623D01*
X383096Y-928357D01*
X385932D01*
X388671Y-927623D01*
X391127Y-926205D01*
X393132Y-924200D01*
X394550Y-921744D01*
X395284Y-919005D01*
Y-916169D01*
X394550Y-913430D01*
X393132Y-910974D01*
X391127Y-908969D01*
X388671Y-907551D01*
X385932Y-906817D01*
D02*
G37*
G36*
X200532D02*
X197696D01*
X194956Y-907551D01*
X192501Y-908969D01*
X190495Y-910974D01*
X189077Y-913430D01*
X188344Y-916169D01*
Y-919005D01*
X189077Y-921744D01*
X190495Y-924200D01*
X192501Y-926205D01*
X194956Y-927623D01*
X197696Y-928357D01*
X200532D01*
X203271Y-927623D01*
X205727Y-926205D01*
X207732Y-924200D01*
X209150Y-921744D01*
X209884Y-919005D01*
Y-916169D01*
X209150Y-913430D01*
X207732Y-910974D01*
X205727Y-908969D01*
X203271Y-907551D01*
X200532Y-906817D01*
D02*
G37*
G36*
X90932D02*
X88096D01*
X85357Y-907551D01*
X82901Y-908969D01*
X80895Y-910974D01*
X79478Y-913430D01*
X78744Y-916169D01*
Y-919005D01*
X79478Y-921744D01*
X80895Y-924200D01*
X82901Y-926205D01*
X85357Y-927623D01*
X88096Y-928357D01*
X90932D01*
X93671Y-927623D01*
X96126Y-926205D01*
X98132Y-924200D01*
X99550Y-921744D01*
X100283Y-919005D01*
Y-916169D01*
X99550Y-913430D01*
X98132Y-910974D01*
X96126Y-908969D01*
X93671Y-907551D01*
X90932Y-906817D01*
D02*
G37*
%LPD*%
G36*
X364011Y-37126D02*
X335362Y-65775D01*
X333957Y-64964D01*
X331218Y-64230D01*
X329025D01*
X328029Y-62560D01*
X327867Y-61795D01*
X354883Y-34780D01*
X363039D01*
X364011Y-37126D01*
D02*
G37*
G36*
X623205Y-59408D02*
X622894Y-59948D01*
X622330Y-62051D01*
Y-64229D01*
X622894Y-66332D01*
X623982Y-68218D01*
X625522Y-69758D01*
X627408Y-70846D01*
X629511Y-71410D01*
X631689D01*
X633792Y-70846D01*
X635678Y-69758D01*
X636870Y-68565D01*
X638285Y-68839D01*
X639410Y-69493D01*
Y-128151D01*
X570746Y-196815D01*
X568400Y-195843D01*
Y-59189D01*
X569925Y-57987D01*
X572330Y-59051D01*
Y-71410D01*
X588870D01*
Y-56940D01*
X588870Y-54870D01*
X591215Y-54400D01*
X599193D01*
X599704Y-55216D01*
X600105Y-56940D01*
X598982Y-58062D01*
X597894Y-59948D01*
X597330Y-62051D01*
Y-62505D01*
X605600D01*
X613870D01*
Y-62051D01*
X613306Y-59948D01*
X612218Y-58062D01*
X611095Y-56940D01*
X611496Y-55216D01*
X612007Y-54400D01*
X618197D01*
X623205Y-59408D01*
D02*
G37*
G36*
X554668Y-347943D02*
X554652Y-348009D01*
X551838Y-348787D01*
X493392Y-290341D01*
X494332Y-287689D01*
X494407Y-287681D01*
X554668Y-347943D01*
D02*
G37*
G36*
X542412Y-355799D02*
Y-366901D01*
X542362Y-366922D01*
X541005Y-368279D01*
X540975Y-368352D01*
X537979Y-368948D01*
X522693Y-353662D01*
Y-339672D01*
X525233Y-338620D01*
X542412Y-355799D01*
D02*
G37*
G36*
X523089Y-444630D02*
X522037Y-447170D01*
X450521D01*
X449175Y-445157D01*
X449844Y-442490D01*
X451173Y-442210D01*
X520669D01*
X523089Y-444630D01*
D02*
G37*
G36*
X673266Y-433091D02*
X675040Y-433826D01*
X676960D01*
X677153Y-433746D01*
X679693Y-435443D01*
Y-447025D01*
X679890Y-448016D01*
X680452Y-448856D01*
X688717Y-457121D01*
X689557Y-457683D01*
X690548Y-457880D01*
X731572D01*
X732563Y-457683D01*
X733403Y-457121D01*
X740710Y-449815D01*
X743782Y-450056D01*
X745694Y-451968D01*
X748036Y-453320D01*
X750648Y-454020D01*
X751925D01*
X752978Y-456560D01*
X724396Y-485141D01*
X723164Y-484430D01*
X720552Y-483730D01*
X717848D01*
X715236Y-484430D01*
X712894Y-485782D01*
X710982Y-487694D01*
X709630Y-490036D01*
X708930Y-492648D01*
Y-495352D01*
X709630Y-497964D01*
X710982Y-500306D01*
X711755Y-501079D01*
X705423Y-507410D01*
X488573D01*
X482741Y-501579D01*
X483671Y-500648D01*
X485024Y-498307D01*
X485723Y-495695D01*
Y-492990D01*
X485024Y-490378D01*
X483671Y-488037D01*
X481759Y-486124D01*
X479418Y-484772D01*
X476805Y-484072D01*
X474101D01*
X471489Y-484772D01*
X469148Y-486124D01*
X467235Y-488037D01*
X465883Y-490378D01*
X465183Y-492990D01*
Y-495695D01*
X465883Y-498307D01*
X467235Y-500648D01*
X469148Y-502561D01*
X471489Y-503913D01*
X474101Y-504613D01*
X476339D01*
X476600Y-504870D01*
X475586Y-507344D01*
X475509Y-507410D01*
X247184D01*
X239312Y-499539D01*
X240024Y-498307D01*
X240723Y-495695D01*
Y-492990D01*
X240024Y-490378D01*
X238671Y-488037D01*
X236759Y-486124D01*
X234418Y-484772D01*
X231806Y-484072D01*
X229101D01*
X226489Y-484772D01*
X224148Y-486124D01*
X222235Y-488037D01*
X220883Y-490378D01*
X220184Y-492990D01*
Y-495695D01*
X220883Y-498307D01*
X222235Y-500648D01*
X224148Y-502561D01*
X226489Y-503913D01*
X229101Y-504613D01*
X231806D01*
X234418Y-503913D01*
X235650Y-503201D01*
X244280Y-511831D01*
X245120Y-512393D01*
X246111Y-512590D01*
X247929D01*
X248901Y-514936D01*
X155936Y-607901D01*
X153590Y-606929D01*
Y-507749D01*
X166843Y-494495D01*
X169384Y-495547D01*
Y-495695D01*
X170083Y-498307D01*
X171435Y-500648D01*
X173348Y-502561D01*
X175689Y-503913D01*
X178301Y-504613D01*
X181006D01*
X183618Y-503913D01*
X185959Y-502561D01*
X187871Y-500648D01*
X189224Y-498307D01*
X189923Y-495695D01*
Y-492990D01*
X189224Y-490378D01*
X187871Y-488037D01*
X185959Y-486124D01*
X183618Y-484772D01*
X181006Y-484072D01*
X180858D01*
X179806Y-481533D01*
X181749Y-479590D01*
X656849D01*
X656909Y-479734D01*
X658266Y-481091D01*
X660040Y-481826D01*
X661960D01*
X663734Y-481091D01*
X665091Y-479734D01*
X665826Y-477960D01*
Y-476040D01*
X665091Y-474266D01*
X663734Y-472909D01*
X661960Y-472174D01*
X660040D01*
X658266Y-472909D01*
X656909Y-474266D01*
X656849Y-474410D01*
X640571D01*
X639599Y-472064D01*
X645896Y-465766D01*
X646040Y-465826D01*
X647960D01*
X649734Y-465091D01*
X651091Y-463734D01*
X651826Y-461960D01*
Y-460040D01*
X651091Y-458266D01*
X649734Y-456909D01*
X649460Y-456795D01*
X648835Y-453827D01*
X669759Y-432903D01*
X671909Y-431734D01*
X673266Y-433091D01*
D02*
G37*
G36*
X769182Y-450056D02*
X771094Y-451968D01*
X773436Y-453320D01*
X776048Y-454020D01*
X777325D01*
X778378Y-456560D01*
X749796Y-485141D01*
X748564Y-484430D01*
X745952Y-483730D01*
X743248D01*
X740636Y-484430D01*
X738294Y-485782D01*
X736382Y-487694D01*
X735030Y-490036D01*
X734330Y-492648D01*
Y-495352D01*
X735030Y-497964D01*
X735741Y-499196D01*
X719527Y-515410D01*
X500588D01*
X500400Y-515130D01*
X501758Y-512590D01*
X706496D01*
X707487Y-512393D01*
X708327Y-511831D01*
X716302Y-503856D01*
X717848Y-504270D01*
X720552D01*
X723164Y-503570D01*
X725506Y-502218D01*
X727418Y-500306D01*
X728770Y-497964D01*
X729470Y-495352D01*
Y-492648D01*
X728770Y-490036D01*
X728059Y-488804D01*
X765371Y-451491D01*
X765933Y-450651D01*
X766102Y-449801D01*
X766366Y-449647D01*
X768786Y-449371D01*
X769182Y-450056D01*
D02*
G37*
G36*
X736251Y-541037D02*
X735154Y-542410D01*
X611926D01*
X610777Y-541130D01*
X611865Y-538590D01*
X735170D01*
X736251Y-541037D01*
D02*
G37*
G36*
X531567Y-583591D02*
X503730Y-611427D01*
X502406Y-611073D01*
X499701D01*
X498725Y-611334D01*
X497410Y-609057D01*
X525416Y-581051D01*
X530515D01*
X531567Y-583591D01*
D02*
G37*
G36*
X770427Y-591431D02*
X749819Y-612039D01*
X748764Y-611430D01*
X746152Y-610730D01*
X743796D01*
X743151Y-609880D01*
X742609Y-608325D01*
X762044Y-588891D01*
X769374D01*
X770427Y-591431D01*
D02*
G37*
G36*
X276909Y-540734D02*
X278266Y-542091D01*
X280040Y-542826D01*
X281715Y-543779D01*
X282002Y-546335D01*
X215682Y-612655D01*
X215277Y-613262D01*
X214782Y-613559D01*
X212434Y-613999D01*
X211559Y-613124D01*
X209218Y-611772D01*
X206606Y-611073D01*
X206458D01*
X205406Y-608532D01*
X273349Y-540590D01*
X276849D01*
X276909Y-540734D01*
D02*
G37*
G36*
X270472Y-536027D02*
X270445Y-536169D01*
X191214Y-615400D01*
X188433Y-615258D01*
X188081Y-615053D01*
X188071Y-615037D01*
X186159Y-613124D01*
X183818Y-611772D01*
X181206Y-611073D01*
X181058D01*
X180006Y-608532D01*
X254949Y-533590D01*
X269732D01*
X270472Y-536027D01*
D02*
G37*
G36*
X180488Y-631613D02*
X181206D01*
X183818Y-630913D01*
X186159Y-629561D01*
X186984Y-628736D01*
X189524Y-629788D01*
Y-681743D01*
X186984Y-682424D01*
X186472Y-681537D01*
X184559Y-679624D01*
X182218Y-678272D01*
X179606Y-677572D01*
X176901D01*
X174289Y-678272D01*
X171948Y-679624D01*
X171843Y-679729D01*
X169303Y-678677D01*
Y-628689D01*
X170934Y-627961D01*
X171843Y-627856D01*
X173548Y-629561D01*
X175889Y-630913D01*
X178501Y-631613D01*
X179219D01*
Y-621343D01*
X180488D01*
Y-631613D01*
D02*
G37*
G36*
X198948Y-629561D02*
X201289Y-630913D01*
X203901Y-631613D01*
X206606D01*
X209218Y-630913D01*
X211559Y-629561D01*
X212384Y-628736D01*
X214924Y-629788D01*
Y-681743D01*
X212384Y-682424D01*
X211871Y-681537D01*
X209959Y-679624D01*
X207617Y-678272D01*
X205005Y-677572D01*
X202301D01*
X199689Y-678272D01*
X197348Y-679624D01*
X197243Y-679729D01*
X194703Y-678677D01*
Y-628689D01*
X196334Y-627961D01*
X197243Y-627856D01*
X198948Y-629561D01*
D02*
G37*
G36*
X601864Y-680211D02*
X601148Y-680624D01*
X599235Y-682536D01*
X597883Y-684878D01*
X597183Y-687490D01*
Y-690194D01*
X597883Y-692806D01*
X599235Y-695148D01*
X601148Y-697060D01*
X603489Y-698412D01*
X606101Y-699112D01*
X608806D01*
X610483Y-698663D01*
X611771Y-700012D01*
X610770Y-702410D01*
X372073D01*
X364041Y-694379D01*
X364272Y-694148D01*
X365624Y-691806D01*
X366323Y-689194D01*
Y-686490D01*
X365624Y-683878D01*
X364272Y-681537D01*
X362946Y-680211D01*
X363741Y-677774D01*
X363818Y-677671D01*
X423383D01*
X424064Y-680211D01*
X423348Y-680624D01*
X421436Y-682536D01*
X420083Y-684878D01*
X419384Y-687490D01*
Y-690194D01*
X420083Y-692806D01*
X421436Y-695148D01*
X423348Y-697060D01*
X425689Y-698412D01*
X428302Y-699112D01*
X431006D01*
X433618Y-698412D01*
X435959Y-697060D01*
X437872Y-695148D01*
X439224Y-692806D01*
X439924Y-690194D01*
Y-687490D01*
X439224Y-684878D01*
X437872Y-682536D01*
X435959Y-680624D01*
X435243Y-680211D01*
X435924Y-677671D01*
X448783D01*
X449464Y-680211D01*
X448748Y-680624D01*
X446836Y-682536D01*
X445483Y-684878D01*
X444784Y-687490D01*
Y-690194D01*
X445483Y-692806D01*
X446836Y-695148D01*
X448748Y-697060D01*
X451089Y-698412D01*
X453702Y-699112D01*
X456406D01*
X459018Y-698412D01*
X461359Y-697060D01*
X463272Y-695148D01*
X464624Y-692806D01*
X465323Y-690194D01*
Y-687490D01*
X464624Y-684878D01*
X463272Y-682536D01*
X461359Y-680624D01*
X460643Y-680211D01*
X461324Y-677671D01*
X474183D01*
X474864Y-680211D01*
X474148Y-680624D01*
X472235Y-682536D01*
X470883Y-684878D01*
X470183Y-687490D01*
Y-690194D01*
X470883Y-692806D01*
X472235Y-695148D01*
X474148Y-697060D01*
X476489Y-698412D01*
X479101Y-699112D01*
X481806D01*
X484418Y-698412D01*
X486759Y-697060D01*
X488672Y-695148D01*
X490024Y-692806D01*
X490723Y-690194D01*
Y-687490D01*
X490024Y-684878D01*
X488672Y-682536D01*
X486759Y-680624D01*
X486043Y-680211D01*
X486724Y-677671D01*
X499583D01*
X500264Y-680211D01*
X499548Y-680624D01*
X497635Y-682536D01*
X496283Y-684878D01*
X495583Y-687490D01*
Y-690194D01*
X496283Y-692806D01*
X497635Y-695148D01*
X499548Y-697060D01*
X501889Y-698412D01*
X504501Y-699112D01*
X507206D01*
X509818Y-698412D01*
X512159Y-697060D01*
X514072Y-695148D01*
X515424Y-692806D01*
X516124Y-690194D01*
Y-687490D01*
X515424Y-684878D01*
X514072Y-682536D01*
X512159Y-680624D01*
X511443Y-680211D01*
X512124Y-677671D01*
X524983D01*
X525664Y-680211D01*
X524948Y-680624D01*
X523036Y-682536D01*
X521683Y-684878D01*
X520984Y-687490D01*
Y-690194D01*
X521683Y-692806D01*
X523036Y-695148D01*
X524948Y-697060D01*
X527289Y-698412D01*
X529902Y-699112D01*
X532606D01*
X535218Y-698412D01*
X537559Y-697060D01*
X539472Y-695148D01*
X540824Y-692806D01*
X541524Y-690194D01*
Y-687490D01*
X540824Y-684878D01*
X539472Y-682536D01*
X537559Y-680624D01*
X536843Y-680211D01*
X537524Y-677671D01*
X550383D01*
X551064Y-680211D01*
X550348Y-680624D01*
X548436Y-682536D01*
X547083Y-684878D01*
X546384Y-687490D01*
Y-690194D01*
X547083Y-692806D01*
X548436Y-695148D01*
X550348Y-697060D01*
X552689Y-698412D01*
X555302Y-699112D01*
X558006D01*
X560618Y-698412D01*
X562959Y-697060D01*
X564872Y-695148D01*
X566224Y-692806D01*
X566923Y-690194D01*
Y-687490D01*
X566224Y-684878D01*
X564872Y-682536D01*
X562959Y-680624D01*
X562243Y-680211D01*
X562924Y-677671D01*
X575783D01*
X576464Y-680211D01*
X575748Y-680624D01*
X573835Y-682536D01*
X572483Y-684878D01*
X571783Y-687490D01*
Y-690194D01*
X572483Y-692806D01*
X573835Y-695148D01*
X575748Y-697060D01*
X578089Y-698412D01*
X580701Y-699112D01*
X583406D01*
X586018Y-698412D01*
X588359Y-697060D01*
X590272Y-695148D01*
X591624Y-692806D01*
X592323Y-690194D01*
Y-687490D01*
X591624Y-684878D01*
X590272Y-682536D01*
X588359Y-680624D01*
X587643Y-680211D01*
X588324Y-677671D01*
X601183D01*
X601864Y-680211D01*
D02*
G37*
G36*
X842730D02*
X841148Y-681124D01*
X839236Y-683037D01*
X837883Y-685378D01*
X837184Y-687990D01*
Y-690695D01*
X837883Y-693307D01*
X839236Y-695648D01*
X840452Y-696865D01*
X834907Y-702410D01*
X622073D01*
X615241Y-695579D01*
X615672Y-695148D01*
X617024Y-692806D01*
X617724Y-690194D01*
Y-687490D01*
X617024Y-684878D01*
X615672Y-682536D01*
X613759Y-680624D01*
X613043Y-680211D01*
X613724Y-677671D01*
X664249D01*
X664930Y-680211D01*
X663348Y-681124D01*
X661435Y-683037D01*
X660083Y-685378D01*
X659383Y-687990D01*
Y-690695D01*
X660083Y-693307D01*
X661435Y-695648D01*
X663348Y-697561D01*
X665689Y-698913D01*
X668301Y-699613D01*
X671006D01*
X673618Y-698913D01*
X675959Y-697561D01*
X677871Y-695648D01*
X679224Y-693307D01*
X679923Y-690695D01*
Y-687990D01*
X679224Y-685378D01*
X677871Y-683037D01*
X675959Y-681124D01*
X674377Y-680211D01*
X675058Y-677671D01*
X689649D01*
X690330Y-680211D01*
X688748Y-681124D01*
X686835Y-683037D01*
X685483Y-685378D01*
X684783Y-687990D01*
Y-690695D01*
X685483Y-693307D01*
X686835Y-695648D01*
X688748Y-697561D01*
X691089Y-698913D01*
X693701Y-699613D01*
X696406D01*
X699018Y-698913D01*
X701359Y-697561D01*
X703271Y-695648D01*
X704624Y-693307D01*
X705323Y-690695D01*
Y-687990D01*
X704624Y-685378D01*
X703271Y-683037D01*
X701359Y-681124D01*
X699777Y-680211D01*
X700458Y-677671D01*
X715049D01*
X715730Y-680211D01*
X714148Y-681124D01*
X712235Y-683037D01*
X710883Y-685378D01*
X710183Y-687990D01*
Y-690695D01*
X710883Y-693307D01*
X712235Y-695648D01*
X714148Y-697561D01*
X716489Y-698913D01*
X719101Y-699613D01*
X721806D01*
X724418Y-698913D01*
X726759Y-697561D01*
X728671Y-695648D01*
X730024Y-693307D01*
X730723Y-690695D01*
Y-687990D01*
X730024Y-685378D01*
X728671Y-683037D01*
X726759Y-681124D01*
X725177Y-680211D01*
X725858Y-677671D01*
X740449D01*
X741130Y-680211D01*
X739548Y-681124D01*
X737635Y-683037D01*
X736283Y-685378D01*
X735583Y-687990D01*
Y-690695D01*
X736283Y-693307D01*
X737635Y-695648D01*
X739548Y-697561D01*
X741889Y-698913D01*
X744501Y-699613D01*
X747206D01*
X749818Y-698913D01*
X752159Y-697561D01*
X754072Y-695648D01*
X755424Y-693307D01*
X756124Y-690695D01*
Y-687990D01*
X755424Y-685378D01*
X754072Y-683037D01*
X752159Y-681124D01*
X750577Y-680211D01*
X751258Y-677671D01*
X765849D01*
X766530Y-680211D01*
X764948Y-681124D01*
X763036Y-683037D01*
X761683Y-685378D01*
X760984Y-687990D01*
Y-690695D01*
X761683Y-693307D01*
X763036Y-695648D01*
X764948Y-697561D01*
X767289Y-698913D01*
X769901Y-699613D01*
X772606D01*
X775218Y-698913D01*
X777559Y-697561D01*
X779472Y-695648D01*
X780824Y-693307D01*
X781524Y-690695D01*
Y-687990D01*
X780824Y-685378D01*
X779472Y-683037D01*
X777559Y-681124D01*
X775977Y-680211D01*
X776658Y-677671D01*
X791249D01*
X791930Y-680211D01*
X790348Y-681124D01*
X788436Y-683037D01*
X787083Y-685378D01*
X786384Y-687990D01*
Y-690695D01*
X787083Y-693307D01*
X788436Y-695648D01*
X790348Y-697561D01*
X792689Y-698913D01*
X795301Y-699613D01*
X798006D01*
X800618Y-698913D01*
X802959Y-697561D01*
X804872Y-695648D01*
X806224Y-693307D01*
X806924Y-690695D01*
Y-687990D01*
X806224Y-685378D01*
X804872Y-683037D01*
X802959Y-681124D01*
X801377Y-680211D01*
X802058Y-677671D01*
X816649D01*
X817330Y-680211D01*
X815748Y-681124D01*
X813836Y-683037D01*
X812483Y-685378D01*
X811784Y-687990D01*
Y-690695D01*
X812483Y-693307D01*
X813836Y-695648D01*
X815748Y-697561D01*
X818089Y-698913D01*
X820701Y-699613D01*
X823406D01*
X826018Y-698913D01*
X828359Y-697561D01*
X830272Y-695648D01*
X831624Y-693307D01*
X832324Y-690695D01*
Y-687990D01*
X831624Y-685378D01*
X830272Y-683037D01*
X828359Y-681124D01*
X826777Y-680211D01*
X827458Y-677671D01*
X842049D01*
X842730Y-680211D01*
D02*
G37*
G36*
X224348Y-629561D02*
X226689Y-630913D01*
X229301Y-631613D01*
X232006D01*
X233330Y-631258D01*
X277330Y-675257D01*
X276675Y-678062D01*
X275889Y-678272D01*
X273548Y-679624D01*
X271635Y-681537D01*
X270283Y-683878D01*
X269583Y-686490D01*
Y-689194D01*
X270283Y-691806D01*
X271635Y-694148D01*
X273548Y-696060D01*
X275889Y-697413D01*
X278501Y-698112D01*
X281206D01*
X283818Y-697413D01*
X286159Y-696060D01*
X288071Y-694148D01*
X289424Y-691806D01*
X290123Y-689194D01*
Y-686490D01*
X289424Y-683878D01*
X288071Y-681537D01*
X286746Y-680211D01*
X287542Y-677774D01*
X287618Y-677671D01*
X297489D01*
X297565Y-677774D01*
X298361Y-680211D01*
X297035Y-681537D01*
X295683Y-683878D01*
X294984Y-686490D01*
Y-689194D01*
X295683Y-691806D01*
X297035Y-694148D01*
X298948Y-696060D01*
X301289Y-697413D01*
X303901Y-698112D01*
X306605D01*
X309217Y-697413D01*
X311559Y-696060D01*
X313472Y-694148D01*
X314824Y-691806D01*
X315523Y-689194D01*
Y-686490D01*
X314824Y-683878D01*
X313472Y-681537D01*
X312146Y-680211D01*
X312941Y-677774D01*
X313018Y-677671D01*
X322889D01*
X322965Y-677774D01*
X323761Y-680211D01*
X322435Y-681537D01*
X321083Y-683878D01*
X320383Y-686490D01*
Y-689194D01*
X321083Y-691806D01*
X322435Y-694148D01*
X324348Y-696060D01*
X326689Y-697413D01*
X329301Y-698112D01*
X332006D01*
X334618Y-697413D01*
X336959Y-696060D01*
X338871Y-694148D01*
X340224Y-691806D01*
X340923Y-689194D01*
Y-686490D01*
X340224Y-683878D01*
X338871Y-681537D01*
X337546Y-680211D01*
X338341Y-677774D01*
X338418Y-677671D01*
X348289D01*
X348365Y-677774D01*
X349161Y-680211D01*
X347835Y-681537D01*
X346483Y-683878D01*
X345784Y-686490D01*
Y-689194D01*
X346483Y-691806D01*
X347835Y-694148D01*
X349748Y-696060D01*
X352089Y-697413D01*
X354701Y-698112D01*
X357406D01*
X359807Y-697469D01*
X362401Y-700064D01*
X361429Y-702410D01*
X230964D01*
X229206Y-700652D01*
X230258Y-698112D01*
X230406D01*
X233018Y-697413D01*
X235359Y-696060D01*
X237271Y-694148D01*
X238624Y-691806D01*
X239323Y-689194D01*
Y-686490D01*
X238624Y-683878D01*
X237271Y-681537D01*
X235359Y-679624D01*
X233018Y-678272D01*
X230406Y-677572D01*
X227701D01*
X225089Y-678272D01*
X222748Y-679624D01*
X222643Y-679729D01*
X220103Y-678677D01*
Y-628689D01*
X221734Y-627961D01*
X222643Y-627856D01*
X224348Y-629561D01*
D02*
G37*
G36*
X215119Y-693604D02*
X215121Y-693614D01*
X215682Y-694454D01*
X228060Y-706831D01*
X228900Y-707393D01*
X228537Y-709910D01*
X213064D01*
X203806Y-700652D01*
X204858Y-698112D01*
X205005D01*
X207617Y-697413D01*
X209959Y-696060D01*
X211871Y-694148D01*
X212441Y-693162D01*
X215119Y-693604D01*
D02*
G37*
G36*
X189719D02*
X189721Y-693614D01*
X190282Y-694454D01*
X210160Y-714331D01*
X209382Y-716854D01*
X209078Y-717276D01*
X195030D01*
X178406Y-700652D01*
X179458Y-698112D01*
X179606D01*
X182218Y-697413D01*
X184559Y-696060D01*
X186472Y-694148D01*
X187041Y-693162D01*
X189719Y-693604D01*
D02*
G37*
%LPC*%
G36*
X613870Y-63775D02*
X606235D01*
Y-71410D01*
X606689D01*
X608792Y-70846D01*
X610678Y-69758D01*
X612218Y-68218D01*
X613306Y-66332D01*
X613870Y-64229D01*
Y-63775D01*
D02*
G37*
G36*
X604965D02*
X597330D01*
Y-64229D01*
X597894Y-66332D01*
X598982Y-68218D01*
X600522Y-69758D01*
X602408Y-70846D01*
X604511Y-71410D01*
X604965D01*
Y-63775D01*
D02*
G37*
G36*
X695152Y-483730D02*
X692448D01*
X689836Y-484430D01*
X687494Y-485782D01*
X685582Y-487694D01*
X684230Y-490036D01*
X683530Y-492648D01*
Y-495352D01*
X684230Y-497964D01*
X685582Y-500306D01*
X687494Y-502218D01*
X689836Y-503570D01*
X692448Y-504270D01*
X695152D01*
X697764Y-503570D01*
X700106Y-502218D01*
X702018Y-500306D01*
X703370Y-497964D01*
X704070Y-495352D01*
Y-492648D01*
X703370Y-490036D01*
X702018Y-487694D01*
X700106Y-485782D01*
X697764Y-484430D01*
X695152Y-483730D01*
D02*
G37*
G36*
X669752D02*
X667048D01*
X664436Y-484430D01*
X662094Y-485782D01*
X660182Y-487694D01*
X658830Y-490036D01*
X658130Y-492648D01*
Y-495352D01*
X658830Y-497964D01*
X660182Y-500306D01*
X662094Y-502218D01*
X664436Y-503570D01*
X667048Y-504270D01*
X669752D01*
X672364Y-503570D01*
X674706Y-502218D01*
X676618Y-500306D01*
X677970Y-497964D01*
X678670Y-495352D01*
Y-492648D01*
X677970Y-490036D01*
X676618Y-487694D01*
X674706Y-485782D01*
X672364Y-484430D01*
X669752Y-483730D01*
D02*
G37*
G36*
X603806Y-484072D02*
X601101D01*
X598489Y-484772D01*
X596148Y-486124D01*
X594235Y-488037D01*
X592883Y-490378D01*
X592183Y-492990D01*
Y-495695D01*
X592883Y-498307D01*
X594235Y-500648D01*
X596148Y-502561D01*
X598489Y-503913D01*
X601101Y-504613D01*
X603806D01*
X606418Y-503913D01*
X608759Y-502561D01*
X610672Y-500648D01*
X612024Y-498307D01*
X612724Y-495695D01*
Y-492990D01*
X612024Y-490378D01*
X610672Y-488037D01*
X608759Y-486124D01*
X606418Y-484772D01*
X603806Y-484072D01*
D02*
G37*
G36*
X578405D02*
X575701D01*
X573089Y-484772D01*
X570748Y-486124D01*
X568835Y-488037D01*
X567483Y-490378D01*
X566783Y-492990D01*
Y-495695D01*
X567483Y-498307D01*
X568835Y-500648D01*
X570748Y-502561D01*
X573089Y-503913D01*
X575701Y-504613D01*
X578405D01*
X581018Y-503913D01*
X583359Y-502561D01*
X585271Y-500648D01*
X586624Y-498307D01*
X587323Y-495695D01*
Y-492990D01*
X586624Y-490378D01*
X585271Y-488037D01*
X583359Y-486124D01*
X581018Y-484772D01*
X578405Y-484072D01*
D02*
G37*
G36*
X553005D02*
X550301D01*
X547689Y-484772D01*
X545348Y-486124D01*
X543435Y-488037D01*
X542083Y-490378D01*
X541384Y-492990D01*
Y-495695D01*
X542083Y-498307D01*
X543435Y-500648D01*
X545348Y-502561D01*
X547689Y-503913D01*
X550301Y-504613D01*
X553005D01*
X555618Y-503913D01*
X557959Y-502561D01*
X559871Y-500648D01*
X561224Y-498307D01*
X561923Y-495695D01*
Y-492990D01*
X561224Y-490378D01*
X559871Y-488037D01*
X557959Y-486124D01*
X555618Y-484772D01*
X553005Y-484072D01*
D02*
G37*
G36*
X527606D02*
X524901D01*
X522289Y-484772D01*
X519948Y-486124D01*
X518035Y-488037D01*
X516683Y-490378D01*
X515984Y-492990D01*
Y-495695D01*
X516683Y-498307D01*
X518035Y-500648D01*
X519948Y-502561D01*
X522289Y-503913D01*
X524901Y-504613D01*
X527606D01*
X530218Y-503913D01*
X532559Y-502561D01*
X534472Y-500648D01*
X535824Y-498307D01*
X536524Y-495695D01*
Y-492990D01*
X535824Y-490378D01*
X534472Y-488037D01*
X532559Y-486124D01*
X530218Y-484772D01*
X527606Y-484072D01*
D02*
G37*
G36*
X502206D02*
X499501D01*
X496889Y-484772D01*
X494548Y-486124D01*
X492635Y-488037D01*
X491283Y-490378D01*
X490583Y-492990D01*
Y-495695D01*
X491283Y-498307D01*
X492635Y-500648D01*
X494548Y-502561D01*
X496889Y-503913D01*
X499501Y-504613D01*
X502206D01*
X504818Y-503913D01*
X507159Y-502561D01*
X509072Y-500648D01*
X510424Y-498307D01*
X511124Y-495695D01*
Y-492990D01*
X510424Y-490378D01*
X509072Y-488037D01*
X507159Y-486124D01*
X504818Y-484772D01*
X502206Y-484072D01*
D02*
G37*
G36*
X451405D02*
X448701D01*
X446089Y-484772D01*
X443748Y-486124D01*
X441835Y-488037D01*
X440483Y-490378D01*
X439784Y-492990D01*
Y-495695D01*
X440483Y-498307D01*
X441835Y-500648D01*
X443748Y-502561D01*
X446089Y-503913D01*
X448701Y-504613D01*
X451405D01*
X454018Y-503913D01*
X456359Y-502561D01*
X458271Y-500648D01*
X459624Y-498307D01*
X460323Y-495695D01*
Y-492990D01*
X459624Y-490378D01*
X458271Y-488037D01*
X456359Y-486124D01*
X454018Y-484772D01*
X451405Y-484072D01*
D02*
G37*
G36*
X426006D02*
X423301D01*
X420689Y-484772D01*
X418348Y-486124D01*
X416435Y-488037D01*
X415083Y-490378D01*
X414384Y-492990D01*
Y-495695D01*
X415083Y-498307D01*
X416435Y-500648D01*
X418348Y-502561D01*
X420689Y-503913D01*
X423301Y-504613D01*
X426006D01*
X428618Y-503913D01*
X430959Y-502561D01*
X432872Y-500648D01*
X434224Y-498307D01*
X434924Y-495695D01*
Y-492990D01*
X434224Y-490378D01*
X432872Y-488037D01*
X430959Y-486124D01*
X428618Y-484772D01*
X426006Y-484072D01*
D02*
G37*
G36*
X358806D02*
X356101D01*
X353489Y-484772D01*
X351148Y-486124D01*
X349235Y-488037D01*
X347883Y-490378D01*
X347183Y-492990D01*
Y-495695D01*
X347883Y-498307D01*
X349235Y-500648D01*
X351148Y-502561D01*
X353489Y-503913D01*
X356101Y-504613D01*
X358806D01*
X361418Y-503913D01*
X363759Y-502561D01*
X365672Y-500648D01*
X367024Y-498307D01*
X367724Y-495695D01*
Y-492990D01*
X367024Y-490378D01*
X365672Y-488037D01*
X363759Y-486124D01*
X361418Y-484772D01*
X358806Y-484072D01*
D02*
G37*
G36*
X333406D02*
X330701D01*
X328089Y-484772D01*
X325748Y-486124D01*
X323835Y-488037D01*
X322483Y-490378D01*
X321783Y-492990D01*
Y-495695D01*
X322483Y-498307D01*
X323835Y-500648D01*
X325748Y-502561D01*
X328089Y-503913D01*
X330701Y-504613D01*
X333406D01*
X336018Y-503913D01*
X338359Y-502561D01*
X340271Y-500648D01*
X341624Y-498307D01*
X342323Y-495695D01*
Y-492990D01*
X341624Y-490378D01*
X340271Y-488037D01*
X338359Y-486124D01*
X336018Y-484772D01*
X333406Y-484072D01*
D02*
G37*
G36*
X308006D02*
X305301D01*
X302689Y-484772D01*
X300348Y-486124D01*
X298435Y-488037D01*
X297083Y-490378D01*
X296383Y-492990D01*
Y-495695D01*
X297083Y-498307D01*
X298435Y-500648D01*
X300348Y-502561D01*
X302689Y-503913D01*
X305301Y-504613D01*
X308006D01*
X310618Y-503913D01*
X312959Y-502561D01*
X314872Y-500648D01*
X316224Y-498307D01*
X316924Y-495695D01*
Y-492990D01*
X316224Y-490378D01*
X314872Y-488037D01*
X312959Y-486124D01*
X310618Y-484772D01*
X308006Y-484072D01*
D02*
G37*
G36*
X282606D02*
X279901D01*
X277289Y-484772D01*
X274948Y-486124D01*
X273035Y-488037D01*
X271683Y-490378D01*
X270984Y-492990D01*
Y-495695D01*
X271683Y-498307D01*
X273035Y-500648D01*
X274948Y-502561D01*
X277289Y-503913D01*
X279901Y-504613D01*
X282606D01*
X285218Y-503913D01*
X287559Y-502561D01*
X289471Y-500648D01*
X290824Y-498307D01*
X291523Y-495695D01*
Y-492990D01*
X290824Y-490378D01*
X289471Y-488037D01*
X287559Y-486124D01*
X285218Y-484772D01*
X282606Y-484072D01*
D02*
G37*
G36*
X257206D02*
X254501D01*
X251889Y-484772D01*
X249548Y-486124D01*
X247635Y-488037D01*
X246283Y-490378D01*
X245583Y-492990D01*
Y-495695D01*
X246283Y-498307D01*
X247635Y-500648D01*
X249548Y-502561D01*
X251889Y-503913D01*
X254501Y-504613D01*
X257206D01*
X259818Y-503913D01*
X262159Y-502561D01*
X264072Y-500648D01*
X265424Y-498307D01*
X266124Y-495695D01*
Y-492990D01*
X265424Y-490378D01*
X264072Y-488037D01*
X262159Y-486124D01*
X259818Y-484772D01*
X257206Y-484072D01*
D02*
G37*
G36*
X206406D02*
X203701D01*
X201089Y-484772D01*
X198748Y-486124D01*
X196835Y-488037D01*
X195483Y-490378D01*
X194783Y-492990D01*
Y-495695D01*
X195483Y-498307D01*
X196835Y-500648D01*
X198748Y-502561D01*
X201089Y-503913D01*
X203701Y-504613D01*
X206406D01*
X209018Y-503913D01*
X211359Y-502561D01*
X213272Y-500648D01*
X214624Y-498307D01*
X215324Y-495695D01*
Y-492990D01*
X214624Y-490378D01*
X213272Y-488037D01*
X211359Y-486124D01*
X209018Y-484772D01*
X206406Y-484072D01*
D02*
G37*
G36*
X255805Y-677572D02*
X253101D01*
X250489Y-678272D01*
X248148Y-679624D01*
X246235Y-681537D01*
X244883Y-683878D01*
X244184Y-686490D01*
Y-689194D01*
X244883Y-691806D01*
X246235Y-694148D01*
X248148Y-696060D01*
X250489Y-697413D01*
X253101Y-698112D01*
X255805D01*
X258417Y-697413D01*
X260759Y-696060D01*
X262672Y-694148D01*
X264024Y-691806D01*
X264723Y-689194D01*
Y-686490D01*
X264024Y-683878D01*
X262672Y-681537D01*
X260759Y-679624D01*
X258417Y-678272D01*
X255805Y-677572D01*
D02*
G37*
%LPD*%
G36*
X536567Y-853594D02*
X535515Y-856134D01*
X531960D01*
X504352Y-828525D01*
X504370Y-828399D01*
X505531Y-826112D01*
X507406D01*
X508730Y-825758D01*
X536567Y-853594D01*
D02*
G37*
D10*
X339040Y-255960D02*
X407960D01*
X417000Y-265000D01*
X353000Y-275000D02*
X417000D01*
X313500Y-314500D02*
X353000Y-275000D01*
X380000Y-296000D02*
X407000D01*
X370000Y-306000D02*
X380000Y-296000D01*
X378000Y-314000D02*
X386000Y-306000D01*
X407000D01*
X465000Y-219000D02*
X530600Y-153400D01*
X375612Y-389000D02*
X423422Y-341190D01*
X377000Y-393000D02*
X425000Y-345000D01*
X458000D01*
X274000Y-393000D02*
X377000D01*
X425810Y-341190D02*
X426000Y-341000D01*
X196000Y-389000D02*
X375612D01*
X426000Y-341000D02*
X449466D01*
X423422Y-341190D02*
X425810D01*
X368800Y-36000D02*
X877700D01*
X353810Y-32190D02*
X899290D01*
X530600Y-153400D02*
Y-75000D01*
X562000Y-198447D02*
Y-56000D01*
X558190Y-54422D02*
X568422Y-44190D01*
X558190Y-196869D02*
Y-54422D01*
X565810Y-200026D02*
Y-57578D01*
X320500Y-274500D02*
X339040Y-255960D01*
X254000Y-150000D02*
X261500Y-157500D01*
X175000Y-150000D02*
X254000D01*
Y-110000D02*
X265691Y-121691D01*
X172230Y-110000D02*
X254000D01*
X253618Y-189000D02*
X257118Y-192500D01*
X174000Y-189000D02*
X253618D01*
X177000Y-232000D02*
X328000D01*
X179500Y-274500D02*
X256850D01*
X320500D01*
X179000Y-314500D02*
X257000D01*
X313500D01*
X331691Y-121691D02*
X362000Y-152000D01*
X400000D01*
X265691Y-121691D02*
X331691D01*
X332500Y-157500D02*
X359904Y-184904D01*
X372582D01*
X261500Y-157500D02*
X332500D01*
X349000Y-209000D02*
X394000D01*
X332500Y-192500D02*
X349000Y-209000D01*
X344000Y-216000D02*
X406000D01*
X328000Y-232000D02*
X344000Y-216000D01*
X520000Y-735000D02*
X760000D01*
X497500Y-742500D02*
X735000D01*
X85000Y-674200D02*
X104560D01*
X123760Y-655000D01*
Y-496199D01*
X170199Y-449760D01*
X616240D01*
X636000Y-430000D01*
X638141Y-436096D02*
X638525D01*
X642096Y-432525D02*
Y-432141D01*
X638525Y-436096D02*
X642096Y-432525D01*
Y-432141D02*
X645000Y-429237D01*
Y-428000D01*
X84913Y-699514D02*
X113056D01*
X127570Y-685000D01*
Y-497777D01*
X620667Y-453570D02*
X638141Y-436096D01*
X171777Y-453570D02*
X620667D01*
X127570Y-497777D02*
X171777Y-453570D01*
X173355Y-457380D02*
X624620D01*
X131380Y-499355D02*
X173355Y-457380D01*
X131380Y-703000D02*
Y-499355D01*
X109380Y-725000D02*
X131380Y-703000D01*
X85000Y-725000D02*
X109380D01*
X624620Y-457380D02*
X667000Y-415000D01*
X697250D01*
X700600Y-418350D01*
X174933Y-461190D02*
X626198D01*
X135190Y-500933D02*
X174933Y-461190D01*
X135190Y-734000D02*
Y-500933D01*
X118790Y-750400D02*
X135190Y-734000D01*
X85000Y-750400D02*
X118790D01*
X686093Y-425435D02*
Y-424955D01*
Y-425435D02*
X690548Y-429890D01*
X714760D01*
X726300Y-418350D01*
X679948Y-418810D02*
X686093Y-424955D01*
X668578Y-418810D02*
X679948D01*
X626198Y-461190D02*
X668578Y-418810D01*
X176511Y-465000D02*
X628000D01*
X139000Y-502511D02*
X176511Y-465000D01*
X139000Y-773000D02*
Y-502511D01*
X125100Y-786900D02*
X139000Y-773000D01*
X85000Y-786900D02*
X125100D01*
X682283Y-447025D02*
X690548Y-455290D01*
X731572D01*
X740307Y-446555D01*
Y-430043D01*
X752000Y-418350D01*
X682283Y-447025D02*
Y-426533D01*
X628000Y-465000D02*
X670380Y-422620D01*
X678370D01*
X682283Y-426533D01*
X84913Y-812214D02*
X120166D01*
X143380Y-789000D02*
Y-503520D01*
X120166Y-812214D02*
X143380Y-789000D01*
Y-503520D02*
X177900Y-469000D01*
X630000D01*
X670000Y-429000D01*
X676000D01*
X147190Y-505098D02*
X179288Y-473000D01*
X635000D01*
X647000Y-461000D01*
X147190Y-815000D02*
Y-505098D01*
X85000Y-837700D02*
X124490D01*
X147190Y-815000D01*
X151000Y-506676D02*
X180676Y-477000D01*
X661000D01*
X151000Y-837000D02*
Y-506676D01*
X124900Y-863100D02*
X151000Y-837000D01*
X85000Y-863100D02*
X124900D01*
X85000Y-80000D02*
X150000Y-145000D01*
X647096Y-421904D02*
X657000Y-412000D01*
X800142Y-446708D02*
X803100Y-443750D01*
X791892Y-446708D02*
X800142D01*
X744600Y-494000D02*
X791892Y-446708D01*
X817260Y-432210D02*
X828800Y-443750D01*
X772620Y-432210D02*
X817260D01*
X763540Y-441290D02*
X772620Y-432210D01*
X763540Y-449660D02*
Y-441290D01*
X719200Y-494000D02*
X763540Y-449660D01*
X193957Y-719866D02*
X809866D01*
X587000Y-537096D02*
Y-536000D01*
X700600Y-443750D02*
X708330Y-436020D01*
X372582Y-184904D02*
X372678Y-185000D01*
X388000D01*
X444000Y-318000D02*
X455440Y-306560D01*
X444000Y-319002D02*
Y-318000D01*
X440000Y-301923D02*
X440827Y-302750D01*
X486750D01*
X635503Y-421904D02*
X647096D01*
X410233Y-412188D02*
X561188D01*
X409151Y-413270D02*
X410233Y-412188D01*
X409109Y-413270D02*
X409151D01*
X242500Y-742500D02*
X497500D01*
X194000Y-141000D02*
Y-127000D01*
X505836Y-260000D02*
X565810Y-200026D01*
X493687Y-252000D02*
X503059D01*
X498000Y-256000D02*
X504447D01*
X503059Y-252000D02*
X558190Y-196869D01*
X528126Y-245355D02*
Y-243097D01*
X503758Y-260000D02*
X505836D01*
X650000Y-132000D02*
Y-107000D01*
X535746Y-258746D02*
Y-246254D01*
X531936Y-250446D02*
Y-244676D01*
X506076Y-276306D02*
X531936Y-250446D01*
X645810Y-130802D02*
Y-72930D01*
X531936Y-244676D02*
X645810Y-130802D01*
X496017Y-277464D02*
X528126Y-245355D01*
Y-243097D02*
X642000Y-129224D01*
X504447Y-256000D02*
X562000Y-198447D01*
X535746Y-246254D02*
X650000Y-132000D01*
X642000Y-129224D02*
Y-63248D01*
X566000Y-316000D02*
Y-289000D01*
X535746Y-258746D02*
X566000Y-289000D01*
X177500Y-407500D02*
X196000Y-389000D01*
X259890Y-407110D02*
X274000Y-393000D01*
X449466Y-341000D02*
X474000Y-316466D01*
X458000Y-345000D02*
X483000Y-320000D01*
X451000Y-324000D02*
X464630Y-310370D01*
X379000Y-443379D02*
X409109Y-413270D01*
X268000Y-524000D02*
X268250Y-524250D01*
X510500D02*
X511154Y-524904D01*
X494000Y-518000D02*
X720600D01*
X268250Y-524250D02*
X510500D01*
X720600Y-518000D02*
X740758Y-497842D01*
X511154Y-524904D02*
X645306D01*
X946000Y-90000D02*
X957000Y-79000D01*
Y-79000D01*
X667000Y-90000D02*
X946000D01*
X650000Y-107000D02*
X667000Y-90000D01*
X945000Y-54000D02*
Y-52500D01*
X569592Y-415000D02*
X593474D01*
X594000Y-414474D01*
X557000Y-420000D02*
X565190Y-428190D01*
X537717Y-420000D02*
X557000D01*
X565190Y-428190D02*
X601198D01*
X558998Y-415998D02*
X567380Y-424380D01*
X414381Y-415998D02*
X558998D01*
X567380Y-424380D02*
X599620D01*
X567980Y-408000D02*
X586000D01*
X510806Y-356214D02*
X569592Y-415000D01*
X561188Y-412188D02*
X569570Y-420570D01*
X601198Y-428190D02*
X655694Y-373694D01*
X596525Y-420570D02*
X650000Y-367095D01*
X569570Y-420570D02*
X596525D01*
X599620Y-424380D02*
X670000Y-354000D01*
X650000Y-367095D02*
Y-363000D01*
X660399Y-352601D01*
X510806Y-356214D02*
Y-338194D01*
X397000Y-443664D02*
X420664Y-420000D01*
X532283D01*
X532475Y-419808D02*
X537525D01*
X528510Y-441000D02*
X610991D01*
X516145Y-356165D02*
X567980Y-408000D01*
X537525Y-419808D02*
X537717Y-420000D01*
X532283D02*
X532475Y-419808D01*
X531286Y-433000D02*
X607000D01*
X529898Y-437000D02*
X609603D01*
X527122Y-445000D02*
X612379D01*
X390904Y-439475D02*
X414381Y-415998D01*
X516145Y-356165D02*
Y-338145D01*
X566368Y-401000D02*
X580000D01*
X520103Y-354735D02*
X566368Y-401000D01*
X607000Y-433000D02*
X623166Y-416834D01*
X526286Y-428000D02*
X531286Y-433000D01*
X609603Y-437000D02*
X630775Y-415828D01*
X612379Y-445000D02*
X633931Y-423448D01*
X610991Y-441000D02*
X632353Y-419638D01*
X524898Y-432000D02*
X529898Y-437000D01*
X523320Y-435810D02*
X528510Y-441000D01*
X521742Y-439620D02*
X527122Y-445000D01*
X899290Y-32190D02*
X919600Y-52500D01*
X317000Y-69000D02*
X353810Y-32190D01*
X317000Y-80512D02*
Y-69000D01*
Y-80512D02*
X325488Y-89000D01*
X341200D01*
X355200Y-75000D01*
X329800D02*
X368800Y-36000D01*
X877700D02*
X894200Y-52500D01*
X568422Y-44190D02*
X748940D01*
X565810Y-57578D02*
X571578Y-51810D01*
X562000Y-56000D02*
X570000Y-48000D01*
X727750D01*
X619270Y-51810D02*
X630600Y-63140D01*
X571578Y-51810D02*
X619270D01*
X388000Y-185000D02*
X479800Y-93200D01*
X394000Y-209000D02*
X505286Y-97713D01*
X464630Y-310370D02*
X482982D01*
X455440Y-306560D02*
X484560D01*
X486750Y-302750D02*
X520103Y-336103D01*
X482982Y-310370D02*
X510806Y-338194D01*
X520103Y-354735D02*
Y-336103D01*
X484560Y-306560D02*
X516145Y-338145D01*
X434000Y-443664D02*
X441854Y-435810D01*
X448044Y-439620D02*
X521742D01*
X444000Y-443664D02*
X448044Y-439620D01*
X487500Y-510000D02*
X706496D01*
X718653Y-497842D01*
X262500Y-517500D02*
X493500D01*
X494000Y-518000D01*
X254276Y-524000D02*
X268000D01*
X253876Y-531000D02*
X275000D01*
X563000D02*
X738026D01*
X275000D02*
X563000D01*
X545002Y-370919D02*
Y-354726D01*
X477940Y-278552D02*
X552000Y-352612D01*
X545002Y-370919D02*
X545096Y-371013D01*
X552000Y-377000D02*
Y-352612D01*
X559000Y-383000D02*
Y-348612D01*
X566000Y-389000D02*
Y-344851D01*
X493948Y-283560D02*
X559000Y-348612D01*
X470965Y-280689D02*
X545002Y-354726D01*
X529000Y-423810D02*
X530219Y-425029D01*
X425605Y-423810D02*
X529000D01*
X530219Y-425029D02*
X534125D01*
X535000Y-425904D01*
X262000Y-517000D02*
X262500Y-517500D01*
X645306Y-524904D02*
X645402Y-525000D01*
X736841D01*
X742061Y-519780D01*
X740758Y-497842D02*
X744053D01*
X287000Y-545000D02*
X607000D01*
X736598D02*
X745308Y-536290D01*
X607000Y-545000D02*
X736598D01*
X585763Y-536673D02*
Y-536000D01*
X281000Y-538000D02*
X281452Y-537548D01*
X584888D01*
X585763Y-536673D01*
X272276Y-538000D02*
X281000D01*
X738026Y-531000D02*
X744165Y-524860D01*
X587000Y-536000D02*
X740210D01*
X746270Y-529940D01*
X217514Y-614487D02*
X287000Y-545000D01*
X217514Y-692623D02*
Y-614487D01*
X192113Y-618162D02*
X272276Y-538000D01*
X166714Y-618162D02*
X253876Y-531000D01*
X255013Y-517875D02*
X261125D01*
X262000Y-517000D01*
X159094Y-613795D02*
X255013Y-517875D01*
X162903Y-615373D02*
X254276Y-524000D01*
X155283Y-697784D02*
Y-612216D01*
X246111Y-510000D02*
X257500D01*
X155283Y-612216D02*
X257500Y-510000D01*
X441854Y-435810D02*
X523320D01*
X430036Y-428000D02*
X526286D01*
X436000Y-432000D02*
X524898D01*
X424336Y-443664D02*
X436000Y-432000D01*
X405990Y-443425D02*
X425605Y-423810D01*
X415000Y-443036D02*
X430036Y-428000D01*
X415000Y-443664D02*
Y-443036D01*
X405990Y-443664D02*
Y-443425D01*
X388000Y-443664D02*
Y-442427D01*
X390904Y-439523D01*
Y-439475D01*
X379000Y-443664D02*
Y-443379D01*
X632380Y-419638D02*
X634776Y-417242D01*
X634331Y-413432D02*
X636763Y-411000D01*
X630802Y-415828D02*
X633198Y-413432D01*
X634331D01*
X634776Y-417242D02*
X641758D01*
X632353Y-419638D02*
X632380D01*
X623166Y-416834D02*
Y-415038D01*
X633931Y-423448D02*
X633959D01*
X623166Y-415038D02*
X628277Y-409927D01*
X630775Y-415828D02*
X630802D01*
X633959Y-423448D02*
X635503Y-421904D01*
X628277Y-409927D02*
Y-409732D01*
X636763Y-411000D02*
X638000D01*
X641758Y-417242D02*
X647690Y-411311D01*
X655694Y-373694D02*
X660306D01*
X680000Y-354000D01*
X642000Y-63248D02*
X651648Y-53600D01*
X166714Y-692623D02*
Y-618162D01*
X162903Y-694627D02*
X195776Y-727500D01*
X159094Y-696205D02*
X197888Y-735000D01*
X162903Y-694627D02*
Y-615373D01*
X159094Y-696205D02*
Y-613795D01*
X155283Y-697784D02*
X200000Y-742500D01*
X166714Y-692623D02*
X193957Y-719866D01*
X506076Y-276306D02*
X573000Y-343230D01*
Y-394904D02*
Y-343230D01*
X499984Y-278835D02*
X566000Y-344851D01*
X467577Y-280689D02*
X470965D01*
X466702Y-279815D02*
X467577Y-280689D01*
X499488Y-278339D02*
X499984Y-278835D01*
X493492Y-283560D02*
X493948D01*
X496017Y-277464D02*
X496892Y-278339D01*
X477448Y-277931D02*
X481107Y-274272D01*
X506076Y-276306D02*
X506076D01*
X486505Y-278356D02*
X491986Y-272875D01*
X490135Y-280203D02*
X493492Y-283560D01*
X487742Y-278495D02*
X489449Y-280203D01*
X491986Y-272875D02*
Y-271772D01*
X486505Y-278495D02*
Y-278356D01*
X496892Y-278339D02*
X499488D01*
X477448Y-278552D02*
X477940D01*
X499984Y-278835D02*
X499984D01*
X491986Y-271772D02*
X503758Y-260000D01*
X477448Y-278552D02*
Y-277931D01*
X486505Y-278495D02*
X487742D01*
X489449Y-280203D02*
X490135D01*
X466702Y-279815D02*
Y-278985D01*
X481107Y-274272D02*
Y-272893D01*
X498000Y-256000D01*
X466702Y-278985D02*
X493687Y-252000D01*
X479800Y-93200D02*
Y-75000D01*
X505286Y-97713D02*
Y-74913D01*
X454400Y-97600D02*
Y-75000D01*
X400000Y-152000D02*
X454400Y-97600D01*
X356054Y-690053D02*
X371000Y-705000D01*
X356054Y-690053D02*
Y-687842D01*
X371000Y-705000D02*
X621000D01*
X607453Y-691453D02*
X621000Y-705000D01*
X607453Y-691453D02*
Y-688842D01*
X621000Y-705000D02*
X835979D01*
X229891D02*
X371000D01*
X835979D02*
X847454Y-693526D01*
Y-689342D01*
X217514Y-692623D02*
X229891Y-705000D01*
X745308Y-536290D02*
X775504D01*
X778812Y-532982D01*
X810514D01*
X845654Y-497842D01*
X259890Y-408730D02*
Y-407110D01*
X651648Y-53600D02*
X708350D01*
X645810Y-72930D02*
X655600Y-63140D01*
X708350Y-53600D02*
X717000Y-62250D01*
X727750Y-48000D02*
X742000Y-62250D01*
X748940Y-44190D02*
X767000Y-62250D01*
X257118Y-192500D02*
X332500D01*
X170500Y-306000D02*
Y-305000D01*
Y-306000D02*
X179000Y-314500D01*
X171000Y-266000D02*
Y-265000D01*
Y-266000D02*
X179500Y-274500D01*
X171000Y-226000D02*
Y-225000D01*
Y-226000D02*
X177000Y-232000D01*
X171000Y-186000D02*
Y-185000D01*
Y-186000D02*
X174000Y-189000D01*
X171000Y-146000D02*
Y-145000D01*
Y-146000D02*
X175000Y-150000D01*
X170500Y-108270D02*
Y-107500D01*
Y-108270D02*
X172230Y-110000D01*
X157500Y-305000D02*
Y-304000D01*
X144000Y-290500D02*
X157500Y-304000D01*
X144000Y-290500D02*
Y-251301D01*
X84913Y-192214D02*
X144000Y-251301D01*
X158000Y-265000D02*
Y-239900D01*
X85000Y-166900D02*
X158000Y-239900D01*
Y-225000D02*
Y-203799D01*
X85087Y-130886D02*
X158000Y-203799D01*
Y-185000D02*
Y-178400D01*
X85087Y-105486D02*
X158000Y-178400D01*
X150000Y-145000D02*
X158000D01*
X85087Y-54686D02*
X137901Y-107500D01*
X157500D01*
X137500Y-312500D02*
X138000Y-312000D01*
X137000Y-324000D02*
X137500Y-323500D01*
Y-312500D01*
X270000Y-735000D02*
X520000D01*
X545000Y-727500D02*
X787500D01*
X295000D02*
X545000D01*
X345000Y-712500D02*
X595000D01*
X197888Y-735000D02*
X270000D01*
X195776Y-727500D02*
X295000D01*
X257500Y-510000D02*
X487500D01*
X809866Y-719866D02*
X810000Y-720000D01*
X200000Y-742500D02*
X242500D01*
X192113Y-692623D02*
Y-618162D01*
X211991Y-712500D02*
X345000D01*
X192113Y-692623D02*
X211991Y-712500D01*
X475453Y-497953D02*
X487500Y-510000D01*
X475453Y-497953D02*
Y-494342D01*
X230453D02*
X246111Y-510000D01*
X595000Y-712500D02*
X835000D01*
X742061Y-519780D02*
X747516D01*
X744165Y-524860D02*
X767836D01*
X794854Y-497842D01*
X747516Y-519780D02*
X769454Y-497842D01*
X746270Y-529940D02*
X776466D01*
X779774Y-526632D01*
X791464D01*
X820254Y-497842D01*
D16*
X171000Y-225000D02*
D03*
X158000D02*
D03*
X171000Y-185000D02*
D03*
X158000D02*
D03*
X171000Y-145000D02*
D03*
X158000D02*
D03*
X170500Y-107500D02*
D03*
X157500D02*
D03*
X170500Y-305000D02*
D03*
X157500D02*
D03*
X158000Y-265000D02*
D03*
X171000D02*
D03*
D58*
X792000Y-62250D02*
D03*
X767000D02*
D03*
X742000D02*
D03*
X840000Y-927500D02*
D03*
X815000D02*
D03*
X790000D02*
D03*
X935000Y-396000D02*
D03*
Y-421000D02*
D03*
Y-446000D02*
D03*
Y-529000D02*
D03*
Y-554000D02*
D03*
Y-579000D02*
D03*
X655000Y-927500D02*
D03*
X680000D02*
D03*
X705000D02*
D03*
X605600Y-63140D02*
D03*
X630600D02*
D03*
X655600D02*
D03*
X935000Y-925000D02*
D03*
Y-900000D02*
D03*
Y-875000D02*
D03*
Y-790000D02*
D03*
Y-765000D02*
D03*
Y-740000D02*
D03*
D59*
X717000Y-62250D02*
D03*
X865000Y-927500D02*
D03*
X730000D02*
D03*
X580600Y-63140D02*
D03*
D63*
X935000Y-371000D02*
D03*
Y-504000D02*
D03*
Y-850000D02*
D03*
Y-715000D02*
D03*
D64*
Y-635000D02*
D03*
D65*
Y-660000D02*
D03*
D66*
X915000Y-619000D02*
D03*
D68*
X75350Y-272800D02*
D03*
Y-359200D02*
D03*
D69*
X117150Y-272800D02*
D03*
Y-359200D02*
D03*
D70*
X112150Y-287100D02*
D03*
Y-344900D02*
D03*
D79*
X477886Y-621343D02*
X523296Y-575932D01*
X716357D01*
X475653Y-621343D02*
X477886D01*
X860597Y-653000D02*
X910080Y-702483D01*
X313111Y-653000D02*
X860597D01*
X281453Y-621343D02*
X313111Y-653000D01*
X256054Y-621343D02*
X296711Y-662000D01*
X856199D01*
X900040Y-705841D01*
X280054Y-819843D02*
X310251Y-850040D01*
X490230D01*
X521820Y-881630D01*
X307463Y-823573D02*
X323890Y-840000D01*
X494389D01*
X525681Y-871292D01*
X792620Y-892620D02*
X813756Y-913756D01*
Y-926256D02*
Y-913756D01*
X751819Y-892620D02*
X792620D01*
X931750Y-374250D02*
X934571Y-371429D01*
Y-371230D01*
X931551Y-374250D02*
X931750D01*
X878383Y-427418D02*
X931551Y-374250D01*
X878383Y-489822D02*
Y-427418D01*
X898463Y-498139D02*
Y-457537D01*
X935000Y-421000D01*
X888423Y-441174D02*
X933597Y-396000D01*
X888423Y-493981D02*
Y-441174D01*
X834864Y-547540D02*
X888423Y-493981D01*
X839023Y-557580D02*
X898463Y-498139D01*
X933597Y-396000D02*
X935000D01*
X928756Y-447244D02*
X933756D01*
X843181Y-567620D02*
X909000Y-501801D01*
Y-467000D01*
X933756Y-447244D02*
X935000Y-446000D01*
X909000Y-467000D02*
X928756Y-447244D01*
X829164Y-567620D02*
X843181D01*
X861340Y-577660D02*
X935000Y-504000D01*
X833322Y-577660D02*
X861340D01*
X875798Y-588202D02*
X935000Y-529000D01*
X807073Y-588202D02*
X875798D01*
X892028Y-596972D02*
X935000Y-554000D01*
X812502Y-596972D02*
X892028D01*
X907000Y-607000D02*
X935000Y-579000D01*
X852227Y-607000D02*
X907000D01*
X655000Y-927500D02*
Y-911250D01*
X680000Y-927500D02*
Y-902500D01*
X705000Y-927500D02*
Y-895000D01*
X513503Y-901710D02*
X645460D01*
X655000Y-911250D01*
X327511Y-642000D02*
X862000D01*
X935000Y-715000D01*
X306854Y-621343D02*
X327511Y-642000D01*
X551783Y-596012D02*
X721082D01*
X567144Y-606053D02*
X723445D01*
X536423Y-585972D02*
X718719D01*
X723445Y-606053D02*
X755765Y-573732D01*
X821000Y-621000D02*
X823841D01*
X852552Y-672552D02*
X890000Y-710000D01*
X281863Y-672552D02*
X852552D01*
X910080Y-715080D02*
Y-702483D01*
X815193Y-606980D02*
X852207D01*
X805205Y-616967D02*
X815193Y-606980D01*
X852207D02*
X852227Y-607000D01*
X802474Y-616967D02*
X805205D01*
X806654Y-602820D02*
X812502Y-596972D01*
X795053Y-624842D02*
Y-624388D01*
X802495Y-592780D02*
X807073Y-588202D01*
X795053Y-624388D02*
X802474Y-616967D01*
X771125Y-583773D02*
X772157Y-582740D01*
X759923Y-583773D02*
X771125D01*
X738499Y-553790D02*
X749709Y-542580D01*
X781702D01*
X772157Y-582740D02*
X798336D01*
X766966Y-573732D02*
X767999Y-572700D01*
X762807Y-563693D02*
X763840Y-562660D01*
X753402Y-563693D02*
X762807D01*
X752072Y-552620D02*
X785860D01*
X742132Y-562560D02*
X752072Y-552620D01*
X718854Y-624842D02*
X759923Y-583773D01*
X776316Y-592780D02*
X802495D01*
X767999Y-572700D02*
X794178D01*
X745765Y-571330D02*
X753402Y-563693D01*
X763840Y-562660D02*
X790019D01*
X755765Y-573732D02*
X766966D01*
X744253Y-624842D02*
X776316Y-592780D01*
X910080Y-715080D02*
X935000Y-740000D01*
X900040Y-745841D02*
Y-705841D01*
Y-745841D02*
X919199Y-765000D01*
X745764Y-571330D02*
X745765D01*
X738499Y-553790D02*
X738499D01*
X742132Y-562560D02*
X742132D01*
X721082Y-596012D02*
X745764Y-571330D01*
X716357Y-575932D02*
X738499Y-553790D01*
X718719Y-585972D02*
X742132Y-562560D01*
X785009Y-539272D02*
X814915D01*
X819074Y-549312D02*
X820846Y-547540D01*
X823232Y-559352D02*
X825005Y-557580D01*
X827391Y-569392D02*
X829164Y-567620D01*
X797485Y-569392D02*
X827391D01*
X831550Y-579432D02*
X833322Y-577660D01*
X801644Y-579432D02*
X831550D01*
X814915Y-539272D02*
X816687Y-537500D01*
X769653Y-624842D02*
X791676Y-602820D01*
X793327Y-559352D02*
X823232D01*
X790019Y-562660D02*
X793327Y-559352D01*
X820846Y-547540D02*
X834864D01*
X798336Y-582740D02*
X801644Y-579432D01*
X789168Y-549312D02*
X819074D01*
X816687Y-537500D02*
X830705D01*
X791676Y-602820D02*
X806654D01*
X825005Y-557580D02*
X839023D01*
X781702Y-542580D02*
X785009Y-539272D01*
X794178Y-572700D02*
X797485Y-569392D01*
X785860Y-552620D02*
X789168Y-549312D01*
X501054Y-621343D02*
X536423Y-585972D01*
X526454Y-621343D02*
X551783Y-596012D01*
X830705Y-537500D02*
X878383Y-489822D01*
X812143Y-831633D02*
X905831D01*
X791784Y-841673D02*
X901673D01*
X872500Y-862500D02*
X912299Y-902299D01*
X905831Y-831633D02*
X920949Y-846750D01*
X746053Y-821342D02*
X776423Y-851712D01*
X901673Y-841673D02*
X935000Y-875000D01*
X812580Y-882580D02*
X839250Y-909250D01*
X886712Y-851712D02*
X935000Y-900000D01*
X723137Y-821342D02*
X764295Y-862500D01*
X796853Y-816342D02*
X812143Y-831633D01*
X771453Y-821342D02*
X791784Y-841673D01*
X755977Y-882580D02*
X812580D01*
X764295Y-862500D02*
X872500D01*
X556853Y-815842D02*
X559695D01*
X719229Y-831633D02*
X760136Y-872540D01*
X710911Y-851712D02*
X751819Y-892620D01*
X715070Y-841673D02*
X755977Y-882580D01*
X760136Y-872540D02*
X835040D01*
X776423Y-851712D02*
X886712D01*
X835040Y-872540D02*
X865000Y-902500D01*
X772500Y-905000D02*
X788756Y-921256D01*
X750000Y-905000D02*
X772500D01*
X706752Y-861752D02*
X750000Y-905000D01*
X788756Y-926256D02*
X790000Y-927500D01*
X788756Y-926256D02*
Y-921256D01*
X658861Y-841172D02*
X659361Y-841673D01*
X631547Y-861253D02*
X632047Y-861752D01*
X506054Y-815842D02*
X541424Y-851212D01*
X525681Y-871292D02*
X627388D01*
X556783Y-841172D02*
X658861D01*
X696793Y-871793D02*
X729549Y-904549D01*
X670000Y-892500D02*
X680000Y-902500D01*
X556853Y-815842D02*
X572144Y-831132D01*
X623527Y-881630D02*
X623730Y-881833D01*
X663020Y-831132D02*
X663520Y-831633D01*
X616529Y-892500D02*
X670000D01*
X529840Y-861253D02*
X631547D01*
X627888Y-871793D02*
X696793D01*
X639507Y-851712D02*
X710911D01*
X496308Y-827720D02*
X529840Y-861253D01*
X627388Y-871292D02*
X627888Y-871793D01*
X632047Y-861752D02*
X706752D01*
X639007Y-851212D02*
X639507Y-851712D01*
X659361Y-841673D02*
X715070D01*
X541424Y-851212D02*
X639007D01*
X521820Y-881630D02*
X623527D01*
X531454Y-815842D02*
X556783Y-841172D01*
X691833Y-881833D02*
X705000Y-895000D01*
X615699Y-891670D02*
X616529Y-892500D01*
X517662Y-891670D02*
X615699D01*
X663520Y-831633D02*
X719229D01*
X623730Y-881833D02*
X691833D01*
X572144Y-831132D02*
X663020D01*
X299891Y-860080D02*
X486072D01*
X284531Y-870120D02*
X481913D01*
X254653Y-814843D02*
X299891Y-860080D01*
X486072D02*
X517662Y-891670D01*
X229254Y-814843D02*
X284531Y-870120D01*
X481913D02*
X513503Y-901710D01*
X307463Y-823573D02*
Y-816852D01*
X305453Y-814843D02*
X307463Y-816852D01*
X495372Y-827720D02*
X496308D01*
X483495Y-815842D02*
X495372Y-827720D01*
X551853Y-621343D02*
X567144Y-606053D01*
X890000Y-760000D02*
Y-710000D01*
X919199Y-765000D02*
X935000D01*
X920000Y-790000D02*
X935000D01*
X890000Y-760000D02*
X920000Y-790000D01*
X230653Y-621343D02*
X281863Y-672552D01*
X480653Y-815842D02*
X483495D01*
X729549Y-927049D02*
Y-904549D01*
X720654Y-821342D02*
X723137D01*
X931750Y-846750D02*
X935000Y-850000D01*
X920949Y-846750D02*
X931750D01*
X839250Y-926750D02*
X840000Y-927500D01*
X839250Y-926750D02*
Y-909250D01*
X729549Y-927049D02*
X730000Y-927500D01*
X813756Y-926256D02*
X815000Y-927500D01*
X865000D02*
Y-902500D01*
X912299Y-902299D02*
Y-902299D01*
Y-902299D02*
X935000Y-925000D01*
D80*
X499802Y-567198D02*
X500000Y-567000D01*
X499802Y-576500D02*
Y-567198D01*
X459213Y-617089D02*
X499802Y-576500D01*
X458296Y-617089D02*
X459213D01*
X450253Y-621343D02*
X454042D01*
X458296Y-617089D01*
X512000Y-403000D02*
X538962D01*
X492000Y-383000D02*
X512000Y-403000D01*
X529778Y-213880D02*
X540956Y-202702D01*
X529778Y-215222D02*
Y-213880D01*
X519174Y-225826D02*
X529778Y-215222D01*
X444174Y-225826D02*
X519174D01*
X277000Y-261750D02*
X290750Y-248000D01*
X409653D01*
X423826Y-262173D01*
Y-277827D02*
Y-262173D01*
X419827Y-281826D02*
X423826Y-277827D01*
X419016Y-281826D02*
X419827D01*
X416842Y-284000D02*
X419016Y-281826D01*
X416000Y-284000D02*
X416842D01*
X380000Y-240000D02*
X430000D01*
X444174Y-225826D01*
X396000Y-407000D02*
X424000Y-379000D01*
X353000Y-407000D02*
X396000D01*
X413000Y-754000D02*
X417000Y-750000D01*
X698000D01*
X667806Y-249194D02*
X716000Y-201000D01*
X324000Y-880000D02*
X364000D01*
X450000Y-379000D02*
X454000Y-383000D01*
X424000Y-379000D02*
X450000D01*
X454000Y-383000D02*
X492000D01*
X271000Y-91000D02*
X305000D01*
X543194Y-249194D02*
X667806D01*
D81*
X434161Y-585000D02*
X476000D01*
X397818Y-621343D02*
X434161Y-585000D01*
X390996Y-588000D02*
X391000D01*
X357654Y-621343D02*
X390996Y-588000D01*
X357654Y-621343D02*
X397818D01*
D82*
X85000Y-243100D02*
D03*
X84913Y-192214D02*
D03*
X85000Y-217700D02*
D03*
Y-750400D02*
D03*
Y-725000D02*
D03*
X84913Y-699514D02*
D03*
X85000Y-551584D02*
D03*
X84913Y-526097D02*
D03*
X85000Y-576984D02*
D03*
X84913Y-812214D02*
D03*
X85000Y-837700D02*
D03*
Y-863100D02*
D03*
X329800Y-75000D02*
D03*
X392500D02*
D03*
X454400D02*
D03*
X505286Y-74913D02*
D03*
X479800Y-75000D02*
D03*
X85087Y-105486D02*
D03*
X85000Y-80000D02*
D03*
X85087Y-130886D02*
D03*
X140400Y-917500D02*
D03*
X89514Y-917587D02*
D03*
X115000Y-917500D02*
D03*
X250000D02*
D03*
X199114Y-917587D02*
D03*
X224600Y-917500D02*
D03*
X310400D02*
D03*
X410000D02*
D03*
X384514Y-917587D02*
D03*
X435400Y-917500D02*
D03*
X520800D02*
D03*
X495314Y-917587D02*
D03*
X546200Y-917500D02*
D03*
X605000D02*
D03*
X922500Y-104800D02*
D03*
Y-282300D02*
D03*
Y-224800D02*
D03*
Y-164800D02*
D03*
X85087Y-467470D02*
D03*
X85000Y-416584D02*
D03*
X85087Y-442070D02*
D03*
X85000Y-635400D02*
D03*
D83*
X85000Y-166900D02*
D03*
Y-674200D02*
D03*
X85000Y-500784D02*
D03*
X85000Y-786900D02*
D03*
X85087Y-54686D02*
D03*
X922500Y-130200D02*
D03*
Y-307700D02*
D03*
Y-250200D02*
D03*
Y-190200D02*
D03*
X85087Y-391270D02*
D03*
X85000Y-610000D02*
D03*
D84*
X602453Y-494342D02*
D03*
X577053D02*
D03*
X551654D02*
D03*
X526254D02*
D03*
X500854D02*
D03*
X475453D02*
D03*
X450053D02*
D03*
X424654D02*
D03*
X424854Y-621343D02*
D03*
X450253D02*
D03*
X475653D02*
D03*
X501054D02*
D03*
X526454D02*
D03*
X551853D02*
D03*
X577253D02*
D03*
X602654D02*
D03*
X607453Y-688842D02*
D03*
X582053D02*
D03*
X556654D02*
D03*
X531254D02*
D03*
X505854D02*
D03*
X480453D02*
D03*
X455053D02*
D03*
X429654D02*
D03*
X429854Y-815842D02*
D03*
X455253D02*
D03*
X480653D02*
D03*
X506054D02*
D03*
X531454D02*
D03*
X556853D02*
D03*
X582253D02*
D03*
X607654D02*
D03*
X179653Y-494342D02*
D03*
X205054D02*
D03*
X726300Y-418350D02*
D03*
X752000D02*
D03*
X669653Y-689342D02*
D03*
X695053D02*
D03*
X726400Y-443750D02*
D03*
X752000D02*
D03*
X777400D02*
D03*
X803100D02*
D03*
X828800D02*
D03*
Y-418350D02*
D03*
X803100D02*
D03*
X777400D02*
D03*
X233300Y-52500D02*
D03*
X207900D02*
D03*
X182500D02*
D03*
X356254Y-814843D02*
D03*
X330854D02*
D03*
X305453D02*
D03*
X280054D02*
D03*
X254653D02*
D03*
X229254D02*
D03*
X203853D02*
D03*
X178454D02*
D03*
X178253Y-687842D02*
D03*
X203654D02*
D03*
X229053D02*
D03*
X254454D02*
D03*
X279853D02*
D03*
X305254D02*
D03*
X330653D02*
D03*
X356054D02*
D03*
X846400Y-621000D02*
D03*
X821000D02*
D03*
X795600D02*
D03*
X770200D02*
D03*
X744800D02*
D03*
X719400D02*
D03*
X694000D02*
D03*
X668600D02*
D03*
X668400Y-494000D02*
D03*
X693800D02*
D03*
X719200D02*
D03*
X744600D02*
D03*
X770000D02*
D03*
X795400D02*
D03*
X820800D02*
D03*
X846200D02*
D03*
X919600Y-52500D02*
D03*
X894200D02*
D03*
X945000D02*
D03*
X868800D02*
D03*
X357654Y-621343D02*
D03*
X332253D02*
D03*
X306854D02*
D03*
X281453D02*
D03*
X256054D02*
D03*
X230653D02*
D03*
X205254D02*
D03*
X179853D02*
D03*
X230453Y-494342D02*
D03*
X255854D02*
D03*
X281254D02*
D03*
X306653D02*
D03*
X332053D02*
D03*
X357453D02*
D03*
X847454Y-689342D02*
D03*
X822054D02*
D03*
X796654D02*
D03*
X771254D02*
D03*
X745854D02*
D03*
X720453D02*
D03*
X669854Y-816342D02*
D03*
X695254D02*
D03*
X720654D02*
D03*
X746053D02*
D03*
X771453D02*
D03*
X796853D02*
D03*
X822253D02*
D03*
X847654D02*
D03*
D85*
X700600Y-418350D02*
D03*
Y-443750D02*
D03*
X258700Y-52500D02*
D03*
X843400D02*
D03*
D86*
X355200Y-75000D02*
D03*
X417900D02*
D03*
X530600D02*
D03*
X64200Y-917500D02*
D03*
X173800D02*
D03*
X285000D02*
D03*
X359200D02*
D03*
X470000D02*
D03*
X579600D02*
D03*
D87*
X177500Y-342500D02*
D03*
X222500D02*
D03*
Y-407500D02*
D03*
X177500D02*
D03*
X259890Y-408730D02*
D03*
X304890D02*
D03*
Y-343730D02*
D03*
X259890D02*
D03*
X391000Y-588000D02*
D03*
X344000Y-586000D02*
D03*
X514000Y-559000D02*
D03*
D88*
X500000Y-567000D02*
D03*
X538962Y-403000D02*
D03*
X540956Y-202702D02*
D03*
X380000Y-240000D02*
D03*
X277000Y-261750D02*
D03*
X168000Y-158000D02*
D03*
X592000Y-249000D02*
D03*
X430000Y-240000D02*
D03*
X716000Y-201000D02*
D03*
X196250Y-198250D02*
D03*
D89*
X957000Y-79000D02*
D03*
X466702Y-279815D02*
D03*
X465000Y-219000D02*
D03*
X417000Y-265000D02*
D03*
X353000Y-407000D02*
D03*
X636000Y-430000D02*
D03*
X645000Y-428000D02*
D03*
X676000Y-429000D02*
D03*
X647000Y-461000D02*
D03*
X661000Y-477000D02*
D03*
X657000Y-412000D02*
D03*
X440000Y-301923D02*
D03*
X444000Y-319002D02*
D03*
X884000Y-805000D02*
D03*
X426000Y-389000D02*
D03*
X416000Y-284000D02*
D03*
X305000Y-91000D02*
D03*
X271000D02*
D03*
X194000Y-127000D02*
D03*
X543194Y-249194D02*
D03*
X451000Y-324000D02*
D03*
X510750Y-524500D02*
D03*
X571273Y-274773D02*
D03*
X566000Y-316000D02*
D03*
X594000Y-414474D02*
D03*
X586000Y-408000D02*
D03*
X660399Y-352601D02*
D03*
X483000Y-320000D02*
D03*
X474000Y-316466D02*
D03*
X434000Y-443664D02*
D03*
X444000D02*
D03*
X494000Y-518000D02*
D03*
X563000Y-531000D02*
D03*
X535000Y-425904D02*
D03*
X559000Y-383000D02*
D03*
X545096Y-371013D02*
D03*
X552000Y-377000D02*
D03*
X566000Y-389000D02*
D03*
X607000Y-545000D02*
D03*
X587000Y-537096D02*
D03*
X287000Y-545000D02*
D03*
X281000Y-538000D02*
D03*
X275000Y-531000D02*
D03*
X268000Y-524000D02*
D03*
X262000Y-517000D02*
D03*
X424336Y-443664D02*
D03*
X415000D02*
D03*
X405990D02*
D03*
X397000D02*
D03*
X388000D02*
D03*
X379000D02*
D03*
X628277Y-409732D02*
D03*
X647690Y-411311D02*
D03*
X638000Y-411000D02*
D03*
X670000Y-354000D02*
D03*
X680000D02*
D03*
X580000Y-401000D02*
D03*
X573000Y-394904D02*
D03*
X506076Y-276306D02*
D03*
X496017Y-277464D02*
D03*
X477448Y-278552D02*
D03*
X486505Y-278495D02*
D03*
X417000Y-275000D02*
D03*
X194000Y-141000D02*
D03*
X787500Y-727500D02*
D03*
X570000Y-720000D02*
D03*
X242500Y-742500D02*
D03*
X270000Y-735000D02*
D03*
X295000Y-727500D02*
D03*
X320000Y-720000D02*
D03*
X345000Y-712500D02*
D03*
X497500Y-742500D02*
D03*
X545000Y-727500D02*
D03*
X760000Y-735000D02*
D03*
X735000Y-742500D02*
D03*
X810000Y-720000D02*
D03*
X595000Y-712500D02*
D03*
X835000D02*
D03*
D90*
X476000Y-585000D02*
D03*
D91*
X378000Y-314000D02*
D03*
X370000Y-306000D02*
D03*
X407000Y-296000D02*
D03*
Y-306000D02*
D03*
X520000Y-735000D02*
D03*
D92*
X617250Y-218000D02*
D03*
X103380Y-316000D02*
D03*
X394000Y-209000D02*
D03*
X698000Y-750000D02*
D03*
X364000Y-880000D02*
D03*
X492000Y-383000D02*
D03*
X413000Y-754000D02*
D03*
X324000Y-880000D02*
D03*
X424000Y-379000D02*
D03*
X406000Y-216000D02*
D03*
X388000Y-185000D02*
D03*
X400000Y-152000D02*
D03*
X138000Y-312000D02*
D03*
X137000Y-324000D02*
D03*
D93*
X870000Y-380000D02*
D03*
X25000Y-70000D02*
D03*
M02*
