G04*
G04 #@! TF.GenerationSoftware,Altium Limited,Altium Designer,25.3.3 (18)*
G04*
G04 Layer_Color=32768*
%FSLAX44Y44*%
%MOMM*%
G71*
G04*
G04 #@! TF.SameCoordinates,017A41BD-DD39-4079-982F-C60C01D90CF4*
G04*
G04*
G04 #@! TF.FilePolarity,Positive*
G04*
G01*
G75*
%ADD13C,0.2000*%
%ADD96C,0.1000*%
G36*
X675500Y-269500D02*
X667500D01*
X675500Y-261500D01*
Y-269500D01*
D02*
G37*
G36*
X675500Y-232000D02*
X667500D01*
X675500Y-224000D01*
Y-232000D01*
D02*
G37*
G36*
X675500Y-194500D02*
X667500D01*
X675500Y-186500D01*
Y-194500D01*
D02*
G37*
D13*
X692500Y-96250D02*
X816500D01*
X692500D02*
Y-38750D01*
X816500D01*
Y-96250D02*
Y-38750D01*
X765500Y-951000D02*
Y-893500D01*
Y-951000D02*
X889500D01*
Y-893500D01*
X765500D02*
X889500D01*
X901000Y-470500D02*
X958500D01*
Y-346500D01*
X901000D02*
X958500D01*
X901000Y-470500D02*
Y-346500D01*
Y-603500D02*
X958500D01*
Y-479500D01*
X901000D02*
X958500D01*
X901000Y-603500D02*
Y-479500D01*
Y-684500D02*
Y-610500D01*
X958500D01*
Y-684500D02*
Y-610500D01*
X901000Y-684500D02*
X958500D01*
X630500Y-893500D02*
X754500D01*
Y-951000D02*
Y-893500D01*
X630500Y-951000D02*
X754500D01*
X630500D02*
Y-893500D01*
X125400Y-364650D02*
Y-267350D01*
X48600Y-364650D02*
X125400D01*
X48600D02*
Y-267350D01*
X125400D01*
X680100Y-97140D02*
Y-39640D01*
X556100D02*
X680100D01*
X556100Y-97140D02*
Y-39640D01*
Y-97140D02*
X680100D01*
X901000Y-949500D02*
Y-825500D01*
X958500D01*
Y-949500D02*
Y-825500D01*
X901000Y-949500D02*
X958500D01*
X901000Y-814500D02*
Y-690500D01*
X958500D01*
Y-814500D02*
Y-690500D01*
X901000Y-814500D02*
X958500D01*
D96*
X643500Y-232000D02*
X675500D01*
X643500D02*
Y-204000D01*
X675500D01*
Y-232000D02*
Y-204000D01*
X643500Y-269500D02*
X675500D01*
X643500D02*
Y-241500D01*
X675500D01*
Y-269500D02*
Y-241500D01*
X643500Y-194500D02*
X675500D01*
X643500D02*
Y-166500D01*
X675500D01*
Y-194500D02*
Y-166500D01*
M02*
