G04*
G04 #@! TF.GenerationSoftware,Altium Limited,Altium Designer,25.3.3 (18)*
G04*
G04 Layer_Color=255*
%FSLAX44Y44*%
%MOMM*%
G71*
G04*
G04 #@! TF.SameCoordinates,017A41BD-DD39-4079-982F-C60C01D90CF4*
G04*
G04*
G04 #@! TF.FilePolarity,Positive*
G04*
G01*
G75*
%ADD16R,0.6000X0.8000*%
%ADD58C,1.4000*%
%ADD59R,1.4000X1.4000*%
%ADD63R,1.4000X1.4000*%
%ADD64R,1.5500X1.5500*%
%ADD65C,1.5500*%
%ADD66C,1.1000*%
G04:AMPARAMS|DCode=68|XSize=1mm|YSize=1.8mm|CornerRadius=0.5mm|HoleSize=0mm|Usage=FLASHONLY|Rotation=270.000|XOffset=0mm|YOffset=0mm|HoleType=Round|Shape=RoundedRectangle|*
%AMROUNDEDRECTD68*
21,1,1.0000,0.8000,0,0,270.0*
21,1,0.0000,1.8000,0,0,270.0*
1,1,1.0000,-0.4000,0.0000*
1,1,1.0000,-0.4000,0.0000*
1,1,1.0000,0.4000,0.0000*
1,1,1.0000,0.4000,0.0000*
%
%ADD68ROUNDEDRECTD68*%
G04:AMPARAMS|DCode=69|XSize=1mm|YSize=2.1mm|CornerRadius=0.5mm|HoleSize=0mm|Usage=FLASHONLY|Rotation=270.000|XOffset=0mm|YOffset=0mm|HoleType=Round|Shape=RoundedRectangle|*
%AMROUNDEDRECTD69*
21,1,1.0000,1.1000,0,0,270.0*
21,1,0.0000,2.1000,0,0,270.0*
1,1,1.0000,-0.5500,0.0000*
1,1,1.0000,-0.5500,0.0000*
1,1,1.0000,0.5500,0.0000*
1,1,1.0000,0.5500,0.0000*
%
%ADD69ROUNDEDRECTD69*%
%ADD70C,0.6500*%
%ADD82C,1.9000*%
%ADD83R,1.9000X1.9000*%
%ADD84C,1.8000*%
%ADD85R,1.8000X1.8000*%
%ADD86R,1.9000X1.9000*%
%ADD87C,1.5000*%
D16*
X171000Y-225000D02*
D03*
X158000D02*
D03*
X171000Y-185000D02*
D03*
X158000D02*
D03*
X171000Y-145000D02*
D03*
X158000D02*
D03*
X170500Y-107500D02*
D03*
X157500D02*
D03*
X170500Y-305000D02*
D03*
X157500D02*
D03*
X158000Y-265000D02*
D03*
X171000D02*
D03*
D58*
X792000Y-62250D02*
D03*
X767000D02*
D03*
X742000D02*
D03*
X840000Y-927500D02*
D03*
X815000D02*
D03*
X790000D02*
D03*
X935000Y-396000D02*
D03*
Y-421000D02*
D03*
Y-446000D02*
D03*
Y-529000D02*
D03*
Y-554000D02*
D03*
Y-579000D02*
D03*
X655000Y-927500D02*
D03*
X680000D02*
D03*
X705000D02*
D03*
X605600Y-63140D02*
D03*
X630600D02*
D03*
X655600D02*
D03*
X935000Y-925000D02*
D03*
Y-900000D02*
D03*
Y-875000D02*
D03*
Y-790000D02*
D03*
Y-765000D02*
D03*
Y-740000D02*
D03*
D59*
X717000Y-62250D02*
D03*
X865000Y-927500D02*
D03*
X730000D02*
D03*
X580600Y-63140D02*
D03*
D63*
X935000Y-371000D02*
D03*
Y-504000D02*
D03*
Y-850000D02*
D03*
Y-715000D02*
D03*
D64*
Y-635000D02*
D03*
D65*
Y-660000D02*
D03*
D66*
X915000Y-619000D02*
D03*
D68*
X75350Y-272800D02*
D03*
Y-359200D02*
D03*
D69*
X117150Y-272800D02*
D03*
Y-359200D02*
D03*
D70*
X112150Y-287100D02*
D03*
Y-344900D02*
D03*
D82*
X85000Y-243100D02*
D03*
X84913Y-192214D02*
D03*
X85000Y-217700D02*
D03*
Y-750400D02*
D03*
Y-725000D02*
D03*
X84913Y-699514D02*
D03*
X85000Y-551584D02*
D03*
X84913Y-526097D02*
D03*
X85000Y-576984D02*
D03*
X84913Y-812214D02*
D03*
X85000Y-837700D02*
D03*
Y-863100D02*
D03*
X329800Y-75000D02*
D03*
X392500D02*
D03*
X454400D02*
D03*
X505286Y-74913D02*
D03*
X479800Y-75000D02*
D03*
X85087Y-105486D02*
D03*
X85000Y-80000D02*
D03*
X85087Y-130886D02*
D03*
X140400Y-917500D02*
D03*
X89514Y-917587D02*
D03*
X115000Y-917500D02*
D03*
X250000D02*
D03*
X199114Y-917587D02*
D03*
X224600Y-917500D02*
D03*
X310400D02*
D03*
X410000D02*
D03*
X384514Y-917587D02*
D03*
X435400Y-917500D02*
D03*
X520800D02*
D03*
X495314Y-917587D02*
D03*
X546200Y-917500D02*
D03*
X605000D02*
D03*
X922500Y-104800D02*
D03*
Y-282300D02*
D03*
Y-224800D02*
D03*
Y-164800D02*
D03*
X85087Y-467470D02*
D03*
X85000Y-416584D02*
D03*
X85087Y-442070D02*
D03*
X85000Y-635400D02*
D03*
D83*
X85000Y-166900D02*
D03*
Y-674200D02*
D03*
X85000Y-500784D02*
D03*
X85000Y-786900D02*
D03*
X85087Y-54686D02*
D03*
X922500Y-130200D02*
D03*
Y-307700D02*
D03*
Y-250200D02*
D03*
Y-190200D02*
D03*
X85087Y-391270D02*
D03*
X85000Y-610000D02*
D03*
D84*
X602453Y-494342D02*
D03*
X577053D02*
D03*
X551654D02*
D03*
X526254D02*
D03*
X500854D02*
D03*
X475453D02*
D03*
X450053D02*
D03*
X424654D02*
D03*
X424854Y-621343D02*
D03*
X450253D02*
D03*
X475653D02*
D03*
X501054D02*
D03*
X526454D02*
D03*
X551853D02*
D03*
X577253D02*
D03*
X602654D02*
D03*
X607453Y-688842D02*
D03*
X582053D02*
D03*
X556654D02*
D03*
X531254D02*
D03*
X505854D02*
D03*
X480453D02*
D03*
X455053D02*
D03*
X429654D02*
D03*
X429854Y-815842D02*
D03*
X455253D02*
D03*
X480653D02*
D03*
X506054D02*
D03*
X531454D02*
D03*
X556853D02*
D03*
X582253D02*
D03*
X607654D02*
D03*
X179653Y-494342D02*
D03*
X205054D02*
D03*
X726300Y-418350D02*
D03*
X752000D02*
D03*
X669653Y-689342D02*
D03*
X695053D02*
D03*
X726400Y-443750D02*
D03*
X752000D02*
D03*
X777400D02*
D03*
X803100D02*
D03*
X828800D02*
D03*
Y-418350D02*
D03*
X803100D02*
D03*
X777400D02*
D03*
X233300Y-52500D02*
D03*
X207900D02*
D03*
X182500D02*
D03*
X356254Y-814843D02*
D03*
X330854D02*
D03*
X305453D02*
D03*
X280054D02*
D03*
X254653D02*
D03*
X229254D02*
D03*
X203853D02*
D03*
X178454D02*
D03*
X178253Y-687842D02*
D03*
X203654D02*
D03*
X229053D02*
D03*
X254454D02*
D03*
X279853D02*
D03*
X305254D02*
D03*
X330653D02*
D03*
X356054D02*
D03*
X846400Y-621000D02*
D03*
X821000D02*
D03*
X795600D02*
D03*
X770200D02*
D03*
X744800D02*
D03*
X719400D02*
D03*
X694000D02*
D03*
X668600D02*
D03*
X668400Y-494000D02*
D03*
X693800D02*
D03*
X719200D02*
D03*
X744600D02*
D03*
X770000D02*
D03*
X795400D02*
D03*
X820800D02*
D03*
X846200D02*
D03*
X919600Y-52500D02*
D03*
X894200D02*
D03*
X945000D02*
D03*
X868800D02*
D03*
X357654Y-621343D02*
D03*
X332253D02*
D03*
X306854D02*
D03*
X281453D02*
D03*
X256054D02*
D03*
X230653D02*
D03*
X205254D02*
D03*
X179853D02*
D03*
X230453Y-494342D02*
D03*
X255854D02*
D03*
X281254D02*
D03*
X306653D02*
D03*
X332053D02*
D03*
X357453D02*
D03*
X847454Y-689342D02*
D03*
X822054D02*
D03*
X796654D02*
D03*
X771254D02*
D03*
X745854D02*
D03*
X720453D02*
D03*
X669854Y-816342D02*
D03*
X695254D02*
D03*
X720654D02*
D03*
X746053D02*
D03*
X771453D02*
D03*
X796853D02*
D03*
X822253D02*
D03*
X847654D02*
D03*
D85*
X700600Y-418350D02*
D03*
Y-443750D02*
D03*
X258700Y-52500D02*
D03*
X843400D02*
D03*
D86*
X355200Y-75000D02*
D03*
X417900D02*
D03*
X530600D02*
D03*
X64200Y-917500D02*
D03*
X173800D02*
D03*
X285000D02*
D03*
X359200D02*
D03*
X470000D02*
D03*
X579600D02*
D03*
D87*
X177500Y-342500D02*
D03*
X222500D02*
D03*
Y-407500D02*
D03*
X177500D02*
D03*
X259890Y-408730D02*
D03*
X304890D02*
D03*
Y-343730D02*
D03*
X259890D02*
D03*
M02*
