G04*
G04 #@! TF.GenerationSoftware,Altium Limited,Altium Designer,25.3.3 (18)*
G04*
G04 Layer_Color=16711935*
%FSLAX44Y44*%
%MOMM*%
G71*
G04*
G04 #@! TF.SameCoordinates,017A41BD-DD39-4079-982F-C60C01D90CF4*
G04*
G04*
G04 #@! TF.FilePolarity,Positive*
G04*
G01*
G75*
%ADD10C,0.2540*%
%ADD13C,0.2000*%
%ADD14C,0.1270*%
%ADD79C,0.7500*%
%ADD96C,0.1000*%
D10*
X995000Y-41750D02*
G03*
X951000Y0I-42875J-1125D01*
G01*
X50000D02*
G03*
X0Y-50000I0J-50000D01*
G01*
X0Y-955000D02*
G03*
X43000Y-995000I41500J1500D01*
G01*
X950000Y-995250D02*
G03*
X995000Y-950000I-125J45125D01*
G01*
X0Y-395000D02*
X0Y-955000D01*
X995000Y-950000D02*
X995000Y-41750D01*
X43000Y-995000D02*
X950000Y-995250D01*
X48000Y0D02*
X951000D01*
X0Y-232500D02*
Y-48000D01*
X388908Y31103D02*
X383829D01*
X381290Y28564D01*
Y18407D01*
X383829Y15868D01*
X388908D01*
X391447Y18407D01*
Y28564D01*
X388908Y31103D01*
X396525Y15868D02*
Y26025D01*
X404143D01*
X406682Y23486D01*
Y15868D01*
X411760D02*
X416838D01*
X414299D01*
Y31103D01*
X411760D01*
X424456Y26025D02*
Y18407D01*
X426995Y15868D01*
X434613D01*
Y13329D01*
X432074Y10790D01*
X429534D01*
X434613Y15868D02*
Y26025D01*
X465083D02*
X457465D01*
X454926Y23486D01*
Y18407D01*
X457465Y15868D01*
X465083D01*
X470161Y26025D02*
Y18407D01*
X472700Y15868D01*
X480318D01*
Y26025D01*
X487935Y28564D02*
Y26025D01*
X485396D01*
X490475D01*
X487935D01*
Y18407D01*
X490475Y15868D01*
X515867D02*
X520945D01*
X523484Y18407D01*
Y23486D01*
X520945Y26025D01*
X515867D01*
X513327Y23486D01*
Y18407D01*
X515867Y15868D01*
X528562Y26025D02*
Y18407D01*
X531101Y15868D01*
X538719D01*
Y26025D01*
X546337Y28564D02*
Y26025D01*
X543797D01*
X548876D01*
X546337D01*
Y18407D01*
X548876Y15868D01*
X564111D02*
X559033D01*
X556493Y18407D01*
Y23486D01*
X559033Y26025D01*
X564111D01*
X566650Y23486D01*
Y20947D01*
X556493D01*
X571728Y26025D02*
Y15868D01*
Y20947D01*
X574268Y23486D01*
X576807Y26025D01*
X579346D01*
X609816Y15868D02*
X604738D01*
X602198Y18407D01*
Y23486D01*
X604738Y26025D01*
X609816D01*
X612355Y23486D01*
Y20947D01*
X602198D01*
X627590Y31103D02*
Y15868D01*
X619973D01*
X617434Y18407D01*
Y23486D01*
X619973Y26025D01*
X627590D01*
X637747Y10790D02*
X640286D01*
X642825Y13329D01*
Y26025D01*
X635208D01*
X632669Y23486D01*
Y18407D01*
X635208Y15868D01*
X642825D01*
X655521D02*
X650443D01*
X647904Y18407D01*
Y23486D01*
X650443Y26025D01*
X655521D01*
X658061Y23486D01*
Y20947D01*
X647904D01*
X-68710Y-329382D02*
Y-314147D01*
X-63632Y-319225D01*
X-58553Y-314147D01*
Y-329382D01*
X-53475D02*
X-48397D01*
X-50936D01*
Y-319225D01*
X-53475D01*
X-40779Y-329382D02*
X-35701D01*
X-38240D01*
Y-314147D01*
X-40779D01*
X-28083Y-329382D02*
X-23005D01*
X-25544D01*
Y-314147D01*
X-28083D01*
X-15387Y-329382D02*
X-10309D01*
X-12848D01*
Y-319225D01*
X-15387D01*
X-2691Y-329382D02*
Y-319225D01*
X4926D01*
X7465Y-321764D01*
Y-329382D01*
X17622Y-334460D02*
X20161D01*
X22700Y-331921D01*
Y-319225D01*
X15083D01*
X12544Y-321764D01*
Y-326842D01*
X15083Y-329382D01*
X22700D01*
D13*
X202600Y-134180D02*
G03*
X202600Y-134180I-1000J0D01*
G01*
D14*
X212600Y-164680D02*
Y-124680D01*
Y-164680D02*
X252600D01*
Y-124680D01*
X212600D02*
X252600D01*
D79*
X0Y-232500D02*
X45000Y-267500D01*
X0Y-395000D02*
X45000Y-365000D01*
Y-267500D01*
D96*
X498000Y-250462D02*
G03*
X498000Y-250462I-5000J0D01*
G01*
X838000Y-89500D02*
Y-80500D01*
X855000Y-89500D02*
Y-80500D01*
X838000D02*
X855000D01*
X838000Y-89500D02*
X855000D01*
X671750Y-833200D02*
X689250D01*
X671750Y-842800D02*
X689250D01*
X671750D02*
Y-833200D01*
X689250Y-842800D02*
Y-833200D01*
X435250Y-832200D02*
X452750D01*
X435250Y-841800D02*
X452750D01*
X435250D02*
Y-832200D01*
X452750Y-841800D02*
Y-832200D01*
X181250Y-831200D02*
X198750D01*
X181250Y-840800D02*
X198750D01*
X181250D02*
Y-831200D01*
X198750Y-840800D02*
Y-831200D01*
X182750Y-640200D02*
X200250D01*
X182750Y-649800D02*
X200250D01*
X182750D02*
Y-640200D01*
X200250Y-649800D02*
Y-640200D01*
X422250Y-641200D02*
X439750D01*
X422250Y-650800D02*
X439750D01*
X422250D02*
Y-641200D01*
X439750Y-650800D02*
Y-641200D01*
X670250Y-639200D02*
X687750D01*
X670250Y-648800D02*
X687750D01*
X670250D02*
Y-639200D01*
X687750Y-648800D02*
Y-639200D01*
X861200Y-294250D02*
X870800D01*
X861200Y-311750D02*
X870800D01*
Y-294250D01*
X861200Y-311750D02*
Y-294250D01*
X861200Y-277750D02*
X870800D01*
X861200Y-260250D02*
X870800D01*
X861200Y-277750D02*
Y-260250D01*
X870800Y-277750D02*
Y-260250D01*
X718250Y-190000D02*
Y-181000D01*
X701250Y-190000D02*
Y-181000D01*
Y-190000D02*
X718250D01*
X701250Y-181000D02*
X718250D01*
Y-222500D02*
Y-213500D01*
X701250Y-222500D02*
Y-213500D01*
Y-222500D02*
X718250D01*
X701250Y-213500D02*
X718250D01*
Y-255000D02*
Y-246000D01*
X701250Y-255000D02*
Y-246000D01*
Y-255000D02*
X718250D01*
X701250Y-246000D02*
X718250D01*
X861200Y-212250D02*
Y-194750D01*
X870800Y-212250D02*
Y-194750D01*
X861200Y-212250D02*
X870800D01*
X861200Y-194750D02*
X870800D01*
X861200Y-175750D02*
X870800D01*
X861200Y-158250D02*
X870800D01*
X861200Y-175750D02*
Y-158250D01*
X870800Y-175750D02*
Y-158250D01*
X422289Y-308444D02*
X493000Y-237734D01*
Y-379155D02*
X563711Y-308444D01*
X493000Y-237734D02*
X563711Y-308444D01*
X422289D02*
X493000Y-379155D01*
X558828Y-271546D02*
X565546Y-264828D01*
X546454Y-259172D02*
X553172Y-252454D01*
X546454Y-259172D02*
X558828Y-271546D01*
X553172Y-252454D02*
X565546Y-264828D01*
X467250Y-397750D02*
X484750D01*
X467250Y-388250D02*
X484750D01*
Y-397750D02*
Y-388250D01*
X467250Y-397750D02*
Y-388250D01*
X173500Y-426000D02*
X182500D01*
X173500Y-443000D02*
X182500D01*
Y-426000D01*
X173500Y-443000D02*
Y-426000D01*
X173000Y-229500D02*
Y-220500D01*
X156000Y-229500D02*
Y-220500D01*
X173000D01*
X156000Y-229500D02*
X173000D01*
Y-189500D02*
Y-180500D01*
X156000Y-189500D02*
Y-180500D01*
X173000D01*
X156000Y-189500D02*
X173000D01*
Y-149500D02*
Y-140500D01*
X156000Y-149500D02*
Y-140500D01*
X173000D01*
X156000Y-149500D02*
X173000D01*
X159800Y-150250D02*
Y-132750D01*
X150200Y-150250D02*
Y-132750D01*
X159800D01*
X150200Y-150250D02*
X159800D01*
X172500Y-112000D02*
Y-103000D01*
X155500Y-112000D02*
Y-103000D01*
X172500D01*
X155500Y-112000D02*
X172500D01*
X255600Y-204880D02*
X273100D01*
X255600Y-214480D02*
X273100D01*
X255600D02*
Y-204880D01*
X273100Y-214480D02*
Y-204880D01*
X172500Y-309500D02*
Y-300500D01*
X155500Y-309500D02*
Y-300500D01*
X172500D01*
X155500Y-309500D02*
X172500D01*
X185800Y-149750D02*
Y-132250D01*
X176200Y-149750D02*
Y-132250D01*
X185800D01*
X176200Y-149750D02*
X185800D01*
X864800Y-70250D02*
X874400D01*
X864800Y-87750D02*
X874400D01*
Y-70250D01*
X864800Y-87750D02*
Y-70250D01*
X156000Y-269500D02*
X173000D01*
X156000Y-260500D02*
X173000D01*
X156000Y-269500D02*
Y-260500D01*
X173000Y-269500D02*
Y-260500D01*
X230000Y-405000D02*
Y-345000D01*
X170000Y-405000D02*
X230000D01*
X170000Y-345000D02*
X230000D01*
X170000Y-405000D02*
Y-345000D01*
X252390Y-406230D02*
Y-346230D01*
X312390D01*
X252390Y-406230D02*
X312390D01*
Y-346230D01*
X424681Y-254601D02*
X431399Y-261319D01*
X437055Y-242227D02*
X443773Y-248944D01*
X424681Y-254601D02*
X437055Y-242227D01*
X431399Y-261319D02*
X443773Y-248944D01*
X442697Y-236586D02*
X449414Y-243303D01*
X455071Y-224211D02*
X461788Y-230929D01*
X442697Y-236586D02*
X455071Y-224211D01*
X449414Y-243303D02*
X461788Y-230929D01*
X434172Y-362454D02*
X446546Y-374828D01*
X427454Y-369172D02*
X439828Y-381546D01*
X427454Y-369172D02*
X434172Y-362454D01*
X439828Y-381546D02*
X446546Y-374828D01*
X296250Y-434800D02*
Y-425200D01*
X278750Y-434800D02*
Y-425200D01*
Y-434800D02*
X296250D01*
X278750Y-425200D02*
X296250D01*
X256500Y-444000D02*
Y-427000D01*
X265500Y-444000D02*
Y-427000D01*
X256500Y-444000D02*
X265500D01*
X256500Y-427000D02*
X265500D01*
X929600Y-82000D02*
X946600D01*
X929600Y-73000D02*
X946600D01*
Y-82000D02*
Y-73000D01*
X929600Y-82000D02*
Y-73000D01*
X582750Y-102700D02*
X600250D01*
X582750Y-112300D02*
X600250D01*
X582750D02*
Y-102700D01*
X600250Y-112300D02*
Y-102700D01*
X788000Y-122000D02*
X797000D01*
X788000Y-105000D02*
X797000D01*
X788000Y-122000D02*
Y-105000D01*
X797000Y-122000D02*
Y-105000D01*
X245250Y-183800D02*
Y-174200D01*
X262750Y-183800D02*
Y-174200D01*
X245250D02*
X262750D01*
X245250Y-183800D02*
X262750D01*
X193600Y-214480D02*
Y-204880D01*
X211100Y-214480D02*
Y-204880D01*
X193600D02*
X211100D01*
X193600Y-214480D02*
X211100D01*
X245350Y-224680D02*
Y-207680D01*
X236350Y-224680D02*
Y-207680D01*
X245350D01*
X236350Y-224680D02*
X245350D01*
X201350Y-266180D02*
X218350D01*
X201350Y-275180D02*
X218350D01*
X201350D02*
Y-266180D01*
X218350Y-275180D02*
Y-266180D01*
X248350D02*
X265350D01*
X248350Y-275180D02*
X265350D01*
X248350D02*
Y-266180D01*
X265350Y-275180D02*
Y-266180D01*
X230350Y-224180D02*
Y-207180D01*
X221350Y-224180D02*
Y-207180D01*
X230350D01*
X221350Y-224180D02*
X230350D01*
M02*
