G04*
G04 #@! TF.GenerationSoftware,Altium Limited,Altium Designer,25.3.3 (18)*
G04*
G04 Layer_Color=128*
%FSLAX44Y44*%
%MOMM*%
G71*
G04*
G04 #@! TF.SameCoordinates,017A41BD-DD39-4079-982F-C60C01D90CF4*
G04*
G04*
G04 #@! TF.FilePolarity,Positive*
G04*
G01*
G75*
%ADD14C,0.1270*%
D14*
X78500Y-243100D02*
X91500D01*
X85000Y-249600D02*
Y-236600D01*
X78413Y-192214D02*
X91413D01*
X84913Y-198713D02*
Y-185714D01*
X78500Y-217700D02*
X91500D01*
X85000Y-224200D02*
Y-211200D01*
X78500Y-166900D02*
X91500D01*
X85000Y-173400D02*
Y-160400D01*
X787500Y-62250D02*
X796500D01*
X792000Y-66750D02*
Y-57750D01*
X762500Y-62250D02*
X771500D01*
X767000Y-66750D02*
Y-57750D01*
X737500Y-62250D02*
X746500D01*
X742000Y-66750D02*
Y-57750D01*
X712500Y-62250D02*
X721500D01*
X717000Y-66750D02*
Y-57750D01*
X78500Y-750400D02*
X91500D01*
X85000Y-756900D02*
Y-743900D01*
X78500Y-725000D02*
X91500D01*
X85000Y-731500D02*
Y-718500D01*
X78413Y-699514D02*
X91413D01*
X84913Y-706014D02*
Y-693014D01*
X78500Y-674200D02*
X91500D01*
X85000Y-680700D02*
Y-667700D01*
X78500Y-500784D02*
X91500D01*
X85000Y-507284D02*
Y-494284D01*
X78500Y-551584D02*
X91500D01*
X85000Y-558084D02*
Y-545084D01*
X78413Y-526097D02*
X91413D01*
X84913Y-532597D02*
Y-519598D01*
X78500Y-576984D02*
X91500D01*
X85000Y-583484D02*
Y-570484D01*
X596954Y-494342D02*
X607953D01*
X602453Y-499842D02*
Y-488843D01*
X571553Y-494342D02*
X582553D01*
X577053Y-499842D02*
Y-488843D01*
X546153Y-494342D02*
X557154D01*
X551654Y-499842D02*
Y-488843D01*
X520754Y-494342D02*
X531754D01*
X526254Y-499842D02*
Y-488843D01*
X495354Y-494342D02*
X506353D01*
X500854Y-499842D02*
Y-488843D01*
X469953Y-494342D02*
X480953D01*
X475453Y-499842D02*
Y-488843D01*
X444553Y-494342D02*
X455554D01*
X450053Y-499842D02*
Y-488843D01*
X419154Y-494342D02*
X430154D01*
X424654Y-499842D02*
Y-488843D01*
X419353Y-621343D02*
X430354D01*
X424854Y-626842D02*
Y-615843D01*
X444753Y-621343D02*
X455754D01*
X450253Y-626842D02*
Y-615843D01*
X470154Y-621343D02*
X481153D01*
X475653Y-626842D02*
Y-615843D01*
X495554Y-621343D02*
X506553D01*
X501054Y-626842D02*
Y-615843D01*
X520953Y-621343D02*
X531954D01*
X526454Y-626842D02*
Y-615843D01*
X546353Y-621343D02*
X557354D01*
X551853Y-626842D02*
Y-615843D01*
X571754Y-621343D02*
X582753D01*
X577253Y-626842D02*
Y-615843D01*
X597154Y-621343D02*
X608153D01*
X602654Y-626842D02*
Y-615843D01*
X601954Y-688842D02*
X612953D01*
X607453Y-694342D02*
Y-683342D01*
X576553Y-688842D02*
X587553D01*
X582053Y-694342D02*
Y-683342D01*
X551153Y-688842D02*
X562154D01*
X556654Y-694342D02*
Y-683342D01*
X525754Y-688842D02*
X536754D01*
X531254Y-694342D02*
Y-683342D01*
X500354Y-688842D02*
X511353D01*
X505854Y-694342D02*
Y-683342D01*
X474953Y-688842D02*
X485953D01*
X480453Y-694342D02*
Y-683342D01*
X449553Y-688842D02*
X460554D01*
X455053Y-694342D02*
Y-683342D01*
X424154Y-688842D02*
X435154D01*
X429654Y-694342D02*
Y-683342D01*
X424353Y-815842D02*
X435354D01*
X429854Y-821342D02*
Y-810342D01*
X449753Y-815842D02*
X460754D01*
X455253Y-821342D02*
Y-810342D01*
X475154Y-815842D02*
X486153D01*
X480653Y-821342D02*
Y-810342D01*
X500554Y-815842D02*
X511553D01*
X506054Y-821342D02*
Y-810342D01*
X525953Y-815842D02*
X536954D01*
X531454Y-821342D02*
Y-810342D01*
X551353Y-815842D02*
X562354D01*
X556853Y-821342D02*
Y-810342D01*
X576754Y-815842D02*
X587753D01*
X582253Y-821342D02*
Y-810342D01*
X602154Y-815842D02*
X613153D01*
X607654Y-821342D02*
Y-810342D01*
X174153Y-494342D02*
X185154D01*
X179653Y-499842D02*
Y-488843D01*
X199554Y-494342D02*
X210553D01*
X205054Y-499842D02*
Y-488843D01*
X694600Y-418350D02*
X706600D01*
X700600Y-424350D02*
Y-412350D01*
X720300Y-418350D02*
X732300D01*
X726300Y-424350D02*
Y-412350D01*
X78500Y-786900D02*
X91500D01*
X85000Y-793400D02*
Y-780400D01*
X746000Y-418350D02*
X758000D01*
X752000Y-424350D02*
Y-412350D01*
X78413Y-812214D02*
X91413D01*
X84913Y-818714D02*
Y-805714D01*
X664154Y-689342D02*
X675154D01*
X669653Y-694843D02*
Y-683842D01*
X78500Y-837700D02*
X91500D01*
X85000Y-844200D02*
Y-831200D01*
X689554Y-689342D02*
X700554D01*
X695053Y-694843D02*
Y-683842D01*
X78500Y-863100D02*
X91500D01*
X85000Y-869600D02*
Y-856600D01*
X720400Y-443750D02*
X732400D01*
X726400Y-449750D02*
Y-437750D01*
X746000Y-443750D02*
X758000D01*
X752000Y-449750D02*
Y-437750D01*
X771400Y-443750D02*
X783400D01*
X777400Y-449750D02*
Y-437750D01*
X694600Y-443750D02*
X706600D01*
X700600Y-449750D02*
Y-437750D01*
X797100Y-443750D02*
X809100D01*
X803100Y-449750D02*
Y-437750D01*
X822800Y-443750D02*
X834800D01*
X828800Y-449750D02*
Y-437750D01*
X822800Y-418350D02*
X834800D01*
X828800Y-424350D02*
Y-412350D01*
X797100Y-418350D02*
X809100D01*
X803100Y-424350D02*
Y-412350D01*
X771400Y-418350D02*
X783400D01*
X777400Y-424350D02*
Y-412350D01*
X227300Y-52500D02*
X239300D01*
X233300Y-58500D02*
Y-46500D01*
X201900Y-52500D02*
X213900D01*
X207900Y-58500D02*
Y-46500D01*
X176500Y-52500D02*
X188500D01*
X182500Y-58500D02*
Y-46500D01*
X252700Y-52500D02*
X264700D01*
X258700Y-58500D02*
Y-46500D01*
X348700Y-75000D02*
X361700D01*
X355200Y-81500D02*
Y-68500D01*
X323300Y-75000D02*
X336300D01*
X329800Y-81500D02*
Y-68500D01*
X411400Y-75000D02*
X424400D01*
X417900Y-81500D02*
Y-68500D01*
X386000Y-75000D02*
X399000D01*
X392500Y-81500D02*
Y-68500D01*
X447900Y-75000D02*
X460900D01*
X454400Y-81500D02*
Y-68500D01*
X498787Y-74913D02*
X511786D01*
X505286Y-81413D02*
Y-68413D01*
X473300Y-75000D02*
X486300D01*
X479800Y-81500D02*
Y-68500D01*
X524100Y-75000D02*
X537100D01*
X530600Y-81500D02*
Y-68500D01*
X860500Y-927500D02*
X869500D01*
X865000Y-932000D02*
Y-923000D01*
X835500Y-927500D02*
X844500D01*
X840000Y-932000D02*
Y-923000D01*
X810500Y-927500D02*
X819500D01*
X815000Y-932000D02*
Y-923000D01*
X785500Y-927500D02*
X794500D01*
X790000Y-932000D02*
Y-923000D01*
X930500Y-371000D02*
X939500D01*
X935000Y-375500D02*
Y-366500D01*
X930500Y-396000D02*
X939500D01*
X935000Y-400500D02*
Y-391500D01*
X930500Y-421000D02*
X939500D01*
X935000Y-425500D02*
Y-416500D01*
X930500Y-446000D02*
X939500D01*
X935000Y-450500D02*
Y-441500D01*
X930500Y-504000D02*
X939500D01*
X935000Y-508500D02*
Y-499500D01*
X930500Y-529000D02*
X939500D01*
X935000Y-533500D02*
Y-524500D01*
X930500Y-554000D02*
X939500D01*
X935000Y-558500D02*
Y-549500D01*
X930500Y-579000D02*
X939500D01*
X935000Y-583500D02*
Y-574500D01*
X930000Y-635000D02*
X940000D01*
X935000Y-640000D02*
Y-630000D01*
X930000Y-660000D02*
X940000D01*
X935000Y-665000D02*
Y-655000D01*
X909500Y-619000D02*
X920500D01*
X915000Y-624500D02*
Y-613500D01*
X350754Y-814843D02*
X361754D01*
X356254Y-820342D02*
Y-809342D01*
X325354Y-814843D02*
X336353D01*
X330854Y-820342D02*
Y-809342D01*
X299953Y-814843D02*
X310954D01*
X305453Y-820342D02*
Y-809342D01*
X274554Y-814843D02*
X285553D01*
X280054Y-820342D02*
Y-809342D01*
X249153Y-814843D02*
X260154D01*
X254653Y-820342D02*
Y-809342D01*
X223754Y-814843D02*
X234753D01*
X229254Y-820342D02*
Y-809342D01*
X198354Y-814843D02*
X209354D01*
X203853Y-820342D02*
Y-809342D01*
X172953Y-814843D02*
X183953D01*
X178454Y-820342D02*
Y-809342D01*
X172754Y-687842D02*
X183754D01*
X178253Y-693343D02*
Y-682343D01*
X198153Y-687842D02*
X209153D01*
X203654Y-693343D02*
Y-682343D01*
X223554Y-687842D02*
X234554D01*
X229053Y-693343D02*
Y-682343D01*
X248953Y-687842D02*
X259953D01*
X254454Y-693343D02*
Y-682343D01*
X274354Y-687842D02*
X285354D01*
X279853Y-693343D02*
Y-682343D01*
X299753Y-687842D02*
X310753D01*
X305254Y-693343D02*
Y-682343D01*
X325154Y-687842D02*
X336153D01*
X330653Y-693343D02*
Y-682343D01*
X350554Y-687842D02*
X361553D01*
X356054Y-693343D02*
Y-682343D01*
X840900Y-621000D02*
X851900D01*
X846400Y-626500D02*
Y-615500D01*
X815500Y-621000D02*
X826500D01*
X821000Y-626500D02*
Y-615500D01*
X790100Y-621000D02*
X801100D01*
X795600Y-626500D02*
Y-615500D01*
X764700Y-621000D02*
X775700D01*
X770200Y-626500D02*
Y-615500D01*
X739300Y-621000D02*
X750300D01*
X744800Y-626500D02*
Y-615500D01*
X713900Y-621000D02*
X724900D01*
X719400Y-626500D02*
Y-615500D01*
X688500Y-621000D02*
X699500D01*
X694000Y-626500D02*
Y-615500D01*
X663100Y-621000D02*
X674100D01*
X668600Y-626500D02*
Y-615500D01*
X662900Y-494000D02*
X673900D01*
X668400Y-499500D02*
Y-488500D01*
X688300Y-494000D02*
X699300D01*
X693800Y-499500D02*
Y-488500D01*
X713700Y-494000D02*
X724700D01*
X719200Y-499500D02*
Y-488500D01*
X739100Y-494000D02*
X750100D01*
X744600Y-499500D02*
Y-488500D01*
X764500Y-494000D02*
X775500D01*
X770000Y-499500D02*
Y-488500D01*
X789900Y-494000D02*
X800900D01*
X795400Y-499500D02*
Y-488500D01*
X815300Y-494000D02*
X826300D01*
X820800Y-499500D02*
Y-488500D01*
X840700Y-494000D02*
X851700D01*
X846200Y-499500D02*
Y-488500D01*
X78587Y-54686D02*
X91587D01*
X85087Y-61186D02*
Y-48186D01*
X78587Y-105486D02*
X91587D01*
X85087Y-111986D02*
Y-98986D01*
X78500Y-80000D02*
X91500D01*
X85000Y-86500D02*
Y-73500D01*
X78587Y-130886D02*
X91587D01*
X85087Y-137386D02*
Y-124386D01*
X133900Y-917500D02*
X146900D01*
X140400Y-924000D02*
Y-911000D01*
X83014Y-917587D02*
X96013D01*
X89514Y-924087D02*
Y-911087D01*
X108500Y-917500D02*
X121500D01*
X115000Y-924000D02*
Y-911000D01*
X57700Y-917500D02*
X70700D01*
X64200Y-924000D02*
Y-911000D01*
X243500Y-917500D02*
X256500D01*
X250000Y-924000D02*
Y-911000D01*
X192614Y-917587D02*
X205614D01*
X199114Y-924087D02*
Y-911087D01*
X218100Y-917500D02*
X231100D01*
X224600Y-924000D02*
Y-911000D01*
X167300Y-917500D02*
X180300D01*
X173800Y-924000D02*
Y-911000D01*
X278500Y-917500D02*
X291500D01*
X285000Y-924000D02*
Y-911000D01*
X303900Y-917500D02*
X316900D01*
X310400Y-924000D02*
Y-911000D01*
X352700Y-917500D02*
X365700D01*
X359200Y-924000D02*
Y-911000D01*
X403500Y-917500D02*
X416500D01*
X410000Y-924000D02*
Y-911000D01*
X378014Y-917587D02*
X391013D01*
X384514Y-924087D02*
Y-911087D01*
X428900Y-917500D02*
X441900D01*
X435400Y-924000D02*
Y-911000D01*
X463500Y-917500D02*
X476500D01*
X470000Y-924000D02*
Y-911000D01*
X514300Y-917500D02*
X527300D01*
X520800Y-924000D02*
Y-911000D01*
X488814Y-917587D02*
X501814D01*
X495314Y-924087D02*
Y-911087D01*
X539700Y-917500D02*
X552700D01*
X546200Y-924000D02*
Y-911000D01*
X598500Y-917500D02*
X611500D01*
X605000Y-924000D02*
Y-911000D01*
X573100Y-917500D02*
X586100D01*
X579600Y-924000D02*
Y-911000D01*
X172500Y-342500D02*
X182500D01*
X177500Y-347500D02*
Y-337500D01*
X217500Y-342500D02*
X227500D01*
X222500Y-347500D02*
Y-337500D01*
X217500Y-407500D02*
X227500D01*
X222500Y-412500D02*
Y-402500D01*
X172500Y-407500D02*
X182500D01*
X177500Y-412500D02*
Y-402500D01*
X254890Y-408730D02*
X264890D01*
X259890Y-413730D02*
Y-403730D01*
X299890Y-408730D02*
X309890D01*
X304890Y-413730D02*
Y-403730D01*
X299890Y-343730D02*
X309890D01*
X304890Y-348730D02*
Y-338730D01*
X254890Y-343730D02*
X264890D01*
X259890Y-348730D02*
Y-338730D01*
X650500Y-927500D02*
X659500D01*
X655000Y-932000D02*
Y-923000D01*
X675500Y-927500D02*
X684500D01*
X680000Y-932000D02*
Y-923000D01*
X700500Y-927500D02*
X709500D01*
X705000Y-932000D02*
Y-923000D01*
X725500Y-927500D02*
X734500D01*
X730000Y-932000D02*
Y-923000D01*
X68350Y-272800D02*
X82350D01*
X75350Y-279800D02*
Y-265800D01*
X68350Y-359200D02*
X82350D01*
X75350Y-366200D02*
Y-352200D01*
X108650Y-272800D02*
X125650D01*
X117150Y-281300D02*
Y-264300D01*
X108650Y-359200D02*
X125650D01*
X117150Y-367700D02*
Y-350700D01*
X108900Y-287100D02*
X115400D01*
X112150Y-290350D02*
Y-283850D01*
X108900Y-344900D02*
X115400D01*
X112150Y-348150D02*
Y-341650D01*
X837400Y-52500D02*
X849400D01*
X843400Y-58500D02*
Y-46500D01*
X913600Y-52500D02*
X925600D01*
X919600Y-58500D02*
Y-46500D01*
X888200Y-52500D02*
X900200D01*
X894200Y-58500D02*
Y-46500D01*
X939000Y-52500D02*
X951000D01*
X945000Y-58500D02*
Y-46500D01*
X862800Y-52500D02*
X874800D01*
X868800Y-58500D02*
Y-46500D01*
X916000Y-104800D02*
X929000D01*
X922500Y-111300D02*
Y-98300D01*
X916000Y-130200D02*
X929000D01*
X922500Y-136700D02*
Y-123700D01*
X916000Y-282300D02*
X929000D01*
X922500Y-288800D02*
Y-275800D01*
X916000Y-307700D02*
X929000D01*
X922500Y-314200D02*
Y-301200D01*
X916000Y-224800D02*
X929000D01*
X922500Y-231300D02*
Y-218300D01*
X916000Y-250200D02*
X929000D01*
X922500Y-256700D02*
Y-243700D01*
X916000Y-164800D02*
X929000D01*
X922500Y-171300D02*
Y-158300D01*
X916000Y-190200D02*
X929000D01*
X922500Y-196700D02*
Y-183700D01*
X576100Y-63140D02*
X585100D01*
X580600Y-67640D02*
Y-58640D01*
X601100Y-63140D02*
X610100D01*
X605600Y-67640D02*
Y-58640D01*
X626100Y-63140D02*
X635100D01*
X630600Y-67640D02*
Y-58640D01*
X651100Y-63140D02*
X660100D01*
X655600Y-67640D02*
Y-58640D01*
X352154Y-621343D02*
X363153D01*
X357654Y-626842D02*
Y-615843D01*
X326754Y-621343D02*
X337753D01*
X332253Y-626842D02*
Y-615843D01*
X301353Y-621343D02*
X312353D01*
X306854Y-626842D02*
Y-615843D01*
X275954Y-621343D02*
X286954D01*
X281453Y-626842D02*
Y-615843D01*
X250553Y-621343D02*
X261553D01*
X256054Y-626842D02*
Y-615843D01*
X225154Y-621343D02*
X236154D01*
X230653Y-626842D02*
Y-615843D01*
X199753Y-621343D02*
X210753D01*
X205254Y-626842D02*
Y-615843D01*
X174354Y-621343D02*
X185354D01*
X179853Y-626842D02*
Y-615843D01*
X224953Y-494342D02*
X235954D01*
X230453Y-499842D02*
Y-488843D01*
X250354Y-494342D02*
X261353D01*
X255854Y-499842D02*
Y-488843D01*
X275753Y-494342D02*
X286754D01*
X281254Y-499842D02*
Y-488843D01*
X301154Y-494342D02*
X312153D01*
X306653Y-499842D02*
Y-488843D01*
X326553Y-494342D02*
X337553D01*
X332053Y-499842D02*
Y-488843D01*
X351954Y-494342D02*
X362953D01*
X357453Y-499842D02*
Y-488843D01*
X841954Y-689342D02*
X852953D01*
X847454Y-694843D02*
Y-683842D01*
X816553Y-689342D02*
X827553D01*
X822054Y-694843D02*
Y-683842D01*
X791153Y-689342D02*
X802153D01*
X796654Y-694843D02*
Y-683842D01*
X765753Y-689342D02*
X776753D01*
X771254Y-694843D02*
Y-683842D01*
X740353Y-689342D02*
X751354D01*
X745854Y-694843D02*
Y-683842D01*
X714954Y-689342D02*
X725954D01*
X720453Y-694843D02*
Y-683842D01*
X664353Y-816342D02*
X675353D01*
X669854Y-821842D02*
Y-810843D01*
X689753Y-816342D02*
X700753D01*
X695254Y-821842D02*
Y-810843D01*
X715154Y-816342D02*
X726153D01*
X720654Y-821842D02*
Y-810843D01*
X740554Y-816342D02*
X751553D01*
X746053Y-821842D02*
Y-810843D01*
X765954Y-816342D02*
X776954D01*
X771453Y-821842D02*
Y-810843D01*
X791354Y-816342D02*
X802354D01*
X796853Y-821842D02*
Y-810843D01*
X816753Y-816342D02*
X827754D01*
X822253Y-821842D02*
Y-810843D01*
X842153Y-816342D02*
X853154D01*
X847654Y-821842D02*
Y-810843D01*
X930500Y-925000D02*
X939500D01*
X935000Y-929500D02*
Y-920500D01*
X930500Y-900000D02*
X939500D01*
X935000Y-904500D02*
Y-895500D01*
X930500Y-875000D02*
X939500D01*
X935000Y-879500D02*
Y-870500D01*
X930500Y-850000D02*
X939500D01*
X935000Y-854500D02*
Y-845500D01*
X78587Y-467470D02*
X91587D01*
X85087Y-473970D02*
Y-460970D01*
X78500Y-416584D02*
X91500D01*
X85000Y-423084D02*
Y-410084D01*
X78587Y-442070D02*
X91587D01*
X85087Y-448570D02*
Y-435570D01*
X78587Y-391270D02*
X91587D01*
X85087Y-397770D02*
Y-384770D01*
X78500Y-610000D02*
X91500D01*
X85000Y-616500D02*
Y-603500D01*
X78500Y-635400D02*
X91500D01*
X85000Y-641900D02*
Y-628900D01*
X930500Y-790000D02*
X939500D01*
X935000Y-794500D02*
Y-785500D01*
X930500Y-765000D02*
X939500D01*
X935000Y-769500D02*
Y-760500D01*
X930500Y-740000D02*
X939500D01*
X935000Y-744500D02*
Y-735500D01*
X930500Y-715000D02*
X939500D01*
X935000Y-719500D02*
Y-710500D01*
X498500Y-567000D02*
X501500D01*
X500000Y-568500D02*
Y-565500D01*
X955500Y-79000D02*
X958500D01*
X957000Y-80500D02*
Y-77500D01*
X537462Y-403000D02*
X540462D01*
X538962Y-404500D02*
Y-401500D01*
X539456Y-202702D02*
X542456D01*
X540956Y-204202D02*
Y-201202D01*
X378500Y-240000D02*
X381500D01*
X380000Y-241500D02*
Y-238500D01*
X474500Y-585000D02*
X477500D01*
X476000Y-586500D02*
Y-583500D01*
X275500Y-261750D02*
X278500D01*
X277000Y-263250D02*
Y-260250D01*
X166500Y-158000D02*
X169500D01*
X168000Y-159500D02*
Y-156500D01*
X465202Y-279815D02*
X468202D01*
X466702Y-281315D02*
Y-278315D01*
X590500Y-249000D02*
X593500D01*
X592000Y-250500D02*
Y-247500D01*
X463500Y-219000D02*
X466500D01*
X465000Y-220500D02*
Y-217500D01*
X428500Y-240000D02*
X431500D01*
X430000Y-241500D02*
Y-238500D01*
X376500Y-314000D02*
X379500D01*
X378000Y-315500D02*
Y-312500D01*
X368500Y-306000D02*
X371500D01*
X370000Y-307500D02*
Y-304500D01*
X415500Y-265000D02*
X418500D01*
X417000Y-266500D02*
Y-263500D01*
X405500Y-296000D02*
X408500D01*
X407000Y-297500D02*
Y-294500D01*
X351500Y-407000D02*
X354500D01*
X353000Y-408500D02*
Y-405500D01*
X389500Y-588000D02*
X392500D01*
X391000Y-589500D02*
Y-586500D01*
X342500Y-586000D02*
X345500D01*
X344000Y-587500D02*
Y-584500D01*
X512500Y-559000D02*
X515500D01*
X514000Y-560500D02*
Y-557500D01*
X634500Y-430000D02*
X637500D01*
X636000Y-431500D02*
Y-428500D01*
X643500Y-428000D02*
X646500D01*
X645000Y-429500D02*
Y-426500D01*
X674500Y-429000D02*
X677500D01*
X676000Y-430500D02*
Y-427500D01*
X645500Y-461000D02*
X648500D01*
X647000Y-462500D02*
Y-459500D01*
X659500Y-477000D02*
X662500D01*
X661000Y-478500D02*
Y-475500D01*
X714500Y-201000D02*
X717500D01*
X716000Y-202500D02*
Y-199500D01*
X615750Y-218000D02*
X618750D01*
X617250Y-219500D02*
Y-216500D01*
X101880Y-316000D02*
X104880D01*
X103380Y-317500D02*
Y-314500D01*
X194750Y-198250D02*
X197750D01*
X196250Y-199750D02*
Y-196750D01*
X655500Y-412000D02*
X658500D01*
X657000Y-413500D02*
Y-410500D01*
X405500Y-306000D02*
X408500D01*
X407000Y-307500D02*
Y-304500D01*
X438500Y-301923D02*
X441500D01*
X440000Y-303423D02*
Y-300423D01*
X442500Y-319002D02*
X445500D01*
X444000Y-320502D02*
Y-317502D01*
X882500Y-805000D02*
X885500D01*
X884000Y-806500D02*
Y-803500D01*
X855000Y-380000D02*
X885000D01*
X870000Y-395000D02*
Y-365000D01*
X10000Y-70000D02*
X40000D01*
X25000Y-85000D02*
Y-55000D01*
X392500Y-209000D02*
X395500D01*
X394000Y-210500D02*
Y-207500D01*
X696500Y-750000D02*
X699500D01*
X698000Y-751500D02*
Y-748500D01*
X362500Y-880000D02*
X365500D01*
X364000Y-881500D02*
Y-878500D01*
X490500Y-383000D02*
X493500D01*
X492000Y-384500D02*
Y-381500D01*
X424500Y-389000D02*
X427500D01*
X426000Y-390500D02*
Y-387500D01*
X414500Y-284000D02*
X417500D01*
X416000Y-285500D02*
Y-282500D01*
X411500Y-754000D02*
X414500D01*
X413000Y-755500D02*
Y-752500D01*
X322500Y-880000D02*
X325500D01*
X324000Y-881500D02*
Y-878500D01*
X303500Y-91000D02*
X306500D01*
X305000Y-92500D02*
Y-89500D01*
X269500Y-91000D02*
X272500D01*
X271000Y-92500D02*
Y-89500D01*
X192500Y-127000D02*
X195500D01*
X194000Y-128500D02*
Y-125500D01*
X541694Y-249194D02*
X544694D01*
X543194Y-250694D02*
Y-247694D01*
X422500Y-379000D02*
X425500D01*
X424000Y-380500D02*
Y-377500D01*
X449500Y-324000D02*
X452500D01*
X451000Y-325500D02*
Y-322500D01*
X404500Y-216000D02*
X407500D01*
X406000Y-217500D02*
Y-214500D01*
X509250Y-524500D02*
X512250D01*
X510750Y-526000D02*
Y-523000D01*
X569773Y-274773D02*
X572773D01*
X571273Y-276273D02*
Y-273273D01*
X564500Y-316000D02*
X567500D01*
X566000Y-317500D02*
Y-314500D01*
X592500Y-414474D02*
X595500D01*
X594000Y-415974D02*
Y-412974D01*
X584500Y-408000D02*
X587500D01*
X586000Y-409500D02*
Y-406500D01*
X658899Y-352601D02*
X661899D01*
X660399Y-354101D02*
Y-351101D01*
X386500Y-185000D02*
X389500D01*
X388000Y-186500D02*
Y-183500D01*
X481500Y-320000D02*
X484500D01*
X483000Y-321500D02*
Y-318500D01*
X472500Y-316466D02*
X475500D01*
X474000Y-317966D02*
Y-314966D01*
X432500Y-443664D02*
X435500D01*
X434000Y-445164D02*
Y-442164D01*
X442500Y-443664D02*
X445500D01*
X444000Y-445164D02*
Y-442164D01*
X492500Y-518000D02*
X495500D01*
X494000Y-519500D02*
Y-516500D01*
X561500Y-531000D02*
X564500D01*
X563000Y-532500D02*
Y-529500D01*
X533500Y-425904D02*
X536500D01*
X535000Y-427404D02*
Y-424404D01*
X557500Y-383000D02*
X560500D01*
X559000Y-384500D02*
Y-381500D01*
X543596Y-371013D02*
X546596D01*
X545096Y-372513D02*
Y-369513D01*
X550500Y-377000D02*
X553500D01*
X552000Y-378500D02*
Y-375500D01*
X564500Y-389000D02*
X567500D01*
X566000Y-390500D02*
Y-387500D01*
X605500Y-545000D02*
X608500D01*
X607000Y-546500D02*
Y-543500D01*
X585500Y-537096D02*
X588500D01*
X587000Y-538596D02*
Y-535596D01*
X285500Y-545000D02*
X288500D01*
X287000Y-546500D02*
Y-543500D01*
X279500Y-538000D02*
X282500D01*
X281000Y-539500D02*
Y-536500D01*
X273500Y-531000D02*
X276500D01*
X275000Y-532500D02*
Y-529500D01*
X266500Y-524000D02*
X269500D01*
X268000Y-525500D02*
Y-522500D01*
X260500Y-517000D02*
X263500D01*
X262000Y-518500D02*
Y-515500D01*
X422836Y-443664D02*
X425836D01*
X424336Y-445164D02*
Y-442164D01*
X413500Y-443664D02*
X416500D01*
X415000Y-445164D02*
Y-442164D01*
X404490Y-443664D02*
X407490D01*
X405990Y-445164D02*
Y-442164D01*
X395500Y-443664D02*
X398500D01*
X397000Y-445164D02*
Y-442164D01*
X386500Y-443664D02*
X389500D01*
X388000Y-445164D02*
Y-442164D01*
X377500Y-443664D02*
X380500D01*
X379000Y-445164D02*
Y-442164D01*
X626777Y-409732D02*
X629777D01*
X628277Y-411232D02*
Y-408232D01*
X646189Y-411311D02*
X649190D01*
X647690Y-412811D02*
Y-409810D01*
X636500Y-411000D02*
X639500D01*
X638000Y-412500D02*
Y-409500D01*
X668500Y-354000D02*
X671500D01*
X670000Y-355500D02*
Y-352500D01*
X678500Y-354000D02*
X681500D01*
X680000Y-355500D02*
Y-352500D01*
X578500Y-401000D02*
X581500D01*
X580000Y-402500D02*
Y-399500D01*
X571500Y-394904D02*
X574500D01*
X573000Y-396404D02*
Y-393404D01*
X504576Y-276306D02*
X507576D01*
X506076Y-277806D02*
Y-274806D01*
X494517Y-277464D02*
X497517D01*
X496017Y-278964D02*
Y-275964D01*
X475948Y-278552D02*
X478948D01*
X477448Y-280052D02*
Y-277052D01*
X485005Y-278495D02*
X488005D01*
X486505Y-279995D02*
Y-276995D01*
X398500Y-152000D02*
X401500D01*
X400000Y-153500D02*
Y-150500D01*
X415500Y-275000D02*
X418500D01*
X417000Y-276500D02*
Y-273500D01*
X136500Y-312000D02*
X139500D01*
X138000Y-313500D02*
Y-310500D01*
X135500Y-324000D02*
X138500D01*
X137000Y-325500D02*
Y-322500D01*
X192500Y-141000D02*
X195500D01*
X194000Y-142500D02*
Y-139500D01*
X786000Y-727500D02*
X789000D01*
X787500Y-729000D02*
Y-726000D01*
X568500Y-720000D02*
X571500D01*
X570000Y-721500D02*
Y-718500D01*
X241000Y-742500D02*
X244000D01*
X242500Y-744000D02*
Y-741000D01*
X268500Y-735000D02*
X271500D01*
X270000Y-736500D02*
Y-733500D01*
X293500Y-727500D02*
X296500D01*
X295000Y-729000D02*
Y-726000D01*
X318500Y-720000D02*
X321500D01*
X320000Y-721500D02*
Y-718500D01*
X343500Y-712500D02*
X346500D01*
X345000Y-714000D02*
Y-711000D01*
X496000Y-742500D02*
X499000D01*
X497500Y-744000D02*
Y-741000D01*
X518500Y-735000D02*
X521500D01*
X520000Y-736500D02*
Y-733500D01*
X543500Y-727500D02*
X546500D01*
X545000Y-729000D02*
Y-726000D01*
X758500Y-735000D02*
X761500D01*
X760000Y-736500D02*
Y-733500D01*
X733500Y-742500D02*
X736500D01*
X735000Y-744000D02*
Y-741000D01*
X808500Y-720000D02*
X811500D01*
X810000Y-721500D02*
Y-718500D01*
X593500Y-712500D02*
X596500D01*
X595000Y-714000D02*
Y-711000D01*
X833500Y-712500D02*
X836500D01*
X835000Y-714000D02*
Y-711000D01*
M02*
