G04*
G04 #@! TF.GenerationSoftware,Altium Limited,Altium Designer,25.3.3 (18)*
G04*
G04 Layer_Color=32896*
%FSLAX44Y44*%
%MOMM*%
G71*
G04*
G04 #@! TF.SameCoordinates,017A41BD-DD39-4079-982F-C60C01D90CF4*
G04*
G04*
G04 #@! TF.FilePolarity,Positive*
G04*
G01*
G75*
%ADD10C,0.2540*%
G36*
X680324Y-138822D02*
X681269Y-138908D01*
X681527Y-138994D01*
X683676Y-139080D01*
X683934Y-139166D01*
X686040Y-139123D01*
X686814Y-139209D01*
X687373Y-139338D01*
X688060Y-139510D01*
X688619Y-140069D01*
X688705Y-140241D01*
X689436Y-140627D01*
X690123Y-140713D01*
X690467Y-140799D01*
X691069Y-141057D01*
X691499Y-141229D01*
X691671Y-141401D01*
X692100Y-141659D01*
X692229Y-141788D01*
X692487Y-142476D01*
X693046Y-142690D01*
X693304Y-142776D01*
X695281Y-142862D01*
X695625Y-142948D01*
X695882Y-142862D01*
X696785Y-142905D01*
X697258Y-143034D01*
X697473Y-143249D01*
X697430Y-143378D01*
X697000Y-143636D01*
X696871Y-143851D01*
X696914Y-143980D01*
X697215Y-144109D01*
X700395Y-144195D01*
X702201Y-144281D01*
X702630Y-144367D01*
X704049Y-144496D01*
X704650Y-144582D01*
X705037Y-144711D01*
X705553Y-144796D01*
X706284Y-144925D01*
X706885Y-145183D01*
X707401Y-145269D01*
X707745Y-145355D01*
X708347Y-145613D01*
X708690Y-145699D01*
X709636Y-146129D01*
X710238Y-146387D01*
X710668Y-146559D01*
X710926Y-146645D01*
X711355Y-146903D01*
X712043Y-147074D01*
X712903Y-147332D01*
X713504Y-147504D01*
X713676Y-147676D01*
X713934Y-147762D01*
X714880Y-148364D01*
X715481Y-148708D01*
X715524Y-148837D01*
X716255Y-149223D01*
X717373Y-149825D01*
X717716Y-149911D01*
X718189Y-150126D01*
X718834Y-150255D01*
X719951Y-150685D01*
X720295Y-150771D01*
X720768Y-150986D01*
X721241Y-151115D01*
X721671Y-151372D01*
X721928Y-151458D01*
X722874Y-151888D01*
X723476Y-152146D01*
X723905Y-152318D01*
X724249Y-152404D01*
X724722Y-152619D01*
X725281Y-152748D01*
X725453Y-152920D01*
X725882Y-153607D01*
X726183Y-153822D01*
X726656Y-153951D01*
X727000Y-154037D01*
X727430Y-154295D01*
X727774Y-154381D01*
X728289Y-154725D01*
X728633Y-154811D01*
X728891Y-155069D01*
X729063Y-155155D01*
X729493Y-155327D01*
X729665Y-155499D01*
X730266Y-155842D01*
X731384Y-156444D01*
X731642Y-156530D01*
X731986Y-156444D01*
X732329Y-156530D01*
X732373Y-156659D01*
X733705Y-157991D01*
X733877Y-158077D01*
X734393Y-158421D01*
X734822Y-158507D01*
X735209Y-158636D01*
X735725Y-158980D01*
X736198Y-159367D01*
X736370Y-159453D01*
X736499Y-159668D01*
X737100Y-160441D01*
X737530Y-161215D01*
X737444Y-161301D01*
X737487Y-161688D01*
X737745Y-161774D01*
X738347Y-161688D01*
X738605Y-161774D01*
X738776Y-161860D01*
X739077Y-162418D01*
X739378Y-162547D01*
X739808Y-162289D01*
X740195Y-162332D01*
X740281Y-162848D01*
X740367Y-163106D01*
X740711Y-163708D01*
X740968Y-163966D01*
X741054Y-164137D01*
X741226Y-164309D01*
X741312Y-164481D01*
X741527Y-164696D01*
X741699Y-164782D01*
X741742Y-164911D01*
X742559Y-165728D01*
X742989Y-165986D01*
X743246Y-166243D01*
X743418Y-166329D01*
X744020Y-166501D01*
X744063Y-167232D01*
X744235Y-167662D01*
X744321Y-167834D01*
X744536Y-168221D01*
X744708Y-168307D01*
X745137Y-168736D01*
X745438Y-168865D01*
X746341Y-168822D01*
X746384Y-169037D01*
X746126Y-169467D01*
X746169Y-169596D01*
X746427Y-169682D01*
X746685Y-169596D01*
X747201Y-169510D01*
X747329Y-169639D01*
X747072Y-170241D01*
X746986Y-170499D01*
X747201Y-170885D01*
X747373Y-170971D01*
X747544Y-171143D01*
X747716Y-171229D01*
X748060Y-171315D01*
X748318Y-171229D01*
X748920Y-171143D01*
X748963Y-171272D01*
X748877Y-171616D01*
X748533Y-171960D01*
X748576Y-172175D01*
X749092Y-172261D01*
X749650Y-172562D01*
X749736Y-172733D01*
X749865Y-172862D01*
X750037Y-172948D01*
X750166Y-173163D01*
X750252Y-173335D01*
X750381Y-173378D01*
X750553Y-173636D01*
X750725Y-173722D01*
X751069Y-174066D01*
X751241Y-174152D01*
X751671Y-174582D01*
X751842Y-174668D01*
X752014Y-174839D01*
X752358Y-174925D01*
X752487Y-174797D01*
X752315Y-174453D01*
X752616Y-173894D01*
X752960Y-173808D01*
X753003Y-174109D01*
X752917Y-174453D01*
X753089Y-174883D01*
X753390Y-175183D01*
X753519Y-175656D01*
X753433Y-175914D01*
X753476Y-176473D01*
X753863Y-176945D01*
X753948Y-177118D01*
X754120Y-177289D01*
X754378Y-177719D01*
X754550Y-177891D01*
X754636Y-178063D01*
X754808Y-178493D01*
X755023Y-178794D01*
X755109Y-179137D01*
X755238Y-179696D01*
X755410Y-179868D01*
X755496Y-180212D01*
X755926Y-180470D01*
X756441Y-180814D01*
X756699Y-181243D01*
X756785Y-182877D01*
X756957Y-183049D01*
X757473Y-183307D01*
X757559Y-183908D01*
X757645Y-184252D01*
X758160Y-184768D01*
X758676Y-185627D01*
X758848Y-186057D01*
X759149Y-186788D01*
X759278Y-187261D01*
X759493Y-187819D01*
X759622Y-188292D01*
X759708Y-188636D01*
X759966Y-189238D01*
X760052Y-189582D01*
X760438Y-190484D01*
X760567Y-191043D01*
X760696Y-191172D01*
X760911Y-191731D01*
X761255Y-192504D01*
X761341Y-192848D01*
X761642Y-193407D01*
X761771Y-193966D01*
X762072Y-194352D01*
X762201Y-194911D01*
X762458Y-195169D01*
X762544Y-195513D01*
X762802Y-195943D01*
X762888Y-196115D01*
X762974Y-196458D01*
X763232Y-196888D01*
X763318Y-197060D01*
X763490Y-197662D01*
X763662Y-197834D01*
X763748Y-198178D01*
X764178Y-199123D01*
X764264Y-199467D01*
X764479Y-199854D01*
X764607Y-200327D01*
X764908Y-201057D01*
X765037Y-201702D01*
X765166Y-202175D01*
X765467Y-202991D01*
X765811Y-203507D01*
X765897Y-203679D01*
X766155Y-203937D01*
X766284Y-204668D01*
X766370Y-205441D01*
X766456Y-205785D01*
X766542Y-206215D01*
X766671Y-206688D01*
X766971Y-206903D01*
X767100Y-207375D01*
X767186Y-207633D01*
X767272Y-207977D01*
X767358Y-208235D01*
X767444Y-209009D01*
X767530Y-210126D01*
X767745Y-210685D01*
X768046Y-211501D01*
X768175Y-211630D01*
X768390Y-212189D01*
X768605Y-212404D01*
X768734Y-212877D01*
X768905Y-213307D01*
X768991Y-213564D01*
X769077Y-214080D01*
X768905Y-214510D01*
X768948Y-214897D01*
X769378Y-215069D01*
X769507Y-215198D01*
X769593Y-216229D01*
X769722Y-216616D01*
X769894Y-216702D01*
X770238Y-216616D01*
X770410Y-216444D01*
X770668Y-216358D01*
X770711Y-216487D01*
X770625Y-216745D01*
X770539Y-217089D01*
X770453Y-217691D01*
X770367Y-217948D01*
X770410Y-218937D01*
X771097Y-219023D01*
X771226Y-219238D01*
X771312Y-219839D01*
X771656Y-220957D01*
X772000Y-221301D01*
X772344Y-221903D01*
X772473Y-223321D01*
X772731Y-223407D01*
X772860Y-223278D01*
X772946Y-223106D01*
X773160Y-222891D01*
X773418Y-222805D01*
X773633Y-223020D01*
X773547Y-223536D01*
X773633Y-223880D01*
X773934Y-223923D01*
X774149Y-223450D01*
X774278Y-223321D01*
X774493Y-223364D01*
X774579Y-223966D01*
X774407Y-224653D01*
X774149Y-224911D01*
X773934Y-225212D01*
X773762Y-225642D01*
X773418Y-225728D01*
X773289Y-225599D01*
X773203Y-225427D01*
X772817Y-225040D01*
X772516Y-224825D01*
X772430Y-224653D01*
X772301Y-224524D01*
X772129Y-224438D01*
X772043Y-224266D01*
X771742Y-224051D01*
X771656Y-223880D01*
X771312Y-223536D01*
X771226Y-223364D01*
X770668Y-222805D01*
X770281Y-222332D01*
X770195Y-222160D01*
X770023Y-221989D01*
X769937Y-221817D01*
X769679Y-221559D01*
X769593Y-221387D01*
X769206Y-220828D01*
X769077Y-220355D01*
X768863Y-220140D01*
X768734Y-219668D01*
X768390Y-218894D01*
X768304Y-218378D01*
X767960Y-217605D01*
X767874Y-217003D01*
X767659Y-216444D01*
X767358Y-215112D01*
X767143Y-214639D01*
X767014Y-213822D01*
X766799Y-213264D01*
X766713Y-212920D01*
X766542Y-212060D01*
X766370Y-211630D01*
X766241Y-210986D01*
X766155Y-210642D01*
X765811Y-209524D01*
X765725Y-208923D01*
X765553Y-208493D01*
X765467Y-208063D01*
X765381Y-207719D01*
X765080Y-206731D01*
X764951Y-206000D01*
X764693Y-205398D01*
X764607Y-204883D01*
X764479Y-204410D01*
X764307Y-203980D01*
X764178Y-203421D01*
X764092Y-203077D01*
X763877Y-202605D01*
X763748Y-202046D01*
X763662Y-201702D01*
X763404Y-201100D01*
X763232Y-200413D01*
X763017Y-200026D01*
X762888Y-199467D01*
X762802Y-199123D01*
X762630Y-198951D01*
X762458Y-198264D01*
X762201Y-197834D01*
X762115Y-197404D01*
X761943Y-196974D01*
X761814Y-196845D01*
X761685Y-196373D01*
X761341Y-195599D01*
X760911Y-194653D01*
X760825Y-194309D01*
X760567Y-193880D01*
X760481Y-193450D01*
X760095Y-192805D01*
X759966Y-192246D01*
X759708Y-191989D01*
X759536Y-191301D01*
X759364Y-191129D01*
X759278Y-190957D01*
X757989Y-188120D01*
X757817Y-187691D01*
X757645Y-187519D01*
X757559Y-187175D01*
X757387Y-186745D01*
X757258Y-186616D01*
X757129Y-186143D01*
X756914Y-185928D01*
X756699Y-185370D01*
X756613Y-185112D01*
X756355Y-184682D01*
X756183Y-184252D01*
X755926Y-183822D01*
X755839Y-183479D01*
X755668Y-183307D01*
X755496Y-182877D01*
X755410Y-182533D01*
X755238Y-182361D01*
X755152Y-182189D01*
X754980Y-181759D01*
X754550Y-180986D01*
X754335Y-180685D01*
X754206Y-180212D01*
X753991Y-179997D01*
X753776Y-179438D01*
X753519Y-179181D01*
X753433Y-178837D01*
X753175Y-178579D01*
X753089Y-178321D01*
X752487Y-177461D01*
X752186Y-176989D01*
X751799Y-176516D01*
X751713Y-176344D01*
X751584Y-176301D01*
X751456Y-176172D01*
X751370Y-176000D01*
X750983Y-175613D01*
X750811Y-175527D01*
X750166Y-174883D01*
X750080Y-174711D01*
X749865Y-174582D01*
X749693Y-174496D01*
X749006Y-173808D01*
X748834Y-173722D01*
X748404Y-173292D01*
X748232Y-173206D01*
X748146Y-173034D01*
X747974Y-172948D01*
X747630Y-172605D01*
X747458Y-172519D01*
X747201Y-172175D01*
X747029Y-172089D01*
X746857Y-171917D01*
X746556Y-171702D01*
X746341Y-171401D01*
X746169Y-171315D01*
X745825Y-170971D01*
X745653Y-170885D01*
X744966Y-170198D01*
X744794Y-170112D01*
X744321Y-169639D01*
X743848Y-169252D01*
X743676Y-169166D01*
X743633Y-169037D01*
X743418Y-168822D01*
X743246Y-168736D01*
X743203Y-168607D01*
X743074Y-168479D01*
X742903Y-168393D01*
X742559Y-168049D01*
X742387Y-167963D01*
X742344Y-167834D01*
X742129Y-167619D01*
X741957Y-167533D01*
X741355Y-166931D01*
X741183Y-166845D01*
X741054Y-166716D01*
X740968Y-166544D01*
X740582Y-166329D01*
X739894Y-165642D01*
X739722Y-165556D01*
X738948Y-164782D01*
X738776Y-164696D01*
X738003Y-163923D01*
X737831Y-163837D01*
X737358Y-163364D01*
X736885Y-162977D01*
X736713Y-162891D01*
X736198Y-162375D01*
X736026Y-162289D01*
X735338Y-161602D01*
X735166Y-161516D01*
X734736Y-161086D01*
X734565Y-161000D01*
X734307Y-160742D01*
X733877Y-160484D01*
X733533Y-160140D01*
X733361Y-160054D01*
X733017Y-159711D01*
X732845Y-159625D01*
X732802Y-159496D01*
X732373Y-159238D01*
X731900Y-158851D01*
X731728Y-158765D01*
X731556Y-158593D01*
X731384Y-158507D01*
X731126Y-158249D01*
X730954Y-158163D01*
X730352Y-157733D01*
X730095Y-157647D01*
X729923Y-157476D01*
X729321Y-157132D01*
X728891Y-156874D01*
X728547Y-156788D01*
X728289Y-156530D01*
X727946Y-156444D01*
X727516Y-156272D01*
X727387Y-156143D01*
X726914Y-156014D01*
X726312Y-155756D01*
X726054Y-155670D01*
X725109Y-155241D01*
X724593Y-155155D01*
X724421Y-154983D01*
X723991Y-154811D01*
X723218Y-154467D01*
X722702Y-154381D01*
X722186Y-154037D01*
X721499Y-153865D01*
X721370Y-153736D01*
X720811Y-153521D01*
X720209Y-153264D01*
X719779Y-153092D01*
X719006Y-152748D01*
X718662Y-152662D01*
X718533Y-152533D01*
X717974Y-152318D01*
X717373Y-152060D01*
X716943Y-151888D01*
X716169Y-151544D01*
X715567Y-151286D01*
X715137Y-151115D01*
X714192Y-150685D01*
X713590Y-150427D01*
X713160Y-150255D01*
X712817Y-150169D01*
X712688Y-150040D01*
X712129Y-149825D01*
X711355Y-149481D01*
X710410Y-149052D01*
X709808Y-148880D01*
X709636Y-148708D01*
X709206Y-148622D01*
X708776Y-148450D01*
X708648Y-148321D01*
X708175Y-148192D01*
X707057Y-147762D01*
X706327Y-147461D01*
X705768Y-147332D01*
X705295Y-147203D01*
X704865Y-147031D01*
X704049Y-146903D01*
X703490Y-146688D01*
X702974Y-146602D01*
X701728Y-146473D01*
X701341Y-146344D01*
X700567Y-146258D01*
X699536Y-146172D01*
X698418Y-146086D01*
X697387Y-146000D01*
X696742Y-145871D01*
X696398Y-145785D01*
X695539Y-145699D01*
X694937Y-145613D01*
X694507Y-145441D01*
X693734Y-145269D01*
X692960Y-144925D01*
X692057Y-144539D01*
X691584Y-144410D01*
X691413Y-144238D01*
X689951Y-143464D01*
X688834Y-142862D01*
X688318Y-142519D01*
X688146Y-142433D01*
X687716Y-142261D01*
X687287Y-142003D01*
X686943Y-141917D01*
X686685Y-141659D01*
X686169Y-141573D01*
X685653Y-141229D01*
X685137Y-141143D01*
X684536Y-140885D01*
X684020Y-140799D01*
X683762Y-140713D01*
X680367Y-140756D01*
X678991Y-140842D01*
X678261Y-140971D01*
X677788Y-141100D01*
X676842Y-141186D01*
X675983Y-141272D01*
X675424Y-141401D01*
X675166Y-141487D01*
X674307Y-141573D01*
X671986Y-142003D01*
X671126Y-142089D01*
X670739Y-142218D01*
X669708Y-142390D01*
X668805Y-142519D01*
X668203Y-142690D01*
X667860Y-142776D01*
X666656Y-142948D01*
X666183Y-143077D01*
X665839Y-143163D01*
X664722Y-143335D01*
X664034Y-143507D01*
X663476Y-143636D01*
X662874Y-143722D01*
X662272Y-143894D01*
X662014Y-143980D01*
X661241Y-144066D01*
X660553Y-144238D01*
X660123Y-144410D01*
X659350Y-144496D01*
X659006Y-144582D01*
X658619Y-144711D01*
X658146Y-144839D01*
X657544Y-144925D01*
X657201Y-145011D01*
X656728Y-145140D01*
X656384Y-145226D01*
X655567Y-145355D01*
X654450Y-145699D01*
X654321Y-145828D01*
X651828Y-150728D01*
X651484Y-151329D01*
X651226Y-151587D01*
X651140Y-151759D01*
X649808Y-153092D01*
X649636Y-153178D01*
X649292Y-153521D01*
X649120Y-153607D01*
X648863Y-153865D01*
X648690Y-153951D01*
X648433Y-154209D01*
X648003Y-154467D01*
X647745Y-154725D01*
X647573Y-154811D01*
X647401Y-154983D01*
X646971Y-155241D01*
X646799Y-155413D01*
X646370Y-155670D01*
X646112Y-155928D01*
X645940Y-156014D01*
X645768Y-156186D01*
X645338Y-156444D01*
X645166Y-156616D01*
X644565Y-156960D01*
X644479Y-157132D01*
X644307Y-157218D01*
X643361Y-157819D01*
X641556Y-159109D01*
X641126Y-159367D01*
X640954Y-159539D01*
X640524Y-159796D01*
X640266Y-160054D01*
X640095Y-160140D01*
X639579Y-160484D01*
X639407Y-160570D01*
X639149Y-160828D01*
X638977Y-160914D01*
X638032Y-161516D01*
X637430Y-161945D01*
X637000Y-162203D01*
X636828Y-162375D01*
X636355Y-162676D01*
X635539Y-163235D01*
X635109Y-163493D01*
X634937Y-163665D01*
X634636Y-163880D01*
X633820Y-164438D01*
X633218Y-164868D01*
X632788Y-165126D01*
X632444Y-165470D01*
X632272Y-165556D01*
X632100Y-165728D01*
X631670Y-165986D01*
X631413Y-166243D01*
X631241Y-166329D01*
X631069Y-166501D01*
X630639Y-166759D01*
X630510Y-166888D01*
X630424Y-167060D01*
X630209Y-167189D01*
X630037Y-167275D01*
X629779Y-167533D01*
X629608Y-167619D01*
X629264Y-167963D01*
X629092Y-168049D01*
X628748Y-168393D01*
X628576Y-168479D01*
X628404Y-168736D01*
X628232Y-168822D01*
X627802Y-169252D01*
X627630Y-169338D01*
X627587Y-169467D01*
X627458Y-169596D01*
X627286Y-169682D01*
X627201Y-169854D01*
X626900Y-170069D01*
X626814Y-170241D01*
X626685Y-170370D01*
X626513Y-170456D01*
X626341Y-170714D01*
X626040Y-170928D01*
X625954Y-171100D01*
X625696Y-171358D01*
X625610Y-171530D01*
X625481Y-171659D01*
X625309Y-171745D01*
X625095Y-172132D01*
X624837Y-172390D01*
X624751Y-172562D01*
X624579Y-172733D01*
X624321Y-173163D01*
X624063Y-173421D01*
X623977Y-173593D01*
X623590Y-174238D01*
X623375Y-174797D01*
X623203Y-174968D01*
X623117Y-175226D01*
X622946Y-175656D01*
X622516Y-176430D01*
X622258Y-176860D01*
X622043Y-177075D01*
X621742Y-177203D01*
X621527Y-177160D01*
X621312Y-176860D01*
X621226Y-176688D01*
X621097Y-176559D01*
X620969Y-176000D01*
X620711Y-175570D01*
X620625Y-175054D01*
X620539Y-174711D01*
X620281Y-174109D01*
X620195Y-173077D01*
X620324Y-172948D01*
X620496Y-172862D01*
X620840Y-172948D01*
X621613Y-173722D01*
X621785Y-173808D01*
X622043Y-174066D01*
X622473Y-174238D01*
X622817Y-174152D01*
X623032Y-173851D01*
X623117Y-172905D01*
X622903Y-172691D01*
X622860Y-172733D01*
X622774Y-172905D01*
X622645Y-173292D01*
X622301Y-173378D01*
X622172Y-173249D01*
X622086Y-172819D01*
X622258Y-172390D01*
X622559Y-172089D01*
X622731Y-172003D01*
X622903Y-171831D01*
X623762Y-171745D01*
X624321Y-171186D01*
X624407Y-171014D01*
X624536Y-170885D01*
X624708Y-170456D01*
X624665Y-169295D01*
X624966Y-168994D01*
X625395Y-168908D01*
X625438Y-169037D01*
X625266Y-169209D01*
X625181Y-169553D01*
X625395Y-169768D01*
X625610Y-169639D01*
X626083Y-169252D01*
X626255Y-169166D01*
X626298Y-169037D01*
X626513Y-168822D01*
X626685Y-168736D01*
X626728Y-168607D01*
X627158Y-168178D01*
X627244Y-168006D01*
X628275Y-166974D01*
X628748Y-166587D01*
X629178Y-166329D01*
X629478Y-166029D01*
X630295Y-165900D01*
X630338Y-165599D01*
X629822Y-165255D01*
X629736Y-164911D01*
X629951Y-164696D01*
X630811Y-164610D01*
X630940Y-164739D01*
X631026Y-164911D01*
X631155Y-165040D01*
X631585Y-165126D01*
X631799Y-164911D01*
X631756Y-163751D01*
X631799Y-163278D01*
X631971Y-163106D01*
X632444Y-162719D01*
X632573Y-162848D01*
X632487Y-164052D01*
X632702Y-164266D01*
X632917Y-164223D01*
X633132Y-163923D01*
X633304Y-163493D01*
X633433Y-162934D01*
X633605Y-162762D01*
X633862Y-162332D01*
X635109Y-161086D01*
X635281Y-161000D01*
X635539Y-160742D01*
X636570Y-160484D01*
X636828Y-160226D01*
X637000Y-160140D01*
X637172Y-159882D01*
X637344Y-159796D01*
X637516Y-159625D01*
X638117Y-159281D01*
X638633Y-158937D01*
X639751Y-158765D01*
X639880Y-158636D01*
X640223Y-158034D01*
X641126Y-158077D01*
X641513Y-157605D01*
X641599Y-157003D01*
X641986Y-156616D01*
X642158Y-156530D01*
X642287Y-156401D01*
X642373Y-156229D01*
X642287Y-155971D01*
X642201Y-155799D01*
X642329Y-155670D01*
X642759Y-155584D01*
X643103Y-155670D01*
X643275Y-155842D01*
X643576Y-156057D01*
X643662Y-156229D01*
X643963Y-156444D01*
X644092Y-156401D01*
X644178Y-156143D01*
X644092Y-155885D01*
X644178Y-155541D01*
X644307Y-155413D01*
X644479Y-155327D01*
X644822Y-155241D01*
X644951Y-155112D01*
X645037Y-154424D01*
X645209Y-154252D01*
X645295Y-154080D01*
X645768Y-153607D01*
X645940Y-153521D01*
X646198Y-153264D01*
X647401Y-152576D01*
X648003Y-152146D01*
X648433Y-151888D01*
X648690Y-151630D01*
X648863Y-151544D01*
X649292Y-151115D01*
X649464Y-151029D01*
X649765Y-150728D01*
X649851Y-150556D01*
X650023Y-150384D01*
X650453Y-149782D01*
X650539Y-148579D01*
X650754Y-148106D01*
X651097Y-148020D01*
X651140Y-148407D01*
X651355Y-148622D01*
X651570Y-148407D01*
X651656Y-148235D01*
X651828Y-148149D01*
X652129Y-147504D01*
X652086Y-146602D01*
X652172Y-146344D01*
X652258Y-146172D01*
X652430Y-146000D01*
X652516Y-145828D01*
X652989Y-145699D01*
X653203Y-145312D01*
X653289Y-144969D01*
X653118Y-144281D01*
X653289Y-144109D01*
X653504Y-144152D01*
X653762Y-144410D01*
X653934Y-144496D01*
X654278Y-144582D01*
X654536Y-144668D01*
X655137Y-144582D01*
X655395Y-144496D01*
X655653D01*
X655954Y-144195D01*
X656083Y-143550D01*
X656255Y-143464D01*
X656513Y-143550D01*
X657201Y-143636D01*
X657373Y-143464D01*
X657974Y-143120D01*
X658662Y-143206D01*
X658920Y-143292D01*
X659264Y-143206D01*
X659307Y-142905D01*
X659135Y-142733D01*
X659049Y-142476D01*
X659521Y-142003D01*
X659693Y-141917D01*
X659951Y-141659D01*
X660123Y-141573D01*
X660725Y-141315D01*
X661327Y-141229D01*
X661713Y-141358D01*
X662143Y-141530D01*
X662444Y-141487D01*
X662874Y-141315D01*
X663218Y-141229D01*
X663776Y-141014D01*
X664206Y-140842D01*
X664937Y-140713D01*
X665367Y-140541D01*
X666054Y-140456D01*
X666312Y-140370D01*
X668547Y-140284D01*
X668805Y-140198D01*
X669407Y-140112D01*
X669665Y-140198D01*
X669751Y-140112D01*
X671599Y-139983D01*
X673619Y-139854D01*
X674092Y-139725D01*
X674178Y-139467D01*
X674264Y-139123D01*
X674650Y-139080D01*
X674908Y-139424D01*
X675338Y-139510D01*
X675682Y-139424D01*
X676155Y-139209D01*
X677100Y-139037D01*
X677530Y-138951D01*
X678261Y-138822D01*
X678605Y-138736D01*
X678948Y-138822D01*
X680066Y-138736D01*
X680324Y-138822D01*
D02*
G37*
G36*
X655095Y-143507D02*
X655181Y-143679D01*
Y-143765D01*
X655052Y-143894D01*
X654923Y-143851D01*
X654837Y-143593D01*
X654966Y-143464D01*
X655095Y-143507D01*
D02*
G37*
G36*
X599350Y-151115D02*
X599521Y-151286D01*
X599693Y-151372D01*
X600123Y-151802D01*
X600295Y-151888D01*
X600424Y-152103D01*
X600381Y-152404D01*
X600338Y-152361D01*
X599994Y-152275D01*
X599908Y-152103D01*
X599436Y-151802D01*
X598834Y-151458D01*
X598791Y-151415D01*
Y-151158D01*
X599006Y-151029D01*
X599350Y-151115D01*
D02*
G37*
G36*
X602272Y-153521D02*
X602530Y-153779D01*
X602702Y-153865D01*
X602745Y-153994D01*
X603003Y-154252D01*
X603261Y-154682D01*
X603046Y-154897D01*
X602358Y-154553D01*
X601971Y-154166D01*
X601928Y-154123D01*
X601628Y-153736D01*
X601670Y-153435D01*
X601842Y-153350D01*
X602272Y-153521D01*
D02*
G37*
G36*
X604464Y-155714D02*
X604550Y-156229D01*
X604421Y-156358D01*
X604120Y-156315D01*
X604077Y-156272D01*
X603905Y-156186D01*
X603605Y-155799D01*
X603733Y-155584D01*
X604249Y-155499D01*
X604464Y-155714D01*
D02*
G37*
G36*
X607645Y-158206D02*
X607731Y-158550D01*
X607430Y-158765D01*
X607172Y-158679D01*
X607043Y-158378D01*
X607172Y-158249D01*
X607602Y-158163D01*
X607645Y-158206D01*
D02*
G37*
G36*
X609278Y-160355D02*
X609364Y-160699D01*
X609235Y-160742D01*
X608805Y-160570D01*
X608676Y-160441D01*
X608590Y-160097D01*
X608805Y-159882D01*
X608891D01*
X609278Y-160355D01*
D02*
G37*
G36*
X613404Y-164052D02*
X613361Y-164095D01*
X613017Y-164181D01*
X612974Y-163966D01*
X613103Y-163923D01*
X613275D01*
X613404Y-164052D01*
D02*
G37*
G36*
X617616Y-168178D02*
X617702Y-168435D01*
X617573Y-168564D01*
X617444Y-168521D01*
X617358Y-168349D01*
Y-168264D01*
X617487Y-168135D01*
X617616Y-168178D01*
D02*
G37*
G36*
X749307Y-169553D02*
X749135Y-169725D01*
X749092Y-169768D01*
X749006D01*
X748963Y-169897D01*
X748834Y-170026D01*
X748662Y-170112D01*
X748318Y-170456D01*
X748017Y-170413D01*
X748103Y-170155D01*
X748361Y-169983D01*
X748447Y-169811D01*
X748576Y-169682D01*
X748748Y-169596D01*
X748791Y-169467D01*
X748920Y-169338D01*
X749264Y-169252D01*
X749307Y-169553D01*
D02*
G37*
G36*
X623891Y-170499D02*
Y-170756D01*
X623762Y-170885D01*
X623547Y-170842D01*
X623461Y-170499D01*
X623848Y-170456D01*
X623891Y-170499D01*
D02*
G37*
G36*
X617616Y-183650D02*
X617702Y-183994D01*
X617444Y-184252D01*
X617358Y-184424D01*
X617057Y-184553D01*
X616842Y-184338D01*
X616928Y-184080D01*
X617315Y-183693D01*
X617487Y-183607D01*
X617573D01*
X617616Y-183650D01*
D02*
G37*
G36*
X616026Y-186272D02*
X616069Y-186487D01*
Y-186573D01*
Y-186659D01*
X615768Y-186702D01*
X615725Y-186487D01*
X615811Y-186229D01*
X616026Y-186272D01*
D02*
G37*
G36*
X613920Y-190871D02*
X614006Y-191473D01*
X613791Y-191602D01*
X613576Y-191473D01*
X613533Y-191430D01*
X613490Y-191301D01*
X613576Y-190957D01*
X613705Y-190828D01*
X613920Y-190871D01*
D02*
G37*
G36*
X612630Y-195513D02*
X612716Y-196544D01*
X612630Y-196802D01*
X612416Y-196759D01*
X612373Y-196544D01*
Y-196458D01*
Y-195857D01*
X612501Y-195470D01*
X612630Y-195513D01*
D02*
G37*
G36*
X612373Y-199811D02*
X612329Y-200284D01*
X612158Y-200370D01*
X612072D01*
X611943Y-200241D01*
X611857Y-199811D01*
X611986Y-199682D01*
X612244Y-199596D01*
X612373Y-199811D01*
D02*
G37*
G36*
X611685Y-201530D02*
X611728Y-201573D01*
X611771Y-201616D01*
X611728Y-202089D01*
X611556Y-202175D01*
X611341Y-201960D01*
X611255Y-201702D01*
X611470Y-201487D01*
X611685Y-201530D01*
D02*
G37*
G36*
X610653Y-208493D02*
X610739Y-209009D01*
X610610Y-209137D01*
X610309Y-209095D01*
X610224Y-208579D01*
X610352Y-208450D01*
X610438D01*
X610653Y-208493D01*
D02*
G37*
G36*
X713246Y-219539D02*
X724464Y-219496D01*
X725195Y-219539D01*
X731986Y-219625D01*
X732931D01*
X733189Y-219711D01*
X735080Y-219797D01*
X735338Y-219711D01*
X735381Y-219754D01*
X735725Y-219839D01*
X737358Y-219925D01*
X739980Y-220054D01*
X740582Y-220140D01*
X740926Y-220226D01*
X741183Y-220140D01*
X741226Y-220183D01*
X741742Y-220269D01*
X744063Y-220441D01*
X744923Y-220527D01*
X745696Y-220613D01*
X746040Y-220699D01*
X746900Y-220785D01*
X748275Y-220871D01*
X748619Y-220957D01*
X749307Y-221043D01*
X749822Y-221129D01*
X750682Y-221215D01*
X751713Y-221301D01*
X752358Y-221430D01*
X752831Y-221559D01*
X753863Y-221645D01*
X754636Y-221731D01*
X754980Y-221817D01*
X755839Y-221989D01*
X756785Y-222075D01*
X757602Y-222203D01*
X757989Y-222332D01*
X758332Y-222418D01*
X759278Y-222504D01*
X759708Y-222590D01*
X760052Y-222676D01*
X761040Y-222891D01*
X761642Y-222977D01*
X762373Y-223192D01*
X763275Y-223321D01*
X764393Y-223665D01*
X764994Y-223751D01*
X765596Y-224009D01*
X766112Y-224095D01*
X766885Y-224438D01*
X767487Y-224696D01*
X767917Y-224954D01*
X767960Y-225083D01*
X768218Y-225341D01*
X768304Y-225599D01*
X768003Y-225642D01*
X767831Y-225470D01*
X767659Y-225384D01*
X767229Y-225212D01*
X766928Y-225083D01*
X766456Y-224954D01*
X765854Y-224782D01*
X765381Y-224653D01*
X765037Y-224567D01*
X764521Y-224481D01*
X763705Y-224352D01*
X763275Y-224181D01*
X762587Y-224095D01*
X761126Y-223923D01*
X760696Y-223751D01*
X758375Y-223665D01*
X758118Y-223579D01*
X757000Y-223493D01*
X756656Y-223407D01*
X756398Y-223321D01*
X754722Y-223364D01*
X754249Y-223321D01*
X753991Y-223235D01*
X753734Y-223321D01*
X752831Y-223278D01*
X751885Y-223192D01*
X751327Y-223063D01*
X750467Y-222805D01*
X750123Y-222891D01*
X749951Y-223063D01*
X749693Y-223579D01*
X747802Y-223665D01*
X747115Y-223493D01*
X746728Y-223364D01*
X745825Y-223235D01*
X745223Y-222977D01*
X744622Y-222891D01*
X744063Y-222676D01*
X743633Y-222504D01*
X742645Y-222375D01*
X742301Y-222461D01*
X741957Y-222375D01*
X741785Y-222118D01*
X741613Y-222031D01*
X741570Y-221903D01*
X741355Y-221688D01*
X740839Y-221602D01*
X740711Y-221731D01*
X740625Y-221903D01*
X740324Y-222203D01*
X739980Y-222289D01*
X739851Y-221817D01*
X739722Y-221688D01*
X739378Y-221602D01*
X739120Y-221516D01*
X738690Y-221602D01*
X736026Y-221688D01*
X735553Y-221817D01*
X734865Y-221903D01*
X734092Y-221989D01*
X732243Y-222118D01*
X731986Y-222203D01*
X731126Y-222289D01*
X730868Y-222375D01*
X728719Y-222461D01*
X728375Y-222375D01*
X728246Y-222246D01*
X728160Y-221903D01*
X728031Y-221774D01*
X726914Y-221688D01*
X726656Y-221774D01*
X725968Y-221860D01*
X725367Y-221945D01*
X725023Y-222031D01*
X724808Y-222246D01*
X724851Y-222289D01*
X725152Y-222418D01*
X726183Y-222504D01*
X726871Y-222590D01*
X727301Y-222676D01*
X727774Y-222805D01*
X728160Y-222934D01*
X728246Y-228865D01*
X728160Y-229209D01*
X727860Y-229424D01*
X727473Y-229381D01*
X727043Y-229295D01*
X726355Y-229209D01*
X725797Y-229080D01*
X725453Y-228994D01*
X725195Y-228908D01*
X724593Y-228564D01*
X724034Y-228006D01*
X723605Y-227404D01*
X723347Y-226974D01*
X723261Y-226630D01*
X723003Y-226029D01*
X722917Y-223622D01*
X722745Y-223020D01*
X722573Y-222934D01*
X722057Y-222590D01*
X721370Y-222504D01*
X718834Y-222375D01*
X718232Y-222547D01*
X718017Y-222848D01*
X717931Y-224395D01*
X717587Y-225169D01*
X717029Y-225728D01*
X716771Y-225814D01*
X716513Y-226072D01*
X714966Y-226158D01*
X714708Y-226072D01*
X714536Y-225986D01*
X714364Y-225814D01*
X714020Y-225728D01*
X713805Y-225341D01*
X713504Y-225040D01*
X713375Y-224567D01*
X713160Y-224095D01*
X713031Y-223622D01*
X712946Y-223278D01*
X712559Y-222891D01*
X712387Y-222805D01*
X712129Y-222547D01*
X711441Y-222461D01*
X711183Y-222375D01*
X710109Y-222418D01*
X708734Y-222504D01*
X707143Y-222633D01*
X706885Y-222719D01*
X704479Y-222805D01*
X704221Y-222891D01*
X696828Y-222805D01*
X696570Y-222719D01*
X695109Y-222633D01*
X694851Y-222719D01*
X694808Y-222676D01*
X694378Y-222590D01*
X690209Y-222375D01*
X689865Y-222289D01*
X689607Y-222203D01*
X689436Y-222289D01*
X689006Y-222203D01*
X688748Y-222118D01*
X684493Y-222160D01*
X683977Y-222246D01*
X682516Y-222332D01*
X681398Y-222418D01*
X680367Y-222504D01*
X679421Y-222590D01*
X678390Y-222762D01*
X677530Y-222848D01*
X676584Y-222934D01*
X675811Y-223020D01*
X674865Y-223106D01*
X674521Y-223192D01*
X673017Y-223321D01*
X671857Y-223450D01*
X670997Y-223536D01*
X670567Y-223622D01*
X668547Y-223751D01*
X667946Y-223837D01*
X667602Y-223923D01*
X666441Y-224051D01*
X664679Y-224181D01*
X664335Y-224266D01*
X664077Y-224352D01*
X663863Y-224309D01*
X663390Y-224438D01*
X662530Y-224524D01*
X660467Y-224782D01*
X660209Y-224868D01*
X659178Y-224954D01*
X658834Y-225040D01*
X657974Y-225126D01*
X657544Y-225298D01*
X656427Y-225384D01*
X655825Y-225470D01*
X655567Y-225556D01*
X654880Y-225642D01*
X654622Y-225728D01*
X653590Y-225814D01*
X653246Y-225900D01*
X652774Y-226029D01*
X652258Y-226115D01*
X651570Y-226201D01*
X650754Y-226329D01*
X650281Y-226458D01*
X649550Y-226587D01*
X648948Y-226673D01*
X648605Y-226759D01*
X648132Y-226888D01*
X647143Y-227017D01*
X646799Y-227103D01*
X646370Y-227275D01*
X645252Y-227447D01*
X644693Y-227662D01*
X644221Y-227791D01*
X643877Y-227877D01*
X643490Y-228006D01*
X643060Y-228178D01*
X642287Y-228264D01*
X640524Y-228221D01*
X640266Y-228479D01*
X639665Y-228822D01*
X637172Y-228736D01*
X635797Y-228822D01*
X635324Y-228951D01*
X634636Y-229037D01*
X633218Y-229166D01*
X632874Y-229252D01*
X632444Y-229424D01*
X631155Y-229510D01*
X630381Y-229854D01*
X629350Y-229940D01*
X628361Y-230241D01*
X627329Y-230413D01*
X626642Y-230671D01*
X625911Y-230799D01*
X625352Y-231014D01*
X624407Y-231272D01*
X623977Y-231444D01*
X623504Y-231573D01*
X622903Y-231831D01*
X622387Y-231917D01*
X621742Y-232304D01*
X621183Y-232433D01*
X620969Y-232647D01*
X620496Y-232777D01*
X619937Y-233077D01*
X619464Y-233206D01*
X618905Y-233507D01*
X618433Y-233636D01*
X617960Y-233851D01*
X617401Y-234066D01*
X617057Y-234152D01*
X616885Y-234324D01*
X616370Y-234410D01*
X615940Y-234582D01*
X615811Y-234711D01*
X615252Y-234839D01*
X614650Y-235097D01*
X614478Y-235183D01*
X613791Y-235355D01*
X613361Y-235527D01*
X612587Y-235699D01*
X611986Y-235957D01*
X611384Y-236043D01*
X611040Y-236129D01*
X610309Y-236344D01*
X609880Y-236430D01*
X608032Y-236559D01*
X607430Y-236817D01*
X607000Y-236989D01*
X606484Y-237075D01*
X606054Y-236645D01*
X605539Y-236559D01*
X605367Y-236731D01*
X605195Y-236817D01*
X604894Y-237118D01*
X604808Y-237461D01*
X604679Y-237590D01*
X603991Y-237676D01*
X603733Y-237590D01*
X603476Y-237676D01*
X602831Y-237633D01*
X602745Y-237375D01*
X603132Y-236989D01*
X603476Y-236903D01*
X603948Y-236688D01*
X604507Y-236473D01*
X605238Y-236172D01*
X605711Y-236043D01*
X606054Y-235957D01*
X606656Y-235699D01*
X607258Y-235613D01*
X607688Y-235441D01*
X607989Y-235312D01*
X608633Y-235183D01*
X609235Y-234925D01*
X610009Y-234754D01*
X610481Y-234539D01*
X611126Y-234410D01*
X611513Y-234281D01*
X611943Y-234109D01*
X612587Y-233980D01*
X613146Y-233765D01*
X614049Y-233550D01*
X614521Y-233335D01*
X615510Y-233120D01*
X616112Y-232862D01*
X616628Y-232777D01*
X616971Y-232691D01*
X617573Y-232433D01*
X618175Y-232347D01*
X618519Y-232261D01*
X618991Y-232046D01*
X619335Y-231960D01*
X619851Y-231874D01*
X620281Y-231702D01*
X621183Y-231487D01*
X621527Y-231401D01*
X621957Y-231229D01*
X622473Y-231143D01*
X623161Y-230971D01*
X623633Y-230842D01*
X624536Y-230627D01*
X625266Y-230413D01*
X625610Y-230327D01*
X626427Y-230198D01*
X626771Y-230112D01*
X627201Y-229940D01*
X628404Y-229768D01*
X629006Y-229510D01*
X630037Y-229424D01*
X630381Y-229338D01*
X630983Y-229080D01*
X632014Y-228994D01*
X632358Y-228908D01*
X632831Y-228779D01*
X633175Y-228693D01*
X634292Y-228521D01*
X634722Y-228435D01*
X635066Y-228350D01*
X635625Y-228221D01*
X636828Y-228049D01*
X637258Y-227877D01*
X638461Y-227791D01*
X639020Y-227576D01*
X639450Y-227490D01*
X640223Y-227404D01*
X641126Y-227275D01*
X641857Y-227060D01*
X642716Y-226974D01*
X643232Y-226888D01*
X644092Y-226716D01*
X644436Y-226630D01*
X645381Y-226544D01*
X645811Y-226458D01*
X646155Y-226373D01*
X646584Y-226287D01*
X647100Y-226201D01*
X647960Y-226115D01*
X648304Y-226029D01*
X649163Y-225857D01*
X649937Y-225771D01*
X650453Y-225685D01*
X651140Y-225599D01*
X652086Y-225427D01*
X652516Y-225341D01*
X653375Y-225255D01*
X653805Y-225169D01*
X654321Y-225083D01*
X654665Y-224997D01*
X656169Y-224868D01*
X656427Y-224782D01*
X657243Y-224653D01*
X657673Y-224567D01*
X659092Y-224438D01*
X659350Y-224352D01*
X660768Y-224137D01*
X661628Y-224051D01*
X662788Y-223923D01*
X663261Y-223794D01*
X663948Y-223708D01*
X666140Y-223493D01*
X666398Y-223407D01*
X667086Y-223321D01*
X667430Y-223235D01*
X668547Y-223149D01*
X669149Y-223063D01*
X670310Y-222934D01*
X671814Y-222805D01*
X672287Y-222676D01*
X673834Y-222504D01*
X674779Y-222418D01*
X676284Y-222289D01*
X676756Y-222160D01*
X677616Y-222075D01*
X678648Y-221989D01*
X680066Y-221860D01*
X680539Y-221731D01*
X682602Y-221559D01*
X683934Y-221430D01*
X684536Y-221344D01*
X684794Y-221258D01*
X685052Y-221344D01*
X685095Y-221301D01*
X687201Y-221172D01*
X687458Y-221086D01*
X688404Y-221000D01*
X688748Y-220914D01*
X689006Y-220828D01*
X689264Y-220914D01*
X689565Y-220871D01*
X691671Y-220742D01*
X691928Y-220656D01*
X692530Y-220570D01*
X692788Y-220656D01*
X692917Y-220613D01*
X693261Y-220527D01*
X694378Y-220441D01*
X696742Y-220312D01*
X697344Y-220226D01*
X697602Y-220140D01*
X698203Y-220226D01*
X698676Y-220097D01*
X700137Y-220011D01*
X702029Y-219925D01*
X705338Y-219797D01*
X705682Y-219711D01*
X705940Y-219625D01*
X712387Y-219539D01*
X712989Y-219453D01*
X713246Y-219539D01*
D02*
G37*
G36*
X750854Y-224223D02*
X750897Y-224266D01*
X750940Y-224309D01*
X750897Y-224610D01*
X750725Y-224696D01*
X750596Y-224567D01*
X750510Y-224309D01*
X750639Y-224181D01*
X750854Y-224223D01*
D02*
G37*
G36*
X689049Y-224395D02*
X689135Y-225083D01*
X689264Y-225212D01*
X690467Y-225384D01*
X691241Y-225728D01*
X691671Y-225900D01*
X692272Y-226243D01*
X692444Y-226415D01*
X693046Y-226759D01*
X693476Y-227017D01*
X693734Y-227275D01*
X693905Y-227361D01*
X694550Y-227834D01*
X695023Y-228221D01*
X695195Y-228307D01*
X695453Y-228564D01*
X695625Y-228650D01*
X695882Y-228908D01*
X696054Y-228994D01*
X696398Y-229338D01*
X696570Y-229424D01*
X696914Y-229768D01*
X697086Y-229854D01*
X697215Y-229983D01*
X697731Y-230413D01*
X697817Y-230585D01*
X697946Y-230627D01*
X700567Y-233249D01*
X700653Y-233421D01*
X700997Y-233765D01*
X701083Y-233937D01*
X701255Y-234109D01*
X701513Y-234539D01*
X701685Y-234711D01*
X701943Y-235140D01*
X702115Y-235312D01*
X702373Y-235742D01*
X702630Y-236000D01*
X702716Y-236344D01*
X703146Y-236946D01*
X703232Y-237289D01*
X703361Y-237418D01*
X703576Y-237977D01*
X703662Y-238321D01*
X703834Y-238493D01*
X703920Y-239009D01*
X704006Y-239352D01*
X704135Y-239825D01*
X704350Y-240728D01*
X704479Y-241888D01*
X704650Y-242920D01*
X704779Y-245112D01*
X704693Y-247003D01*
X704307Y-247991D01*
X703877Y-248077D01*
X703533Y-247647D01*
X703103Y-247562D01*
X702845Y-247476D01*
X702888Y-246659D01*
X702974Y-246401D01*
X702931Y-245928D01*
X702845Y-244553D01*
X702630Y-242447D01*
X702544Y-242103D01*
X702415Y-241630D01*
X702287Y-240728D01*
X701943Y-239954D01*
X701857Y-239438D01*
X701169Y-237891D01*
X700997Y-237461D01*
X700739Y-237031D01*
X700052Y-235828D01*
X699794Y-235398D01*
X699622Y-235226D01*
X699364Y-234797D01*
X699020Y-234453D01*
X698934Y-234281D01*
X698676Y-234023D01*
X698590Y-233851D01*
X697387Y-232647D01*
X697301Y-232476D01*
X697172Y-232433D01*
X696613Y-231874D01*
X696140Y-231487D01*
X695968Y-231401D01*
X695926Y-231272D01*
X695582Y-231100D01*
X695109Y-230714D01*
X694937Y-230627D01*
X694765Y-230456D01*
X693562Y-229768D01*
X693390Y-229596D01*
X693218Y-229510D01*
X692788Y-229338D01*
X692487Y-229123D01*
X692014Y-228994D01*
X691757Y-228736D01*
X691069Y-228564D01*
X690639Y-228307D01*
X690123Y-228221D01*
X689350Y-227877D01*
X688662Y-227791D01*
X687931Y-227576D01*
X687587Y-227490D01*
X686814Y-227404D01*
X685610Y-227318D01*
X685266Y-227232D01*
X683461Y-227146D01*
X682903Y-227017D01*
X682645Y-227103D01*
X680754Y-227189D01*
X680496Y-227275D01*
X679292Y-227361D01*
X679206D01*
X678991Y-227404D01*
X677659Y-227533D01*
X676713Y-227791D01*
X676112Y-227877D01*
X674994Y-228221D01*
X674650Y-228307D01*
X673447Y-228822D01*
X673017Y-229080D01*
X672759Y-229338D01*
X672587Y-229424D01*
X672329Y-229682D01*
X671728Y-230026D01*
X671298Y-230284D01*
X670352Y-230714D01*
X669923Y-230885D01*
X669493Y-231143D01*
X669235Y-231401D01*
X669063Y-231487D01*
X668805Y-231745D01*
X668504Y-231960D01*
X668031Y-232347D01*
X667860Y-232433D01*
X667602Y-232691D01*
X667430Y-232777D01*
X666871Y-233077D01*
X665926Y-233249D01*
X665281Y-233206D01*
X664679Y-232948D01*
X664507Y-232862D01*
X664292Y-232647D01*
X664335Y-232519D01*
X664593Y-232433D01*
X664937Y-232347D01*
X664980Y-232046D01*
X664163Y-231659D01*
X663476Y-231487D01*
X663218Y-231401D01*
X661671Y-231315D01*
X661413Y-231229D01*
X661026Y-231272D01*
X659650Y-231358D01*
X659307Y-231444D01*
X657716Y-231573D01*
X657243Y-231702D01*
X655911Y-232003D01*
X655181Y-232218D01*
X654708Y-232347D01*
X654364Y-232433D01*
X653934Y-232691D01*
X653590Y-232777D01*
X653160Y-232948D01*
X652989Y-233120D01*
X652645Y-233206D01*
X652473Y-233378D01*
X652000Y-233679D01*
X651914Y-233851D01*
X651656Y-234109D01*
X651484Y-234539D01*
X651398Y-234797D01*
X651312Y-236516D01*
X651398Y-236774D01*
X651484Y-237547D01*
X651570Y-237891D01*
X651742Y-238321D01*
X652086Y-238923D01*
X652344Y-239181D01*
X652430Y-240040D01*
X652301Y-240169D01*
X652086Y-240126D01*
X652000Y-239954D01*
X651914Y-239610D01*
X651699Y-239395D01*
X651570Y-239524D01*
X651484Y-239696D01*
X651269Y-240255D01*
X651054Y-241587D01*
X650539Y-242791D01*
X650453Y-242963D01*
X650238Y-243092D01*
X649937Y-243049D01*
X649851Y-242189D01*
X649722Y-241716D01*
X649636Y-241029D01*
X649421Y-240126D01*
X649163Y-239524D01*
X649077Y-239095D01*
X648905Y-238665D01*
X648734Y-238493D01*
X648562Y-237805D01*
X648390Y-237633D01*
X648304Y-237461D01*
X648132Y-237031D01*
X648046Y-236860D01*
X647917Y-236731D01*
X647788Y-236258D01*
X647616Y-236086D01*
X647186Y-235312D01*
X647100Y-235140D01*
X646499Y-234195D01*
X646155Y-233593D01*
X645983Y-233421D01*
X645725Y-232991D01*
X645037Y-232304D01*
X644951Y-232132D01*
X644135Y-231315D01*
X643963Y-231229D01*
X642974Y-230241D01*
X642888Y-229897D01*
X643017Y-229768D01*
X644049Y-229682D01*
X644307Y-229596D01*
X645166Y-229510D01*
X645768Y-229424D01*
X646885Y-229338D01*
X647358Y-229209D01*
X647874Y-229123D01*
X649206Y-228994D01*
X649593Y-228865D01*
X650281Y-228779D01*
X650625Y-228693D01*
X651570Y-228607D01*
X652000Y-228521D01*
X652559Y-228393D01*
X652817Y-228307D01*
X653934Y-228221D01*
X654407Y-228092D01*
X655052Y-227963D01*
X655310Y-227877D01*
X656513Y-227791D01*
X656771Y-227705D01*
X657458Y-227619D01*
X657845Y-227490D01*
X658791Y-227404D01*
X659650Y-227318D01*
X660080Y-227232D01*
X660596Y-227146D01*
X661284Y-227060D01*
X662143Y-226974D01*
X662917Y-226888D01*
X663863Y-226716D01*
X664292Y-226630D01*
X665410Y-226544D01*
X666269Y-226458D01*
X667215Y-226287D01*
X668633Y-226158D01*
X669235Y-226072D01*
X670095Y-225986D01*
X670696Y-225900D01*
X670954Y-225814D01*
X673447Y-225728D01*
X673705Y-225642D01*
X674650Y-225556D01*
X674908Y-225470D01*
X676370Y-225384D01*
X676628Y-225298D01*
X676885Y-225384D01*
X677186Y-225341D01*
X678390Y-225255D01*
X678734Y-225169D01*
X679593Y-225083D01*
X681914Y-224911D01*
X682860Y-224825D01*
X683289Y-224739D01*
X684837Y-224567D01*
X685868Y-224481D01*
X687201Y-224352D01*
X687458Y-224266D01*
X688834Y-224181D01*
X689049Y-224395D01*
D02*
G37*
G36*
X775181Y-225513D02*
X775137Y-225642D01*
X775095Y-225685D01*
X774794Y-225728D01*
X774665Y-225599D01*
X774708Y-225470D01*
X775052Y-225384D01*
X775181Y-225513D01*
D02*
G37*
G36*
X695839Y-225427D02*
X695926Y-225599D01*
Y-225685D01*
X695882Y-225728D01*
X695496Y-225685D01*
X695410Y-225513D01*
X695539Y-225384D01*
X695839Y-225427D01*
D02*
G37*
G36*
X769593Y-225943D02*
X769464Y-226329D01*
X769249Y-226287D01*
X769163Y-226029D01*
Y-225943D01*
X769206Y-225900D01*
X769464Y-225814D01*
X769593Y-225943D01*
D02*
G37*
G36*
X768476Y-226716D02*
X768433Y-226759D01*
X768261Y-226845D01*
X768132Y-226716D01*
X768175Y-226673D01*
X768218Y-226630D01*
X768347Y-226587D01*
X768476Y-226716D01*
D02*
G37*
G36*
X770711Y-226544D02*
X770668Y-226845D01*
X770625Y-226888D01*
X770582Y-226931D01*
X770367Y-226888D01*
X770410Y-226501D01*
X770711Y-226544D01*
D02*
G37*
G36*
X750940Y-228951D02*
X750811Y-229080D01*
X750596Y-229037D01*
X750510Y-228865D01*
Y-228779D01*
Y-228693D01*
X750897Y-228650D01*
X750940Y-228951D01*
D02*
G37*
G36*
X775181Y-227490D02*
X775395Y-227791D01*
X775782Y-228264D01*
X775868Y-228435D01*
X776126Y-228693D01*
X776212Y-228951D01*
X776470Y-229209D01*
X776427Y-229338D01*
X776255Y-229252D01*
X775782Y-228951D01*
X775696Y-228779D01*
X775266Y-228350D01*
X775181Y-228178D01*
X775009Y-228006D01*
X774966Y-227963D01*
X774751Y-227576D01*
X774880Y-227447D01*
X775181Y-227490D01*
D02*
G37*
G36*
X773203Y-229037D02*
X773289Y-229381D01*
X773074Y-229510D01*
X772860Y-229381D01*
X772774Y-229209D01*
X772645Y-229166D01*
X772516Y-229037D01*
X772430Y-228865D01*
Y-228779D01*
X772473Y-228736D01*
X772817Y-228650D01*
X773203Y-229037D01*
D02*
G37*
G36*
X780682Y-231272D02*
X780639Y-231315D01*
X780467D01*
X780252Y-231014D01*
X780295Y-230885D01*
X780639Y-230799D01*
X780682Y-231272D01*
D02*
G37*
G36*
X778404Y-230799D02*
X778834Y-230971D01*
X779049Y-231272D01*
Y-231358D01*
X778920Y-231487D01*
X778576Y-231573D01*
X777974Y-231487D01*
X777587Y-231100D01*
X777501Y-230842D01*
X777673Y-230756D01*
X778404Y-230799D01*
D02*
G37*
G36*
X694550Y-231702D02*
X694507Y-231745D01*
X694335Y-231831D01*
X694206Y-231702D01*
X694249Y-231659D01*
X694335D01*
X694550Y-231702D01*
D02*
G37*
G36*
X698375Y-225986D02*
X698633Y-226072D01*
X699493Y-226158D01*
X700181Y-226329D01*
X700653Y-226458D01*
X701384Y-226587D01*
X702072Y-226759D01*
X702458Y-226888D01*
X702802Y-226974D01*
X703490Y-227060D01*
X704178Y-227318D01*
X704908Y-227447D01*
X705381Y-227576D01*
X705811Y-227748D01*
X706456Y-227877D01*
X707014Y-228092D01*
X707917Y-228307D01*
X708390Y-228521D01*
X708948Y-228650D01*
X709937Y-228951D01*
X710882Y-229209D01*
X711312Y-229381D01*
X711957Y-229510D01*
X712430Y-229725D01*
X712903Y-229854D01*
X713246Y-229940D01*
X713719Y-230069D01*
X714149Y-230241D01*
X714708Y-230370D01*
X715181Y-230585D01*
X715739Y-230714D01*
X716083Y-230799D01*
X716556Y-231014D01*
X717201Y-231143D01*
X717802Y-231401D01*
X718576Y-231573D01*
X718920Y-231659D01*
X719307Y-231874D01*
X720037Y-232003D01*
X720639Y-232261D01*
X721327Y-232433D01*
X721799Y-232647D01*
X722358Y-232777D01*
X722702Y-232862D01*
X723175Y-233077D01*
X723820Y-233206D01*
X724421Y-233464D01*
X725453Y-233722D01*
X725582Y-233851D01*
X726484Y-234066D01*
X727086Y-234324D01*
X727860Y-234496D01*
X728332Y-234711D01*
X729278Y-234968D01*
X729708Y-235140D01*
X730181Y-235269D01*
X730524Y-235355D01*
X730997Y-235570D01*
X731470Y-235699D01*
X731857Y-235828D01*
X732287Y-236000D01*
X732845Y-236129D01*
X733447Y-236387D01*
X733963Y-236473D01*
X734736Y-236817D01*
X735252Y-236903D01*
X736370Y-237332D01*
X736713Y-237418D01*
X737186Y-237633D01*
X737659Y-237762D01*
X738046Y-237891D01*
X738863Y-238192D01*
X739206Y-238278D01*
X739378Y-238450D01*
X739808Y-238536D01*
X740410Y-238794D01*
X740839Y-238966D01*
X741441Y-239223D01*
X742129Y-239481D01*
X742301Y-239653D01*
X742989Y-239911D01*
X743160Y-240083D01*
X743332Y-240169D01*
X743762Y-240341D01*
X744536Y-240771D01*
X744708Y-240943D01*
X744966Y-241029D01*
X745137Y-241201D01*
X745739Y-241544D01*
X746341Y-241974D01*
X746771Y-242232D01*
X746943Y-242404D01*
X747373Y-242662D01*
X747544Y-242834D01*
X747974Y-243092D01*
X748146Y-243264D01*
X748576Y-243521D01*
X748748Y-243693D01*
X749178Y-243951D01*
X749436Y-244209D01*
X749607Y-244295D01*
X749779Y-244467D01*
X750209Y-244725D01*
X750424Y-244940D01*
X750940Y-245284D01*
X751413Y-245671D01*
X751842Y-245928D01*
X752057Y-246143D01*
X752143Y-246401D01*
X752014Y-246530D01*
X751799Y-246487D01*
X750983Y-246358D01*
X750381Y-246186D01*
X749951Y-246014D01*
X748834Y-245928D01*
X748576Y-245842D01*
X745567Y-245756D01*
X745310Y-245842D01*
X744708Y-245928D01*
X743590Y-245842D01*
X742989Y-245585D01*
X738089Y-245499D01*
X737831Y-245413D01*
X721413Y-245327D01*
X721155Y-245413D01*
X718748Y-245499D01*
X716083Y-245585D01*
X715739Y-245671D01*
X715352Y-246229D01*
X714923Y-246831D01*
X714493Y-247605D01*
X714149Y-248206D01*
X713891Y-248636D01*
X713461Y-249582D01*
X713289Y-250011D01*
X713031Y-250441D01*
X712946Y-250785D01*
X712688Y-251043D01*
X712602Y-251301D01*
X712430Y-251473D01*
X712086Y-252075D01*
X711914Y-252160D01*
X711699Y-252461D01*
X711527Y-252547D01*
X711398Y-252676D01*
X711312Y-252848D01*
X710754Y-253235D01*
X710324Y-253493D01*
X710066Y-253751D01*
X709722Y-253837D01*
X709550Y-254009D01*
X708776Y-254438D01*
X706971Y-255470D01*
X706713Y-255728D01*
X706456Y-255814D01*
X705510Y-256416D01*
X704908Y-256759D01*
X704736Y-256931D01*
X704135Y-257275D01*
X703705Y-257533D01*
X703447Y-257791D01*
X702845Y-258135D01*
X702415Y-258393D01*
X702244Y-258564D01*
X701771Y-258865D01*
X701083Y-259295D01*
X700997Y-259467D01*
X700868Y-259510D01*
X699923Y-260112D01*
X699321Y-260541D01*
X698719Y-260885D01*
X698461Y-261143D01*
X698289Y-261229D01*
X697774Y-261573D01*
X697344Y-261745D01*
X697086Y-262003D01*
X696742Y-262089D01*
X696570Y-262261D01*
X695453Y-262862D01*
X695023Y-263034D01*
X694851Y-263206D01*
X694507Y-263292D01*
X693905Y-263550D01*
X693476Y-263722D01*
X693003Y-263851D01*
X692573Y-264023D01*
X691628Y-264281D01*
X691198Y-264453D01*
X690467Y-264582D01*
X689865Y-264839D01*
X689350Y-264925D01*
X689006Y-265011D01*
X688275Y-265226D01*
X687329Y-265398D01*
X686513Y-265527D01*
X686083Y-265699D01*
X682774Y-265656D01*
X681656Y-265484D01*
X680882Y-265398D01*
X679378Y-265269D01*
X679120Y-265183D01*
X678605Y-265097D01*
X678347Y-265011D01*
X677143Y-264925D01*
X676413Y-264711D01*
X675940Y-264582D01*
X675596Y-264496D01*
X674865Y-264195D01*
X674307Y-264066D01*
X674049Y-263808D01*
X673705Y-263722D01*
X673533Y-263550D01*
X672931Y-263206D01*
X672759Y-263034D01*
X672587Y-262948D01*
X671943Y-262476D01*
X671470Y-262089D01*
X671298Y-262003D01*
X671040Y-261745D01*
X670868Y-261659D01*
X670610Y-261401D01*
X670438Y-261315D01*
X670181Y-261057D01*
X670009Y-260971D01*
X669407Y-260370D01*
X669235Y-260284D01*
X669192Y-260155D01*
X669063Y-260112D01*
X668074Y-259123D01*
X667989Y-258951D01*
X667301Y-258264D01*
X667215Y-258092D01*
X666785Y-257662D01*
X666699Y-257490D01*
X666570Y-257447D01*
X666012Y-256630D01*
X665926Y-256458D01*
X665754Y-256287D01*
X665496Y-255857D01*
X665324Y-255685D01*
X665238Y-255513D01*
X664636Y-254567D01*
X663776Y-253020D01*
X663519Y-252590D01*
X662659Y-250699D01*
X662573Y-250355D01*
X662401Y-250183D01*
X662229Y-249410D01*
X661971Y-248980D01*
X661885Y-248550D01*
X661799Y-248206D01*
X661542Y-247777D01*
X661456Y-247347D01*
X661112Y-246573D01*
X661026Y-246229D01*
X660424Y-244940D01*
X660080Y-244338D01*
X659822Y-244080D01*
X659736Y-243908D01*
X659350Y-243521D01*
X659178Y-243435D01*
X658920Y-243178D01*
X657888Y-243092D01*
X657458Y-243264D01*
X657029Y-243521D01*
X656642Y-243908D01*
X656556Y-244080D01*
X656298Y-244338D01*
X656040Y-244768D01*
X655868Y-244940D01*
X655438Y-245714D01*
X654837Y-246831D01*
X654407Y-247777D01*
X654149Y-248378D01*
X653977Y-248808D01*
X653633Y-249582D01*
X653547Y-249925D01*
X653289Y-250355D01*
X653203Y-250785D01*
X653031Y-251215D01*
X652860Y-251387D01*
X652774Y-251731D01*
X652430Y-252504D01*
X652000Y-253450D01*
X651828Y-254052D01*
X651699Y-254181D01*
X651484Y-254739D01*
X651183Y-255298D01*
X651054Y-255771D01*
X650882Y-255943D01*
X650711Y-256373D01*
X650625Y-256716D01*
X650453Y-256888D01*
X650367Y-257060D01*
X650109Y-257662D01*
X649765Y-258264D01*
X649249Y-259209D01*
X648562Y-260413D01*
X648304Y-260671D01*
X648218Y-261014D01*
X647960Y-261272D01*
X647874Y-261444D01*
X647530Y-261788D01*
X647444Y-261960D01*
X647272Y-262132D01*
X647186Y-262304D01*
X647014Y-262476D01*
X646928Y-262648D01*
X645940Y-263636D01*
X645768Y-263722D01*
X645596Y-263894D01*
X645166Y-264152D01*
X644908Y-264410D01*
X643103Y-265355D01*
X642630Y-265484D01*
X642201Y-265656D01*
X641556Y-265785D01*
X641212Y-265871D01*
X640739Y-266000D01*
X640395Y-266086D01*
X638289Y-266301D01*
X638032Y-266215D01*
X637946Y-266301D01*
X637688Y-266215D01*
X637301Y-266258D01*
X636957Y-266344D01*
X636140Y-266301D01*
X635882Y-266215D01*
X635711Y-266301D01*
X635066Y-266258D01*
X633648Y-266129D01*
X633304Y-266043D01*
X633046Y-265957D01*
X631842Y-265699D01*
X631456Y-265570D01*
X630897Y-265355D01*
X630123Y-265011D01*
X629693Y-264839D01*
X629521Y-264668D01*
X629350Y-264582D01*
X629178Y-264410D01*
X628576Y-264066D01*
X628318Y-263808D01*
X627373Y-263292D01*
X627029Y-263206D01*
X626083Y-262777D01*
X625825Y-262519D01*
X625653Y-262433D01*
X625181Y-261960D01*
X625095Y-261788D01*
X624966Y-261745D01*
X624751Y-261530D01*
X624665Y-261358D01*
X624536Y-261315D01*
X624321Y-261100D01*
X624235Y-260928D01*
X624063Y-260756D01*
X623848Y-260456D01*
X623676Y-260370D01*
X623461Y-259983D01*
X623289Y-259811D01*
X623032Y-259381D01*
X622774Y-259123D01*
X622688Y-258951D01*
X622344Y-258607D01*
X622258Y-258264D01*
X622086Y-258092D01*
X621742Y-257490D01*
X621570Y-257318D01*
X621398Y-256888D01*
X621140Y-256458D01*
X620969Y-256029D01*
X620281Y-254481D01*
X620195Y-253966D01*
X620066Y-253493D01*
X619894Y-253063D01*
X619722Y-252031D01*
X619636Y-251688D01*
X619550Y-251258D01*
X619464Y-250914D01*
X619378Y-250140D01*
X619292Y-246530D01*
X619335Y-245112D01*
X619421Y-244510D01*
X619507Y-243650D01*
X619593Y-243307D01*
X619679Y-243049D01*
X619765Y-242275D01*
X619851Y-241931D01*
X620066Y-241201D01*
X620195Y-240642D01*
X620367Y-239954D01*
X620496Y-239825D01*
X620711Y-238923D01*
X620840Y-238794D01*
X621140Y-237977D01*
X621312Y-237805D01*
X621398Y-237547D01*
X621570Y-237118D01*
X622000Y-236344D01*
X622344Y-235742D01*
X622602Y-235484D01*
X622688Y-235312D01*
X623375Y-234625D01*
X623848Y-234238D01*
X624450Y-233894D01*
X624622Y-233722D01*
X624794Y-233636D01*
X625137Y-233550D01*
X625997Y-233206D01*
X626599Y-233120D01*
X627158Y-232905D01*
X628404Y-232691D01*
X629006Y-232519D01*
X629264Y-232433D01*
X630381Y-232347D01*
X630725Y-232261D01*
X631198Y-232132D01*
X631541Y-232046D01*
X632616Y-231917D01*
X633218Y-231831D01*
X633690Y-231702D01*
X634120Y-231616D01*
X634808Y-231530D01*
X635582Y-231444D01*
X636140Y-231315D01*
X636398Y-231229D01*
X639235Y-231143D01*
X639665Y-231315D01*
X639837Y-231487D01*
X640181Y-231573D01*
X640524Y-231917D01*
X640696Y-232003D01*
X640739Y-232132D01*
X640868Y-232261D01*
X641040Y-232347D01*
X641513Y-232819D01*
X641599Y-232991D01*
X641814Y-233206D01*
X642201Y-233679D01*
X642501Y-234152D01*
X643060Y-234968D01*
X644092Y-236946D01*
X644178Y-237289D01*
X644479Y-237848D01*
X644607Y-238321D01*
X644779Y-238751D01*
X644951Y-239438D01*
X645080Y-239911D01*
X645252Y-240341D01*
X645424Y-241373D01*
X645510Y-241716D01*
X645596Y-242146D01*
X645682Y-242490D01*
X645768Y-243264D01*
X645854Y-244209D01*
X645811Y-245627D01*
X645897Y-245885D01*
X645983Y-247089D01*
X646198Y-247304D01*
X646499Y-247175D01*
X646584Y-247003D01*
X646799Y-246788D01*
X646971Y-246702D01*
X647143Y-246530D01*
X647573Y-246444D01*
X647960Y-246573D01*
X648648Y-246745D01*
X649980Y-246874D01*
X650582Y-246788D01*
X650926Y-246702D01*
X651269Y-246358D01*
X651441Y-246272D01*
X651570Y-245971D01*
X651656Y-245714D01*
X651742Y-245198D01*
X651828Y-244854D01*
X651914Y-244596D01*
X651828Y-243994D01*
X651656Y-243307D01*
X651570Y-243049D01*
X651613Y-242490D01*
X651785Y-242404D01*
X652000Y-242791D01*
X652215Y-243006D01*
X652602Y-242877D01*
X652817Y-242576D01*
X653418Y-242146D01*
X654364Y-241630D01*
X655052Y-241373D01*
X655524Y-241158D01*
X655997Y-241029D01*
X656341Y-240943D01*
X657072Y-240728D01*
X657415Y-240642D01*
X658963Y-240470D01*
X659307Y-240384D01*
X659693Y-240427D01*
X660166Y-240556D01*
X660596Y-240642D01*
X661284Y-240900D01*
X661756Y-241029D01*
X661928Y-241201D01*
X662100Y-241287D01*
X662315Y-241501D01*
X662401Y-241673D01*
X662960Y-242232D01*
X663132Y-242318D01*
X663304Y-242490D01*
X664077Y-242576D01*
X664679Y-242318D01*
X665023Y-242404D01*
X665066Y-242791D01*
X664980Y-243049D01*
X664894Y-243650D01*
X665109Y-243865D01*
X665281Y-243951D01*
X665496Y-244166D01*
X665582Y-245456D01*
X665496Y-245714D01*
X665539Y-246272D01*
X665625Y-247132D01*
X665711Y-247562D01*
X665926Y-248120D01*
X666012Y-248464D01*
X666269Y-249066D01*
X666355Y-249324D01*
X666785Y-250269D01*
X666957Y-250699D01*
X667387Y-251473D01*
X667731Y-252075D01*
X668160Y-252676D01*
X668504Y-253278D01*
X668676Y-253450D01*
X668934Y-253880D01*
X669063Y-254009D01*
X669407Y-254524D01*
X669579Y-254610D01*
X669708Y-254825D01*
X669794Y-254997D01*
X669923Y-255040D01*
X670137Y-255341D01*
X670223Y-255513D01*
X671728Y-257017D01*
X671900Y-257103D01*
X672329Y-257533D01*
X672501Y-257619D01*
X672759Y-257877D01*
X672931Y-257963D01*
X673189Y-258221D01*
X673361Y-258307D01*
X674307Y-258908D01*
X674908Y-259252D01*
X675166Y-259510D01*
X675510Y-259596D01*
X676026Y-259940D01*
X676542Y-260026D01*
X676671Y-260155D01*
X676756Y-260499D01*
X676885Y-260627D01*
X677186Y-260842D01*
X677702Y-261186D01*
X678519Y-261315D01*
X678948Y-261487D01*
X679206Y-261573D01*
X680496Y-261659D01*
X680754Y-261745D01*
X683246Y-261831D01*
X685395Y-261745D01*
X685997Y-261659D01*
X687115Y-261573D01*
X687458Y-261487D01*
X687888Y-261315D01*
X688232Y-261229D01*
X688834Y-261143D01*
X688963Y-261014D01*
X689049Y-260671D01*
X688791Y-260499D01*
X688232Y-260370D01*
X688103Y-260241D01*
X688146Y-260112D01*
X688834Y-260026D01*
X689092Y-260112D01*
X690209Y-260026D01*
X690553Y-259940D01*
X691026Y-259811D01*
X691584Y-259596D01*
X692358Y-259252D01*
X692788Y-259080D01*
X693390Y-258736D01*
X694765Y-257877D01*
X694937Y-257791D01*
X695109Y-257619D01*
X695281Y-257533D01*
X695453Y-257361D01*
X695882Y-257103D01*
X696312Y-256673D01*
X696484Y-256587D01*
X696527Y-256458D01*
X696656Y-256416D01*
X697430Y-255642D01*
X697817Y-255169D01*
X698418Y-254395D01*
X698676Y-253966D01*
X698762Y-253794D01*
X698934Y-253622D01*
X699020Y-253278D01*
X699192Y-252848D01*
X699364Y-252676D01*
X699450Y-252160D01*
X699794Y-251387D01*
X699880Y-249238D01*
X699751Y-248851D01*
X699364Y-248378D01*
X699450Y-248120D01*
X699579Y-248077D01*
X699794Y-247862D01*
X699880Y-247261D01*
X699708Y-246573D01*
X699493Y-246358D01*
X699364Y-245885D01*
X699192Y-245714D01*
X699106Y-245541D01*
X698891Y-245327D01*
X698633Y-245241D01*
X698246Y-245627D01*
X698160Y-245971D01*
X697989Y-246401D01*
X697860Y-246702D01*
X697774Y-247046D01*
X697688Y-247476D01*
X697602Y-247819D01*
X697387Y-248378D01*
X697301Y-248980D01*
X696957Y-249839D01*
X696785Y-250441D01*
X696613Y-250613D01*
X696527Y-250957D01*
X695625Y-251860D01*
X695023Y-252289D01*
X694421Y-252633D01*
X693991Y-252891D01*
X693046Y-252977D01*
X692831Y-252762D01*
X692745Y-251989D01*
X693218Y-251516D01*
X693820Y-251172D01*
X693991Y-251000D01*
X694335Y-250914D01*
X694679Y-250570D01*
X694851Y-250484D01*
X695152Y-250183D01*
X695238Y-250011D01*
X695410Y-249839D01*
X695839Y-249066D01*
X696012Y-248894D01*
X696183Y-248120D01*
X696441Y-247519D01*
X696527Y-245026D01*
X696441Y-244424D01*
X696226Y-244295D01*
X695882Y-244467D01*
X695754Y-244682D01*
X695668Y-244854D01*
X695539Y-244983D01*
X695109Y-245069D01*
X694894Y-244768D01*
X694808Y-241329D01*
X694894Y-240986D01*
X695238Y-240642D01*
X695324Y-240040D01*
X694937Y-239825D01*
X694335Y-239997D01*
X693991Y-239911D01*
X693776Y-239696D01*
X693690Y-239438D01*
X693433Y-238837D01*
X693175Y-238407D01*
X693046Y-238278D01*
X692874Y-238192D01*
X692831Y-238063D01*
X692401Y-237633D01*
X691928Y-237246D01*
X691757Y-237160D01*
X691584Y-236989D01*
X691327Y-236903D01*
X691155Y-236731D01*
X690725Y-236473D01*
X690209Y-236129D01*
X689865Y-236043D01*
X689393Y-235914D01*
X688963Y-235742D01*
X687458Y-235613D01*
X687115Y-235527D01*
X686943Y-235355D01*
X686771Y-235269D01*
X686298Y-234797D01*
X686212Y-234625D01*
X686083Y-234496D01*
X685567Y-234324D01*
X684794Y-234238D01*
X682043D01*
X681785Y-234152D01*
X681097Y-234066D01*
X679980Y-233980D01*
X679120Y-233894D01*
X678690Y-233722D01*
X677573Y-233636D01*
X677315Y-233894D01*
X676885Y-233980D01*
X676542Y-234324D01*
X676370Y-234410D01*
X675940Y-234839D01*
X675768Y-234925D01*
X675467Y-235226D01*
X674908Y-235355D01*
X674307Y-235613D01*
X674135Y-235699D01*
X673877Y-235957D01*
X673705Y-236043D01*
X672716Y-237031D01*
X672630Y-237203D01*
X672158Y-237676D01*
X671771Y-238149D01*
X671685Y-238321D01*
X671427Y-238579D01*
X671341Y-238751D01*
X670997Y-239095D01*
X670911Y-239266D01*
X670739Y-239438D01*
X670481Y-239868D01*
X670310Y-240040D01*
X669966Y-240642D01*
X669751Y-240943D01*
X669622Y-241501D01*
X669364Y-242103D01*
X668934Y-242533D01*
X668848Y-242705D01*
X668633Y-242920D01*
X668203Y-244123D01*
X668074Y-244768D01*
X667989Y-245370D01*
X667903Y-245714D01*
X667774Y-245842D01*
X667559Y-245456D01*
X667688Y-242920D01*
X667774Y-241544D01*
X667946Y-240685D01*
X668074Y-239868D01*
X668332Y-239266D01*
X668418Y-238923D01*
X669020Y-237977D01*
X669364Y-237375D01*
X669493Y-237332D01*
X669794Y-236774D01*
X669966Y-236602D01*
X670052Y-236344D01*
X670438Y-235699D01*
X670524Y-235355D01*
X670653Y-234625D01*
X670868Y-234410D01*
X671556Y-234324D01*
X671814Y-234238D01*
X672243Y-233980D01*
X672845Y-233378D01*
X673232Y-232905D01*
X673920Y-231702D01*
X674736Y-230885D01*
X675252Y-230799D01*
X675295Y-231014D01*
X675424Y-231143D01*
X675768Y-231229D01*
X675940Y-231057D01*
X675897Y-230842D01*
X675338Y-230714D01*
X675295Y-230499D01*
X675424Y-230370D01*
X675596Y-230284D01*
X675940Y-230198D01*
X676327Y-229983D01*
X677186Y-229811D01*
X678003Y-229682D01*
X678433Y-229510D01*
X678948Y-229596D01*
X679378Y-229424D01*
X679937Y-229467D01*
X682387Y-229424D01*
X687115Y-229510D01*
X687587Y-229639D01*
X689350Y-229940D01*
X689951Y-230198D01*
X690295Y-230284D01*
X690811Y-230627D01*
X691155Y-230714D01*
X691671Y-231057D01*
X692100Y-231143D01*
X692358Y-231229D01*
X692917Y-231186D01*
X693132Y-231229D01*
X693261Y-231358D01*
X693562Y-231831D01*
X693734Y-231917D01*
X694163Y-232347D01*
X694335Y-232433D01*
X694593Y-232691D01*
X694765Y-232777D01*
X695281Y-233120D01*
X695711Y-233292D01*
X695882Y-233464D01*
X696312Y-233550D01*
X696484Y-233378D01*
X696742Y-233292D01*
X696957Y-233507D01*
X697043Y-233679D01*
X697172Y-233722D01*
X697903Y-234453D01*
X697989Y-234625D01*
X698160Y-234797D01*
X698246Y-234968D01*
X698504Y-235226D01*
X698590Y-235398D01*
X698934Y-235742D01*
X699020Y-235914D01*
X699278Y-236172D01*
X699966Y-237375D01*
X700223Y-237805D01*
X700653Y-238751D01*
X700739Y-239009D01*
X700825Y-240470D01*
X700567Y-240040D01*
X700395Y-239868D01*
X700223Y-239438D01*
X699708Y-238321D01*
X699020Y-237118D01*
X698848Y-236946D01*
X698504Y-236344D01*
X698332Y-236172D01*
X698246Y-236000D01*
X697817Y-235398D01*
X697215Y-234625D01*
X696742Y-234238D01*
X696613Y-234281D01*
X696527Y-234539D01*
X696957Y-235484D01*
X697301Y-236000D01*
X697387Y-236172D01*
X697731Y-236516D01*
X697817Y-236688D01*
X698118Y-236989D01*
X698504Y-237461D01*
X698590Y-237633D01*
X698848Y-237891D01*
X698934Y-238063D01*
X699321Y-238794D01*
X699407Y-239137D01*
X699579Y-239997D01*
X699665Y-241029D01*
X699794Y-241673D01*
X699880Y-242017D01*
X699966Y-242275D01*
X700309Y-242877D01*
X700567Y-243135D01*
X700653Y-243307D01*
X700997Y-243650D01*
X701083Y-243908D01*
X701298Y-244467D01*
X701384Y-244811D01*
X701470Y-245756D01*
X701427Y-246917D01*
X701513Y-247175D01*
X701470Y-247476D01*
X701513Y-248550D01*
X701599Y-249668D01*
X701771Y-250097D01*
X701857Y-250871D01*
X702029Y-251559D01*
X702201Y-251731D01*
X702287Y-252418D01*
X702158Y-252547D01*
X701728Y-252375D01*
X701599Y-252418D01*
X701513Y-252676D01*
X701771Y-253278D01*
X701728Y-253493D01*
X701470Y-253579D01*
X700911Y-253794D01*
X700309Y-254567D01*
X699536Y-256029D01*
X699450Y-256201D01*
X699364Y-256458D01*
X699407Y-257017D01*
X700009Y-257103D01*
X700137Y-256974D01*
X700223Y-256802D01*
X700309Y-256458D01*
X700481Y-256287D01*
X700567Y-256115D01*
X701986Y-254696D01*
X702158Y-254610D01*
X702415Y-254352D01*
X702716Y-254137D01*
X703189Y-253751D01*
X703791Y-253321D01*
X703963Y-253235D01*
X704135Y-253063D01*
X704307Y-252977D01*
X704736Y-252805D01*
X704951Y-252590D01*
X705037Y-252246D01*
X704951Y-251989D01*
X704865Y-251387D01*
X705768Y-251344D01*
X705940Y-251172D01*
X706112Y-251086D01*
X706842Y-250355D01*
X706799Y-250140D01*
X706542Y-250054D01*
X706112Y-250226D01*
X705682Y-250312D01*
X705467Y-250097D01*
X705381Y-249839D01*
X705596Y-249625D01*
X706198Y-249281D01*
X706628Y-249109D01*
X707229Y-248765D01*
X707401Y-248593D01*
X707702Y-248378D01*
X708175Y-247991D01*
X708347Y-247905D01*
X708863Y-247390D01*
X709034Y-247304D01*
X710668Y-245671D01*
X710839Y-245585D01*
X711183Y-245241D01*
X711355Y-245155D01*
X711699Y-244811D01*
X711871Y-244725D01*
X712129Y-244467D01*
X712301Y-244381D01*
X712473Y-244209D01*
X712903Y-243951D01*
X713504Y-243521D01*
X714536Y-243435D01*
X714880Y-243350D01*
X715266Y-243221D01*
X715696Y-243049D01*
X716040Y-242447D01*
X716126Y-241329D01*
X716040Y-241072D01*
X715954Y-240212D01*
X715782Y-239524D01*
X715610Y-239095D01*
X715352Y-238063D01*
X715223Y-237934D01*
X715009Y-237375D01*
X714880Y-237332D01*
X714665Y-236946D01*
X714020Y-236301D01*
X713547Y-236000D01*
X713461Y-235828D01*
X713074Y-235613D01*
X712903Y-235441D01*
X712731Y-235355D01*
X712215Y-235011D01*
X711785Y-234754D01*
X711527Y-234496D01*
X711269Y-234410D01*
X711012Y-234152D01*
X710839Y-234066D01*
X709980Y-233464D01*
X709550Y-233206D01*
X709421Y-233077D01*
X708948Y-232691D01*
X708776Y-232605D01*
X708390Y-232218D01*
X708304Y-231788D01*
X711871Y-231745D01*
X712559Y-231917D01*
X712817Y-231831D01*
X713289Y-231874D01*
X713934Y-231831D01*
X714536Y-231745D01*
X714708Y-231487D01*
X714665Y-231272D01*
X714278Y-231057D01*
X713891Y-230928D01*
X713332Y-230714D01*
X712860Y-230585D01*
X712301Y-230370D01*
X711957Y-230284D01*
X711484Y-230155D01*
X711054Y-229983D01*
X710625Y-229897D01*
X709937Y-229725D01*
X709507Y-229553D01*
X708648Y-229381D01*
X707960Y-229123D01*
X707143Y-228994D01*
X706542Y-228736D01*
X706026Y-228650D01*
X705682Y-228564D01*
X704951Y-228350D01*
X704392Y-228221D01*
X704049Y-228135D01*
X703318Y-227920D01*
X702759Y-227791D01*
X702415Y-227705D01*
X701685Y-227490D01*
X701126Y-227361D01*
X700137Y-227060D01*
X699407Y-226931D01*
X698805Y-226673D01*
X698118Y-226587D01*
X697344Y-226243D01*
X696742Y-226158D01*
X696613Y-226029D01*
X696656Y-225900D01*
X697344Y-225814D01*
X698375Y-225986D01*
D02*
G37*
G36*
X695152Y-232132D02*
X695109Y-232175D01*
X695066Y-232132D01*
X695109Y-232089D01*
X695152Y-232132D01*
D02*
G37*
G36*
X736499Y-223106D02*
X738003Y-223321D01*
X738261Y-223407D01*
X738433Y-223493D01*
X738648Y-223880D01*
X738605Y-225728D01*
X738519Y-226845D01*
X738562Y-227404D01*
X738648Y-227748D01*
X739335Y-228435D01*
X739421Y-229983D01*
X739335Y-230585D01*
X739077Y-231444D01*
X738905Y-232046D01*
X738648Y-232304D01*
X738562Y-232476D01*
X738089Y-232862D01*
X737315Y-233034D01*
X736542Y-232691D01*
X735725Y-231874D01*
X735639Y-231702D01*
X735424Y-231487D01*
X735209Y-230928D01*
X735037Y-230756D01*
X734908Y-230456D01*
X734822Y-230112D01*
X734779Y-230069D01*
X734736Y-229854D01*
X734565Y-229424D01*
X734393Y-228393D01*
X734264Y-227748D01*
X734135Y-227275D01*
X734006Y-225685D01*
X733748Y-224739D01*
X733662Y-224481D01*
X733576Y-223450D01*
X733705Y-223321D01*
X734221Y-223235D01*
X734650Y-223063D01*
X736499Y-223106D01*
D02*
G37*
G36*
X609794Y-213049D02*
X609880Y-213564D01*
X609966Y-213822D01*
X610052Y-218378D01*
X610137Y-218636D01*
X610224Y-230928D01*
X610094Y-231057D01*
X609923Y-231143D01*
X609665Y-231401D01*
X609493Y-231487D01*
X608547Y-232089D01*
X608117Y-232347D01*
X607860Y-232605D01*
X606656Y-233292D01*
X606484Y-233464D01*
X606054Y-233636D01*
X605453Y-233980D01*
X604851Y-234066D01*
X604808Y-233937D01*
X604894Y-233593D01*
X605023Y-233550D01*
X605195Y-233378D01*
X605367Y-233292D01*
X605539Y-233120D01*
X605711Y-233034D01*
X606269Y-232476D01*
X606527Y-232046D01*
Y-231960D01*
Y-231874D01*
X606613Y-231530D01*
X606914Y-231229D01*
X607258Y-231143D01*
X607817Y-230069D01*
X608117Y-229080D01*
X608203Y-228650D01*
X608332Y-227662D01*
X608418Y-227318D01*
X608590Y-226888D01*
X608676Y-224825D01*
X608762Y-224567D01*
X608848Y-223708D01*
X608934Y-223106D01*
X609020Y-222848D01*
X608934Y-222590D01*
X608977Y-222289D01*
X609106Y-219152D01*
X609192Y-218894D01*
X609278Y-217261D01*
X609364Y-217003D01*
X609450Y-213221D01*
X609665Y-213006D01*
X609794Y-213049D01*
D02*
G37*
G36*
X678132Y-234367D02*
X677745Y-234582D01*
X677616Y-234453D01*
X677530Y-234195D01*
Y-234109D01*
X678089Y-234066D01*
X678132Y-234367D01*
D02*
G37*
G36*
X666398Y-234410D02*
X666441Y-234711D01*
X666054Y-234925D01*
X665882Y-235097D01*
X665496Y-235054D01*
Y-234968D01*
X665582Y-234711D01*
X665839Y-234453D01*
X666183Y-234367D01*
X666398Y-234410D01*
D02*
G37*
G36*
X742989Y-225384D02*
X743332Y-225728D01*
X743504Y-225814D01*
X743633Y-226029D01*
X744235Y-226802D01*
X744407Y-227232D01*
Y-227318D01*
X744622Y-228049D01*
X744708Y-228393D01*
X744837Y-230241D01*
X744923Y-230499D01*
X745009Y-232991D01*
X744923Y-233249D01*
X744837Y-234281D01*
X744665Y-234968D01*
X744450Y-235183D01*
X744063Y-235140D01*
X743977Y-234968D01*
X743633Y-234195D01*
X743547Y-233679D01*
X743203Y-232562D01*
X743118Y-232218D01*
X743031Y-231616D01*
X742946Y-231272D01*
X742860Y-231014D01*
X742731Y-230198D01*
X742602Y-229209D01*
X742516Y-228865D01*
X742344Y-228435D01*
X742258Y-225513D01*
X742559Y-225298D01*
X742989Y-225384D01*
D02*
G37*
G36*
X652602Y-235312D02*
X652860Y-235742D01*
X652774Y-236000D01*
X652645Y-236043D01*
X652559D01*
X652430Y-236000D01*
X652258Y-235570D01*
X652086Y-235398D01*
X652000Y-234968D01*
X652215Y-234839D01*
X652602Y-235312D01*
D02*
G37*
G36*
X665066Y-235828D02*
X665152Y-236086D01*
X665109Y-236129D01*
X664851Y-236215D01*
X664722Y-236086D01*
X664765Y-235785D01*
X664937Y-235699D01*
X665066Y-235828D01*
D02*
G37*
G36*
X652344Y-237031D02*
X652473Y-237332D01*
X652430Y-237633D01*
X652215Y-237762D01*
X652086Y-237633D01*
X652000Y-237375D01*
X652086Y-237118D01*
X652129Y-237075D01*
X652215Y-236989D01*
X652344Y-237031D01*
D02*
G37*
G36*
X612373Y-238665D02*
X612329Y-238880D01*
X611986Y-238966D01*
X611943Y-238923D01*
X611857Y-238837D01*
X611900Y-238622D01*
X612244Y-238536D01*
X612373Y-238665D01*
D02*
G37*
G36*
X655696Y-239352D02*
X655567Y-239481D01*
X655524Y-239524D01*
X655481Y-239567D01*
X655266Y-239352D01*
X655310Y-239137D01*
X655653Y-239052D01*
X655696Y-239352D01*
D02*
G37*
G36*
X661370Y-239524D02*
X661241Y-239825D01*
X660940Y-239782D01*
X660854Y-239438D01*
X660983Y-239309D01*
X661155D01*
X661370Y-239524D01*
D02*
G37*
G36*
X654407Y-240212D02*
X654493Y-240556D01*
X654192Y-240685D01*
X653805Y-240556D01*
X653719Y-240384D01*
X653848Y-240255D01*
X654106Y-240169D01*
X654192D01*
X654407Y-240212D01*
D02*
G37*
G36*
X701470Y-241974D02*
X701427Y-242189D01*
X701298Y-242318D01*
X700997Y-242189D01*
Y-242103D01*
X701040Y-241888D01*
X701298Y-241802D01*
X701470Y-241974D01*
D02*
G37*
G36*
X670395Y-242361D02*
X670481Y-242791D01*
X670310Y-242963D01*
X670223Y-243135D01*
X669966Y-243393D01*
X669751Y-243350D01*
X669708Y-243221D01*
X669794Y-242877D01*
X669966Y-242705D01*
X670052Y-242533D01*
X670266Y-242318D01*
X670352D01*
X670395Y-242361D01*
D02*
G37*
G36*
X670052Y-244252D02*
X670137Y-244682D01*
X670095Y-244725D01*
X670052Y-244854D01*
X669837Y-244897D01*
X669708Y-244768D01*
X669622Y-244338D01*
X669751Y-244209D01*
X669923Y-244123D01*
X670052Y-244252D01*
D02*
G37*
G36*
X611341Y-237805D02*
X611255Y-238063D01*
X610782Y-238192D01*
X610352Y-238450D01*
X610009Y-238536D01*
X608461Y-239223D01*
X608032Y-239395D01*
X607688Y-239481D01*
X607559Y-239610D01*
X606742Y-239911D01*
X606613Y-240040D01*
X606140Y-240169D01*
X605711Y-240341D01*
X605109Y-240685D01*
X604980Y-240900D01*
X604894Y-241759D01*
X604722Y-241931D01*
X604679Y-241974D01*
X604378Y-242619D01*
X604249Y-242748D01*
X604120Y-243221D01*
X604206Y-243479D01*
X604034Y-244682D01*
X603905Y-245069D01*
X603690Y-245627D01*
X603519Y-246057D01*
X603218Y-246530D01*
X602874Y-246616D01*
X602745Y-246487D01*
X602659Y-245026D01*
X602788Y-244553D01*
X602874Y-243435D01*
X602960Y-242490D01*
X603046Y-242146D01*
X603175Y-241072D01*
X603261Y-240470D01*
X603733Y-239997D01*
X604335Y-239653D01*
X604507Y-239481D01*
X605195Y-239223D01*
X605324Y-239095D01*
X605882Y-238880D01*
X606355Y-238665D01*
X607258Y-238450D01*
X607688Y-238278D01*
X608504Y-238149D01*
X609278Y-238063D01*
X609708Y-237977D01*
X610395Y-237805D01*
X610954Y-237676D01*
X611341Y-237805D01*
D02*
G37*
G36*
X607817Y-248034D02*
X607774Y-248335D01*
X607473Y-248292D01*
X607516Y-247905D01*
X607688D01*
X607817Y-248034D01*
D02*
G37*
G36*
X694206Y-249839D02*
X694163Y-249883D01*
X693991Y-249968D01*
X693863Y-249839D01*
X693948Y-249754D01*
X693991Y-249711D01*
X694077D01*
X694206Y-249839D01*
D02*
G37*
G36*
X752616Y-225040D02*
X753046Y-225212D01*
X753562Y-225298D01*
X753905Y-225384D01*
X754894Y-225685D01*
X756012Y-225857D01*
X757043Y-226115D01*
X758203Y-226243D01*
X758633Y-226415D01*
X759149Y-226501D01*
X759751Y-226587D01*
X760610Y-226673D01*
X760954Y-226759D01*
X761556Y-226931D01*
X763017Y-227103D01*
X763490Y-227232D01*
X763920Y-227318D01*
X764736Y-227447D01*
X765295Y-227662D01*
X766198Y-227877D01*
X766628Y-228135D01*
X766885Y-228221D01*
X767401Y-228564D01*
X767659Y-228650D01*
X767831Y-228822D01*
X768261Y-229080D01*
X768519Y-229338D01*
X768690Y-229424D01*
X768948Y-229682D01*
X769378Y-229940D01*
X769550Y-230198D01*
X769722Y-230284D01*
X769980Y-230541D01*
X770152Y-230627D01*
X770281Y-230756D01*
X770754Y-231143D01*
X770926Y-231229D01*
X771183Y-231487D01*
X771355Y-231573D01*
X771699Y-231917D01*
X771871Y-232003D01*
X772129Y-232261D01*
X772301Y-232347D01*
X772645Y-232691D01*
X772817Y-232777D01*
X772989Y-232948D01*
X773762Y-233550D01*
X773934Y-233636D01*
X774278Y-233980D01*
X774450Y-234066D01*
X774493Y-234195D01*
X774880Y-234410D01*
X775052Y-234582D01*
X775481Y-234839D01*
X775825Y-235183D01*
X775997Y-235269D01*
X776212Y-235484D01*
X776728Y-235828D01*
X776814Y-236000D01*
X776986Y-236172D01*
X776943Y-236817D01*
X776814Y-237719D01*
X776642Y-238149D01*
X776556Y-239009D01*
X776298Y-240470D01*
X776212Y-240728D01*
X776126Y-241759D01*
X776040Y-242103D01*
X775911Y-242576D01*
X775825Y-243092D01*
X775696Y-244080D01*
X775352Y-245456D01*
X775181Y-246487D01*
X775009Y-246917D01*
X774923Y-247519D01*
X774751Y-248206D01*
X774364Y-248507D01*
X773891Y-248808D01*
X773332Y-248937D01*
X772860Y-249152D01*
X772430Y-249238D01*
X771914Y-249324D01*
X771226Y-249496D01*
X770797Y-249582D01*
X769292Y-249797D01*
X768347Y-250054D01*
X767143Y-250226D01*
X766757Y-250355D01*
X766198Y-250484D01*
X765596Y-250570D01*
X765252Y-250656D01*
X764822Y-250828D01*
X764135Y-250914D01*
X763447Y-251086D01*
X763017Y-251258D01*
X762759Y-251344D01*
X761728Y-251430D01*
X761599Y-251301D01*
X761513Y-250785D01*
X761427Y-250441D01*
X761341Y-250183D01*
X761255Y-248378D01*
X761169Y-248120D01*
X761083Y-246315D01*
X760997Y-246057D01*
X760911Y-245112D01*
Y-245026D01*
Y-232991D01*
X760782Y-232519D01*
X760181Y-232175D01*
X759751Y-231917D01*
X759493Y-231659D01*
X759321Y-231573D01*
X758891Y-231401D01*
X758848Y-231272D01*
X758289Y-230971D01*
X757688Y-230627D01*
X757516Y-230456D01*
X756914Y-230112D01*
X756484Y-229854D01*
X756226Y-229596D01*
X755625Y-229252D01*
X755195Y-228994D01*
X754937Y-228736D01*
X754679Y-228650D01*
X754507Y-228479D01*
X754077Y-228221D01*
X753905Y-228049D01*
X753433Y-227748D01*
X752960Y-227361D01*
X752788Y-227275D01*
X752702Y-227103D01*
X752530Y-227017D01*
X751885Y-226373D01*
X751542Y-225771D01*
X751628Y-225427D01*
X751928Y-225126D01*
X752229Y-224997D01*
X752616Y-225040D01*
D02*
G37*
G36*
X704092Y-252418D02*
X703877Y-252461D01*
X703834Y-252418D01*
Y-252332D01*
X704049Y-252289D01*
X704092Y-252418D01*
D02*
G37*
G36*
X751842Y-248507D02*
X752444Y-248593D01*
X753562Y-248937D01*
X753905Y-249281D01*
X754077Y-249367D01*
X754120Y-249496D01*
X754464Y-249839D01*
X754722Y-250269D01*
X754894Y-250957D01*
X754980Y-251215D01*
X755066Y-251645D01*
X755238Y-252075D01*
X755324Y-252418D01*
X755195Y-252547D01*
X754636Y-252504D01*
X754421Y-252547D01*
X754292Y-252676D01*
X754335Y-252977D01*
X754636Y-253192D01*
X755066Y-253364D01*
X755152Y-253708D01*
X754894Y-253880D01*
X754636Y-254309D01*
X754722Y-254911D01*
X755066Y-255685D01*
X755238Y-256115D01*
X755324Y-256544D01*
X754937Y-256759D01*
X754808Y-256888D01*
X754851Y-256931D01*
X755281Y-257017D01*
X755496Y-257232D01*
X755582Y-258092D01*
X755668Y-258349D01*
X755754Y-259725D01*
X755668Y-259983D01*
X755711Y-260112D01*
X755839Y-260585D01*
X755711Y-261057D01*
X755754Y-262476D01*
X755625Y-262948D01*
X755496Y-264195D01*
X755367Y-264668D01*
X755023Y-265183D01*
X754722Y-265140D01*
X754636Y-264968D01*
X754421Y-264754D01*
X753991Y-264668D01*
X753605Y-265054D01*
X753390Y-265355D01*
X753046Y-265441D01*
X752917Y-265312D01*
X752831Y-264367D01*
X752745Y-264109D01*
X752659Y-263163D01*
X752745Y-262905D01*
X752831Y-259381D01*
X752659Y-257920D01*
X752573Y-257576D01*
X752401Y-257146D01*
X752315Y-256974D01*
X752057Y-256373D01*
X751628Y-255771D01*
X751284Y-255169D01*
X751155Y-255126D01*
X750897Y-254696D01*
X750510Y-254223D01*
X750424Y-254052D01*
X750252Y-253880D01*
X750166Y-253708D01*
X749822Y-253364D01*
X749736Y-253192D01*
X749393Y-252848D01*
X749307Y-252676D01*
X749135Y-252504D01*
X749049Y-252332D01*
X748834Y-252118D01*
X748662Y-252031D01*
X748619Y-251903D01*
X748060Y-251602D01*
X747888Y-251430D01*
X747029Y-251344D01*
X745653Y-251774D01*
X745310Y-251860D01*
X745181Y-252075D01*
X745095Y-252504D01*
X745181Y-252848D01*
X745868Y-254309D01*
X745954Y-254481D01*
X746341Y-255126D01*
X746556Y-255685D01*
X746728Y-255857D01*
X746814Y-256115D01*
X746685Y-256243D01*
X746427Y-256158D01*
X746255Y-255986D01*
X745739Y-255900D01*
X745696Y-256201D01*
X745868Y-256630D01*
X746126Y-257490D01*
X746298Y-257662D01*
X746384Y-258006D01*
X746814Y-258607D01*
X746900Y-258779D01*
X747029Y-258822D01*
X747244Y-259209D01*
X747415Y-259381D01*
X747673Y-259811D01*
X748017Y-260155D01*
X748103Y-260499D01*
X748189Y-261616D01*
X748361Y-262046D01*
X748447Y-262304D01*
X748619Y-262733D01*
X748963Y-263335D01*
X749479Y-263851D01*
X749908Y-264023D01*
X750252Y-264109D01*
X750166Y-264968D01*
X750338Y-265398D01*
X750553Y-265699D01*
X750725Y-265785D01*
X751112Y-266258D01*
X751198Y-267203D01*
X751026Y-267891D01*
X750854Y-269095D01*
X750639Y-269567D01*
X750510Y-270298D01*
X750123Y-270685D01*
X749951Y-270771D01*
X749779Y-270943D01*
X748576Y-271630D01*
X748318Y-271888D01*
X747974Y-271974D01*
X747458Y-272318D01*
X747029Y-272404D01*
X746900Y-272275D01*
X746943Y-272060D01*
X747115Y-271974D01*
X747630Y-271458D01*
X747802Y-271373D01*
X748103Y-271072D01*
X748576Y-270685D01*
X748748Y-270599D01*
X748791Y-270470D01*
X749006Y-270255D01*
X749178Y-270169D01*
X749307Y-269868D01*
X749650Y-269352D01*
X749736Y-268751D01*
X749650Y-268149D01*
X749521Y-267762D01*
X749307Y-267203D01*
X749092Y-266989D01*
X748920Y-266903D01*
X748748Y-266731D01*
X748060Y-266645D01*
X747716Y-266559D01*
X747458Y-266645D01*
X747329Y-266602D01*
X744278Y-266645D01*
X744020Y-266731D01*
X743332Y-266817D01*
X742989Y-266731D01*
X742817Y-266559D01*
X742688Y-265742D01*
X742473Y-265011D01*
X742387Y-264668D01*
X742301Y-264152D01*
X742172Y-263421D01*
X742043Y-262948D01*
X741957Y-262519D01*
X741871Y-261659D01*
X741785Y-259854D01*
X741656Y-259123D01*
X741785Y-258736D01*
X741914Y-256373D01*
X742000Y-256029D01*
X742172Y-255427D01*
X742258Y-255169D01*
Y-255083D01*
X742344Y-254567D01*
X742602Y-253966D01*
X742774Y-253278D01*
X743633Y-251473D01*
X743891Y-251215D01*
X743977Y-251043D01*
X744321Y-250699D01*
X744407Y-250527D01*
X744622Y-250312D01*
X745052Y-250054D01*
X745223Y-249883D01*
X745825Y-249539D01*
X745997Y-249367D01*
X746685Y-249195D01*
X747158Y-248980D01*
X747587Y-248894D01*
X748103Y-248808D01*
X748447Y-248722D01*
X749092Y-248593D01*
X749350Y-248507D01*
X751499Y-248421D01*
X751842Y-248507D01*
D02*
G37*
G36*
X756656Y-249453D02*
X757086Y-249711D01*
X757430Y-250054D01*
X757516D01*
X757688Y-250140D01*
X758031Y-250484D01*
X758203Y-250570D01*
X758805Y-251172D01*
X758977Y-251258D01*
X759751Y-252031D01*
X759923Y-252118D01*
X760052Y-252332D01*
X760009Y-252547D01*
X759708Y-252762D01*
X759278Y-252934D01*
X758762Y-253020D01*
X758203Y-253149D01*
X757602Y-253235D01*
X756914Y-253063D01*
X756785Y-252934D01*
X756355Y-252160D01*
X756183Y-251129D01*
X756097Y-250785D01*
X756012Y-250527D01*
X756054Y-249453D01*
X756398Y-249367D01*
X756656Y-249453D01*
D02*
G37*
G36*
X679335Y-253020D02*
X679292Y-253235D01*
X679120D01*
X678991Y-253106D01*
X679120Y-252977D01*
X679335Y-253020D01*
D02*
G37*
G36*
X671083Y-245714D02*
X671169Y-246057D01*
X671341Y-247089D01*
X671470Y-247476D01*
X671943Y-247777D01*
X672029Y-248120D01*
X671728Y-248421D01*
X671556Y-248507D01*
X671427Y-248636D01*
X671341Y-249066D01*
X671771Y-250011D01*
X672029Y-250441D01*
X672243Y-251000D01*
X672501Y-251086D01*
X672630Y-250871D01*
X672716Y-250527D01*
X672888Y-250097D01*
X672974Y-249152D01*
X673103Y-249023D01*
X673275Y-248937D01*
X673705Y-249625D01*
X673920Y-250183D01*
X674092Y-250355D01*
X674264Y-250785D01*
X674521Y-251043D01*
X674607Y-251215D01*
X675553Y-252160D01*
X676370Y-252719D01*
X676671Y-252934D01*
X676756Y-253278D01*
X676456Y-253407D01*
X675424Y-252891D01*
X675166Y-252633D01*
X674479Y-252547D01*
X674092Y-252676D01*
X674006Y-252848D01*
X673748Y-253106D01*
X673791Y-253235D01*
X674221Y-253063D01*
X674822Y-253149D01*
X675037Y-253364D01*
X675123Y-253536D01*
X675381Y-253794D01*
X675467Y-253966D01*
X675682Y-254181D01*
X676799Y-254266D01*
X677057Y-254181D01*
X678046Y-254223D01*
X678863Y-254181D01*
X679120Y-254266D01*
X679249Y-254223D01*
X680926Y-254266D01*
X681398Y-254395D01*
X682344Y-254481D01*
X682688Y-254567D01*
X683762Y-254524D01*
X684020Y-254610D01*
X685567Y-254352D01*
X685911Y-254266D01*
X686513Y-254181D01*
X686900Y-254052D01*
X687329Y-253880D01*
X688017Y-253708D01*
X688447Y-253536D01*
X688791Y-253450D01*
X689650Y-253278D01*
X690209Y-253149D01*
X690295D01*
X690381Y-253063D01*
X691842Y-252977D01*
X692186Y-253063D01*
X692573Y-253450D01*
X692659Y-253708D01*
X692487Y-254137D01*
X692401Y-254481D01*
X692057Y-254825D01*
X691971Y-254997D01*
X691584Y-255384D01*
X691413Y-255470D01*
X691198Y-255685D01*
X690123Y-256416D01*
X689350Y-256845D01*
X689178Y-257017D01*
X688834Y-257103D01*
X688404Y-257275D01*
X688232Y-257447D01*
X687544Y-257619D01*
X686943Y-257877D01*
X686599Y-257963D01*
X685997Y-258049D01*
X685567Y-258221D01*
X684278Y-258307D01*
X684020Y-258393D01*
X683461Y-258349D01*
X681012Y-258393D01*
X680410Y-258307D01*
X680152Y-258393D01*
X678948Y-258221D01*
X678562Y-258092D01*
X678089Y-257963D01*
X677960Y-257834D01*
X677874Y-257662D01*
X677401Y-257189D01*
X676713Y-257103D01*
X676284Y-256931D01*
X676112Y-256759D01*
X675768Y-256673D01*
X675510Y-256416D01*
X675338Y-256329D01*
X674736Y-255900D01*
X674565Y-255814D01*
X674307Y-255556D01*
X674135Y-255470D01*
X673877Y-255212D01*
X673576Y-254997D01*
X673361Y-254696D01*
X673189Y-254610D01*
X672845Y-254266D01*
X672673Y-254181D01*
X672158Y-253493D01*
X671986Y-253407D01*
X671857Y-253278D01*
X671771Y-253106D01*
X671427Y-252762D01*
X671341Y-252418D01*
X671040Y-252118D01*
X670825Y-251559D01*
X670653Y-251387D01*
X670567Y-251215D01*
X670395Y-250527D01*
X670223Y-250355D01*
X670052Y-249582D01*
X669880Y-249152D01*
X669794Y-248894D01*
X669708Y-247347D01*
X669794Y-247003D01*
X670310Y-246487D01*
X670567Y-246057D01*
X670653Y-245885D01*
X671040Y-245671D01*
X671083Y-245714D01*
D02*
G37*
G36*
X695839Y-255685D02*
X695797Y-255814D01*
X695711D01*
X695582Y-255771D01*
X695625Y-255642D01*
X695839Y-255685D01*
D02*
G37*
G36*
X694249Y-256759D02*
X694292Y-256974D01*
X694077Y-257103D01*
X693820Y-257017D01*
X693776Y-256802D01*
X693905Y-256759D01*
X693991D01*
X694034Y-256716D01*
X694249Y-256759D01*
D02*
G37*
G36*
X693175Y-257920D02*
X693132Y-258221D01*
X693046D01*
X692960Y-258307D01*
X692745Y-258092D01*
X692831Y-257834D01*
X693046Y-257791D01*
X693175Y-257920D01*
D02*
G37*
G36*
X691928Y-258307D02*
X692014Y-258479D01*
X691971Y-258693D01*
X691069Y-259166D01*
X690854Y-259123D01*
X690768Y-258779D01*
X691155Y-258479D01*
X691584Y-258221D01*
X691671D01*
X691928Y-258307D01*
D02*
G37*
G36*
X748404Y-257791D02*
X748447Y-257834D01*
X748705Y-258178D01*
X749135Y-258779D01*
X749393Y-259209D01*
X749350Y-259424D01*
X749006Y-259252D01*
X748834Y-258994D01*
X748662Y-258908D01*
X748447Y-258693D01*
X748361Y-258521D01*
X748103Y-258264D01*
X748017Y-258092D01*
X747759Y-257834D01*
X747802Y-257619D01*
X748146Y-257533D01*
X748404Y-257791D01*
D02*
G37*
G36*
X685438Y-260671D02*
X685395Y-260799D01*
X685052Y-260885D01*
X685009Y-260756D01*
X685095Y-260499D01*
X685137Y-260456D01*
X685309D01*
X685438Y-260671D01*
D02*
G37*
G36*
X678734Y-260499D02*
X678776Y-260541D01*
X678820Y-260671D01*
X678605Y-260885D01*
X678476Y-260756D01*
X678390Y-260585D01*
X678519Y-260456D01*
X678734Y-260499D01*
D02*
G37*
G36*
X679851D02*
X679937Y-260671D01*
X679851Y-260928D01*
X679808Y-260971D01*
X679679Y-260928D01*
X679593Y-260585D01*
X679722Y-260456D01*
X679851Y-260499D01*
D02*
G37*
G36*
X651441Y-267676D02*
X652129Y-267762D01*
X652817Y-267934D01*
X653418Y-268106D01*
X653676Y-268192D01*
X655223Y-268278D01*
X655481Y-268364D01*
X656169Y-268450D01*
X656771Y-268536D01*
X657115Y-268622D01*
X657373Y-268536D01*
X657458Y-268622D01*
X659436Y-268708D01*
X659908Y-268837D01*
X660596Y-268923D01*
X661026Y-269009D01*
X661799Y-269095D01*
X662659Y-269181D01*
X663218Y-269309D01*
X663476Y-269395D01*
X664249Y-269481D01*
X664851Y-269567D01*
X665195Y-269653D01*
X665625Y-269825D01*
X666570Y-269911D01*
X667559Y-270212D01*
X668375Y-270341D01*
X668977Y-270599D01*
X669751Y-270771D01*
X670223Y-270986D01*
X670696Y-271115D01*
X671040Y-271201D01*
X671513Y-271416D01*
X672072Y-271630D01*
X672458Y-272017D01*
X672974Y-272963D01*
X672931Y-273006D01*
X672802Y-273650D01*
X672716Y-273908D01*
X672630Y-274252D01*
X672458Y-274682D01*
X672287Y-274854D01*
X672201Y-275026D01*
X672072Y-275155D01*
X671900Y-275241D01*
X671728Y-275413D01*
X671126Y-275756D01*
X670868Y-276014D01*
X670524Y-276100D01*
X669923Y-276358D01*
X669751Y-276444D01*
X668719Y-276616D01*
X668375Y-276702D01*
X668118Y-276788D01*
X665797Y-276874D01*
X665539Y-276960D01*
X665367Y-276874D01*
X664980Y-276917D01*
X662573Y-277003D01*
X661928Y-277132D01*
X660768Y-277261D01*
X659822Y-277347D01*
X659779Y-277390D01*
X659693D01*
X659092Y-277476D01*
X658662Y-277648D01*
X658318Y-277733D01*
X657287Y-277905D01*
X656857Y-278077D01*
X654407Y-278034D01*
X653977Y-277948D01*
X653590Y-277991D01*
X653118Y-277862D01*
X652086Y-277777D01*
X650882Y-277691D01*
X649206Y-277562D01*
X648863Y-277476D01*
X648605Y-277390D01*
X646456Y-277304D01*
X646241Y-277089D01*
X646155Y-276487D01*
X646026Y-276014D01*
X645940Y-275499D01*
X645854Y-275155D01*
X645725Y-274424D01*
X645510Y-273865D01*
X645381Y-273393D01*
X645295Y-273049D01*
X645080Y-272576D01*
X644779Y-271759D01*
X644607Y-271587D01*
X644521Y-270728D01*
X644607Y-270384D01*
X645080Y-269911D01*
X645338Y-269997D01*
X645381Y-270126D01*
X645596Y-270255D01*
X645811Y-269868D01*
X646112Y-269567D01*
X646456Y-269481D01*
X646584Y-269696D01*
X646499Y-269868D01*
X646584Y-270470D01*
X646799Y-270685D01*
X646971Y-270771D01*
X647229Y-270857D01*
X647917Y-270685D01*
X648261Y-270341D01*
X648433Y-270255D01*
X648562Y-270384D01*
X648648Y-270814D01*
X648734Y-271416D01*
X648991Y-271673D01*
X649077Y-271845D01*
X649636Y-272232D01*
X650066Y-272404D01*
X650668Y-272490D01*
X650926Y-272404D01*
X651011Y-272490D01*
X652817Y-272404D01*
X653160Y-272318D01*
X653762Y-272232D01*
X654192Y-272060D01*
X654536Y-271974D01*
X655137Y-271888D01*
X655610Y-271673D01*
X656169Y-271544D01*
X656513Y-271458D01*
X657115Y-271201D01*
X657630Y-271115D01*
X658232Y-270943D01*
X658662Y-270771D01*
X661327Y-270685D01*
X661928Y-270771D01*
X662272Y-270857D01*
X662659Y-270986D01*
X663132Y-271115D01*
X663734Y-271201D01*
X664335Y-271458D01*
X664679Y-271373D01*
X664722Y-270900D01*
X663948Y-270384D01*
X663476Y-270255D01*
X663089Y-270126D01*
X662745Y-270040D01*
X662315Y-269954D01*
X661628Y-269868D01*
X661112Y-269782D01*
X660424Y-269696D01*
X660080Y-269610D01*
X657673Y-269438D01*
X656126Y-269352D01*
X654321Y-269266D01*
X653977Y-269181D01*
X651226Y-269095D01*
X649335Y-269009D01*
X648648Y-268923D01*
X648089Y-268708D01*
X647659Y-268536D01*
X647530Y-268321D01*
X647616Y-268063D01*
X647788Y-267891D01*
X648218Y-267805D01*
X648948Y-267676D01*
X649206Y-267590D01*
X650711Y-267633D01*
X651183Y-267590D01*
X651441Y-267676D01*
D02*
G37*
G36*
X646499Y-264281D02*
X646413Y-264539D01*
X646327Y-264711D01*
X645553Y-265828D01*
X645295Y-266258D01*
X645037Y-266516D01*
X644865Y-266945D01*
X644693Y-267117D01*
X644650Y-267160D01*
X644521Y-267461D01*
X644307Y-267934D01*
X644092Y-268493D01*
X643791Y-268708D01*
X643447Y-268622D01*
X643318Y-268493D01*
X643146Y-268063D01*
X642759Y-267762D01*
X642587Y-267676D01*
X641986Y-267590D01*
X641857Y-267461D01*
X641943Y-267117D01*
X642243Y-266989D01*
X643017Y-266645D01*
X643619Y-266559D01*
X643791Y-266387D01*
X644221Y-266129D01*
X644392Y-266043D01*
X644650Y-265785D01*
X644822Y-265699D01*
X644908Y-265527D01*
X645080Y-265441D01*
X645940Y-264582D01*
X646112Y-264496D01*
X646370Y-264238D01*
X646499Y-264281D01*
D02*
G37*
G36*
X740238Y-266645D02*
X740367Y-266860D01*
X740453Y-267719D01*
X740324Y-268880D01*
X740195Y-269696D01*
X739765Y-270298D01*
X739722Y-270341D01*
X739550D01*
X739421Y-270040D01*
X739507Y-269782D01*
X739464Y-268622D01*
X739507Y-267547D01*
X739765Y-266688D01*
X739980Y-266559D01*
X740238Y-266645D01*
D02*
G37*
G36*
X708562Y-270040D02*
X708519Y-270255D01*
X708476Y-270298D01*
X708261Y-270341D01*
X708132Y-270212D01*
X708046Y-270040D01*
X708175Y-269911D01*
X708347Y-269825D01*
X708562Y-270040D01*
D02*
G37*
G36*
X676026Y-267246D02*
X676456Y-267332D01*
X676499Y-267375D01*
X677401Y-267504D01*
X677960Y-267719D01*
X678304Y-267805D01*
X679249Y-267891D01*
X680066Y-268020D01*
X680410Y-268106D01*
X680668Y-268192D01*
X683332Y-268278D01*
X683676Y-268364D01*
X683934Y-268278D01*
X684880Y-268364D01*
X685137Y-268278D01*
X685610Y-268321D01*
X686169Y-268450D01*
X686513Y-268536D01*
X686814Y-268837D01*
X686900Y-269009D01*
X687287Y-269309D01*
X687802Y-269223D01*
X688318Y-268708D01*
X689521Y-268622D01*
X689865Y-268708D01*
X690123Y-268622D01*
X690897Y-268708D01*
X691499Y-268794D01*
X691885Y-268923D01*
X692444Y-269137D01*
X692616Y-269309D01*
X693089Y-269610D01*
X693648Y-269739D01*
X694034Y-269610D01*
X696226Y-269395D01*
X696828Y-269481D01*
X696957Y-269610D01*
X697043Y-269782D01*
X697215Y-269954D01*
X697645Y-270126D01*
X698118Y-270083D01*
X698375Y-269997D01*
X699493Y-269911D01*
X699622Y-270040D01*
X699536Y-270298D01*
X699450Y-270470D01*
X699536Y-270728D01*
X700438Y-270685D01*
X700696Y-270771D01*
X700567Y-271072D01*
X700095Y-271201D01*
X699751Y-271287D01*
X699321Y-271458D01*
X699063Y-271544D01*
X696742Y-271630D01*
X696484Y-271716D01*
X696140Y-271802D01*
X695882Y-271716D01*
X695281Y-271802D01*
X695023Y-271716D01*
X694335Y-271630D01*
X692960Y-271544D01*
X692100Y-271458D01*
X691499Y-271201D01*
X690811Y-271115D01*
X690295Y-270771D01*
X690123Y-270685D01*
X689951Y-270513D01*
X689350Y-270169D01*
X689178Y-269997D01*
X687974Y-269911D01*
X685309Y-269997D01*
X685052Y-270083D01*
X683547Y-270040D01*
X682645Y-269911D01*
X682043Y-269481D01*
X681441Y-269395D01*
X680839Y-269481D01*
X680238Y-269739D01*
X678261Y-269825D01*
X677874Y-269696D01*
X677315Y-269481D01*
X676971Y-269395D01*
X676713Y-269137D01*
X676370Y-269052D01*
X675897Y-268579D01*
X675467Y-267977D01*
X675381Y-267375D01*
X675510Y-267246D01*
X675768Y-267160D01*
X676026Y-267246D01*
D02*
G37*
G36*
X635840Y-272103D02*
X635925Y-272275D01*
X635797Y-272404D01*
X635582Y-272361D01*
X635496Y-272103D01*
X635797Y-272060D01*
X635840Y-272103D01*
D02*
G37*
G36*
X702630Y-272017D02*
X702673Y-272060D01*
X702931Y-272146D01*
X703146Y-272447D01*
X703060Y-272791D01*
X702845Y-273006D01*
X702329Y-273092D01*
X702115Y-272791D01*
X702029Y-272361D01*
X702501Y-271974D01*
X702630Y-272017D01*
D02*
G37*
G36*
X701341Y-272705D02*
X701427Y-272963D01*
X701298Y-273092D01*
X701083Y-273049D01*
X700997Y-272791D01*
X701040Y-272748D01*
X701212Y-272576D01*
X701341Y-272705D01*
D02*
G37*
G36*
X701900Y-273865D02*
X702072Y-273951D01*
X702201Y-274080D01*
X702287Y-274768D01*
X702201Y-275370D01*
X702029Y-275541D01*
X701943Y-275799D01*
X701728Y-276014D01*
X701083Y-276143D01*
X700997Y-276487D01*
X700696Y-277046D01*
X700095Y-277476D01*
X699665Y-277733D01*
X699321Y-277819D01*
X698848Y-278034D01*
X698289Y-278163D01*
X697946Y-278249D01*
X697000Y-278507D01*
X696742Y-278593D01*
X696269Y-278464D01*
X696183Y-278034D01*
X696355Y-277862D01*
X696441Y-277175D01*
X696398Y-277132D01*
X696312Y-277046D01*
X695968Y-276960D01*
X695238Y-277175D01*
X694765Y-277304D01*
X694163Y-277390D01*
X693690Y-277605D01*
X692788Y-277819D01*
X692358Y-278077D01*
X691842Y-278163D01*
X691069Y-278507D01*
X690725Y-278593D01*
X690123Y-278851D01*
X689693Y-279023D01*
X687716Y-279968D01*
X686943Y-280398D01*
X686083Y-280914D01*
X685911Y-281000D01*
X685309Y-281172D01*
X685181Y-281301D01*
X684708Y-281430D01*
X684364Y-281516D01*
X683891Y-281645D01*
X683461Y-281817D01*
X682774Y-281903D01*
X682430Y-281989D01*
X681871Y-282118D01*
X681613Y-282203D01*
X680926Y-282289D01*
X679765Y-282418D01*
X679034Y-282547D01*
X678776Y-282633D01*
X676885Y-282719D01*
X676284Y-282805D01*
X676026Y-282719D01*
X675854Y-282805D01*
X675510Y-282719D01*
X675252Y-282805D01*
X671642Y-282891D01*
X671298Y-282977D01*
X671040Y-283063D01*
X669364Y-283020D01*
X669020Y-282934D01*
X666441Y-282848D01*
X665582Y-282762D01*
X665238Y-282676D01*
X665152Y-282418D01*
X665281Y-282289D01*
X665711Y-282203D01*
X666183Y-282075D01*
X666527Y-281989D01*
X667344Y-281860D01*
X668547Y-281688D01*
X669020Y-281559D01*
X669794Y-281473D01*
X670997Y-281387D01*
X671685Y-281301D01*
X672115Y-281215D01*
X672630Y-281129D01*
X673576Y-281043D01*
X674350Y-280957D01*
X675037Y-280785D01*
X675854Y-280656D01*
X676456Y-280570D01*
X676799Y-280484D01*
X677272Y-280355D01*
X677616Y-280269D01*
X678132Y-280183D01*
X678562Y-280097D01*
X678991Y-279925D01*
X679550Y-279797D01*
X680238Y-279625D01*
X680668Y-279453D01*
X681183Y-279367D01*
X681742Y-279152D01*
X682645Y-278937D01*
X683418Y-278593D01*
X684020Y-278507D01*
X684364Y-278421D01*
X684493Y-278292D01*
X685395Y-278077D01*
X685782Y-277862D01*
X686255Y-277733D01*
X686599Y-277648D01*
X687201Y-277390D01*
X687716Y-277304D01*
X688447Y-277003D01*
X688920Y-276874D01*
X689650Y-276573D01*
X690209Y-276444D01*
X690553Y-276358D01*
X690682Y-276229D01*
X691584Y-276014D01*
X692014Y-275756D01*
X692530Y-275671D01*
X693304Y-275327D01*
X693820Y-275241D01*
X694421Y-274983D01*
X695195Y-274811D01*
X695582Y-274682D01*
X696140Y-274467D01*
X697516Y-274037D01*
X698118Y-273951D01*
X698547Y-273779D01*
X698762Y-273822D01*
X698848Y-273994D01*
X698762Y-274252D01*
X698676Y-274424D01*
X698332Y-274768D01*
X697731Y-275541D01*
X697774Y-276272D01*
X698031Y-276358D01*
X698203Y-276186D01*
X698375Y-276100D01*
X698719Y-275756D01*
X698891Y-275671D01*
X698934Y-275541D01*
X699149Y-275327D01*
X699321Y-275241D01*
X699364Y-275112D01*
X699579Y-274897D01*
X699751Y-274811D01*
X699794Y-274682D01*
X699923Y-274553D01*
X700095Y-274467D01*
X700352Y-274209D01*
X701126Y-273779D01*
X701728Y-273693D01*
X701900Y-273865D01*
D02*
G37*
G36*
X738648Y-278722D02*
X738734Y-278894D01*
X738690Y-278937D01*
X738519D01*
X738476Y-278808D01*
X738605Y-278679D01*
X738648Y-278722D01*
D02*
G37*
G36*
X734865Y-271673D02*
X734951Y-272619D01*
X735080Y-273092D01*
X735166Y-273521D01*
X735295Y-274080D01*
X735467Y-274682D01*
X735596Y-274811D01*
X735639Y-274854D01*
X735811Y-275456D01*
X735983Y-275627D01*
X736155Y-276057D01*
X736327Y-276659D01*
X736413Y-277003D01*
X736327Y-277347D01*
X736155Y-277948D01*
X735983Y-278378D01*
X735725Y-278808D01*
X735553Y-279238D01*
X735295Y-279668D01*
X735123Y-279839D01*
X735037Y-280012D01*
X734736Y-280226D01*
X734479Y-280140D01*
X734393Y-279883D01*
X734307Y-279367D01*
X734178Y-278808D01*
X734092Y-278464D01*
X734178Y-278206D01*
X734092Y-278034D01*
X734006Y-271501D01*
X734092Y-271158D01*
X734479Y-271115D01*
X734865Y-271673D01*
D02*
G37*
G36*
X662573Y-282504D02*
X662659Y-282934D01*
X662530Y-282977D01*
X662444D01*
X662229Y-282934D01*
X662143Y-282590D01*
X662272Y-282461D01*
X662573Y-282504D01*
D02*
G37*
G36*
X637344Y-276358D02*
X637516Y-276444D01*
X637860Y-276530D01*
X638117Y-276616D01*
X638418Y-276831D01*
X638891Y-276960D01*
X639063Y-277132D01*
X639665Y-277476D01*
X640095Y-277733D01*
X640438Y-278077D01*
X640610Y-278163D01*
X640868Y-278421D01*
X641040Y-278507D01*
X641169Y-278636D01*
X641255Y-278808D01*
X641513Y-279066D01*
X641728Y-279367D01*
X641900Y-279453D01*
X642243Y-280054D01*
X642415Y-280140D01*
X642501Y-280312D01*
X643103Y-280742D01*
X643705Y-281086D01*
X644565Y-281430D01*
X644908Y-281516D01*
X645295Y-281645D01*
X645854Y-281860D01*
X646456Y-281945D01*
X647014Y-282160D01*
X647659Y-282289D01*
X648390Y-282504D01*
X648734Y-282590D01*
X649464Y-282719D01*
X649851Y-282848D01*
X650539Y-283278D01*
X646542Y-283321D01*
X646284Y-283235D01*
X645166Y-283149D01*
X643275Y-283063D01*
X642673Y-282805D01*
X642501Y-282719D01*
X642029Y-281817D01*
Y-281731D01*
Y-281645D01*
X641943Y-281301D01*
X640868Y-279883D01*
X640567Y-279668D01*
X640481Y-279496D01*
X640352Y-279367D01*
X640181Y-279281D01*
X639923Y-279023D01*
X639665Y-278937D01*
X639321Y-279023D01*
X639192Y-279238D01*
X639106Y-279410D01*
X638977Y-279453D01*
X638805Y-279625D01*
X638375Y-279711D01*
X638032Y-279625D01*
X637602Y-279195D01*
X637473Y-278206D01*
X637387Y-277948D01*
X636957Y-277175D01*
X636742Y-276874D01*
X636656Y-276530D01*
X636699Y-276229D01*
X637172Y-276186D01*
X637344Y-276358D01*
D02*
G37*
G36*
X660854Y-283192D02*
X660811Y-283407D01*
X660467Y-283493D01*
X660209Y-283579D01*
X660080Y-283536D01*
X659650Y-283450D01*
X659607Y-283407D01*
X659565Y-283364D01*
X659607Y-283149D01*
X660381Y-283063D01*
X660854Y-283192D01*
D02*
G37*
G36*
X652946Y-283794D02*
X652817Y-283837D01*
X652774Y-283794D01*
X652817Y-283751D01*
X652946Y-283794D01*
D02*
G37*
G36*
X628275Y-270298D02*
X628361Y-270814D01*
X628533Y-271416D01*
X628662Y-271458D01*
X628877Y-271845D01*
X628963Y-272103D01*
X628920Y-273865D01*
X628834Y-275241D01*
X628748Y-276186D01*
X628662Y-276702D01*
X628576Y-277132D01*
X628490Y-278077D01*
X628404Y-279281D01*
X628232Y-281344D01*
X628146Y-281774D01*
X628017Y-284395D01*
X627931Y-286287D01*
X627845Y-286630D01*
X627458Y-286673D01*
X627286Y-286416D01*
X627158Y-285513D01*
X627029Y-285040D01*
X626857Y-284095D01*
X626728Y-283106D01*
X626642Y-282504D01*
X626556Y-282246D01*
X626470Y-280871D01*
X626384Y-280613D01*
X626298Y-276573D01*
X626384Y-275198D01*
Y-275112D01*
X626427Y-273779D01*
X626513Y-272834D01*
X626599Y-272490D01*
X626685Y-272060D01*
X626814Y-271158D01*
X627158Y-270384D01*
X627244Y-270212D01*
X627458Y-269997D01*
X627974Y-269911D01*
X628275Y-270298D01*
D02*
G37*
G36*
X754206Y-268751D02*
X754292Y-268923D01*
X754206Y-269266D01*
X754034Y-269438D01*
X753948Y-269782D01*
X753433Y-270900D01*
X753132Y-271458D01*
X752917Y-272017D01*
X752702Y-272232D01*
X752573Y-272705D01*
X752315Y-272963D01*
X752229Y-273135D01*
X752057Y-273564D01*
X751928Y-273607D01*
X751799Y-273908D01*
X751456Y-274424D01*
X751370Y-274596D01*
X751026Y-274940D01*
X750940Y-275112D01*
X750596Y-275456D01*
X750510Y-275627D01*
X750381Y-275671D01*
X750123Y-275928D01*
X749951Y-276014D01*
X749693Y-276272D01*
X749092Y-276616D01*
X749049Y-276659D01*
X749006Y-276702D01*
X748404Y-277046D01*
X747630Y-277476D01*
X747458Y-277648D01*
X747029Y-277819D01*
X746857Y-277991D01*
X746685Y-278077D01*
X746341Y-278421D01*
X746169Y-278507D01*
X745610Y-279066D01*
X745181Y-279839D01*
X745095Y-280097D01*
X745009Y-280785D01*
X744923Y-281043D01*
X744837Y-281989D01*
X744751Y-282590D01*
X744536Y-282805D01*
X744063Y-283106D01*
X743977Y-283450D01*
X744063Y-283708D01*
X743891Y-284395D01*
X743676Y-284610D01*
X743461Y-285169D01*
X743246Y-285556D01*
X743031Y-286458D01*
X742817Y-286931D01*
X742688Y-287662D01*
X742473Y-288393D01*
X742387Y-288736D01*
X742258Y-289639D01*
X742000Y-290241D01*
X741914Y-290842D01*
X741570Y-291616D01*
X741054Y-292733D01*
X740797Y-292991D01*
X740582Y-293292D01*
X740410Y-293378D01*
X740152Y-293636D01*
X739722Y-293894D01*
X739464Y-294152D01*
X739206Y-294238D01*
X738863Y-294582D01*
X738433Y-294668D01*
X738089Y-294582D01*
X737960Y-294367D01*
X737874Y-293077D01*
X737788Y-292819D01*
X737874Y-287834D01*
X737960Y-284653D01*
X738089Y-284610D01*
X738863Y-284954D01*
X739206Y-285040D01*
X739335Y-285169D01*
X739421Y-285341D01*
X739765Y-285857D01*
X739851Y-286373D01*
X740023Y-286802D01*
X740109Y-286974D01*
X740324Y-287189D01*
X740496Y-287275D01*
X740839Y-287189D01*
X741312Y-286544D01*
X741914Y-285427D01*
X742000Y-285083D01*
X742215Y-284696D01*
X742344Y-284137D01*
X742430Y-283794D01*
X742602Y-283364D01*
X742688Y-282246D01*
X742516Y-281817D01*
X742430Y-281645D01*
X742301Y-281516D01*
X741613Y-281344D01*
X741441Y-281086D01*
X741312Y-280613D01*
X741012Y-280312D01*
X740324Y-280226D01*
X739722Y-280140D01*
X739507Y-279925D01*
X739421Y-279582D01*
X739851Y-278980D01*
X740324Y-278593D01*
X740582Y-278507D01*
X741097Y-278163D01*
X742559Y-278077D01*
X743031Y-277948D01*
X743375Y-277862D01*
X744020Y-277733D01*
X744364Y-277648D01*
X744837Y-277433D01*
X745395Y-277304D01*
X745825Y-277046D01*
X745997Y-276960D01*
X746341Y-276874D01*
X746771Y-276616D01*
X746943Y-276530D01*
X748060Y-276014D01*
X748275Y-275799D01*
X748834Y-275585D01*
X749006Y-275413D01*
X749436Y-275155D01*
X749693Y-274897D01*
X749865Y-274811D01*
X750510Y-274166D01*
X750596Y-273994D01*
X750725Y-273865D01*
X751112Y-273393D01*
X751370Y-272963D01*
X751628Y-272705D01*
X751971Y-272103D01*
X752229Y-271673D01*
X752573Y-271158D01*
X752659Y-270900D01*
X752874Y-270685D01*
X753089Y-270126D01*
X753347Y-269868D01*
X753433Y-269524D01*
X753776Y-269181D01*
X753863Y-268837D01*
X753991Y-268708D01*
X754206Y-268751D01*
D02*
G37*
G36*
X750596Y-286630D02*
X750682Y-286802D01*
X750940Y-287060D01*
X751026Y-287232D01*
X751241Y-287361D01*
X751842Y-287705D01*
X753734Y-287619D01*
X753776Y-287662D01*
X753905Y-287705D01*
X754034Y-287834D01*
X753948Y-288178D01*
X754206Y-288435D01*
X754292Y-288779D01*
X754077Y-288908D01*
X752530Y-288822D01*
X752272Y-288736D01*
X751671Y-288650D01*
X751413Y-288564D01*
X750725Y-288479D01*
X750381Y-288393D01*
X749822Y-287834D01*
X749951Y-287447D01*
X750080Y-286630D01*
X750209Y-286501D01*
X750381Y-286416D01*
X750596Y-286630D01*
D02*
G37*
G36*
X756570Y-289338D02*
X756785Y-289639D01*
X756742Y-290026D01*
X756398Y-290112D01*
X756140Y-290026D01*
X756097Y-289983D01*
X755882Y-289768D01*
X755711Y-289682D01*
X755582Y-289467D01*
X755668Y-289209D01*
X755968Y-289080D01*
X756570Y-289338D01*
D02*
G37*
G36*
X629393Y-291530D02*
X629350Y-291659D01*
X628920Y-291745D01*
X628877Y-291358D01*
X629178Y-291315D01*
X629264D01*
X629393Y-291530D01*
D02*
G37*
G36*
X633905Y-273264D02*
X634077Y-273349D01*
X634292Y-273822D01*
X634550Y-274080D01*
X634636Y-274510D01*
X634808Y-274940D01*
X634722Y-277862D01*
X634636Y-278120D01*
X634722Y-279754D01*
X635066Y-280613D01*
X635324Y-281043D01*
X635410Y-281731D01*
X635496Y-281989D01*
X635410Y-284911D01*
X635281Y-285384D01*
X635195Y-286072D01*
X634980Y-288178D01*
X634851Y-288650D01*
X634765Y-289080D01*
X634679Y-289596D01*
X634593Y-290456D01*
X634464Y-290928D01*
X634292Y-291358D01*
X634206Y-292132D01*
X633948Y-292733D01*
X633862Y-293077D01*
X633733Y-293550D01*
X633304Y-294496D01*
X632960Y-294582D01*
X632788Y-294324D01*
X632702Y-293980D01*
X632573Y-292991D01*
Y-292905D01*
X632487Y-291960D01*
X632315Y-291530D01*
X632401Y-291358D01*
X632272Y-290885D01*
X632186Y-289768D01*
X632100Y-288049D01*
X631971Y-283880D01*
X632057Y-276831D01*
X632143Y-276487D01*
X632229Y-274338D01*
X632401Y-273736D01*
X632487Y-273393D01*
X632702Y-272920D01*
X633218Y-272834D01*
X633905Y-273264D01*
D02*
G37*
G36*
X704994Y-271115D02*
X705123Y-271243D01*
X705209Y-271416D01*
X705553Y-271759D01*
X705639Y-272103D01*
X705811Y-272275D01*
X707014Y-274596D01*
X707358Y-275198D01*
X707616Y-275456D01*
X707702Y-275627D01*
X707831Y-275756D01*
X708261Y-276014D01*
X708476Y-276229D01*
X708562Y-277089D01*
X708648Y-277347D01*
X708734Y-277948D01*
X708905Y-278378D01*
X709034Y-278507D01*
X709206Y-278593D01*
X709421Y-278808D01*
X709507Y-278980D01*
X709636Y-279109D01*
X709722Y-279625D01*
X709679Y-281215D01*
X709421Y-281817D01*
X709335Y-282848D01*
X709249Y-283192D01*
X709077Y-283794D01*
X708905Y-284481D01*
X708820Y-285083D01*
X708562Y-285685D01*
X708476Y-286201D01*
X708390Y-286544D01*
X708304Y-286802D01*
X708175Y-287103D01*
X708089Y-287533D01*
X707960Y-288092D01*
X707831Y-288221D01*
X707616Y-289123D01*
X707315Y-289854D01*
X707186Y-290413D01*
X707100Y-290756D01*
X706971Y-290885D01*
X706756Y-291788D01*
X706542Y-292175D01*
X706413Y-292647D01*
X706155Y-293249D01*
X706069Y-293421D01*
X705897Y-294023D01*
X705725Y-294453D01*
X705639Y-294883D01*
X705510Y-295011D01*
X705252Y-295097D01*
X705166Y-294839D01*
X705080Y-293292D01*
X704994Y-292948D01*
X704908Y-292175D01*
X704822Y-291229D01*
X704736Y-290026D01*
X704650Y-289252D01*
X704565Y-288736D01*
X704479Y-288393D01*
X704350Y-287318D01*
X704178Y-286630D01*
X704049Y-286243D01*
X703834Y-285341D01*
X703662Y-285169D01*
X703576Y-284825D01*
X703146Y-283880D01*
X703060Y-283536D01*
X702931Y-283063D01*
X702974Y-282848D01*
X703361Y-282461D01*
X703705Y-282375D01*
X703920Y-282160D01*
X703877Y-281945D01*
X703361Y-281860D01*
X702759Y-281602D01*
X702329Y-281430D01*
X702201Y-281301D01*
X702115Y-280785D01*
X702673Y-280226D01*
X703017Y-280140D01*
X703146Y-280012D01*
X703705Y-279797D01*
X704650Y-279367D01*
X705037Y-278636D01*
X704994Y-278507D01*
X704908Y-278077D01*
X704693Y-276831D01*
X704607Y-276487D01*
X704479Y-276014D01*
X704392Y-275327D01*
X704307Y-273951D01*
X704264Y-273908D01*
Y-273221D01*
X704350Y-271587D01*
X704479Y-271201D01*
X704779Y-271072D01*
X704994Y-271115D01*
D02*
G37*
G36*
X758118Y-291057D02*
X758547Y-291745D01*
X759149Y-292175D01*
X759235Y-292089D01*
X759622Y-292218D01*
X759708Y-292390D01*
X759966Y-292647D01*
X760052Y-292991D01*
X760395Y-293507D01*
X760481Y-293679D01*
X760911Y-294109D01*
X760997Y-294281D01*
X761470Y-294668D01*
X761642Y-294754D01*
X761900Y-295011D01*
X762072Y-295097D01*
X762974Y-296000D01*
X762931Y-296301D01*
X762759Y-296387D01*
X762415Y-296301D01*
X762072Y-295957D01*
X761900Y-295871D01*
X761556Y-295527D01*
X761384Y-295441D01*
X760911Y-294968D01*
X760825Y-294797D01*
X760696Y-294754D01*
X760052Y-294109D01*
X759579Y-293722D01*
X759536Y-293679D01*
X758504Y-292647D01*
X758418Y-292476D01*
X757989Y-292046D01*
X757903Y-291874D01*
X757774Y-291831D01*
X757645Y-291702D01*
X757559Y-291530D01*
X757430Y-291487D01*
X757215Y-291272D01*
X757129Y-290842D01*
X757258Y-290713D01*
X757516Y-290627D01*
X758118Y-291057D01*
D02*
G37*
G36*
X640610Y-287361D02*
X641814Y-287447D01*
X642415Y-287619D01*
X642673Y-287533D01*
X643146Y-287576D01*
X646112Y-287705D01*
X646370Y-287791D01*
X647573Y-287877D01*
X647831Y-287791D01*
X648003Y-287877D01*
X650839Y-287963D01*
X651097Y-288049D01*
X658275Y-288006D01*
X661928Y-287877D01*
X662401Y-287748D01*
X664507Y-287619D01*
X664765Y-287533D01*
X666613Y-287576D01*
X667645Y-287748D01*
X668461Y-287877D01*
X668719Y-287963D01*
X670782Y-288049D01*
X671126Y-288135D01*
X673017Y-288221D01*
X673404Y-288350D01*
X674436Y-288435D01*
X676112Y-288564D01*
X676584Y-288693D01*
X677100Y-288779D01*
X677960Y-288865D01*
X679120Y-288994D01*
X679550Y-289166D01*
X680324Y-289252D01*
X680926Y-289338D01*
X681355Y-289510D01*
X682129Y-289596D01*
X682387Y-289682D01*
X684364Y-289768D01*
X685481Y-289682D01*
X685825Y-289768D01*
X685997Y-290026D01*
X685954Y-290327D01*
X685911Y-290370D01*
X685868Y-290413D01*
X685782Y-290585D01*
X685653Y-290713D01*
X685309Y-291229D01*
X685137Y-291315D01*
X684708Y-291745D01*
X684536Y-291831D01*
X684278Y-292089D01*
X684106Y-292175D01*
X683762Y-292519D01*
X683590Y-292605D01*
X683418Y-292777D01*
X682989Y-293034D01*
X682473Y-293378D01*
X681785Y-293464D01*
X681012Y-293808D01*
X680668Y-293894D01*
X679894Y-294238D01*
X679464Y-294410D01*
X679335Y-294539D01*
X678863Y-294668D01*
X678347Y-295011D01*
X678003Y-295097D01*
X677831Y-295269D01*
X677401Y-295527D01*
X677143Y-295785D01*
X676971Y-295871D01*
X676713Y-296129D01*
X676112Y-296473D01*
X675940Y-296645D01*
X675596Y-296731D01*
X674994Y-296903D01*
X674650Y-296989D01*
X674393Y-297075D01*
X673748Y-297031D01*
X672931Y-296903D01*
X672673Y-296989D01*
X672243Y-297075D01*
X671384Y-297160D01*
X670782Y-297246D01*
X670052Y-297461D01*
X669321Y-297590D01*
X668762Y-297805D01*
X668418Y-297891D01*
X667602Y-298020D01*
X667258Y-298106D01*
X667000Y-298192D01*
X666226Y-298364D01*
X665109Y-298450D01*
X663905Y-298622D01*
X663648Y-298708D01*
X661241Y-298794D01*
X660983Y-298880D01*
X657029Y-298966D01*
X656771Y-299051D01*
X648776Y-299137D01*
X646628Y-299223D01*
X646284Y-299309D01*
X645897Y-299438D01*
X645424Y-299567D01*
X644392Y-299739D01*
X643963Y-299911D01*
X643705Y-299997D01*
X641556Y-300083D01*
X641212Y-299997D01*
X640997Y-299782D01*
X640524Y-299653D01*
X640266Y-299567D01*
X640137Y-299610D01*
X639708Y-299696D01*
X639149Y-299825D01*
X638805Y-299739D01*
X638461Y-299395D01*
X638332Y-298321D01*
X638418Y-296430D01*
X638504Y-295828D01*
X638633Y-295699D01*
X639063Y-295441D01*
X639235Y-295183D01*
X639192Y-294797D01*
X638934Y-294539D01*
X638848Y-294367D01*
X638590Y-294109D01*
X638332Y-293679D01*
X638246Y-292304D01*
X638418Y-290585D01*
X638633Y-290026D01*
X638762Y-289553D01*
X638848Y-289209D01*
X639063Y-288736D01*
X639192Y-288264D01*
X639536Y-287490D01*
X639665Y-287361D01*
X640352Y-287275D01*
X640610Y-287361D01*
D02*
G37*
G36*
X704693Y-297633D02*
X704779Y-298149D01*
X704693Y-298493D01*
X704650Y-298536D01*
X704565Y-298622D01*
X704392Y-298450D01*
X704307Y-298106D01*
X704350Y-297719D01*
X704479Y-297590D01*
X704693Y-297633D01*
D02*
G37*
G36*
X749307Y-294539D02*
X749650Y-295140D01*
X749736Y-295656D01*
X749908Y-296086D01*
X750037Y-296215D01*
X750166Y-296774D01*
X750424Y-297375D01*
X750596Y-298149D01*
X750854Y-299009D01*
X750940Y-299266D01*
X751026Y-300556D01*
X751112Y-300814D01*
X751198Y-301845D01*
X751112Y-302189D01*
X750940Y-303221D01*
X750596Y-303994D01*
X750424Y-304424D01*
X750166Y-304854D01*
X750080Y-305198D01*
X749865Y-305327D01*
X749650Y-305112D01*
X749565Y-304080D01*
X749436Y-303607D01*
X749307Y-301072D01*
Y-300986D01*
X749264Y-300771D01*
X749135Y-298665D01*
X749049Y-298407D01*
X748963Y-296602D01*
X748877Y-296344D01*
X748920Y-295613D01*
X748877Y-294883D01*
X749006Y-294496D01*
X749178Y-294410D01*
X749307Y-294539D01*
D02*
G37*
G36*
X774063Y-305799D02*
X774020Y-306014D01*
X773762Y-306100D01*
X773633Y-305971D01*
X773676Y-305756D01*
X773719Y-305714D01*
X773934Y-305671D01*
X774063Y-305799D01*
D02*
G37*
G36*
X769679Y-305198D02*
X770625Y-305541D01*
X771054Y-305714D01*
X771527Y-305842D01*
X771871Y-305928D01*
X772043Y-306100D01*
X772731Y-306272D01*
X773160Y-306444D01*
X773848Y-306702D01*
X774450Y-306960D01*
X774966Y-307046D01*
X775739Y-307390D01*
X776083Y-307476D01*
X776814Y-307777D01*
X777287Y-307905D01*
X777716Y-308163D01*
X778060Y-308249D01*
X779006Y-308679D01*
X779436Y-308851D01*
X779607Y-309023D01*
X779951Y-309109D01*
X780295Y-309453D01*
X780639Y-309539D01*
X780682Y-310183D01*
X779951Y-310226D01*
X779479Y-310011D01*
X778748Y-309883D01*
X777974Y-309539D01*
X777630Y-309453D01*
X776771Y-309109D01*
X776040Y-308808D01*
X775567Y-308679D01*
X775009Y-308378D01*
X774966Y-308335D01*
X774278Y-308163D01*
X774149Y-308034D01*
X773590Y-307819D01*
X772817Y-307476D01*
X771871Y-307046D01*
X771441Y-306874D01*
X770496Y-306358D01*
X770066Y-306186D01*
X769464Y-305756D01*
X769292Y-305671D01*
X769163Y-305456D01*
X769292Y-305069D01*
X769679Y-305198D01*
D02*
G37*
G36*
X737186Y-296430D02*
X737272Y-296688D01*
X737186Y-297031D01*
X736928Y-297977D01*
X736671Y-298579D01*
X736584Y-298837D01*
X736155Y-299782D01*
X735768Y-300685D01*
X735639Y-301243D01*
X735381Y-301845D01*
X735295Y-303479D01*
X735166Y-303607D01*
X734994Y-303693D01*
X734650Y-303779D01*
X734350Y-304338D01*
X734092Y-304768D01*
X734006Y-305112D01*
X733232Y-306745D01*
X732630Y-307691D01*
X732373Y-308120D01*
X732115Y-308378D01*
X732029Y-308550D01*
X731599Y-309152D01*
X731513Y-309324D01*
X731255Y-309582D01*
X731169Y-309754D01*
X730997Y-309925D01*
X730739Y-310355D01*
X730567Y-310527D01*
X730352Y-310828D01*
X729966Y-311301D01*
X729880Y-311473D01*
X729536Y-311817D01*
X729450Y-311989D01*
X729278Y-312160D01*
X729063Y-312461D01*
X728676Y-312934D01*
X728590Y-313106D01*
X728461Y-313149D01*
X728246Y-313450D01*
X728160Y-313622D01*
X728031Y-313665D01*
X727817Y-314052D01*
X727559Y-314309D01*
X727473Y-314481D01*
X727129Y-314825D01*
X727043Y-314997D01*
X726699Y-315341D01*
X726613Y-315513D01*
X726355Y-315771D01*
X726269Y-315943D01*
X725839Y-316373D01*
X725754Y-316544D01*
X725582Y-316716D01*
X725367Y-317017D01*
X724980Y-317490D01*
X724894Y-317662D01*
X724765Y-317791D01*
X723948Y-318865D01*
X723734Y-319166D01*
X723347Y-319639D01*
X723261Y-319811D01*
X723003Y-320069D01*
X722917Y-320327D01*
X722745Y-320499D01*
X722487Y-320928D01*
X722143Y-321272D01*
X722057Y-321444D01*
X721671Y-321831D01*
X721284Y-322304D01*
X721198Y-322476D01*
X721069Y-322605D01*
X720897Y-322691D01*
X720854Y-322820D01*
X720424Y-323249D01*
X720338Y-323421D01*
X720166Y-323507D01*
X720080Y-323679D01*
X716943Y-326817D01*
X716771Y-326903D01*
X716685Y-327075D01*
X716513Y-327160D01*
X715739Y-327934D01*
X715567Y-328020D01*
X715223Y-328364D01*
X715052Y-328450D01*
X714622Y-328880D01*
X714450Y-328966D01*
X714106Y-329310D01*
X713934Y-329395D01*
X713676Y-329653D01*
X713504Y-329739D01*
X713375Y-329868D01*
X712903Y-330255D01*
X712129Y-330685D01*
X711957Y-330857D01*
X711527Y-331029D01*
X711355Y-331201D01*
X710152Y-331888D01*
X710109Y-332017D01*
X709378Y-332404D01*
X708948Y-332662D01*
X708690Y-332920D01*
X708519Y-333006D01*
X707659Y-333521D01*
X707487Y-333693D01*
X707057Y-333951D01*
X706456Y-334381D01*
X705854Y-334725D01*
X705596Y-334983D01*
X705338Y-335069D01*
X705080Y-335327D01*
X703877Y-336014D01*
X703576Y-336229D01*
X703017Y-336444D01*
X702759Y-336702D01*
X702415Y-336788D01*
X702244Y-336960D01*
X701814Y-337218D01*
X701212Y-337562D01*
X700868Y-337905D01*
X700524Y-337991D01*
X700352Y-338163D01*
X699923Y-338421D01*
X699751Y-338593D01*
X699149Y-338937D01*
X698547Y-339367D01*
X698118Y-339625D01*
X697946Y-339797D01*
X697516Y-340054D01*
X697258Y-340312D01*
X696656Y-340656D01*
X696226Y-340914D01*
X695968Y-341172D01*
X695797Y-341258D01*
X695410Y-341473D01*
X694335Y-342203D01*
X693734Y-342547D01*
X693605Y-342676D01*
X692530Y-343407D01*
X692358Y-343493D01*
X692186Y-343665D01*
X691885Y-343794D01*
X691370Y-343880D01*
X690510Y-343966D01*
X690080Y-344052D01*
X688963Y-344137D01*
X687587Y-344224D01*
X686556Y-344309D01*
X685696Y-344395D01*
X685352Y-344481D01*
X682903Y-344610D01*
X682645Y-344696D01*
X682043Y-344610D01*
X681785Y-344696D01*
X680152Y-344782D01*
X679894Y-344868D01*
X678175Y-344954D01*
X677917Y-344868D01*
X677831Y-344954D01*
X667731Y-344911D01*
X666312Y-344954D01*
X666054Y-344868D01*
X664765Y-344782D01*
X664163Y-344696D01*
X663820Y-344610D01*
X663562Y-344696D01*
X663347Y-344653D01*
X662143Y-344567D01*
X661284Y-344481D01*
X660940Y-344395D01*
X659006Y-344095D01*
X658447Y-343880D01*
X657501Y-343622D01*
X657072Y-343450D01*
X656040Y-343278D01*
X655567Y-343321D01*
X655310Y-343235D01*
X655181Y-342762D01*
X654966Y-342547D01*
X654364Y-342461D01*
X653805Y-342246D01*
X653332Y-342118D01*
X652731Y-341945D01*
X652602Y-341817D01*
X652129Y-341688D01*
X651957Y-341516D01*
X651183Y-341086D01*
X650754Y-340828D01*
X650238Y-340484D01*
X649550Y-340398D01*
X649335Y-340699D01*
X649249Y-342332D01*
X649335Y-342590D01*
X649464Y-344180D01*
X649550Y-345384D01*
X649679Y-346888D01*
X649851Y-347318D01*
X649808Y-347877D01*
X645381Y-347834D01*
X645467Y-346287D01*
X645639Y-345857D01*
X645725Y-344653D01*
X645811Y-344395D01*
X645768Y-344267D01*
X645811Y-343708D01*
X645940Y-343579D01*
X646198Y-343665D01*
X646370Y-343837D01*
X646542Y-343923D01*
X646928Y-343794D01*
X647014Y-343450D01*
X647186Y-343020D01*
X647272Y-342676D01*
X647358Y-342418D01*
X647444Y-340699D01*
X647358Y-339840D01*
X647100Y-339582D01*
X647014Y-339410D01*
X646885Y-339281D01*
X646713Y-339195D01*
X646542Y-339023D01*
X646112Y-338765D01*
X645940Y-338593D01*
X644736Y-337905D01*
X644521Y-337691D01*
X643963Y-337476D01*
X643748Y-337261D01*
X643189Y-337046D01*
X643017Y-336874D01*
X642845Y-336788D01*
X642415Y-336616D01*
X642243Y-336444D01*
X641814Y-336272D01*
X641384Y-336014D01*
X641040Y-335928D01*
X640524Y-335584D01*
X640352Y-335499D01*
X640009Y-335413D01*
X639837Y-335241D01*
X639149Y-334983D01*
X638977Y-334811D01*
X638547Y-334639D01*
X636054Y-333436D01*
X635925Y-333307D01*
X635754Y-332877D01*
X635539Y-332318D01*
X635410Y-331501D01*
X635152Y-330900D01*
X635066Y-330384D01*
X634980Y-330040D01*
X634765Y-329310D01*
X634636Y-328665D01*
X634550Y-328321D01*
X634292Y-327461D01*
X634206Y-327118D01*
X634120Y-326516D01*
X633905Y-325957D01*
X633777Y-325226D01*
X633605Y-324539D01*
X633519Y-324281D01*
X633390Y-323464D01*
X633304Y-322948D01*
X633175Y-322218D01*
X633089Y-321874D01*
X633003Y-321616D01*
X633046Y-321229D01*
X633390Y-321143D01*
X633777Y-321788D01*
X633862Y-322304D01*
X633948Y-322648D01*
X634077Y-323120D01*
X634206Y-323679D01*
X634292Y-324281D01*
X634421Y-324668D01*
X634851Y-324754D01*
X635195Y-324410D01*
X635711Y-324324D01*
X635840Y-324453D01*
X635925Y-324711D01*
Y-324797D01*
X636012Y-324968D01*
X636355Y-325742D01*
X636828Y-326215D01*
X637430Y-326559D01*
X637817Y-326688D01*
X638160Y-327289D01*
X638332Y-330556D01*
X638418Y-330900D01*
X638805Y-331287D01*
X639493Y-331544D01*
X639665Y-331716D01*
X639923Y-331802D01*
X640438Y-332146D01*
X640610Y-332232D01*
X640782Y-332404D01*
X641900Y-333006D01*
X642373Y-333221D01*
X642931Y-333436D01*
X643533Y-333693D01*
X643705Y-333779D01*
X644049Y-333865D01*
X644436Y-333994D01*
X644865Y-334166D01*
X645596Y-334295D01*
X646198Y-334553D01*
X647229Y-334639D01*
X648089Y-334725D01*
X648605Y-335069D01*
X648776Y-335155D01*
X648991Y-335370D01*
X649077Y-335541D01*
X649206Y-335671D01*
X649636Y-335928D01*
X649894Y-336014D01*
X651183Y-336100D01*
X651441Y-336186D01*
X653074Y-336272D01*
X653418Y-336358D01*
X654020Y-336444D01*
X654364Y-336530D01*
X654794Y-336702D01*
X655395Y-336874D01*
X655524Y-337003D01*
X656083Y-337218D01*
X656255Y-337390D01*
X656685Y-337648D01*
X657329Y-338550D01*
X657415Y-338722D01*
X658232Y-339539D01*
X658404Y-339625D01*
X658576Y-339797D01*
X659006Y-340054D01*
X659436Y-340226D01*
X659565Y-340355D01*
X660123Y-340484D01*
X660725Y-340742D01*
X660983Y-340656D01*
X661112Y-340269D01*
X661241Y-340140D01*
X661370Y-340183D01*
X661456Y-340613D01*
X661799Y-340871D01*
X662530Y-341000D01*
X662788Y-341086D01*
X663991Y-341172D01*
X664249Y-341258D01*
X667860Y-341344D01*
X668118Y-341430D01*
X670610Y-341516D01*
X670954Y-341430D01*
X671384Y-341602D01*
X681140Y-341559D01*
X681484Y-341473D01*
X682559Y-341516D01*
X682817Y-341430D01*
X683676Y-341344D01*
X685911Y-341172D01*
X686255Y-341086D01*
X686513Y-341000D01*
X687630Y-340828D01*
X688361Y-340527D01*
X688920Y-340398D01*
X689092Y-340140D01*
X689264Y-340054D01*
X689479Y-339840D01*
X689951Y-339453D01*
X690381Y-339195D01*
X691413Y-339109D01*
X691885Y-338980D01*
X692444Y-338851D01*
X693390Y-338249D01*
X693820Y-337991D01*
X694163Y-337648D01*
X694335Y-337562D01*
X694593Y-337304D01*
X694765Y-337218D01*
X695109Y-336874D01*
X695281Y-336788D01*
X695453Y-336616D01*
X695882Y-336358D01*
X696054Y-336186D01*
X696484Y-335928D01*
X696914Y-335756D01*
X697086Y-335584D01*
X697430Y-335499D01*
X697688Y-335413D01*
X697860Y-335327D01*
X697989Y-335198D01*
X698461Y-335069D01*
X698805Y-334983D01*
X698977Y-334811D01*
X699407Y-334639D01*
X700524Y-334123D01*
X701126Y-333779D01*
X701298Y-333607D01*
X701728Y-333349D01*
X702201Y-332877D01*
X702673Y-332490D01*
X703275Y-332146D01*
X703447Y-331974D01*
X704736Y-331287D01*
X705338Y-330943D01*
X706284Y-330513D01*
X707057Y-330169D01*
X708948Y-329310D01*
X709292Y-329224D01*
X709464Y-329052D01*
X709894Y-328880D01*
X710238Y-328794D01*
X710410Y-328622D01*
X710582Y-328536D01*
X711527Y-328106D01*
X711957Y-327934D01*
X712129Y-327762D01*
X712387Y-327676D01*
X712645Y-327418D01*
X712946Y-327203D01*
X713031Y-327032D01*
X713160Y-326903D01*
X713332Y-326817D01*
X713461Y-326516D01*
X713934Y-326043D01*
X714278Y-325957D01*
X714880Y-325699D01*
X715223Y-325613D01*
X715825Y-325183D01*
X715997Y-325097D01*
X716255Y-324840D01*
X716427Y-324754D01*
X716986Y-324023D01*
X717243Y-323593D01*
X717415Y-323421D01*
X717501Y-323077D01*
X717587Y-322476D01*
X717845Y-322218D01*
X717931Y-322046D01*
X718060Y-321917D01*
X718232Y-321831D01*
X718576Y-321487D01*
X719436Y-321401D01*
X719779Y-321745D01*
X719908Y-321702D01*
X719994Y-321272D01*
X719822Y-320842D01*
X719736Y-320069D01*
X719865Y-319940D01*
X720338Y-319983D01*
X720768Y-320155D01*
X721069Y-320112D01*
X721155Y-319940D01*
X721112Y-319553D01*
X720983Y-319424D01*
X720768Y-318521D01*
X720381Y-318221D01*
X719436Y-318135D01*
X719135Y-317748D01*
X719221Y-317146D01*
X719350Y-317017D01*
X719779Y-316845D01*
X720252Y-316974D01*
X720510Y-317404D01*
X720768Y-317662D01*
X720940Y-318092D01*
X721499Y-318650D01*
X721756Y-318564D01*
X722057Y-318264D01*
X722143Y-317490D01*
X722229Y-316630D01*
X722401Y-316201D01*
X722487Y-315771D01*
X722659Y-315341D01*
X723003Y-314739D01*
X723175Y-314567D01*
X723648Y-314181D01*
X723820Y-314095D01*
X724077Y-314181D01*
X724421Y-314266D01*
X724636Y-313966D01*
X724937Y-313493D01*
X725023Y-313063D01*
X725410Y-312590D01*
X725496Y-312418D01*
X725668Y-312332D01*
X725754Y-312160D01*
X725882Y-312031D01*
X726054Y-311946D01*
X726226Y-311688D01*
X726398Y-311602D01*
X726656Y-311344D01*
X727129Y-311043D01*
X727215Y-310871D01*
X727516Y-310742D01*
X728934Y-309324D01*
X729020Y-309152D01*
X729192Y-308980D01*
X729278Y-308808D01*
X729407Y-308765D01*
X729450Y-308636D01*
X729794Y-308292D01*
X729880Y-308120D01*
X730052Y-307948D01*
X731341Y-306143D01*
X731685Y-305541D01*
X731943Y-305284D01*
X732029Y-305112D01*
X732544Y-304252D01*
X732974Y-303479D01*
X733318Y-302877D01*
X733834Y-301931D01*
X734865Y-299954D01*
X735553Y-298493D01*
X735897Y-297891D01*
X736584Y-296602D01*
X736885Y-296387D01*
X737186Y-296430D01*
D02*
G37*
G36*
X646971Y-314954D02*
X647014Y-314997D01*
X646971Y-315212D01*
X646628Y-315298D01*
X646584Y-314997D01*
X646713Y-314868D01*
X646971Y-314954D01*
D02*
G37*
G36*
X631456Y-296774D02*
X631713Y-297203D01*
X631799Y-297547D01*
X632014Y-298020D01*
X632143Y-298493D01*
X632487Y-299266D01*
X632573Y-299782D01*
X632831Y-300642D01*
X632917Y-300900D01*
X633089Y-302705D01*
X633175Y-302963D01*
X633132Y-306100D01*
X633046Y-306874D01*
X632960Y-307819D01*
X632788Y-308679D01*
X632659Y-309238D01*
X632573Y-309582D01*
X632487Y-310183D01*
X632272Y-310656D01*
X632100Y-311516D01*
X632014Y-311860D01*
X631713Y-312676D01*
X631370Y-313794D01*
X631198Y-314395D01*
X631026Y-314567D01*
X630940Y-315083D01*
X630725Y-315298D01*
X630596Y-315255D01*
X630510Y-314825D01*
X630682Y-314395D01*
X630768Y-313794D01*
X630854Y-313536D01*
X630940Y-311903D01*
X631026Y-311645D01*
X631112Y-308292D01*
X631198Y-308034D01*
X631284Y-306573D01*
X631370Y-305198D01*
X631456Y-304940D01*
Y-304854D01*
Y-304682D01*
X631885Y-304252D01*
X631842Y-303607D01*
X631756Y-303264D01*
X631670Y-302232D01*
X631585Y-301716D01*
X631499Y-301287D01*
X631413Y-300771D01*
X631284Y-298149D01*
X631198Y-297891D01*
X631112Y-296945D01*
X631026Y-296602D01*
X631155Y-296473D01*
X631456Y-296774D01*
D02*
G37*
G36*
X651871Y-315814D02*
X652731Y-316072D01*
X653074Y-316158D01*
X653590Y-316501D01*
X653762Y-316587D01*
X653977Y-316802D01*
X653934Y-317189D01*
X653590Y-317275D01*
X653332Y-317361D01*
X652043Y-317275D01*
X651183Y-317189D01*
X650496Y-317017D01*
X649335Y-316888D01*
X649292Y-316845D01*
X649206D01*
X648820Y-316716D01*
X648734Y-316373D01*
X648863Y-316243D01*
X649163Y-316115D01*
X649679Y-316029D01*
X650238Y-315814D01*
X650496Y-315728D01*
X651140Y-315771D01*
X651527Y-315728D01*
X651871Y-315814D01*
D02*
G37*
G36*
X647530Y-316201D02*
Y-316287D01*
X647487Y-316415D01*
X647057Y-316501D01*
X647014Y-316115D01*
X647401Y-316072D01*
X647530Y-316201D01*
D02*
G37*
G36*
X639579Y-313751D02*
X639751Y-313837D01*
X639966Y-314137D01*
X640052Y-314309D01*
X640181Y-314438D01*
X643103Y-314524D01*
X643662Y-314739D01*
X644135Y-314868D01*
X644479Y-314954D01*
X644865Y-315341D01*
X644951Y-315943D01*
X644607Y-316716D01*
X644436Y-317146D01*
X643963Y-317447D01*
X642501Y-317361D01*
X642158Y-317275D01*
X641298Y-317361D01*
X640954Y-317447D01*
X640567Y-317834D01*
X640309Y-318264D01*
X640181Y-318393D01*
X640009Y-318822D01*
X639923Y-319166D01*
X639751Y-319596D01*
X639665Y-319940D01*
X639536Y-320842D01*
X639364Y-321444D01*
X639020Y-322304D01*
X638934Y-322476D01*
X638719Y-322691D01*
X638332Y-322648D01*
X638246Y-322476D01*
X637989Y-322046D01*
X637903Y-321444D01*
X637817Y-321186D01*
X637731Y-319811D01*
X637645Y-319553D01*
X637559Y-318865D01*
X637645Y-318607D01*
X637731Y-317576D01*
Y-317490D01*
X637774Y-316931D01*
X637903Y-316201D01*
X637989Y-315599D01*
X638117Y-315212D01*
X638332Y-314653D01*
X638418Y-314309D01*
X638676Y-314052D01*
X638762Y-313880D01*
X638891Y-313751D01*
X639321Y-313665D01*
X639579Y-313751D01*
D02*
G37*
G36*
X637043Y-316802D02*
X637129Y-317146D01*
Y-317232D01*
X637000Y-317361D01*
X636828Y-317447D01*
X636699Y-317318D01*
X636613Y-316888D01*
X636742Y-316759D01*
X637043Y-316802D01*
D02*
G37*
G36*
X656169Y-316072D02*
X656212Y-316115D01*
X656298Y-316201D01*
X656556Y-316630D01*
X656513Y-317189D01*
X655911Y-317533D01*
X655567Y-317447D01*
X655352Y-317232D01*
X655266Y-316802D01*
X655352Y-316201D01*
X655481Y-315814D01*
X655911Y-315728D01*
X656169Y-316072D01*
D02*
G37*
G36*
X666226Y-317963D02*
X666269Y-318092D01*
Y-318178D01*
X666226Y-318393D01*
X665968Y-318479D01*
X665839Y-318350D01*
X665754Y-318092D01*
X665968Y-317877D01*
X666226Y-317963D01*
D02*
G37*
G36*
X714364Y-318221D02*
X714493Y-318350D01*
X714407Y-318521D01*
X714364Y-318564D01*
X714278Y-318650D01*
X713891Y-318607D01*
X713805Y-318264D01*
X714020Y-318135D01*
X714364Y-318221D01*
D02*
G37*
G36*
X717415Y-318607D02*
X717373Y-318908D01*
X717115Y-318994D01*
X716986Y-318865D01*
X716900Y-318693D01*
X717072Y-318521D01*
X717115Y-318479D01*
X717287D01*
X717415Y-318607D01*
D02*
G37*
G36*
X637043Y-322733D02*
X637129Y-322905D01*
Y-322991D01*
X637000Y-323120D01*
X636699Y-323077D01*
X636613Y-322820D01*
X636742Y-322691D01*
X636914Y-322605D01*
X637043Y-322733D01*
D02*
G37*
G36*
X629779Y-323550D02*
X629994Y-323765D01*
X630080Y-324195D01*
X629350Y-324925D01*
X628920Y-325183D01*
X628748Y-325355D01*
X628146Y-325699D01*
X627974Y-325871D01*
X627544Y-326129D01*
X626943Y-326473D01*
X626771Y-326645D01*
X625567Y-327332D01*
X625309Y-327590D01*
X624966Y-327676D01*
X624794Y-327848D01*
X623590Y-328536D01*
X623375Y-328751D01*
X622817Y-328966D01*
X622559Y-329224D01*
X622387Y-329310D01*
X621957Y-329567D01*
X620754Y-330255D01*
X619980Y-330685D01*
X619808Y-330857D01*
X619378Y-331029D01*
X619206Y-331201D01*
X618003Y-331888D01*
X617229Y-332318D01*
X617186Y-332447D01*
X616541Y-332748D01*
X616370Y-332920D01*
X615940Y-333092D01*
X615682Y-333349D01*
X615338Y-333436D01*
X615166Y-333607D01*
X614565Y-333951D01*
X614393Y-334123D01*
X614135Y-334209D01*
X613533Y-334639D01*
X613189Y-334725D01*
X613017Y-334897D01*
X612416Y-335241D01*
X611986Y-335499D01*
X611470Y-335842D01*
X611040Y-336014D01*
X610868Y-336186D01*
X610696Y-336272D01*
X609751Y-336874D01*
X609278Y-336831D01*
X608203Y-336702D01*
X607473Y-336487D01*
X607043Y-336401D01*
X606054Y-336272D01*
X605625Y-336100D01*
X603562Y-336014D01*
X602616Y-336272D01*
X602014Y-336530D01*
X601241Y-336960D01*
X600811Y-337218D01*
X600768Y-337347D01*
X600209Y-337648D01*
X599951Y-337905D01*
X599779Y-337991D01*
X599521Y-338249D01*
X599350Y-338335D01*
X598748Y-338765D01*
X598404Y-338851D01*
X598232Y-339023D01*
X597974Y-338937D01*
X597544Y-338679D01*
X597501Y-337003D01*
X597716Y-336960D01*
X598017Y-336401D01*
X598146Y-336358D01*
X598361Y-336143D01*
X598834Y-335756D01*
X599436Y-335413D01*
X599650Y-335198D01*
X600209Y-334983D01*
X600424Y-334768D01*
X601069Y-334639D01*
X601628Y-334338D01*
X602358Y-334209D01*
X602788Y-334037D01*
X603304Y-333951D01*
X603562Y-333865D01*
X605453Y-333779D01*
X605711Y-333693D01*
X606742Y-333607D01*
X607172Y-333779D01*
X609192Y-333736D01*
X609622Y-333650D01*
X610094Y-333521D01*
X610309Y-333135D01*
X610524Y-332920D01*
X611212Y-332834D01*
X611642Y-333006D01*
X611943Y-332963D01*
X612029Y-332705D01*
X611900Y-332662D01*
X611599Y-332361D01*
X611513Y-331931D01*
X612072Y-331888D01*
X612759Y-331716D01*
X614307Y-331029D01*
X614650Y-330943D01*
X615166Y-330599D01*
X615510Y-330513D01*
X615768Y-330255D01*
X615940Y-330169D01*
X616284Y-330083D01*
X616541Y-329825D01*
X616971Y-329653D01*
X617229Y-329395D01*
X617530Y-329267D01*
X618003Y-328880D01*
X618175Y-328794D01*
X618476Y-328493D01*
X618562Y-328321D01*
X618690Y-328192D01*
X619378Y-328106D01*
X619851Y-327977D01*
X619894Y-327934D01*
X620410Y-327676D01*
X622301Y-326817D01*
X622860Y-326516D01*
X623418Y-326301D01*
X623590Y-326129D01*
X623848Y-326043D01*
X624364Y-325699D01*
X624536Y-325613D01*
X624880Y-325527D01*
X625095Y-325312D01*
X625653Y-325097D01*
X625825Y-324925D01*
X627029Y-324238D01*
X627201Y-324066D01*
X628318Y-323980D01*
X628576Y-324066D01*
X629092Y-324152D01*
X629221Y-323937D01*
X629049Y-323335D01*
X629178Y-323292D01*
X629779Y-323550D01*
D02*
G37*
G36*
X639278Y-327461D02*
X639149Y-327848D01*
X638891D01*
X638762Y-327633D01*
X638848Y-327289D01*
X639149Y-327246D01*
X639278Y-327461D01*
D02*
G37*
G36*
X732415Y-332232D02*
X732458Y-332533D01*
X732329Y-332662D01*
X732158Y-332748D01*
X731556Y-333178D01*
X730954Y-333521D01*
X730782Y-333693D01*
X730181Y-334037D01*
X729751Y-334295D01*
X729579Y-334467D01*
X728375Y-335155D01*
X728203Y-335327D01*
X727000Y-336014D01*
X726613Y-336315D01*
X726570Y-336358D01*
X726226Y-336530D01*
X725625Y-336874D01*
X725195Y-337132D01*
X725023Y-337304D01*
X724249Y-337733D01*
X723648Y-338163D01*
X723046Y-338507D01*
X722444Y-338937D01*
X721842Y-339281D01*
X721671Y-339453D01*
X721241Y-339711D01*
X720983Y-339968D01*
X720725Y-340054D01*
X720553Y-340226D01*
X720123Y-340484D01*
X719951Y-340656D01*
X719521Y-340914D01*
X719350Y-341086D01*
X718920Y-341344D01*
X718662Y-341602D01*
X718490Y-341688D01*
X718318Y-341860D01*
X717716Y-342203D01*
X717458Y-342461D01*
X717287Y-342547D01*
X716943Y-342891D01*
X716771Y-342977D01*
X716599Y-343149D01*
X716169Y-343407D01*
X715911Y-343665D01*
X715739Y-343751D01*
X715310Y-344180D01*
X715137Y-344267D01*
X714536Y-344868D01*
X714364Y-344954D01*
X714106Y-345212D01*
X713676Y-345470D01*
X712989Y-346158D01*
X712817Y-346244D01*
X712473Y-346587D01*
X712301Y-346673D01*
X712043Y-346931D01*
X711871Y-347017D01*
X711699Y-347189D01*
X710754Y-347705D01*
X710539Y-347404D01*
X710453Y-346458D01*
X710668Y-345900D01*
X711012Y-345814D01*
X711312Y-345513D01*
X711398Y-345341D01*
X711570Y-345169D01*
X712000Y-344567D01*
X712688Y-343364D01*
X712946Y-343106D01*
X713031Y-342934D01*
X713246Y-342719D01*
X714536Y-342032D01*
X714794Y-341774D01*
X715352Y-340957D01*
X715438Y-340527D01*
X715825Y-340312D01*
X716255Y-340140D01*
X716771Y-340054D01*
X717716Y-339625D01*
X718060Y-339539D01*
X718232Y-339367D01*
X718404Y-339281D01*
X718834Y-339109D01*
X719436Y-338765D01*
X719865Y-338507D01*
X720295Y-338335D01*
X720639Y-337991D01*
X721069Y-337905D01*
X721327Y-337648D01*
X721499Y-337562D01*
X721628Y-337433D01*
X721542Y-337089D01*
X721370Y-336917D01*
X721284Y-336745D01*
X721112Y-336659D01*
X721155Y-336444D01*
X721584Y-336616D01*
X721842Y-336702D01*
X722272Y-336616D01*
X722401Y-336487D01*
X722960Y-336272D01*
X723218Y-336014D01*
X723390Y-335928D01*
X723562Y-335756D01*
X723991Y-335499D01*
X724335Y-335155D01*
X724679Y-335069D01*
X725066Y-334768D01*
X725625Y-334553D01*
X725754Y-334424D01*
X726570Y-334123D01*
X726742Y-333951D01*
X728031Y-333865D01*
X728246Y-333650D01*
X728074Y-333307D01*
X727946Y-333006D01*
X727989Y-332791D01*
X728375Y-332490D01*
X728891Y-332404D01*
X729149Y-332318D01*
X731728Y-332232D01*
X732072Y-332146D01*
X732415Y-332232D01*
D02*
G37*
G36*
X720123Y-337046D02*
X720338Y-337261D01*
X720424Y-337605D01*
X720295Y-337733D01*
X720037Y-337648D01*
X719736Y-337347D01*
Y-337261D01*
X719650Y-337175D01*
X719779Y-336874D01*
X720123Y-337046D01*
D02*
G37*
G36*
X620625Y-341387D02*
X620582Y-341688D01*
X620238Y-341774D01*
X620195Y-341731D01*
X620109Y-341645D01*
X620152Y-341344D01*
X620496Y-341258D01*
X620625Y-341387D01*
D02*
G37*
G36*
X619335Y-344137D02*
X619421Y-344481D01*
X619292Y-344610D01*
X619077Y-344567D01*
X619034Y-344524D01*
X618905Y-344395D01*
X619034Y-344095D01*
X619335Y-344137D01*
D02*
G37*
G36*
X639407Y-342118D02*
X639536Y-342246D01*
X639622Y-342676D01*
X639708Y-343020D01*
X639837Y-343407D01*
X639966Y-343880D01*
X640052Y-344137D01*
X640009Y-344868D01*
X639837Y-344954D01*
X639622Y-344739D01*
X639536Y-344137D01*
X639364Y-343708D01*
Y-343622D01*
X639192Y-343278D01*
X639106Y-343020D01*
X639149Y-342032D01*
X639407Y-342118D01*
D02*
G37*
G36*
X640309Y-345341D02*
X640223Y-345599D01*
X640181Y-345642D01*
X640137Y-345599D01*
X640052Y-345255D01*
X640181Y-345212D01*
X640309Y-345341D01*
D02*
G37*
G36*
X618476Y-345599D02*
X618390Y-345857D01*
X618261Y-345900D01*
X618003D01*
X617874Y-345771D01*
X617960Y-345513D01*
X618261Y-345384D01*
X618476Y-345599D01*
D02*
G37*
G36*
X655696Y-344567D02*
X655868Y-345255D01*
Y-345341D01*
X655911Y-345470D01*
X656126Y-346716D01*
X656298Y-347146D01*
X656212Y-347404D01*
X656126Y-347834D01*
X655223Y-347877D01*
X655095Y-347576D01*
X654923Y-347404D01*
X654837Y-346115D01*
X654923Y-345771D01*
X655181Y-345169D01*
X655266Y-344653D01*
X655395Y-344524D01*
X655696Y-344567D01*
D02*
G37*
G36*
X604808Y-341988D02*
X604894Y-342332D01*
X604722Y-342762D01*
X604034Y-343966D01*
X603862Y-344137D01*
X603605Y-344567D01*
X603089Y-345083D01*
X602831Y-345513D01*
X602229Y-346115D01*
X602186Y-346158D01*
X602014Y-346244D01*
X601670Y-346587D01*
X601499Y-346673D01*
X601327Y-346845D01*
X600725Y-347189D01*
X600510Y-347404D01*
X599865Y-347533D01*
X599736Y-347662D01*
X599650Y-347834D01*
X598318Y-347877D01*
X598275Y-347748D01*
X597974Y-347619D01*
X597544Y-347705D01*
X597501Y-347232D01*
X597802Y-347103D01*
X599565Y-345341D01*
X600037Y-344954D01*
X600209Y-344868D01*
X600510Y-344567D01*
X600983Y-344180D01*
X601155Y-344095D01*
X601370Y-343880D01*
X602229Y-343450D01*
X602788Y-343321D01*
X603046Y-343063D01*
X603218Y-342977D01*
X603905Y-342289D01*
X604679Y-341860D01*
X604808Y-341988D01*
D02*
G37*
%LPC*%
G36*
X679120Y-139080D02*
X678991Y-139209D01*
X679034Y-139424D01*
X679292D01*
X679421Y-139295D01*
X679292Y-139166D01*
X679120Y-139080D01*
D02*
G37*
G36*
X686341Y-139510D02*
X685782Y-139553D01*
X685696Y-139811D01*
X685825Y-139940D01*
X686255Y-140026D01*
X686470Y-139811D01*
X686384Y-139553D01*
X686341Y-139510D01*
D02*
G37*
G36*
X687630Y-140026D02*
X687501Y-140155D01*
X687415Y-140327D01*
X687630Y-140541D01*
X687931Y-140499D01*
X688017Y-140241D01*
X687888Y-140112D01*
X687802D01*
X687630Y-140026D01*
D02*
G37*
G36*
X720983Y-151716D02*
X720854Y-151845D01*
X720940Y-152017D01*
Y-152103D01*
X720983Y-152146D01*
X721112Y-152103D01*
X721198Y-151759D01*
X720983Y-151716D01*
D02*
G37*
G36*
X666570Y-231487D02*
X666226Y-231573D01*
X666012Y-231788D01*
X665926Y-232132D01*
Y-232218D01*
X665968Y-232261D01*
X666226Y-232347D01*
X666613Y-231788D01*
X666570Y-231487D01*
D02*
G37*
G36*
X650066Y-235699D02*
X649851Y-235828D01*
X649980Y-236215D01*
X650238Y-236129D01*
X650281Y-236086D01*
Y-235828D01*
X650066Y-235699D01*
D02*
G37*
G36*
Y-237590D02*
X649937Y-237719D01*
X649851Y-238149D01*
X650023Y-238321D01*
X650109Y-238493D01*
X650410Y-238794D01*
X650582Y-238880D01*
X650711Y-238751D01*
X650797Y-238407D01*
Y-238321D01*
X650668Y-237934D01*
X650066Y-237590D01*
D02*
G37*
G36*
X681871Y-229854D02*
X681785D01*
X681742Y-230155D01*
X681871Y-230284D01*
X682086Y-230155D01*
X682043Y-229940D01*
X681871Y-229854D01*
D02*
G37*
G36*
X679378D02*
X679163Y-229983D01*
X679077Y-230241D01*
X679249Y-230842D01*
X679421Y-231014D01*
X679464Y-231057D01*
X679550D01*
X679894Y-230971D01*
X680195Y-230671D01*
X680281Y-230499D01*
X680152Y-230370D01*
X679980Y-230284D01*
X679808Y-230112D01*
X679378Y-229854D01*
D02*
G37*
G36*
X677315Y-230370D02*
X677014Y-230671D01*
X676928Y-231014D01*
X677229Y-231315D01*
X677573Y-231143D01*
X677616Y-231100D01*
X677874Y-230756D01*
X677745Y-230456D01*
X677315Y-230370D01*
D02*
G37*
G36*
X674736Y-231917D02*
X674565Y-232089D01*
X674607Y-232304D01*
X674736Y-232347D01*
X674822D01*
X675037Y-232304D01*
X674994Y-232003D01*
X674736Y-231917D01*
D02*
G37*
G36*
X639665Y-232519D02*
X639450Y-232562D01*
X639493Y-232691D01*
X639579D01*
X639708Y-232647D01*
X639665Y-232519D01*
D02*
G37*
G36*
X640954Y-233550D02*
X640610Y-233636D01*
X640567Y-233937D01*
X640739Y-234023D01*
X640782Y-234066D01*
X640868D01*
X641255Y-233937D01*
X641341Y-233765D01*
X641212Y-233636D01*
X640954Y-233550D01*
D02*
G37*
G36*
X692960Y-236301D02*
X692745Y-236688D01*
X692874Y-236817D01*
X693089Y-236774D01*
X693132Y-236731D01*
X693175Y-236688D01*
X693132Y-236387D01*
X692960Y-236301D01*
D02*
G37*
G36*
X733619Y-237504D02*
X733533D01*
X733490Y-237547D01*
X733533Y-237590D01*
X733705Y-237676D01*
X733748Y-237547D01*
X733619Y-237504D01*
D02*
G37*
G36*
X642158Y-235871D02*
X642029Y-236172D01*
X642115Y-236430D01*
X642544Y-237118D01*
X642630Y-237289D01*
X642888Y-237547D01*
X642974Y-237719D01*
X643490Y-238235D01*
X643576Y-238407D01*
X643705Y-238536D01*
X643963Y-238622D01*
X644135Y-238364D01*
X644092Y-238063D01*
X643920Y-237891D01*
X643834Y-237719D01*
X643189Y-236817D01*
X642802Y-236344D01*
X642759Y-236301D01*
X642415Y-235957D01*
X642158Y-235871D01*
D02*
G37*
G36*
X697430Y-238622D02*
X697258D01*
X697129Y-238751D01*
X697172Y-238794D01*
X697430Y-238880D01*
X697559Y-238751D01*
X697473Y-238665D01*
X697430Y-238622D01*
D02*
G37*
G36*
X735424Y-238536D02*
X735123Y-238579D01*
X735080Y-238622D01*
X735037Y-238665D01*
X735123Y-238923D01*
X735510Y-239309D01*
X735897Y-239266D01*
X735811Y-238923D01*
X735424Y-238536D01*
D02*
G37*
G36*
X719865Y-238106D02*
X719736Y-238235D01*
X719650Y-238579D01*
X719908Y-239181D01*
X719994Y-239352D01*
X720209Y-239567D01*
X720639Y-239825D01*
X721069Y-239997D01*
X721928Y-240083D01*
X722143Y-239868D01*
X722229Y-239696D01*
X722143Y-239352D01*
X721928Y-239137D01*
X721628Y-238923D01*
X721584Y-238880D01*
X720983Y-238450D01*
X720811Y-238364D01*
X720639Y-238192D01*
X719865Y-238106D01*
D02*
G37*
G36*
X737057Y-239739D02*
X737014Y-240040D01*
X737487Y-240341D01*
X738776Y-241029D01*
X739722Y-241458D01*
X740195Y-241415D01*
X740281Y-241243D01*
X740066Y-241029D01*
X739722Y-240943D01*
X739464Y-240685D01*
X739120Y-240599D01*
X739077Y-240556D01*
X738605Y-240255D01*
X738261Y-240169D01*
X737745Y-239825D01*
X737057Y-239739D01*
D02*
G37*
G36*
X695797Y-241458D02*
X695582Y-241501D01*
X695496Y-241845D01*
X695625Y-241974D01*
X695797Y-242060D01*
X695926Y-241931D01*
X696012Y-241673D01*
X695839Y-241501D01*
X695797Y-241458D01*
D02*
G37*
G36*
X698031Y-241029D02*
X697946D01*
X697817Y-241072D01*
X697731Y-241501D01*
X697817Y-242103D01*
X698074Y-242361D01*
X698160Y-242619D01*
X698246Y-242963D01*
X698461Y-243006D01*
X698590Y-242791D01*
X698504Y-242533D01*
X698289Y-242060D01*
X698160Y-241158D01*
X698031Y-241029D01*
D02*
G37*
G36*
X703361Y-254438D02*
X703146Y-254653D01*
X703189Y-254868D01*
X703361Y-254954D01*
X703447D01*
X703490Y-254911D01*
X703576Y-254653D01*
X703361Y-254438D01*
D02*
G37*
G36*
X698289Y-256673D02*
X698160Y-256802D01*
X698203Y-257017D01*
X698547Y-257103D01*
X698590Y-257060D01*
X698676Y-256974D01*
X698633Y-256759D01*
X698289Y-256673D01*
D02*
G37*
G36*
X624622Y-257963D02*
X624579Y-258092D01*
X624622Y-258135D01*
X624708Y-258221D01*
X624923Y-258092D01*
X624880Y-258049D01*
X624622Y-257963D01*
D02*
G37*
G36*
X699149Y-258393D02*
X698762Y-258435D01*
X698848Y-258693D01*
X698891Y-258736D01*
X699063D01*
X699278Y-258521D01*
X699149Y-258393D01*
D02*
G37*
G36*
X697430D02*
X697301Y-258521D01*
Y-258607D01*
X697258Y-258736D01*
X697344Y-259510D01*
X697688Y-259596D01*
X697817Y-259467D01*
X697989Y-259037D01*
X697817Y-258607D01*
X697688Y-258479D01*
X697430Y-258393D01*
D02*
G37*
G36*
X673533Y-259424D02*
X673490Y-259639D01*
Y-259725D01*
X673533Y-259854D01*
X673705Y-259940D01*
X673834Y-259811D01*
X673791Y-259510D01*
X673533Y-259424D01*
D02*
G37*
G36*
X633562Y-235613D02*
X633046Y-235699D01*
X632444Y-235785D01*
X632014Y-235957D01*
X631670Y-236043D01*
X631069Y-236301D01*
X630467Y-236645D01*
X629994Y-236946D01*
X629521Y-237332D01*
X629350Y-237418D01*
X629264Y-237590D01*
X628963Y-237805D01*
X628877Y-237977D01*
X628748Y-238106D01*
X628576Y-238192D01*
X628533Y-238321D01*
X628103Y-238751D01*
X628017Y-238923D01*
X627673Y-239266D01*
X627587Y-239438D01*
X627158Y-240040D01*
X627072Y-240212D01*
X626943Y-240255D01*
X626728Y-240814D01*
X626470Y-241243D01*
X626384Y-241673D01*
X626298Y-241931D01*
X626212Y-242705D01*
X626126Y-242963D01*
X626040Y-243736D01*
X625954Y-244596D01*
X625524Y-245198D01*
X625052Y-245585D01*
X624880Y-245671D01*
X624407Y-246143D01*
X624321Y-246401D01*
X623977Y-246917D01*
X623891Y-248206D01*
X623547Y-248980D01*
X623117Y-249410D01*
X623032Y-249582D01*
X622903Y-250054D01*
X622774Y-250699D01*
X623032Y-251301D01*
X623805Y-251387D01*
X623891Y-251731D01*
X623805Y-251989D01*
X623719Y-252676D01*
X623633Y-252934D01*
X623676Y-253493D01*
X623762Y-253837D01*
X623891Y-254481D01*
X624407Y-255599D01*
X624622Y-255900D01*
X624665Y-255943D01*
X624751Y-256115D01*
X624880Y-256243D01*
X625567Y-257103D01*
X625739Y-257189D01*
X625954Y-257490D01*
X626040Y-257662D01*
X626298Y-257920D01*
X626427Y-258221D01*
X626384Y-259467D01*
X626814Y-259897D01*
X627673Y-260413D01*
X628232Y-260541D01*
X628404Y-260713D01*
X628920Y-260799D01*
X629264Y-260885D01*
X629865Y-261143D01*
X630725Y-261229D01*
X631413Y-261401D01*
X631842Y-261573D01*
X632874Y-261659D01*
X633218Y-261745D01*
X633690Y-261874D01*
X634206Y-261960D01*
X635539Y-262089D01*
X636140Y-262003D01*
X636914Y-261659D01*
X637172Y-261401D01*
X637473Y-261186D01*
X637946Y-260799D01*
X638117Y-260713D01*
X638375Y-260456D01*
X638547Y-260370D01*
X638805Y-260112D01*
X638977Y-260026D01*
X639321Y-259682D01*
X639493Y-259596D01*
X639665Y-259424D01*
X639837Y-259338D01*
X640009Y-259166D01*
X640181Y-259080D01*
X640997Y-258264D01*
X641255Y-257834D01*
X641599Y-257490D01*
X641685Y-257318D01*
X641857Y-257146D01*
X642115Y-256716D01*
X642287Y-256544D01*
X642974Y-255255D01*
X643146Y-255083D01*
X643404Y-254395D01*
X643576Y-254223D01*
X643662Y-254052D01*
X643920Y-253450D01*
X644092Y-253020D01*
X644392Y-252289D01*
X644521Y-251731D01*
X644607Y-251473D01*
X644693Y-250871D01*
X644865Y-250441D01*
X644951Y-247519D01*
X644865Y-245370D01*
X644736Y-244983D01*
X644607Y-244510D01*
X644479Y-244381D01*
X644307Y-244295D01*
X643877Y-244123D01*
X643447Y-243350D01*
X643146Y-242017D01*
X642974Y-241845D01*
X642888Y-241329D01*
X642544Y-240556D01*
X642458Y-240212D01*
X642201Y-239610D01*
X642115Y-239266D01*
X641685Y-238321D01*
X641599Y-237977D01*
X641470Y-237848D01*
X641341Y-237891D01*
X641255Y-238579D01*
X641384Y-239052D01*
X641470Y-239395D01*
X641599Y-239954D01*
X641685Y-240298D01*
X641771Y-240900D01*
X641943Y-241329D01*
X642029Y-241931D01*
X641814Y-242146D01*
X641427Y-241759D01*
X641169Y-241329D01*
X640911Y-240728D01*
X640825Y-240212D01*
X640739Y-239868D01*
X640524Y-239653D01*
X640223Y-239438D01*
X639751Y-239309D01*
X639493Y-239052D01*
X639321Y-238966D01*
X639063Y-238708D01*
X638891Y-238622D01*
X638461Y-238192D01*
X638289Y-238106D01*
X638074Y-237891D01*
X637602Y-237504D01*
X637172Y-237246D01*
X636914Y-236989D01*
X636656Y-236903D01*
X636226Y-236731D01*
X635625Y-236645D01*
X635023Y-236731D01*
X634679Y-236645D01*
X634464Y-236430D01*
X634120Y-235828D01*
X633820Y-235699D01*
X633562Y-235613D01*
D02*
G37*
G36*
X641728Y-263808D02*
X641599Y-263937D01*
X641685Y-264195D01*
X641900Y-264238D01*
X641943Y-264195D01*
X642029Y-264109D01*
X641986Y-263894D01*
X641728Y-263808D01*
D02*
G37*
G36*
X639579Y-264496D02*
X639536Y-264539D01*
X639493Y-264582D01*
X639450Y-264711D01*
X639665Y-264754D01*
X639708Y-264625D01*
X639579Y-264496D01*
D02*
G37*
%LPD*%
G36*
X640309Y-240900D02*
X640395Y-241501D01*
X640266Y-241630D01*
X640181D01*
X640009Y-241544D01*
X639880Y-241329D01*
X639966Y-240986D01*
X640095Y-240857D01*
X640309Y-240900D01*
D02*
G37*
G36*
X640825Y-242619D02*
X640911Y-242791D01*
X640825Y-243135D01*
X640782Y-243178D01*
X640481Y-243135D01*
X640395Y-242705D01*
X640524Y-242576D01*
X640825Y-242619D01*
D02*
G37*
G36*
X624966Y-253149D02*
X625266Y-253708D01*
X625438Y-253880D01*
X625524Y-254052D01*
X626040Y-254911D01*
X626212Y-255083D01*
X626298Y-255255D01*
X626642Y-255599D01*
X626728Y-255771D01*
X628189Y-257232D01*
X628662Y-257619D01*
X629092Y-258135D01*
X629264Y-258221D01*
X629307Y-258349D01*
X629478Y-258521D01*
X629436Y-258650D01*
X628920Y-258736D01*
X628662Y-258479D01*
X628490Y-258393D01*
X628232Y-258135D01*
X628060Y-258049D01*
X627931Y-257920D01*
X627888Y-257877D01*
X627802D01*
X626040Y-256115D01*
X625954Y-255943D01*
X625782Y-255771D01*
X625567Y-255470D01*
X625181Y-254997D01*
X625095Y-254825D01*
X624837Y-254567D01*
X624751Y-254395D01*
X624407Y-253622D01*
X624450Y-253149D01*
X624622Y-253063D01*
X624966Y-253149D01*
D02*
G37*
G36*
X627845Y-250871D02*
X628103Y-251301D01*
X628275Y-251731D01*
X628361Y-252590D01*
X628447Y-252934D01*
X628576Y-253063D01*
X628834Y-253149D01*
X629092Y-253063D01*
X629865Y-252977D01*
X630209Y-253063D01*
X630596Y-253536D01*
X630682Y-253708D01*
X630811Y-253837D01*
X630940Y-254309D01*
X631026Y-254567D01*
X631370Y-255169D01*
X631799Y-255513D01*
X632358Y-255728D01*
X632616Y-255814D01*
X632831Y-255771D01*
X633175Y-255685D01*
X634120Y-255513D01*
X635281Y-255384D01*
X635882Y-255470D01*
X636183Y-255771D01*
X636140Y-256501D01*
X636097Y-256544D01*
X635840Y-256974D01*
X635754Y-257146D01*
X635496Y-257404D01*
X635410Y-257748D01*
X635539Y-257791D01*
X635969Y-257533D01*
X636140Y-257447D01*
X636828Y-256759D01*
X637000Y-256673D01*
X637043Y-256544D01*
X637172Y-256416D01*
X637344Y-256329D01*
X637473Y-256115D01*
X637559Y-255943D01*
X637903Y-255599D01*
X637989Y-254825D01*
X637860Y-254696D01*
X637086Y-254610D01*
X636656Y-254438D01*
X636355Y-254223D01*
X636269Y-254052D01*
X636097Y-253880D01*
X636012Y-253536D01*
X636140Y-253407D01*
X636656Y-253665D01*
X637086Y-254095D01*
X637516Y-254181D01*
X637645Y-254052D01*
X637559Y-253708D01*
X637473Y-253450D01*
X637559Y-253278D01*
X637473Y-253106D01*
X637602Y-252633D01*
X637774Y-252547D01*
X638375Y-252461D01*
X638719Y-252547D01*
X638891Y-252805D01*
X638762Y-253278D01*
X638418Y-254052D01*
X638547Y-254266D01*
X638719Y-254352D01*
X639063Y-254266D01*
X639106Y-254137D01*
X639278Y-253966D01*
X639751Y-253579D01*
X639794Y-253622D01*
X639880Y-253794D01*
X639751Y-253923D01*
X639536Y-254481D01*
X639364Y-254653D01*
X639149Y-254954D01*
X638762Y-255427D01*
X638676Y-255599D01*
X638160Y-256115D01*
X638074Y-256287D01*
X637258Y-257103D01*
X637086Y-257189D01*
X636484Y-257791D01*
X636054Y-258049D01*
X635797Y-258307D01*
X635367Y-258479D01*
X635324Y-258607D01*
X635023Y-258736D01*
X634679Y-258822D01*
X634249Y-259080D01*
X632272Y-259166D01*
X631499Y-258822D01*
X631069Y-258650D01*
X630467Y-258307D01*
X630209Y-258049D01*
X630037Y-257963D01*
X629908Y-257834D01*
X629650Y-257404D01*
X629307Y-257060D01*
X629221Y-256888D01*
X629049Y-256716D01*
X628791Y-256287D01*
X628533Y-256029D01*
X628361Y-255599D01*
X628189Y-255427D01*
X627931Y-254739D01*
X627759Y-254567D01*
X627587Y-254137D01*
X627244Y-253364D01*
X627158Y-251215D01*
X627286Y-250828D01*
X627458Y-250742D01*
X627845Y-250871D01*
D02*
G37*
G36*
X627072Y-258865D02*
X627158Y-259209D01*
X627029Y-259338D01*
X626943Y-259252D01*
X626900Y-259209D01*
X626814Y-258951D01*
X626943Y-258822D01*
X627072Y-258865D01*
D02*
G37*
%LPC*%
G36*
X736370Y-228650D02*
X736198D01*
X736155Y-228951D01*
X736284Y-229080D01*
X736499Y-229037D01*
X736584Y-228693D01*
X736370Y-228650D01*
D02*
G37*
G36*
X763017Y-228736D02*
X762630Y-228779D01*
X762716Y-229037D01*
X762888Y-229209D01*
X762802Y-229467D01*
X762287Y-229725D01*
X762201Y-229983D01*
X762287Y-230241D01*
X762544Y-230671D01*
X762845Y-231229D01*
X762974Y-231788D01*
X763189Y-232347D01*
X763404Y-233249D01*
X763705Y-234238D01*
X763791Y-235011D01*
X763920Y-235656D01*
X764092Y-236086D01*
X764178Y-236860D01*
X764264Y-237461D01*
X764350Y-237719D01*
X764479Y-238536D01*
X764565Y-238966D01*
X764650Y-239911D01*
X764822Y-241287D01*
X764908Y-241630D01*
X765037Y-244166D01*
X764951Y-245541D01*
X764865Y-245799D01*
X764951Y-246229D01*
X765080Y-246616D01*
X765682Y-246960D01*
X765854Y-247132D01*
X767917Y-247218D01*
X768519Y-247132D01*
X768863Y-247046D01*
X769249Y-246917D01*
X770152Y-246702D01*
X770324Y-246530D01*
X770496Y-246444D01*
X770926Y-246272D01*
X771355Y-246014D01*
X771613Y-245756D01*
X771914Y-245541D01*
X772000Y-245370D01*
X772344Y-245026D01*
X772430Y-244854D01*
X772774Y-244338D01*
X772860Y-243908D01*
X772903Y-243865D01*
X773031Y-243564D01*
X773160Y-243435D01*
X773289Y-242791D01*
X773461Y-242361D01*
X773590Y-241888D01*
X773719Y-240384D01*
X773805Y-239524D01*
X773719Y-238923D01*
X773633Y-237547D01*
X773418Y-237075D01*
X773203Y-236516D01*
X772860Y-236172D01*
X772774Y-236000D01*
X772645Y-235957D01*
X772516Y-235742D01*
X772344Y-235312D01*
X772172Y-235140D01*
X772086Y-234023D01*
X771957Y-233894D01*
X771785Y-233808D01*
X771355Y-233980D01*
X771097Y-233894D01*
X770926Y-233722D01*
X770754Y-233636D01*
X770539Y-233421D01*
X770238Y-232948D01*
X770066Y-232862D01*
X769937Y-232733D01*
X769851Y-232562D01*
X769464Y-232347D01*
X769292Y-232175D01*
X768863Y-231917D01*
X768605Y-231659D01*
X768433Y-231573D01*
X768003Y-231401D01*
X767831Y-231229D01*
X767401Y-231057D01*
X766928Y-230756D01*
X766456Y-230627D01*
X766198Y-230370D01*
X765854Y-230284D01*
X765424Y-230026D01*
X765252Y-229940D01*
X764822Y-229768D01*
X764393Y-229510D01*
X763963Y-229338D01*
X763189Y-228908D01*
X763017Y-228736D01*
D02*
G37*
G36*
X751327Y-249023D02*
X751241D01*
X750983Y-249109D01*
X750725Y-249023D01*
X750338Y-249066D01*
X750381Y-249195D01*
X751241Y-249281D01*
X751584Y-249195D01*
X751628Y-249066D01*
X751327Y-249023D01*
D02*
G37*
G36*
X749178Y-249539D02*
X748963Y-249582D01*
X748877Y-249925D01*
X749006Y-250054D01*
X749092D01*
X749221Y-249925D01*
X749307Y-249668D01*
X749178Y-249539D01*
D02*
G37*
G36*
X746943Y-250140D02*
X746857D01*
X746728Y-250183D01*
X746642Y-250355D01*
X746857Y-250484D01*
X746986Y-250441D01*
X747072Y-250183D01*
X746943Y-250140D01*
D02*
G37*
G36*
X754077Y-251172D02*
X753948Y-251215D01*
X753863Y-251559D01*
X753991Y-251688D01*
X754077D01*
X754120Y-251645D01*
X754206Y-251301D01*
X754077Y-251172D01*
D02*
G37*
G36*
X749951Y-266645D02*
X749908Y-266860D01*
X750037Y-266989D01*
X750338Y-266945D01*
X750424Y-266774D01*
X750381Y-266731D01*
X749951Y-266645D01*
D02*
G37*
G36*
X672587Y-252289D02*
X672458Y-252418D01*
X672501Y-252547D01*
X672673D01*
X672716Y-252418D01*
X672587Y-252289D01*
D02*
G37*
G36*
X678175Y-254524D02*
X678046Y-254567D01*
X677960Y-254911D01*
X678003Y-254954D01*
X678261D01*
X678304Y-254653D01*
X678175Y-254524D01*
D02*
G37*
G36*
X676799Y-254954D02*
X676456Y-255040D01*
X676327Y-255169D01*
X676370Y-255384D01*
X676971Y-255470D01*
X677014Y-255427D01*
X677100Y-255169D01*
X676971Y-255040D01*
X676799Y-254954D01*
D02*
G37*
G36*
X666914Y-271544D02*
X666785Y-271673D01*
X666914Y-271974D01*
X667215Y-271931D01*
X667301Y-271673D01*
X667258Y-271630D01*
X666914Y-271544D01*
D02*
G37*
G36*
X658920Y-273693D02*
X658662Y-273951D01*
X658490Y-274037D01*
X658361Y-274166D01*
X658017Y-274768D01*
X657845Y-274940D01*
X657759Y-275112D01*
X657373Y-275499D01*
X656943Y-275756D01*
X656771Y-275928D01*
X656470Y-276057D01*
X654966Y-276186D01*
X654364Y-276100D01*
X653246Y-276014D01*
X652817Y-275842D01*
X652215Y-275756D01*
X652172Y-275713D01*
X651183Y-275585D01*
X651140Y-275885D01*
X651527Y-276186D01*
X651699Y-276272D01*
X651871Y-276444D01*
X652043Y-276530D01*
X652215Y-276702D01*
X652817Y-277046D01*
X652946Y-277175D01*
X653289Y-277261D01*
X654364Y-277390D01*
X656255Y-277304D01*
X657458Y-277132D01*
X657931Y-277003D01*
X658361Y-276917D01*
X658705Y-276831D01*
X659221Y-276487D01*
X659565Y-275885D01*
X659650Y-275541D01*
X659736Y-275284D01*
X659650Y-274682D01*
X659565Y-274338D01*
X659479Y-274080D01*
X659392Y-273908D01*
X659264Y-273779D01*
X658920Y-273693D01*
D02*
G37*
G36*
X679722Y-268880D02*
X679292Y-269052D01*
X679249Y-269095D01*
X679163Y-269181D01*
X679206Y-269481D01*
X679464Y-269567D01*
X679679Y-269352D01*
X679851Y-268923D01*
X679722Y-268880D01*
D02*
G37*
G36*
X695625Y-270513D02*
X695582Y-270642D01*
X695625Y-270685D01*
X695797D01*
X695839Y-270556D01*
X695625Y-270513D01*
D02*
G37*
G36*
X628232Y-272318D02*
X627931Y-272361D01*
X627845Y-272705D01*
X627974Y-272834D01*
X628189Y-272791D01*
X628275Y-272361D01*
X628232Y-272318D01*
D02*
G37*
G36*
X742559Y-280226D02*
X742473D01*
X742258Y-280355D01*
X742301Y-280570D01*
X742645Y-280656D01*
X742688Y-280355D01*
X742559Y-280226D01*
D02*
G37*
G36*
X648347Y-289338D02*
X646671Y-289381D01*
X646026Y-289510D01*
X645553Y-289639D01*
X644994Y-289768D01*
X644736Y-290026D01*
X643791Y-290112D01*
X643447Y-290198D01*
X642501Y-290627D01*
X642329Y-290713D01*
X642072Y-290971D01*
X641642Y-291487D01*
X641556Y-291831D01*
X641599Y-292390D01*
X641728Y-292519D01*
X641900Y-292605D01*
X642158Y-292862D01*
X643017Y-293206D01*
X643189Y-293292D01*
X643447Y-293378D01*
X644736Y-293464D01*
X645166Y-293636D01*
X646284Y-293722D01*
X646542Y-293808D01*
X646713Y-293722D01*
X649120Y-293808D01*
X649378Y-293722D01*
X655653Y-293636D01*
X656771Y-293722D01*
X658146Y-293808D01*
X659264Y-293894D01*
X659736Y-294109D01*
X659822Y-294281D01*
X659650Y-294453D01*
X654794Y-294410D01*
X654536Y-294496D01*
X650839Y-294582D01*
X648690Y-294668D01*
X647831Y-294754D01*
X647229Y-295011D01*
X647100Y-295140D01*
X647014Y-295656D01*
X647229Y-295871D01*
X647917Y-295957D01*
X648175Y-296043D01*
X651613Y-296129D01*
X652000Y-296000D01*
X654493Y-295914D01*
X659092Y-295785D01*
X659350Y-295871D01*
X659607Y-295785D01*
X662444Y-295699D01*
X662702Y-295613D01*
X665968Y-295527D01*
X666226Y-295441D01*
X666699Y-295484D01*
X667516Y-295441D01*
X667946Y-295269D01*
X668118Y-295183D01*
X668418Y-294883D01*
X668504Y-294367D01*
X668891Y-293980D01*
X669837Y-293464D01*
X670181Y-293378D01*
X670653Y-293163D01*
X671556Y-292948D01*
X672158Y-292691D01*
X673189Y-292605D01*
X673533Y-292519D01*
X674135Y-292433D01*
X674393Y-292347D01*
X674650Y-292433D01*
X674908Y-292347D01*
X676198Y-292261D01*
X676370Y-292003D01*
X676327Y-291702D01*
X676198Y-291573D01*
X676026Y-291487D01*
X675682Y-291143D01*
X674565Y-290541D01*
X674092Y-290413D01*
X673662Y-290241D01*
X673318Y-290155D01*
X671384Y-290026D01*
X671298D01*
X670868Y-289940D01*
X670481Y-289811D01*
X669493Y-289682D01*
X669063Y-289510D01*
X668031Y-289424D01*
X667602Y-289596D01*
X667344Y-289682D01*
X660983Y-289768D01*
X660725Y-289854D01*
X652301Y-289940D01*
X652043Y-289854D01*
X649722Y-289768D01*
X649120Y-289682D01*
X648347Y-289338D01*
D02*
G37*
G36*
X645596Y-295699D02*
X645381Y-295914D01*
X645424Y-296129D01*
X645596Y-296215D01*
X645682D01*
X645725Y-296172D01*
X645811Y-295914D01*
X645596Y-295699D01*
D02*
G37*
%LPD*%
G36*
X666054Y-293808D02*
X666183Y-293937D01*
X666097Y-294195D01*
X665539Y-294410D01*
X665453D01*
X665281Y-294496D01*
X663648Y-294582D01*
X662960Y-294410D01*
X662831Y-294109D01*
X663046Y-293894D01*
X663648Y-293808D01*
X663905Y-293722D01*
X665453Y-293636D01*
X666054Y-293808D01*
D02*
G37*
%LPC*%
G36*
X724851Y-314868D02*
X724722Y-314911D01*
X724636Y-315255D01*
X724937Y-315298D01*
X724980Y-315169D01*
Y-315083D01*
Y-314997D01*
X724851Y-314868D01*
D02*
G37*
G36*
X718920Y-322691D02*
X718619Y-322733D01*
X718533Y-322905D01*
X718662Y-323034D01*
X719049Y-322991D01*
X718963Y-322733D01*
X718920Y-322691D01*
D02*
G37*
G36*
X632014Y-306788D02*
X631799Y-306917D01*
X631713Y-307347D01*
X631842Y-307476D01*
X632014Y-307562D01*
X632057Y-307519D01*
X632186Y-307304D01*
X632143Y-306917D01*
X632014Y-306788D01*
D02*
G37*
G36*
X615424Y-331974D02*
X615295Y-332103D01*
Y-332189D01*
X615209Y-332275D01*
X615424Y-332490D01*
X615467Y-332447D01*
X615553Y-332103D01*
X615424Y-331974D01*
D02*
G37*
G36*
X730181Y-332404D02*
X730009D01*
X729708Y-332705D01*
X729751Y-332920D01*
X730352Y-333006D01*
X730395Y-332619D01*
X730223Y-332447D01*
X730181Y-332404D01*
D02*
G37*
%LPD*%
D10*
X475960Y-935540D02*
X460725D01*
Y-943158D01*
X463264Y-945697D01*
X468343D01*
X470882Y-943158D01*
Y-935540D01*
X460725Y-960932D02*
Y-950775D01*
X468343D01*
X465803Y-955853D01*
Y-958393D01*
X468343Y-960932D01*
X473421D01*
X475960Y-958393D01*
Y-953314D01*
X473421Y-950775D01*
X475960Y-966010D02*
X473421D01*
Y-968549D01*
X475960D01*
Y-966010D01*
Y-986324D02*
X460725D01*
X468343Y-978706D01*
Y-988863D01*
X850460Y-70225D02*
Y-80382D01*
X845382Y-85460D01*
X840303Y-80382D01*
Y-70225D01*
X835225D02*
Y-85460D01*
X827607D01*
X825068Y-82921D01*
Y-72764D01*
X827607Y-70225D01*
X835225D01*
X819990D02*
Y-85460D01*
X812372D01*
X809833Y-82921D01*
Y-72764D01*
X812372Y-70225D01*
X819990D01*
X154303Y-47764D02*
X156842Y-45225D01*
X161921D01*
X164460Y-47764D01*
Y-57921D01*
X161921Y-60460D01*
X156842D01*
X154303Y-57921D01*
Y-52842D01*
X159382D01*
X149225Y-60460D02*
Y-45225D01*
X139068Y-60460D01*
Y-45225D01*
X133990D02*
Y-60460D01*
X126372D01*
X123833Y-57921D01*
Y-47764D01*
X126372Y-45225D01*
X133990D01*
X208460Y-36460D02*
Y-21225D01*
X200842D01*
X198303Y-23764D01*
Y-28842D01*
X200842Y-31382D01*
X208460D01*
X203382D02*
X198303Y-36460D01*
X193225Y-21225D02*
X183068Y-36460D01*
Y-21225D02*
X193225Y-36460D01*
X177990Y-21225D02*
Y-36460D01*
X170372D01*
X167833Y-33921D01*
Y-23764D01*
X170372Y-21225D01*
X177990D01*
X262460D02*
X252303D01*
X257382D01*
Y-36460D01*
X247225Y-21225D02*
X237068Y-36460D01*
Y-21225D02*
X247225Y-36460D01*
X231990Y-21225D02*
Y-36460D01*
X224372D01*
X221833Y-33921D01*
Y-23764D01*
X224372Y-21225D01*
X231990D01*
X313460Y-46764D02*
X310921Y-44225D01*
X305842D01*
X303303Y-46764D01*
Y-49303D01*
X305842Y-51842D01*
X308382D01*
X305842D01*
X303303Y-54382D01*
Y-56921D01*
X305842Y-59460D01*
X310921D01*
X313460Y-56921D01*
X298225Y-44225D02*
Y-54382D01*
X293147Y-59460D01*
X288068Y-54382D01*
Y-44225D01*
X282990Y-46764D02*
X280451Y-44225D01*
X275372D01*
X272833Y-46764D01*
Y-49303D01*
X275372Y-51842D01*
X277911D01*
X275372D01*
X272833Y-54382D01*
Y-56921D01*
X275372Y-59460D01*
X280451D01*
X282990Y-56921D01*
X379460Y-564540D02*
Y-571204D01*
X407460Y-563540D02*
Y-570205D01*
X408460Y-592128D02*
X401796D01*
X405128Y-588796D02*
Y-595460D01*
X384460Y-592128D02*
X377795D01*
X381128Y-588796D02*
Y-595460D01*
X839462Y-361540D02*
Y-368204D01*
X836129Y-371537D02*
X834463Y-373203D01*
Y-376535D01*
X836129Y-378201D01*
X837795D01*
X839462Y-376535D01*
Y-374869D01*
Y-376535D01*
X841128Y-378201D01*
X842794D01*
X844460Y-376535D01*
Y-373203D01*
X842794Y-371537D01*
X836129Y-381534D02*
X834463Y-383200D01*
Y-386532D01*
X836129Y-388198D01*
X837795D01*
X839462Y-386532D01*
X841128Y-388198D01*
X842794D01*
X844460Y-386532D01*
Y-383200D01*
X842794Y-381534D01*
X841128D01*
X839462Y-383200D01*
X837795Y-381534D01*
X836129D01*
X839462Y-383200D02*
Y-386532D01*
X876460Y-345129D02*
X874794Y-343463D01*
X871462D01*
X869796Y-345129D01*
Y-346796D01*
X871462Y-348462D01*
X869796Y-350128D01*
Y-351794D01*
X871462Y-353460D01*
X874794D01*
X876460Y-351794D01*
Y-350128D01*
X874794Y-348462D01*
X876460Y-346796D01*
Y-345129D01*
X874794Y-348462D02*
X871462D01*
X866463Y-343463D02*
X859799D01*
Y-345129D01*
X866463Y-351794D01*
Y-353460D01*
X18462Y-98540D02*
Y-105204D01*
X13463Y-108537D02*
Y-115201D01*
X15129D01*
X21794Y-108537D01*
X23460D01*
X37796Y-44460D02*
X44460D01*
X37796Y-37796D01*
Y-36129D01*
X39462Y-34463D01*
X42794D01*
X44460Y-36129D01*
X34463Y-44460D02*
Y-42794D01*
X32797D01*
Y-44460D01*
X34463D01*
X19468Y-34463D02*
X26133D01*
Y-39462D01*
X22800Y-37796D01*
X21134D01*
X19468Y-39462D01*
Y-42794D01*
X21134Y-44460D01*
X24466D01*
X26133Y-42794D01*
X784225Y-10540D02*
X799460D01*
Y-20697D01*
X784225Y-35932D02*
Y-25775D01*
X799460D01*
Y-35932D01*
X791842Y-25775D02*
Y-30854D01*
X784225Y-41010D02*
X799460D01*
Y-48628D01*
X796921Y-51167D01*
X786764D01*
X784225Y-48628D01*
Y-41010D01*
X762764Y-21697D02*
X760225Y-19158D01*
Y-14079D01*
X762764Y-11540D01*
X765303D01*
X767842Y-14079D01*
Y-19158D01*
X770382Y-21697D01*
X772921D01*
X775460Y-19158D01*
Y-14079D01*
X772921Y-11540D01*
X762764Y-36932D02*
X760225Y-34393D01*
Y-29314D01*
X762764Y-26775D01*
X772921D01*
X775460Y-29314D01*
Y-34393D01*
X772921Y-36932D01*
X760225Y-42010D02*
X775460D01*
X770382D01*
X760225Y-52167D01*
X767842Y-44549D01*
X775460Y-52167D01*
X733764Y-21697D02*
X731225Y-19158D01*
Y-14079D01*
X733764Y-11540D01*
X736303D01*
X738842Y-14079D01*
Y-19158D01*
X741382Y-21697D01*
X743921D01*
X746460Y-19158D01*
Y-14079D01*
X743921Y-11540D01*
X731225Y-26775D02*
X746460D01*
Y-34393D01*
X743921Y-36932D01*
X733764D01*
X731225Y-34393D01*
Y-26775D01*
X746460Y-42010D02*
X736303D01*
X731225Y-47088D01*
X736303Y-52167D01*
X746460D01*
X738842D01*
Y-42010D01*
X723460Y-11540D02*
X713303D01*
X708225Y-16618D01*
X713303Y-21697D01*
X723460D01*
X715842D01*
Y-11540D01*
X710764Y-26775D02*
X708225Y-29314D01*
Y-34393D01*
X710764Y-36932D01*
X720921D01*
X723460Y-34393D01*
Y-29314D01*
X720921Y-26775D01*
X710764D01*
X622764Y-21697D02*
X620225Y-19158D01*
Y-14079D01*
X622764Y-11540D01*
X632921D01*
X635460Y-14079D01*
Y-19158D01*
X632921Y-21697D01*
X622764Y-36932D02*
X620225Y-34393D01*
Y-29314D01*
X622764Y-26775D01*
X625303D01*
X627842Y-29314D01*
Y-34393D01*
X630382Y-36932D01*
X632921D01*
X635460Y-34393D01*
Y-29314D01*
X632921Y-26775D01*
X663460Y-11540D02*
X648225D01*
Y-19158D01*
X650764Y-21697D01*
X655843D01*
X658382Y-19158D01*
Y-11540D01*
Y-16618D02*
X663460Y-21697D01*
X650764Y-36932D02*
X648225Y-34393D01*
Y-29314D01*
X650764Y-26775D01*
X653303D01*
X655843Y-29314D01*
Y-34393D01*
X658382Y-36932D01*
X660921D01*
X663460Y-34393D01*
Y-29314D01*
X660921Y-26775D01*
X648225Y-42010D02*
Y-52167D01*
Y-47088D01*
X663460D01*
X598764Y-20697D02*
X596225Y-18158D01*
Y-13079D01*
X598764Y-10540D01*
X608921D01*
X611460Y-13079D01*
Y-18158D01*
X608921Y-20697D01*
X603843D01*
Y-15618D01*
X611460Y-25775D02*
X596225D01*
X611460Y-35932D01*
X596225D01*
Y-41010D02*
X611460D01*
Y-48628D01*
X608921Y-51167D01*
X598764D01*
X596225Y-48628D01*
Y-41010D01*
X572225Y-10540D02*
X582382D01*
X587460Y-15618D01*
X582382Y-20697D01*
X572225D01*
Y-25775D02*
X587460D01*
Y-33393D01*
X584921Y-35932D01*
X574764D01*
X572225Y-33393D01*
Y-25775D01*
Y-41010D02*
X587460D01*
Y-48628D01*
X584921Y-51167D01*
X574764D01*
X572225Y-48628D01*
Y-41010D01*
X410764Y-18697D02*
X408225Y-16157D01*
Y-11079D01*
X410764Y-8540D01*
X413303D01*
X415843Y-11079D01*
Y-16157D01*
X418382Y-18697D01*
X420921D01*
X423460Y-16157D01*
Y-11079D01*
X420921Y-8540D01*
X408225Y-23775D02*
X423460D01*
Y-31393D01*
X420921Y-33932D01*
X410764D01*
X408225Y-31393D01*
Y-23775D01*
X423460Y-39010D02*
X413303D01*
X408225Y-44089D01*
X413303Y-49167D01*
X423460D01*
X415843D01*
Y-39010D01*
X383764Y-19697D02*
X381225Y-17157D01*
Y-12079D01*
X383764Y-9540D01*
X386303D01*
X388843Y-12079D01*
Y-17157D01*
X391382Y-19697D01*
X393921D01*
X396460Y-17157D01*
Y-12079D01*
X393921Y-9540D01*
X383764Y-34932D02*
X381225Y-32393D01*
Y-27314D01*
X383764Y-24775D01*
X393921D01*
X396460Y-27314D01*
Y-32393D01*
X393921Y-34932D01*
X381225Y-40010D02*
X396460D01*
Y-50167D01*
X323225Y-8540D02*
Y-18697D01*
Y-13618D01*
X338460D01*
X323225Y-23775D02*
X338460Y-33932D01*
X323225D02*
X338460Y-23775D01*
X323225Y-39010D02*
X338460D01*
Y-46628D01*
X335921Y-49167D01*
X325764D01*
X323225Y-46628D01*
Y-39010D01*
X360460Y-9540D02*
X345225D01*
Y-17157D01*
X347764Y-19697D01*
X352842D01*
X355382Y-17157D01*
Y-9540D01*
Y-14618D02*
X360460Y-19697D01*
X345225Y-24775D02*
X360460Y-34932D01*
X345225D02*
X360460Y-24775D01*
X345225Y-40010D02*
X360460D01*
Y-47628D01*
X357921Y-50167D01*
X347764D01*
X345225Y-47628D01*
Y-40010D01*
X865303Y-22764D02*
X867842Y-20225D01*
X872921D01*
X875460Y-22764D01*
Y-32921D01*
X872921Y-35460D01*
X867842D01*
X865303Y-32921D01*
Y-27843D01*
X870382D01*
X860225Y-35460D02*
Y-20225D01*
X850068Y-35460D01*
Y-20225D01*
X844990D02*
Y-35460D01*
X837372D01*
X834833Y-32921D01*
Y-22764D01*
X837372Y-20225D01*
X844990D01*
X922460Y-35460D02*
Y-20225D01*
X914843D01*
X912303Y-22764D01*
Y-27843D01*
X914843Y-30382D01*
X922460D01*
X917382D02*
X912303Y-35460D01*
X907225Y-20225D02*
X897068Y-35460D01*
Y-20225D02*
X907225Y-35460D01*
X891990Y-20225D02*
Y-35460D01*
X884372D01*
X881833Y-32921D01*
Y-22764D01*
X884372Y-20225D01*
X891990D01*
X949460Y-69225D02*
X939303D01*
X944382D01*
Y-84460D01*
X934225Y-69225D02*
X924068Y-84460D01*
Y-69225D02*
X934225Y-84460D01*
X918990Y-69225D02*
Y-84460D01*
X911372D01*
X908833Y-81921D01*
Y-71764D01*
X911372Y-69225D01*
X918990D01*
X965303Y-22764D02*
X967842Y-20225D01*
X972921D01*
X975460Y-22764D01*
Y-25303D01*
X972921Y-27843D01*
X967842D01*
X965303Y-30382D01*
Y-32921D01*
X967842Y-35460D01*
X972921D01*
X975460Y-32921D01*
X952607Y-35460D02*
X957686D01*
X960225Y-32921D01*
Y-27843D01*
X957686Y-25303D01*
X952607D01*
X950068Y-27843D01*
Y-30382D01*
X960225D01*
X942451Y-22764D02*
Y-25303D01*
X944990D01*
X939911D01*
X942451D01*
Y-32921D01*
X939911Y-35460D01*
X815460Y-383147D02*
X805303D01*
X810382D01*
Y-398382D01*
X800225D02*
X795147D01*
X797686D01*
Y-388225D01*
X800225D01*
X787529Y-403460D02*
X784990D01*
X782451Y-400921D01*
Y-388225D01*
X772294Y-398382D02*
Y-388225D01*
X769755D01*
X767216Y-390764D01*
Y-398382D01*
Y-390764D01*
X764676Y-388225D01*
X762137Y-390764D01*
Y-398382D01*
X749441D02*
X754520D01*
X757059Y-395843D01*
Y-390764D01*
X754520Y-388225D01*
X749441D01*
X746902Y-390764D01*
Y-393303D01*
X757059D01*
X741824Y-398382D02*
Y-388225D01*
X734206D01*
X731667Y-390764D01*
Y-398382D01*
X814460Y-360686D02*
Y-375921D01*
X804303D01*
X799225Y-365764D02*
Y-373382D01*
X796686Y-375921D01*
X789068D01*
Y-365764D01*
X773833D02*
X781451D01*
X783990Y-368303D01*
Y-373382D01*
X781451Y-375921D01*
X773833D01*
X766216Y-365764D02*
X761137D01*
X758598Y-368303D01*
Y-375921D01*
X766216D01*
X768755Y-373382D01*
X766216Y-370843D01*
X758598D01*
X753520Y-375921D02*
X745902D01*
X743363Y-373382D01*
X745902Y-370843D01*
X750981D01*
X753520Y-368303D01*
X750981Y-365764D01*
X743363D01*
X738285Y-378460D02*
X728128D01*
X723050Y-360686D02*
Y-375921D01*
X717971Y-370843D01*
X712893Y-375921D01*
Y-360686D01*
X197225Y-761540D02*
X207382D01*
X212460Y-766618D01*
X207382Y-771697D01*
X197225D01*
Y-776775D02*
X212460D01*
Y-784393D01*
X209921Y-786932D01*
X199764D01*
X197225Y-784393D01*
Y-776775D01*
Y-792010D02*
X212460D01*
Y-799628D01*
X209921Y-802167D01*
X199764D01*
X197225Y-799628D01*
Y-792010D01*
X235460Y-779540D02*
Y-784618D01*
Y-782079D01*
X220225D01*
X222764Y-779540D01*
X220225Y-792236D02*
X235460D01*
Y-799853D01*
X232921Y-802393D01*
X230382D01*
X227843Y-799853D01*
Y-792236D01*
Y-799853D01*
X225303Y-802393D01*
X222764D01*
X220225Y-799853D01*
Y-792236D01*
X258460Y-779540D02*
Y-784618D01*
Y-782079D01*
X243225D01*
X245764Y-779540D01*
X258460Y-792236D02*
X248303D01*
X243225Y-797314D01*
X248303Y-802393D01*
X258460D01*
X250842D01*
Y-792236D01*
X287460Y-786697D02*
Y-776540D01*
X277303Y-786697D01*
X274764D01*
X272225Y-784157D01*
Y-779079D01*
X274764Y-776540D01*
X287460Y-791775D02*
X277303D01*
X272225Y-796853D01*
X277303Y-801932D01*
X287460D01*
X279842D01*
Y-791775D01*
X311460Y-786697D02*
Y-776540D01*
X301303Y-786697D01*
X298764D01*
X296225Y-784158D01*
Y-779079D01*
X298764Y-776540D01*
X296225Y-791775D02*
X311460D01*
Y-799393D01*
X308921Y-801932D01*
X306382D01*
X303842Y-799393D01*
Y-791775D01*
Y-799393D01*
X301303Y-801932D01*
X298764D01*
X296225Y-799393D01*
Y-791775D01*
X347225Y-750540D02*
X357382D01*
X362460Y-755618D01*
X357382Y-760697D01*
X347225D01*
X362460Y-765775D02*
X352303D01*
Y-768314D01*
X354842Y-770853D01*
X362460D01*
X354842D01*
X352303Y-773393D01*
X354842Y-775932D01*
X362460D01*
Y-783549D02*
Y-788628D01*
X359921Y-791167D01*
X354842D01*
X352303Y-788628D01*
Y-783549D01*
X354842Y-781010D01*
X359921D01*
X362460Y-783549D01*
X349764Y-798784D02*
X352303D01*
Y-796245D01*
Y-801324D01*
Y-798784D01*
X359921D01*
X362460Y-801324D01*
X326764Y-770697D02*
X324225Y-768158D01*
Y-763079D01*
X326764Y-760540D01*
X336921D01*
X339460Y-763079D01*
Y-768158D01*
X336921Y-770697D01*
X331842D01*
Y-765618D01*
X339460Y-775775D02*
X324225D01*
X339460Y-785932D01*
X324225D01*
Y-791010D02*
X339460D01*
Y-798628D01*
X336921Y-801167D01*
X326764D01*
X324225Y-798628D01*
Y-791010D01*
X172764Y-772697D02*
X170225Y-770157D01*
Y-765079D01*
X172764Y-762540D01*
X182921D01*
X185460Y-765079D01*
Y-770157D01*
X182921Y-772697D01*
X177843D01*
Y-767618D01*
X185460Y-777775D02*
X170225D01*
X185460Y-787932D01*
X170225D01*
Y-793010D02*
X185460D01*
Y-800628D01*
X182921Y-803167D01*
X172764D01*
X170225Y-800628D01*
Y-793010D01*
X170225Y-705540D02*
X185460D01*
Y-713158D01*
X182921Y-715697D01*
X172764D01*
X170225Y-713158D01*
Y-705540D01*
Y-720775D02*
Y-725853D01*
Y-723314D01*
X185460D01*
Y-720775D01*
Y-725853D01*
Y-733471D02*
X170225D01*
Y-741088D01*
X172764Y-743628D01*
X177842D01*
X180382Y-741088D01*
Y-733471D01*
Y-738549D02*
X185460Y-743628D01*
X199764Y-715697D02*
X197225Y-713158D01*
Y-708079D01*
X199764Y-705540D01*
X202303D01*
X204842Y-708079D01*
Y-713158D01*
X207382Y-715697D01*
X209921D01*
X212460Y-713158D01*
Y-708079D01*
X209921Y-705540D01*
X197225Y-720775D02*
Y-730932D01*
Y-725853D01*
X212460D01*
Y-736010D02*
X197225D01*
Y-743628D01*
X199764Y-746167D01*
X204842D01*
X207382Y-743628D01*
Y-736010D01*
X224764Y-716697D02*
X222225Y-714158D01*
Y-709079D01*
X224764Y-706540D01*
X227303D01*
X229842Y-709079D01*
Y-714158D01*
X232382Y-716697D01*
X234921D01*
X237460Y-714158D01*
Y-709079D01*
X234921Y-706540D01*
X222225Y-721775D02*
X237460D01*
Y-731932D01*
Y-737010D02*
X222225D01*
Y-744628D01*
X224764Y-747167D01*
X229842D01*
X232382Y-744628D01*
Y-737010D01*
X262460Y-705540D02*
X247225D01*
Y-713158D01*
X249764Y-715697D01*
X254842D01*
X257382Y-713158D01*
Y-705540D01*
Y-710618D02*
X262460Y-715697D01*
X249764Y-730932D02*
X247225Y-728393D01*
Y-723314D01*
X249764Y-720775D01*
X252303D01*
X254842Y-723314D01*
Y-728393D01*
X257382Y-730932D01*
X259921D01*
X262460Y-728393D01*
Y-723314D01*
X259921Y-720775D01*
X247225Y-736010D02*
Y-746167D01*
Y-741088D01*
X262460D01*
X285460Y-705540D02*
X270225D01*
X275303Y-710618D01*
X270225Y-715697D01*
X285460D01*
X272764Y-730932D02*
X270225Y-728393D01*
Y-723314D01*
X272764Y-720775D01*
X275303D01*
X277842Y-723314D01*
Y-728393D01*
X280382Y-730932D01*
X282921D01*
X285460Y-728393D01*
Y-723314D01*
X282921Y-720775D01*
X272764Y-736010D02*
X270225Y-738549D01*
Y-743628D01*
X272764Y-746167D01*
X275303D01*
X277842Y-743628D01*
Y-741088D01*
Y-743628D01*
X280382Y-746167D01*
X282921D01*
X285460Y-743628D01*
Y-738549D01*
X282921Y-736010D01*
X312460Y-705540D02*
X297225D01*
X302303Y-710618D01*
X297225Y-715697D01*
X312460D01*
X299764Y-730932D02*
X297225Y-728393D01*
Y-723314D01*
X299764Y-720775D01*
X302303D01*
X304842Y-723314D01*
Y-728393D01*
X307382Y-730932D01*
X309921D01*
X312460Y-728393D01*
Y-723314D01*
X309921Y-720775D01*
X312460Y-746167D02*
Y-736010D01*
X302303Y-746167D01*
X299764D01*
X297225Y-743628D01*
Y-738549D01*
X299764Y-736010D01*
X337460Y-705540D02*
X322225D01*
X327303Y-710618D01*
X322225Y-715697D01*
X337460D01*
X324764Y-730932D02*
X322225Y-728393D01*
Y-723314D01*
X324764Y-720775D01*
X327303D01*
X329842Y-723314D01*
Y-728393D01*
X332382Y-730932D01*
X334921D01*
X337460Y-728393D01*
Y-723314D01*
X334921Y-720775D01*
X337460Y-736010D02*
Y-741088D01*
Y-738549D01*
X322225D01*
X324764Y-736010D01*
X350978Y-715450D02*
Y-705294D01*
X366213D01*
Y-715450D01*
X358596Y-705294D02*
Y-710372D01*
X366213Y-720529D02*
X350978D01*
X366213Y-730685D01*
X350978D01*
X555460Y-936540D02*
X540225D01*
Y-944157D01*
X542764Y-946697D01*
X547842D01*
X550382Y-944157D01*
Y-936540D01*
X540225Y-961932D02*
Y-951775D01*
X547842D01*
X545303Y-956853D01*
Y-959393D01*
X547842Y-961932D01*
X552921D01*
X555460Y-959393D01*
Y-954314D01*
X552921Y-951775D01*
X555460Y-967010D02*
X552921D01*
Y-969549D01*
X555460D01*
Y-967010D01*
X540225Y-979706D02*
Y-989863D01*
X542764D01*
X552921Y-979706D01*
X555460D01*
X528460Y-936540D02*
X513225D01*
Y-944157D01*
X515764Y-946697D01*
X520842D01*
X523382Y-944157D01*
Y-936540D01*
X513225Y-961932D02*
Y-951775D01*
X520842D01*
X518303Y-956853D01*
Y-959393D01*
X520842Y-961932D01*
X525921D01*
X528460Y-959393D01*
Y-954314D01*
X525921Y-951775D01*
X528460Y-967010D02*
X525921D01*
Y-969549D01*
X528460D01*
Y-967010D01*
X513225Y-989863D02*
X515764Y-984784D01*
X520842Y-979706D01*
X525921D01*
X528460Y-982245D01*
Y-987324D01*
X525921Y-989863D01*
X523382D01*
X520842Y-987324D01*
Y-979706D01*
X503460Y-936540D02*
X488225D01*
Y-944157D01*
X490764Y-946697D01*
X495842D01*
X498382Y-944157D01*
Y-936540D01*
X488225Y-961932D02*
Y-951775D01*
X495842D01*
X493303Y-956853D01*
Y-959393D01*
X495842Y-961932D01*
X500921D01*
X503460Y-959393D01*
Y-954314D01*
X500921Y-951775D01*
X503460Y-967010D02*
X500921D01*
Y-969549D01*
X503460D01*
Y-967010D01*
X488225Y-989863D02*
Y-979706D01*
X495842D01*
X493303Y-984784D01*
Y-987324D01*
X495842Y-989863D01*
X500921D01*
X503460Y-987324D01*
Y-982245D01*
X500921Y-979706D01*
X443460Y-935540D02*
X428225D01*
Y-943158D01*
X430764Y-945697D01*
X435842D01*
X438382Y-943158D01*
Y-935540D01*
X428225Y-960932D02*
Y-950775D01*
X435842D01*
X433303Y-955853D01*
Y-958393D01*
X435842Y-960932D01*
X440921D01*
X443460Y-958393D01*
Y-953314D01*
X440921Y-950775D01*
X443460Y-966010D02*
X440921D01*
Y-968549D01*
X443460D01*
Y-966010D01*
X430764Y-978706D02*
X428225Y-981245D01*
Y-986324D01*
X430764Y-988863D01*
X433303D01*
X435842Y-986324D01*
Y-983784D01*
Y-986324D01*
X438382Y-988863D01*
X440921D01*
X443460Y-986324D01*
Y-981245D01*
X440921Y-978706D01*
X417460Y-935540D02*
X402225D01*
Y-943158D01*
X404764Y-945697D01*
X409842D01*
X412382Y-943158D01*
Y-935540D01*
X402225Y-960932D02*
Y-950775D01*
X409842D01*
X407303Y-955853D01*
Y-958393D01*
X409842Y-960932D01*
X414921D01*
X417460Y-958393D01*
Y-953314D01*
X414921Y-950775D01*
X417460Y-966010D02*
X414921D01*
Y-968549D01*
X417460D01*
Y-966010D01*
Y-988863D02*
Y-978706D01*
X407303Y-988863D01*
X404764D01*
X402225Y-986324D01*
Y-981245D01*
X404764Y-978706D01*
X392460Y-935540D02*
X377225D01*
Y-943158D01*
X379764Y-945697D01*
X384842D01*
X387382Y-943158D01*
Y-935540D01*
X377225Y-960932D02*
Y-950775D01*
X384842D01*
X382303Y-955853D01*
Y-958393D01*
X384842Y-960932D01*
X389921D01*
X392460Y-958393D01*
Y-953314D01*
X389921Y-950775D01*
X392460Y-966010D02*
X389921D01*
Y-968549D01*
X392460D01*
Y-966010D01*
Y-978706D02*
Y-983784D01*
Y-981245D01*
X377225D01*
X379764Y-978706D01*
X365460Y-935540D02*
X350225D01*
Y-943158D01*
X352764Y-945697D01*
X357842D01*
X360382Y-943158D01*
Y-935540D01*
X350225Y-960932D02*
Y-950775D01*
X357842D01*
X355303Y-955853D01*
Y-958393D01*
X357842Y-960932D01*
X362921D01*
X365460Y-958393D01*
Y-953314D01*
X362921Y-950775D01*
X365460Y-966010D02*
X362921D01*
Y-968549D01*
X365460D01*
Y-966010D01*
X352764Y-978706D02*
X350225Y-981245D01*
Y-986324D01*
X352764Y-988863D01*
X362921D01*
X365460Y-986324D01*
Y-981245D01*
X362921Y-978706D01*
X352764D01*
X602764Y-947697D02*
X600225Y-945157D01*
Y-940079D01*
X602764Y-937540D01*
X612921D01*
X615460Y-940079D01*
Y-945157D01*
X612921Y-947697D01*
X607842D01*
Y-942618D01*
X615460Y-952775D02*
X600225D01*
X615460Y-962932D01*
X600225D01*
Y-968010D02*
X615460D01*
Y-975628D01*
X612921Y-978167D01*
X602764D01*
X600225Y-975628D01*
Y-968010D01*
X572764Y-947697D02*
X570225Y-945157D01*
Y-940079D01*
X572764Y-937540D01*
X582921D01*
X585460Y-940079D01*
Y-945157D01*
X582921Y-947697D01*
X577842D01*
Y-942618D01*
X585460Y-952775D02*
X570225D01*
X585460Y-962932D01*
X570225D01*
Y-968010D02*
X585460D01*
Y-975628D01*
X582921Y-978167D01*
X572764D01*
X570225Y-975628D01*
Y-968010D01*
X302764Y-942697D02*
X300225Y-940157D01*
Y-935079D01*
X302764Y-932540D01*
X312921D01*
X315460Y-935079D01*
Y-940157D01*
X312921Y-942697D01*
X307843D01*
Y-937618D01*
X315460Y-947775D02*
X300225D01*
X315460Y-957932D01*
X300225D01*
Y-963010D02*
X315460D01*
Y-970628D01*
X312921Y-973167D01*
X302764D01*
X300225Y-970628D01*
Y-963010D01*
X274764Y-942697D02*
X272225Y-940158D01*
Y-935079D01*
X274764Y-932540D01*
X284921D01*
X287460Y-935079D01*
Y-940158D01*
X284921Y-942697D01*
X279842D01*
Y-937618D01*
X287460Y-947775D02*
X272225D01*
X287460Y-957932D01*
X272225D01*
Y-963010D02*
X287460D01*
Y-970628D01*
X284921Y-973167D01*
X274764D01*
X272225Y-970628D01*
Y-963010D01*
X70460Y-931540D02*
X55225D01*
Y-939158D01*
X57764Y-941697D01*
X62842D01*
X65382Y-939158D01*
Y-931540D01*
X70460Y-954393D02*
X55225D01*
X62842Y-946775D01*
Y-956932D01*
X70460Y-962010D02*
X67921D01*
Y-964549D01*
X70460D01*
Y-962010D01*
X57764Y-974706D02*
X55225Y-977245D01*
Y-982324D01*
X57764Y-984863D01*
X67921D01*
X70460Y-982324D01*
Y-977245D01*
X67921Y-974706D01*
X57764D01*
X97460Y-933540D02*
X82225D01*
Y-941158D01*
X84764Y-943697D01*
X89843D01*
X92382Y-941158D01*
Y-933540D01*
X97460Y-956393D02*
X82225D01*
X89843Y-948775D01*
Y-958932D01*
X97460Y-964010D02*
X94921D01*
Y-966549D01*
X97460D01*
Y-964010D01*
Y-976706D02*
Y-981784D01*
Y-979245D01*
X82225D01*
X84764Y-976706D01*
X123460Y-933540D02*
X108225D01*
Y-941158D01*
X110764Y-943697D01*
X115843D01*
X118382Y-941158D01*
Y-933540D01*
X123460Y-956393D02*
X108225D01*
X115843Y-948775D01*
Y-958932D01*
X123460Y-964010D02*
X120921D01*
Y-966549D01*
X123460D01*
Y-964010D01*
Y-986863D02*
Y-976706D01*
X113303Y-986863D01*
X110764D01*
X108225Y-984324D01*
Y-979245D01*
X110764Y-976706D01*
X148460Y-933540D02*
X133225D01*
Y-941158D01*
X135764Y-943697D01*
X140843D01*
X143382Y-941158D01*
Y-933540D01*
X148460Y-956393D02*
X133225D01*
X140843Y-948775D01*
Y-958932D01*
X148460Y-964010D02*
X145921D01*
Y-966549D01*
X148460D01*
Y-964010D01*
X135764Y-976706D02*
X133225Y-979245D01*
Y-984324D01*
X135764Y-986863D01*
X138303D01*
X140843Y-984324D01*
Y-981784D01*
Y-984324D01*
X143382Y-986863D01*
X145921D01*
X148460Y-984324D01*
Y-979245D01*
X145921Y-976706D01*
X182460Y-931540D02*
X167225D01*
Y-939157D01*
X169764Y-941697D01*
X174842D01*
X177382Y-939157D01*
Y-931540D01*
X182460Y-954393D02*
X167225D01*
X174842Y-946775D01*
Y-956932D01*
X182460Y-962010D02*
X179921D01*
Y-964549D01*
X182460D01*
Y-962010D01*
Y-982324D02*
X167225D01*
X174842Y-974706D01*
Y-984863D01*
X207460Y-931540D02*
X192225D01*
Y-939157D01*
X194764Y-941697D01*
X199842D01*
X202382Y-939157D01*
Y-931540D01*
X207460Y-954393D02*
X192225D01*
X199842Y-946775D01*
Y-956932D01*
X207460Y-962010D02*
X204921D01*
Y-964549D01*
X207460D01*
Y-962010D01*
X192225Y-984863D02*
Y-974706D01*
X199842D01*
X197303Y-979784D01*
Y-982324D01*
X199842Y-984863D01*
X204921D01*
X207460Y-982324D01*
Y-977245D01*
X204921Y-974706D01*
X231460Y-932540D02*
X216225D01*
Y-940157D01*
X218764Y-942697D01*
X223843D01*
X226382Y-940157D01*
Y-932540D01*
X231460Y-955393D02*
X216225D01*
X223843Y-947775D01*
Y-957932D01*
X231460Y-963010D02*
X228921D01*
Y-965549D01*
X231460D01*
Y-963010D01*
X216225Y-985863D02*
X218764Y-980784D01*
X223843Y-975706D01*
X228921D01*
X231460Y-978245D01*
Y-983324D01*
X228921Y-985863D01*
X226382D01*
X223843Y-983324D01*
Y-975706D01*
X256460Y-932540D02*
X241225D01*
Y-940157D01*
X243764Y-942697D01*
X248843D01*
X251382Y-940157D01*
Y-932540D01*
X256460Y-955393D02*
X241225D01*
X248843Y-947775D01*
Y-957932D01*
X256460Y-963010D02*
X253921D01*
Y-965549D01*
X256460D01*
Y-963010D01*
X241225Y-975706D02*
Y-985863D01*
X243764D01*
X253921Y-975706D01*
X256460D01*
X70460Y-870460D02*
Y-855225D01*
X62842D01*
X60303Y-857764D01*
Y-862842D01*
X62842Y-865382D01*
X70460D01*
X55225Y-857764D02*
X52686Y-855225D01*
X47607D01*
X45068Y-857764D01*
Y-860303D01*
X47607Y-862842D01*
X50147D01*
X47607D01*
X45068Y-865382D01*
Y-867921D01*
X47607Y-870460D01*
X52686D01*
X55225Y-867921D01*
X39990Y-870460D02*
Y-867921D01*
X37451D01*
Y-870460D01*
X39990D01*
X27294Y-855225D02*
X17137D01*
Y-857764D01*
X27294Y-867921D01*
Y-870460D01*
X71460Y-843460D02*
Y-828225D01*
X63843D01*
X61303Y-830764D01*
Y-835843D01*
X63843Y-838382D01*
X71460D01*
X56225Y-830764D02*
X53686Y-828225D01*
X48607D01*
X46068Y-830764D01*
Y-833303D01*
X48607Y-835843D01*
X51147D01*
X48607D01*
X46068Y-838382D01*
Y-840921D01*
X48607Y-843460D01*
X53686D01*
X56225Y-840921D01*
X40990Y-843460D02*
Y-840921D01*
X38451D01*
Y-843460D01*
X40990D01*
X18137Y-828225D02*
X23216Y-830764D01*
X28294Y-835843D01*
Y-840921D01*
X25755Y-843460D01*
X20676D01*
X18137Y-840921D01*
Y-838382D01*
X20676Y-835843D01*
X28294D01*
X72460Y-817460D02*
Y-802225D01*
X64843D01*
X62303Y-804764D01*
Y-809843D01*
X64843Y-812382D01*
X72460D01*
X57225Y-804764D02*
X54686Y-802225D01*
X49607D01*
X47068Y-804764D01*
Y-807303D01*
X49607Y-809843D01*
X52147D01*
X49607D01*
X47068Y-812382D01*
Y-814921D01*
X49607Y-817460D01*
X54686D01*
X57225Y-814921D01*
X41990Y-817460D02*
Y-814921D01*
X39451D01*
Y-817460D01*
X41990D01*
X19137Y-802225D02*
X29294D01*
Y-809843D01*
X24216Y-807303D01*
X21676D01*
X19137Y-809843D01*
Y-814921D01*
X21676Y-817460D01*
X26755D01*
X29294Y-814921D01*
X72460Y-792460D02*
Y-777225D01*
X64843D01*
X62303Y-779764D01*
Y-784843D01*
X64843Y-787382D01*
X72460D01*
X57225Y-779764D02*
X54686Y-777225D01*
X49607D01*
X47068Y-779764D01*
Y-782303D01*
X49607Y-784843D01*
X52147D01*
X49607D01*
X47068Y-787382D01*
Y-789921D01*
X49607Y-792460D01*
X54686D01*
X57225Y-789921D01*
X41990Y-792460D02*
Y-789921D01*
X39451D01*
Y-792460D01*
X41990D01*
X21676D02*
Y-777225D01*
X29294Y-784843D01*
X19137D01*
X72460Y-758460D02*
Y-743225D01*
X64843D01*
X62303Y-745764D01*
Y-750843D01*
X64843Y-753382D01*
X72460D01*
X57225Y-745764D02*
X54686Y-743225D01*
X49607D01*
X47068Y-745764D01*
Y-748303D01*
X49607Y-750843D01*
X52147D01*
X49607D01*
X47068Y-753382D01*
Y-755921D01*
X49607Y-758460D01*
X54686D01*
X57225Y-755921D01*
X41990Y-758460D02*
Y-755921D01*
X39451D01*
Y-758460D01*
X41990D01*
X29294Y-745764D02*
X26755Y-743225D01*
X21676D01*
X19137Y-745764D01*
Y-748303D01*
X21676Y-750843D01*
X24216D01*
X21676D01*
X19137Y-753382D01*
Y-755921D01*
X21676Y-758460D01*
X26755D01*
X29294Y-755921D01*
X72460Y-731460D02*
Y-716225D01*
X64843D01*
X62303Y-718764D01*
Y-723842D01*
X64843Y-726382D01*
X72460D01*
X57225Y-718764D02*
X54686Y-716225D01*
X49607D01*
X47068Y-718764D01*
Y-721303D01*
X49607Y-723842D01*
X52147D01*
X49607D01*
X47068Y-726382D01*
Y-728921D01*
X49607Y-731460D01*
X54686D01*
X57225Y-728921D01*
X41990Y-731460D02*
Y-728921D01*
X39451D01*
Y-731460D01*
X41990D01*
X19137D02*
X29294D01*
X19137Y-721303D01*
Y-718764D01*
X21676Y-716225D01*
X26755D01*
X29294Y-718764D01*
X71460Y-707460D02*
Y-692225D01*
X63843D01*
X61303Y-694764D01*
Y-699843D01*
X63843Y-702382D01*
X71460D01*
X56225Y-694764D02*
X53686Y-692225D01*
X48607D01*
X46068Y-694764D01*
Y-697303D01*
X48607Y-699843D01*
X51147D01*
X48607D01*
X46068Y-702382D01*
Y-704921D01*
X48607Y-707460D01*
X53686D01*
X56225Y-704921D01*
X40990Y-707460D02*
Y-704921D01*
X38451D01*
Y-707460D01*
X40990D01*
X28294D02*
X23216D01*
X25755D01*
Y-692225D01*
X28294Y-694764D01*
X70460Y-682460D02*
Y-667225D01*
X62842D01*
X60303Y-669764D01*
Y-674843D01*
X62842Y-677382D01*
X70460D01*
X55225Y-669764D02*
X52686Y-667225D01*
X47607D01*
X45068Y-669764D01*
Y-672303D01*
X47607Y-674843D01*
X50147D01*
X47607D01*
X45068Y-677382D01*
Y-679921D01*
X47607Y-682460D01*
X52686D01*
X55225Y-679921D01*
X39990Y-682460D02*
Y-679921D01*
X37451D01*
Y-682460D01*
X39990D01*
X27294Y-669764D02*
X24755Y-667225D01*
X19676D01*
X17137Y-669764D01*
Y-679921D01*
X19676Y-682460D01*
X24755D01*
X27294Y-679921D01*
Y-669764D01*
X61303Y-630764D02*
X63843Y-628225D01*
X68921D01*
X71460Y-630764D01*
Y-640921D01*
X68921Y-643460D01*
X63843D01*
X61303Y-640921D01*
Y-635843D01*
X66382D01*
X56225Y-643460D02*
Y-628225D01*
X46068Y-643460D01*
Y-628225D01*
X40990D02*
Y-643460D01*
X33372D01*
X30833Y-640921D01*
Y-630764D01*
X33372Y-628225D01*
X40990D01*
X61303Y-603764D02*
X63843Y-601225D01*
X68921D01*
X71460Y-603764D01*
Y-613921D01*
X68921Y-616460D01*
X63843D01*
X61303Y-613921D01*
Y-608843D01*
X66382D01*
X56225Y-616460D02*
Y-601225D01*
X46068Y-616460D01*
Y-601225D01*
X40990D02*
Y-616460D01*
X33372D01*
X30833Y-613921D01*
Y-603764D01*
X33372Y-601225D01*
X40990D01*
X70460Y-584460D02*
Y-569225D01*
X62842D01*
X60303Y-571764D01*
Y-576842D01*
X62842Y-579382D01*
X70460D01*
X45068Y-584460D02*
X55225D01*
X45068Y-574303D01*
Y-571764D01*
X47607Y-569225D01*
X52686D01*
X55225Y-571764D01*
X39990Y-584460D02*
Y-581921D01*
X37451D01*
Y-584460D01*
X39990D01*
X27294Y-569225D02*
X17137D01*
Y-571764D01*
X27294Y-581921D01*
Y-584460D01*
X70460Y-560460D02*
Y-545225D01*
X62842D01*
X60303Y-547764D01*
Y-552842D01*
X62842Y-555382D01*
X70460D01*
X45068Y-560460D02*
X55225D01*
X45068Y-550303D01*
Y-547764D01*
X47607Y-545225D01*
X52686D01*
X55225Y-547764D01*
X39990Y-560460D02*
Y-557921D01*
X37451D01*
Y-560460D01*
X39990D01*
X17137Y-545225D02*
X22216Y-547764D01*
X27294Y-552842D01*
Y-557921D01*
X24755Y-560460D01*
X19676D01*
X17137Y-557921D01*
Y-555382D01*
X19676Y-552842D01*
X27294D01*
X69460Y-534460D02*
Y-519225D01*
X61842D01*
X59303Y-521764D01*
Y-526842D01*
X61842Y-529382D01*
X69460D01*
X44068Y-534460D02*
X54225D01*
X44068Y-524303D01*
Y-521764D01*
X46607Y-519225D01*
X51686D01*
X54225Y-521764D01*
X38990Y-534460D02*
Y-531921D01*
X36451D01*
Y-534460D01*
X38990D01*
X16137Y-519225D02*
X26294D01*
Y-526842D01*
X21216Y-524303D01*
X18676D01*
X16137Y-526842D01*
Y-531921D01*
X18676Y-534460D01*
X23755D01*
X26294Y-531921D01*
X69460Y-507460D02*
Y-492225D01*
X61842D01*
X59303Y-494764D01*
Y-499842D01*
X61842Y-502382D01*
X69460D01*
X44068Y-507460D02*
X54225D01*
X44068Y-497303D01*
Y-494764D01*
X46607Y-492225D01*
X51686D01*
X54225Y-494764D01*
X38990Y-507460D02*
Y-504921D01*
X36451D01*
Y-507460D01*
X38990D01*
X18676D02*
Y-492225D01*
X26294Y-499842D01*
X16137D01*
X69460Y-473460D02*
Y-458225D01*
X61842D01*
X59303Y-460764D01*
Y-465843D01*
X61842Y-468382D01*
X69460D01*
X44068Y-473460D02*
X54225D01*
X44068Y-463303D01*
Y-460764D01*
X46607Y-458225D01*
X51686D01*
X54225Y-460764D01*
X38990Y-473460D02*
Y-470921D01*
X36451D01*
Y-473460D01*
X38990D01*
X26294Y-460764D02*
X23755Y-458225D01*
X18676D01*
X16137Y-460764D01*
Y-463303D01*
X18676Y-465843D01*
X21216D01*
X18676D01*
X16137Y-468382D01*
Y-470921D01*
X18676Y-473460D01*
X23755D01*
X26294Y-470921D01*
X69460Y-448460D02*
Y-433225D01*
X61842D01*
X59303Y-435764D01*
Y-440843D01*
X61842Y-443382D01*
X69460D01*
X44068Y-448460D02*
X54225D01*
X44068Y-438303D01*
Y-435764D01*
X46607Y-433225D01*
X51686D01*
X54225Y-435764D01*
X38990Y-448460D02*
Y-445921D01*
X36451D01*
Y-448460D01*
X38990D01*
X16137D02*
X26294D01*
X16137Y-438303D01*
Y-435764D01*
X18676Y-433225D01*
X23755D01*
X26294Y-435764D01*
X69460Y-423460D02*
Y-408225D01*
X61842D01*
X59303Y-410764D01*
Y-415843D01*
X61842Y-418382D01*
X69460D01*
X44068Y-423460D02*
X54225D01*
X44068Y-413303D01*
Y-410764D01*
X46607Y-408225D01*
X51686D01*
X54225Y-410764D01*
X38990Y-423460D02*
Y-420921D01*
X36451D01*
Y-423460D01*
X38990D01*
X26294D02*
X21216D01*
X23755D01*
Y-408225D01*
X26294Y-410764D01*
X69460Y-403460D02*
Y-388225D01*
X61842D01*
X59303Y-390764D01*
Y-395843D01*
X61842Y-398382D01*
X69460D01*
X44068Y-403460D02*
X54225D01*
X44068Y-393303D01*
Y-390764D01*
X46607Y-388225D01*
X51686D01*
X54225Y-390764D01*
X38990Y-403460D02*
Y-400921D01*
X36451D01*
Y-403460D01*
X38990D01*
X26294Y-390764D02*
X23755Y-388225D01*
X18676D01*
X16137Y-390764D01*
Y-400921D01*
X18676Y-403460D01*
X23755D01*
X26294Y-400921D01*
Y-390764D01*
X538460Y-6540D02*
X523225D01*
Y-14158D01*
X525764Y-16697D01*
X530842D01*
X533382Y-14158D01*
Y-6540D01*
X525764Y-21775D02*
X523225Y-24314D01*
Y-29393D01*
X525764Y-31932D01*
X535921D01*
X538460Y-29393D01*
Y-24314D01*
X535921Y-21775D01*
X525764D01*
X538460Y-37010D02*
X535921D01*
Y-39549D01*
X538460D01*
Y-37010D01*
X523225Y-59863D02*
X525764Y-54784D01*
X530842Y-49706D01*
X535921D01*
X538460Y-52245D01*
Y-57324D01*
X535921Y-59863D01*
X533382D01*
X530842Y-57324D01*
Y-49706D01*
X513460Y-7540D02*
X498225D01*
Y-15158D01*
X500764Y-17697D01*
X505842D01*
X508382Y-15158D01*
Y-7540D01*
X500764Y-22775D02*
X498225Y-25314D01*
Y-30393D01*
X500764Y-32932D01*
X510921D01*
X513460Y-30393D01*
Y-25314D01*
X510921Y-22775D01*
X500764D01*
X513460Y-38010D02*
X510921D01*
Y-40549D01*
X513460D01*
Y-38010D01*
Y-60863D02*
Y-50706D01*
X503303Y-60863D01*
X500764D01*
X498225Y-58324D01*
Y-53245D01*
X500764Y-50706D01*
X487460Y-8540D02*
X472225D01*
Y-16157D01*
X474764Y-18697D01*
X479842D01*
X482382Y-16157D01*
Y-8540D01*
X474764Y-23775D02*
X472225Y-26314D01*
Y-31393D01*
X474764Y-33932D01*
X484921D01*
X487460Y-31393D01*
Y-26314D01*
X484921Y-23775D01*
X474764D01*
X487460Y-39010D02*
X484921D01*
Y-41549D01*
X487460D01*
Y-39010D01*
Y-51706D02*
Y-56784D01*
Y-54245D01*
X472225D01*
X474764Y-51706D01*
X461460Y-7540D02*
X446225D01*
Y-15158D01*
X448764Y-17697D01*
X453843D01*
X456382Y-15158D01*
Y-7540D01*
X448764Y-22775D02*
X446225Y-25314D01*
Y-30393D01*
X448764Y-32932D01*
X458921D01*
X461460Y-30393D01*
Y-25314D01*
X458921Y-22775D01*
X448764D01*
X461460Y-38010D02*
X458921D01*
Y-40549D01*
X461460D01*
Y-38010D01*
X448764Y-50706D02*
X446225Y-53245D01*
Y-58324D01*
X448764Y-60863D01*
X458921D01*
X461460Y-58324D01*
Y-53245D01*
X458921Y-50706D01*
X448764D01*
X978460Y-373460D02*
X973382D01*
X975921D01*
Y-358225D01*
X978460Y-360764D01*
X965764Y-358225D02*
Y-373460D01*
X958147D01*
X955607Y-370921D01*
Y-368382D01*
X958147Y-365842D01*
X965764D01*
X958147D01*
X955607Y-363303D01*
Y-360764D01*
X958147Y-358225D01*
X965764D01*
X979460Y-401460D02*
X974382D01*
X976921D01*
Y-386225D01*
X979460Y-388764D01*
X966764Y-401460D02*
Y-391303D01*
X961686Y-386225D01*
X956607Y-391303D01*
Y-401460D01*
Y-393843D01*
X966764D01*
X971303Y-430460D02*
X981460D01*
X971303Y-420303D01*
Y-417764D01*
X973842Y-415225D01*
X978921D01*
X981460Y-417764D01*
X966225Y-430460D02*
Y-420303D01*
X961147Y-415225D01*
X956068Y-420303D01*
Y-430460D01*
Y-422842D01*
X966225D01*
X971303Y-455460D02*
X981460D01*
X971303Y-445303D01*
Y-442764D01*
X973842Y-440225D01*
X978921D01*
X981460Y-442764D01*
X966225Y-440225D02*
Y-455460D01*
X958607D01*
X956068Y-452921D01*
Y-450382D01*
X958607Y-447842D01*
X966225D01*
X958607D01*
X956068Y-445303D01*
Y-442764D01*
X958607Y-440225D01*
X966225D01*
X978460Y-507460D02*
X973382D01*
X975921D01*
Y-492225D01*
X978460Y-494764D01*
X965764Y-492225D02*
Y-507460D01*
X958147D01*
X955607Y-504921D01*
Y-502382D01*
X958147Y-499842D01*
X965764D01*
X958147D01*
X955607Y-497303D01*
Y-494764D01*
X958147Y-492225D01*
X965764D01*
X979460Y-535460D02*
X974382D01*
X976921D01*
Y-520225D01*
X979460Y-522764D01*
X966764Y-535460D02*
Y-525303D01*
X961686Y-520225D01*
X956607Y-525303D01*
Y-535460D01*
Y-527842D01*
X966764D01*
X971303Y-564460D02*
X981460D01*
X971303Y-554303D01*
Y-551764D01*
X973842Y-549225D01*
X978921D01*
X981460Y-551764D01*
X966225Y-564460D02*
Y-554303D01*
X961147Y-549225D01*
X956068Y-554303D01*
Y-564460D01*
Y-556842D01*
X966225D01*
X971303Y-589460D02*
X981460D01*
X971303Y-579303D01*
Y-576764D01*
X973842Y-574225D01*
X978921D01*
X981460Y-576764D01*
X966225Y-574225D02*
Y-589460D01*
X958607D01*
X956068Y-586921D01*
Y-584382D01*
X958607Y-581842D01*
X966225D01*
X958607D01*
X956068Y-579303D01*
Y-576764D01*
X958607Y-574225D01*
X966225D01*
X978460Y-717460D02*
X973382D01*
X975921D01*
Y-702225D01*
X978460Y-704764D01*
X965764Y-702225D02*
Y-717460D01*
X958147D01*
X955607Y-714921D01*
Y-712382D01*
X958147Y-709842D01*
X965764D01*
X958147D01*
X955607Y-707303D01*
Y-704764D01*
X958147Y-702225D01*
X965764D01*
X979460Y-745460D02*
X974382D01*
X976921D01*
Y-730225D01*
X979460Y-732764D01*
X966764Y-745460D02*
Y-735303D01*
X961686Y-730225D01*
X956607Y-735303D01*
Y-745460D01*
Y-737842D01*
X966764D01*
X971303Y-774460D02*
X981460D01*
X971303Y-764303D01*
Y-761764D01*
X973842Y-759225D01*
X978921D01*
X981460Y-761764D01*
X966225Y-774460D02*
Y-764303D01*
X961147Y-759225D01*
X956068Y-764303D01*
Y-774460D01*
Y-766842D01*
X966225D01*
X971303Y-799460D02*
X981460D01*
X971303Y-789303D01*
Y-786764D01*
X973842Y-784225D01*
X978921D01*
X981460Y-786764D01*
X966225Y-784225D02*
Y-799460D01*
X958607D01*
X956068Y-796921D01*
Y-794382D01*
X958607Y-791842D01*
X966225D01*
X958607D01*
X956068Y-789303D01*
Y-786764D01*
X958607Y-784225D01*
X966225D01*
X978460Y-851460D02*
X973382D01*
X975921D01*
Y-836225D01*
X978460Y-838764D01*
X965764Y-836225D02*
Y-851460D01*
X958147D01*
X955607Y-848921D01*
Y-846382D01*
X958147Y-843842D01*
X965764D01*
X958147D01*
X955607Y-841303D01*
Y-838764D01*
X958147Y-836225D01*
X965764D01*
X979460Y-879460D02*
X974382D01*
X976921D01*
Y-864225D01*
X979460Y-866764D01*
X966764Y-879460D02*
Y-869303D01*
X961686Y-864225D01*
X956607Y-869303D01*
Y-879460D01*
Y-871842D01*
X966764D01*
X971303Y-908460D02*
X981460D01*
X971303Y-898303D01*
Y-895764D01*
X973842Y-893225D01*
X978921D01*
X981460Y-895764D01*
X966225Y-908460D02*
Y-898303D01*
X961147Y-893225D01*
X956068Y-898303D01*
Y-908460D01*
Y-900843D01*
X966225D01*
X971303Y-933460D02*
X981460D01*
X971303Y-923303D01*
Y-920764D01*
X973842Y-918225D01*
X978921D01*
X981460Y-920764D01*
X966225Y-918225D02*
Y-933460D01*
X958607D01*
X956068Y-930921D01*
Y-928382D01*
X958607Y-925843D01*
X966225D01*
X958607D01*
X956068Y-923303D01*
Y-920764D01*
X958607Y-918225D01*
X966225D01*
X875460Y-957697D02*
Y-947540D01*
X865303Y-957697D01*
X862764D01*
X860225Y-955158D01*
Y-950079D01*
X862764Y-947540D01*
X860225Y-962775D02*
X875460D01*
Y-970393D01*
X872921Y-972932D01*
X870382D01*
X867842Y-970393D01*
Y-962775D01*
Y-970393D01*
X865303Y-972932D01*
X862764D01*
X860225Y-970393D01*
Y-962775D01*
X850460Y-957697D02*
Y-947540D01*
X840303Y-957697D01*
X837764D01*
X835225Y-955158D01*
Y-950079D01*
X837764Y-947540D01*
X850460Y-962775D02*
X840303D01*
X835225Y-967853D01*
X840303Y-972932D01*
X850460D01*
X842842D01*
Y-962775D01*
X821460Y-949540D02*
Y-954618D01*
Y-952079D01*
X806225D01*
X808764Y-949540D01*
X821460Y-962236D02*
X811303D01*
X806225Y-967314D01*
X811303Y-972393D01*
X821460D01*
X813842D01*
Y-962236D01*
X793460Y-950540D02*
Y-955618D01*
Y-953079D01*
X778225D01*
X780764Y-950540D01*
X778225Y-963236D02*
X793460D01*
Y-970854D01*
X790921Y-973393D01*
X788382D01*
X785842Y-970854D01*
Y-963236D01*
Y-970854D01*
X783303Y-973393D01*
X780764D01*
X778225Y-970854D01*
Y-963236D01*
X658460Y-948540D02*
Y-953618D01*
Y-951079D01*
X643225D01*
X645764Y-948540D01*
X643225Y-961236D02*
X658460D01*
Y-968854D01*
X655921Y-971393D01*
X653382D01*
X650842Y-968854D01*
Y-961236D01*
Y-968854D01*
X648303Y-971393D01*
X645764D01*
X643225Y-968854D01*
Y-961236D01*
X686460Y-947540D02*
Y-952618D01*
Y-950079D01*
X671225D01*
X673764Y-947540D01*
X686460Y-960236D02*
X676303D01*
X671225Y-965314D01*
X676303Y-970393D01*
X686460D01*
X678842D01*
Y-960236D01*
X715460Y-955697D02*
Y-945540D01*
X705303Y-955697D01*
X702764D01*
X700225Y-953158D01*
Y-948079D01*
X702764Y-945540D01*
X715460Y-960775D02*
X705303D01*
X700225Y-965853D01*
X705303Y-970932D01*
X715460D01*
X707842D01*
Y-960775D01*
X740460Y-954697D02*
Y-944540D01*
X730303Y-954697D01*
X727764D01*
X725225Y-952158D01*
Y-947079D01*
X727764Y-944540D01*
X725225Y-959775D02*
X740460D01*
Y-967393D01*
X737921Y-969932D01*
X735382D01*
X732842Y-967393D01*
Y-959775D01*
Y-967393D01*
X730303Y-969932D01*
X727764D01*
X725225Y-967393D01*
Y-959775D01*
X963460Y-665460D02*
X953303D01*
X970460Y-283460D02*
X960303D01*
X970460Y-223460D02*
X960303D01*
X971460Y-165460D02*
X961303D01*
X970460Y-107460D02*
X960303D01*
X969460Y-138382D02*
X959303D01*
X964382Y-133303D02*
Y-143460D01*
X971460Y-192382D02*
X961303D01*
X966382Y-187303D02*
Y-197460D01*
X970460Y-251382D02*
X960303D01*
X965382Y-246303D02*
Y-256460D01*
X970460Y-310382D02*
X960303D01*
X965382Y-305303D02*
Y-315460D01*
X961460Y-632382D02*
X951303D01*
X956382Y-627303D02*
Y-637460D01*
X66460Y-207764D02*
X63921Y-205225D01*
X58843D01*
X56303Y-207764D01*
Y-210303D01*
X58843Y-212843D01*
X61382D01*
X58843D01*
X56303Y-215382D01*
Y-217921D01*
X58843Y-220460D01*
X63921D01*
X66460Y-217921D01*
X51225Y-205225D02*
Y-215382D01*
X46147Y-220460D01*
X41068Y-215382D01*
Y-205225D01*
X35990Y-207764D02*
X33451Y-205225D01*
X28372D01*
X25833Y-207764D01*
Y-210303D01*
X28372Y-212843D01*
X30912D01*
X28372D01*
X25833Y-215382D01*
Y-217921D01*
X28372Y-220460D01*
X33451D01*
X35990Y-217921D01*
X66460Y-228764D02*
X63921Y-226225D01*
X58843D01*
X56303Y-228764D01*
Y-231303D01*
X58843Y-233843D01*
X61382D01*
X58843D01*
X56303Y-236382D01*
Y-238921D01*
X58843Y-241460D01*
X63921D01*
X66460Y-238921D01*
X51225Y-226225D02*
Y-236382D01*
X46147Y-241460D01*
X41068Y-236382D01*
Y-226225D01*
X35990Y-228764D02*
X33451Y-226225D01*
X28372D01*
X25833Y-228764D01*
Y-231303D01*
X28372Y-233843D01*
X30912D01*
X28372D01*
X25833Y-236382D01*
Y-238921D01*
X28372Y-241460D01*
X33451D01*
X35990Y-238921D01*
X175313Y-98617D02*
Y-83383D01*
X167696D01*
X165157Y-85922D01*
Y-91000D01*
X167696Y-93539D01*
X175313D01*
X170235D02*
X165157Y-98617D01*
X149922D02*
X160078D01*
X149922Y-88461D01*
Y-85922D01*
X152461Y-83383D01*
X157539D01*
X160078Y-85922D01*
X144843D02*
X142304Y-83383D01*
X137226D01*
X134686Y-85922D01*
Y-96078D01*
X137226Y-98617D01*
X142304D01*
X144843Y-96078D01*
Y-85922D01*
X172774Y-135618D02*
Y-120382D01*
X165157D01*
X162617Y-122922D01*
Y-128000D01*
X165157Y-130539D01*
X172774D01*
X167696D02*
X162617Y-135618D01*
X147382D02*
X157539D01*
X147382Y-125461D01*
Y-122922D01*
X149922Y-120382D01*
X155000D01*
X157539Y-122922D01*
X142304Y-135618D02*
X137226D01*
X139765D01*
Y-120382D01*
X142304Y-122922D01*
X177313Y-174618D02*
Y-159382D01*
X169696D01*
X167157Y-161922D01*
Y-167000D01*
X169696Y-169539D01*
X177313D01*
X172235D02*
X167157Y-174618D01*
X151922D02*
X162078D01*
X151922Y-164461D01*
Y-161922D01*
X154461Y-159382D01*
X159539D01*
X162078Y-161922D01*
X136686Y-174618D02*
X146843D01*
X136686Y-164461D01*
Y-161922D01*
X139226Y-159382D01*
X144304D01*
X146843Y-161922D01*
X174313Y-212617D02*
Y-197383D01*
X166696D01*
X164157Y-199922D01*
Y-205000D01*
X166696Y-207539D01*
X174313D01*
X169235D02*
X164157Y-212617D01*
X148922D02*
X159078D01*
X148922Y-202461D01*
Y-199922D01*
X151461Y-197383D01*
X156539D01*
X159078Y-199922D01*
X143843D02*
X141304Y-197383D01*
X136226D01*
X133687Y-199922D01*
Y-202461D01*
X136226Y-205000D01*
X138765D01*
X136226D01*
X133687Y-207539D01*
Y-210078D01*
X136226Y-212617D01*
X141304D01*
X143843Y-210078D01*
X174313Y-254618D02*
Y-239382D01*
X166696D01*
X164157Y-241922D01*
Y-247000D01*
X166696Y-249539D01*
X174313D01*
X169235D02*
X164157Y-254618D01*
X148922D02*
X159078D01*
X148922Y-244461D01*
Y-241922D01*
X151461Y-239382D01*
X156539D01*
X159078Y-241922D01*
X136226Y-254618D02*
Y-239382D01*
X143843Y-247000D01*
X133687D01*
X174313Y-295618D02*
Y-280382D01*
X166696D01*
X164157Y-282922D01*
Y-288000D01*
X166696Y-290539D01*
X174313D01*
X169235D02*
X164157Y-295618D01*
X148922D02*
X159078D01*
X148922Y-285461D01*
Y-282922D01*
X151461Y-280382D01*
X156539D01*
X159078Y-282922D01*
X133687Y-280382D02*
X143843D01*
Y-288000D01*
X138765Y-285461D01*
X136226D01*
X133687Y-288000D01*
Y-293078D01*
X136226Y-295618D01*
X141304D01*
X143843Y-293078D01*
M02*
