G04*
G04 #@! TF.GenerationSoftware,Altium Limited,Altium Designer,25.3.3 (18)*
G04*
G04 Layer_Color=255*
%FSLAX44Y44*%
%MOMM*%
G71*
G04*
G04 #@! TF.SameCoordinates,017A41BD-DD39-4079-982F-C60C01D90CF4*
G04*
G04*
G04 #@! TF.FilePolarity,Positive*
G04*
G01*
G75*
%ADD15C,1.0000*%
%ADD16R,0.6000X0.8000*%
%ADD17R,3.5000X1.6000*%
%ADD18R,0.8500X0.9000*%
G04:AMPARAMS|DCode=19|XSize=0.3mm|YSize=1.95mm|CornerRadius=0mm|HoleSize=0mm|Usage=FLASHONLY|Rotation=45.000|XOffset=0mm|YOffset=0mm|HoleType=Round|Shape=Round|*
%AMOVALD19*
21,1,1.6500,0.3000,0.0000,0.0000,135.0*
1,1,0.3000,0.5834,-0.5834*
1,1,0.3000,-0.5834,0.5834*
%
%ADD19OVALD19*%

G04:AMPARAMS|DCode=20|XSize=0.3mm|YSize=1.95mm|CornerRadius=0mm|HoleSize=0mm|Usage=FLASHONLY|Rotation=315.000|XOffset=0mm|YOffset=0mm|HoleType=Round|Shape=Round|*
%AMOVALD20*
21,1,1.6500,0.3000,0.0000,0.0000,45.0*
1,1,0.3000,-0.5834,-0.5834*
1,1,0.3000,0.5834,0.5834*
%
%ADD20OVALD20*%

%ADD21R,1.8000X3.5000*%
%ADD22R,1.8000X1.4000*%
%ADD23R,2.8000X1.2600*%
%ADD24R,5.9000X5.8320*%
%ADD25R,0.9000X0.8500*%
%ADD26R,1.6000X2.4000*%
G04:AMPARAMS|DCode=27|XSize=1mm|YSize=0.85mm|CornerRadius=0mm|HoleSize=0mm|Usage=FLASHONLY|Rotation=225.000|XOffset=0mm|YOffset=0mm|HoleType=Round|Shape=Rectangle|*
%AMROTATEDRECTD27*
4,1,4,0.0530,0.6541,0.6541,0.0530,-0.0530,-0.6541,-0.6541,-0.0530,0.0530,0.6541,0.0*
%
%ADD27ROTATEDRECTD27*%

%ADD28R,0.8500X1.0000*%
%ADD29R,0.8000X0.6000*%
G04:AMPARAMS|DCode=30|XSize=0.32mm|YSize=0.81mm|CornerRadius=0.08mm|HoleSize=0mm|Usage=FLASHONLY|Rotation=0.000|XOffset=0mm|YOffset=0mm|HoleType=Round|Shape=RoundedRectangle|*
%AMROUNDEDRECTD30*
21,1,0.3200,0.6500,0,0,0.0*
21,1,0.1600,0.8100,0,0,0.0*
1,1,0.1600,0.0800,-0.3250*
1,1,0.1600,-0.0800,-0.3250*
1,1,0.1600,-0.0800,0.3250*
1,1,0.1600,0.0800,0.3250*
%
%ADD30ROUNDEDRECTD30*%
G04:AMPARAMS|DCode=31|XSize=0.81mm|YSize=0.32mm|CornerRadius=0.08mm|HoleSize=0mm|Usage=FLASHONLY|Rotation=0.000|XOffset=0mm|YOffset=0mm|HoleType=Round|Shape=RoundedRectangle|*
%AMROUNDEDRECTD31*
21,1,0.8100,0.1600,0,0,0.0*
21,1,0.6500,0.3200,0,0,0.0*
1,1,0.1600,0.3250,-0.0800*
1,1,0.1600,-0.3250,-0.0800*
1,1,0.1600,-0.3250,0.0800*
1,1,0.1600,0.3250,0.0800*
%
%ADD31ROUNDEDRECTD31*%
G04:AMPARAMS|DCode=32|XSize=1mm|YSize=0.85mm|CornerRadius=0mm|HoleSize=0mm|Usage=FLASHONLY|Rotation=135.000|XOffset=0mm|YOffset=0mm|HoleType=Round|Shape=Rectangle|*
%AMROTATEDRECTD32*
4,1,4,0.6541,-0.0530,0.0530,-0.6541,-0.6541,0.0530,-0.0530,0.6541,0.6541,-0.0530,0.0*
%
%ADD32ROTATEDRECTD32*%

G04:AMPARAMS|DCode=33|XSize=0.9mm|YSize=0.85mm|CornerRadius=0mm|HoleSize=0mm|Usage=FLASHONLY|Rotation=135.000|XOffset=0mm|YOffset=0mm|HoleType=Round|Shape=Rectangle|*
%AMROTATEDRECTD33*
4,1,4,0.6187,-0.0177,0.0177,-0.6187,-0.6187,0.0177,-0.0177,0.6187,0.6187,-0.0177,0.0*
%
%ADD33ROTATEDRECTD33*%

%ADD34R,1.1500X0.3000*%
%ADD35R,1.1500X0.6000*%
%ADD58C,1.4000*%
%ADD59R,1.4000X1.4000*%
%ADD63R,1.4000X1.4000*%
%ADD64R,1.5500X1.5500*%
%ADD65C,1.5500*%
%ADD66C,1.1000*%
G04:AMPARAMS|DCode=68|XSize=1mm|YSize=1.8mm|CornerRadius=0.5mm|HoleSize=0mm|Usage=FLASHONLY|Rotation=270.000|XOffset=0mm|YOffset=0mm|HoleType=Round|Shape=RoundedRectangle|*
%AMROUNDEDRECTD68*
21,1,1.0000,0.8000,0,0,270.0*
21,1,0.0000,1.8000,0,0,270.0*
1,1,1.0000,-0.4000,0.0000*
1,1,1.0000,-0.4000,0.0000*
1,1,1.0000,0.4000,0.0000*
1,1,1.0000,0.4000,0.0000*
%
%ADD68ROUNDEDRECTD68*%
G04:AMPARAMS|DCode=69|XSize=1mm|YSize=2.1mm|CornerRadius=0.5mm|HoleSize=0mm|Usage=FLASHONLY|Rotation=270.000|XOffset=0mm|YOffset=0mm|HoleType=Round|Shape=RoundedRectangle|*
%AMROUNDEDRECTD69*
21,1,1.0000,1.1000,0,0,270.0*
21,1,0.0000,2.1000,0,0,270.0*
1,1,1.0000,-0.5500,0.0000*
1,1,1.0000,-0.5500,0.0000*
1,1,1.0000,0.5500,0.0000*
1,1,1.0000,0.5500,0.0000*
%
%ADD69ROUNDEDRECTD69*%
%ADD70C,0.6500*%
%AMCUSTOMSHAPE76*
4,1,5,-0.4000,0.5000,0.4000,0.5000,0.4000,-0.1000,0.0000,-0.5000,-0.4000,-0.1000,-0.4000,0.5000,0.0*%
%ADD76CUSTOMSHAPE76*%

%AMCUSTOMSHAPE77*
4,1,6,0.0000,0.2000,-0.4000,0.6000,-0.4000,-0.2250,0.4000,-0.2250,0.4000,0.6000,0.1750,0.3750,0.0000,0.2000,0.0*%
%ADD77CUSTOMSHAPE77*%

%ADD78R,2.1000X2.1000*%
%ADD82C,1.9000*%
%ADD83R,1.9000X1.9000*%
%ADD84C,1.8000*%
%ADD85R,1.8000X1.8000*%
%ADD86R,1.9000X1.9000*%
%ADD87C,1.5000*%
D15*
X30000Y-970000D02*
D03*
X975000Y-26000D02*
D03*
X50000Y-50000D02*
D03*
D16*
X840000Y-85000D02*
D03*
X853000D02*
D03*
X716250Y-185500D02*
D03*
X703250D02*
D03*
X716250Y-218000D02*
D03*
X703250D02*
D03*
X716250Y-250500D02*
D03*
X703250D02*
D03*
X944600Y-77500D02*
D03*
X931600D02*
D03*
X203350Y-270680D02*
D03*
X216350D02*
D03*
X250350D02*
D03*
X263350D02*
D03*
D17*
X596000Y-559000D02*
D03*
X540000D02*
D03*
X418000Y-573000D02*
D03*
X362000D02*
D03*
X854000Y-768000D02*
D03*
X798000D02*
D03*
X610000D02*
D03*
X554000D02*
D03*
X362000Y-762000D02*
D03*
X306000D02*
D03*
X732000Y-557000D02*
D03*
X676000D02*
D03*
D18*
X674000Y-838000D02*
D03*
X687000D02*
D03*
X437500Y-837000D02*
D03*
X450500D02*
D03*
X183500Y-836000D02*
D03*
X196500D02*
D03*
X185000Y-645000D02*
D03*
X198000D02*
D03*
X424500Y-646000D02*
D03*
X437500D02*
D03*
X672500Y-644000D02*
D03*
X685500D02*
D03*
X257850Y-209680D02*
D03*
X270850D02*
D03*
X294000Y-430000D02*
D03*
X281000D02*
D03*
X585000Y-107500D02*
D03*
X598000D02*
D03*
X247500Y-179000D02*
D03*
X260500D02*
D03*
X195850Y-209680D02*
D03*
X208850D02*
D03*
D19*
X541614Y-339380D02*
D03*
X545149Y-335845D02*
D03*
X534543Y-346451D02*
D03*
X538078Y-342916D02*
D03*
X479742Y-242153D02*
D03*
X476206Y-245689D02*
D03*
X472671Y-249224D02*
D03*
X469135Y-252760D02*
D03*
X465600Y-256295D02*
D03*
X462064Y-259831D02*
D03*
X458529Y-263366D02*
D03*
X454993Y-266902D02*
D03*
X451457Y-270438D02*
D03*
X447922Y-273973D02*
D03*
X444386Y-277509D02*
D03*
X440851Y-281044D02*
D03*
X437315Y-284580D02*
D03*
X433780Y-288115D02*
D03*
X430244Y-291651D02*
D03*
X426709Y-295186D02*
D03*
X506258Y-374736D02*
D03*
X509794Y-371200D02*
D03*
X513329Y-367665D02*
D03*
X516865Y-364129D02*
D03*
X520400Y-360594D02*
D03*
X523936Y-357058D02*
D03*
X527471Y-353523D02*
D03*
X531007Y-349987D02*
D03*
X548685Y-332309D02*
D03*
X552220Y-328774D02*
D03*
X555756Y-325238D02*
D03*
X559291Y-321703D02*
D03*
D20*
Y-295186D02*
D03*
X555756Y-291651D02*
D03*
X552220Y-288115D02*
D03*
X548685Y-284580D02*
D03*
X426709Y-321703D02*
D03*
X430244Y-325238D02*
D03*
X433780Y-328774D02*
D03*
X437315Y-332309D02*
D03*
X440851Y-335845D02*
D03*
X444386Y-339380D02*
D03*
X447922Y-342916D02*
D03*
X451457Y-346451D02*
D03*
X454993Y-349987D02*
D03*
X458529Y-353523D02*
D03*
X462064Y-357058D02*
D03*
X465600Y-360594D02*
D03*
X469135Y-364129D02*
D03*
X472671Y-367665D02*
D03*
X476206Y-371200D02*
D03*
X479742Y-374736D02*
D03*
X545149Y-281044D02*
D03*
X541614Y-277509D02*
D03*
X538078Y-273973D02*
D03*
X534543Y-270438D02*
D03*
X531007Y-266902D02*
D03*
X527471Y-263366D02*
D03*
X523936Y-259831D02*
D03*
X520400Y-256295D02*
D03*
X516865Y-252760D02*
D03*
X513329Y-249224D02*
D03*
X509794Y-245689D02*
D03*
X506258Y-242153D02*
D03*
D21*
X770000Y-185000D02*
D03*
D22*
X834000Y-162000D02*
D03*
Y-208000D02*
D03*
Y-185000D02*
D03*
D23*
X828750Y-308360D02*
D03*
Y-262640D02*
D03*
D24*
X765250Y-285500D02*
D03*
D25*
X866000Y-296500D02*
D03*
Y-309500D02*
D03*
Y-275500D02*
D03*
Y-262500D02*
D03*
Y-210000D02*
D03*
Y-197000D02*
D03*
Y-173500D02*
D03*
Y-160500D02*
D03*
X155000Y-135000D02*
D03*
Y-148000D02*
D03*
X181000Y-134500D02*
D03*
Y-147500D02*
D03*
X869600Y-72500D02*
D03*
Y-85500D02*
D03*
D26*
X645250Y-218000D02*
D03*
X673750D02*
D03*
X645250Y-255500D02*
D03*
X673750D02*
D03*
X645250Y-180500D02*
D03*
X673750D02*
D03*
D27*
X560773Y-266773D02*
D03*
X551227Y-257227D02*
D03*
X432227Y-367227D02*
D03*
X441773Y-376773D02*
D03*
D28*
X482750Y-393000D02*
D03*
X469250D02*
D03*
D29*
X178000Y-428000D02*
D03*
Y-441000D02*
D03*
X261000Y-442000D02*
D03*
Y-429000D02*
D03*
X792500Y-120000D02*
D03*
Y-107000D02*
D03*
X240850Y-209680D02*
D03*
Y-222680D02*
D03*
X225850Y-209180D02*
D03*
Y-222180D02*
D03*
D30*
X222850Y-125180D02*
D03*
X229350D02*
D03*
X235850D02*
D03*
X242350D02*
D03*
Y-164180D02*
D03*
X235850D02*
D03*
X229350D02*
D03*
X222850D02*
D03*
D31*
X252100Y-134930D02*
D03*
Y-141430D02*
D03*
Y-147930D02*
D03*
Y-154430D02*
D03*
X213100D02*
D03*
Y-147930D02*
D03*
Y-141430D02*
D03*
Y-134930D02*
D03*
D32*
X429454Y-256546D02*
D03*
X439000Y-247000D02*
D03*
D33*
X448000Y-238000D02*
D03*
X456485Y-229515D02*
D03*
D34*
X122900Y-298500D02*
D03*
Y-303500D02*
D03*
Y-308500D02*
D03*
Y-313500D02*
D03*
Y-318500D02*
D03*
Y-323500D02*
D03*
Y-328500D02*
D03*
Y-333500D02*
D03*
D35*
Y-292000D02*
D03*
Y-340000D02*
D03*
Y-284000D02*
D03*
Y-348000D02*
D03*
D58*
X792000Y-62250D02*
D03*
X767000D02*
D03*
X742000D02*
D03*
X840000Y-927500D02*
D03*
X815000D02*
D03*
X790000D02*
D03*
X935000Y-396000D02*
D03*
Y-421000D02*
D03*
Y-446000D02*
D03*
Y-529000D02*
D03*
Y-554000D02*
D03*
Y-579000D02*
D03*
X655000Y-927500D02*
D03*
X680000D02*
D03*
X705000D02*
D03*
X605600Y-63140D02*
D03*
X630600D02*
D03*
X655600D02*
D03*
X935000Y-925000D02*
D03*
Y-900000D02*
D03*
Y-875000D02*
D03*
Y-790000D02*
D03*
Y-765000D02*
D03*
Y-740000D02*
D03*
D59*
X717000Y-62250D02*
D03*
X865000Y-927500D02*
D03*
X730000D02*
D03*
X580600Y-63140D02*
D03*
D63*
X935000Y-371000D02*
D03*
Y-504000D02*
D03*
Y-850000D02*
D03*
Y-715000D02*
D03*
D64*
Y-635000D02*
D03*
D65*
Y-660000D02*
D03*
D66*
X915000Y-619000D02*
D03*
D68*
X75350Y-272800D02*
D03*
Y-359200D02*
D03*
D69*
X117150Y-272800D02*
D03*
Y-359200D02*
D03*
D70*
X112150Y-287100D02*
D03*
Y-344900D02*
D03*
D76*
X232000Y-85750D02*
D03*
X207900Y-85650D02*
D03*
D77*
X232000Y-95000D02*
D03*
X207900Y-94900D02*
D03*
D78*
X232600Y-144680D02*
D03*
D82*
X85000Y-243100D02*
D03*
X84913Y-192214D02*
D03*
X85000Y-217700D02*
D03*
Y-750400D02*
D03*
Y-725000D02*
D03*
X84913Y-699514D02*
D03*
X85000Y-551584D02*
D03*
X84913Y-526097D02*
D03*
X85000Y-576984D02*
D03*
X84913Y-812214D02*
D03*
X85000Y-837700D02*
D03*
Y-863100D02*
D03*
X329800Y-75000D02*
D03*
X392500D02*
D03*
X454400D02*
D03*
X505286Y-74913D02*
D03*
X479800Y-75000D02*
D03*
X85087Y-105486D02*
D03*
X85000Y-80000D02*
D03*
X85087Y-130886D02*
D03*
X140400Y-917500D02*
D03*
X89514Y-917587D02*
D03*
X115000Y-917500D02*
D03*
X250000D02*
D03*
X199114Y-917587D02*
D03*
X224600Y-917500D02*
D03*
X310400D02*
D03*
X410000D02*
D03*
X384514Y-917587D02*
D03*
X435400Y-917500D02*
D03*
X520800D02*
D03*
X495314Y-917587D02*
D03*
X546200Y-917500D02*
D03*
X605000D02*
D03*
X922500Y-104800D02*
D03*
Y-282300D02*
D03*
Y-224800D02*
D03*
Y-164800D02*
D03*
X85087Y-467470D02*
D03*
X85000Y-416584D02*
D03*
X85087Y-442070D02*
D03*
X85000Y-635400D02*
D03*
D83*
X85000Y-166900D02*
D03*
Y-674200D02*
D03*
X85000Y-500784D02*
D03*
X85000Y-786900D02*
D03*
X85087Y-54686D02*
D03*
X922500Y-130200D02*
D03*
Y-307700D02*
D03*
Y-250200D02*
D03*
Y-190200D02*
D03*
X85087Y-391270D02*
D03*
X85000Y-610000D02*
D03*
D84*
X602453Y-494342D02*
D03*
X577053D02*
D03*
X551654D02*
D03*
X526254D02*
D03*
X500854D02*
D03*
X475453D02*
D03*
X450053D02*
D03*
X424654D02*
D03*
X424854Y-621343D02*
D03*
X450253D02*
D03*
X475653D02*
D03*
X501054D02*
D03*
X526454D02*
D03*
X551853D02*
D03*
X577253D02*
D03*
X602654D02*
D03*
X607453Y-688842D02*
D03*
X582053D02*
D03*
X556654D02*
D03*
X531254D02*
D03*
X505854D02*
D03*
X480453D02*
D03*
X455053D02*
D03*
X429654D02*
D03*
X429854Y-815842D02*
D03*
X455253D02*
D03*
X480653D02*
D03*
X506054D02*
D03*
X531454D02*
D03*
X556853D02*
D03*
X582253D02*
D03*
X607654D02*
D03*
X179653Y-494342D02*
D03*
X205054D02*
D03*
X726300Y-418350D02*
D03*
X752000D02*
D03*
X669653Y-689342D02*
D03*
X695053D02*
D03*
X726400Y-443750D02*
D03*
X752000D02*
D03*
X777400D02*
D03*
X803100D02*
D03*
X828800D02*
D03*
Y-418350D02*
D03*
X803100D02*
D03*
X777400D02*
D03*
X233300Y-52500D02*
D03*
X207900D02*
D03*
X182500D02*
D03*
X356254Y-814843D02*
D03*
X330854D02*
D03*
X305453D02*
D03*
X280054D02*
D03*
X254653D02*
D03*
X229254D02*
D03*
X203853D02*
D03*
X178454D02*
D03*
X178253Y-687842D02*
D03*
X203654D02*
D03*
X229053D02*
D03*
X254454D02*
D03*
X279853D02*
D03*
X305254D02*
D03*
X330653D02*
D03*
X356054D02*
D03*
X846400Y-621000D02*
D03*
X821000D02*
D03*
X795600D02*
D03*
X770200D02*
D03*
X744800D02*
D03*
X719400D02*
D03*
X694000D02*
D03*
X668600D02*
D03*
X668400Y-494000D02*
D03*
X693800D02*
D03*
X719200D02*
D03*
X744600D02*
D03*
X770000D02*
D03*
X795400D02*
D03*
X820800D02*
D03*
X846200D02*
D03*
X919600Y-52500D02*
D03*
X894200D02*
D03*
X945000D02*
D03*
X868800D02*
D03*
X357654Y-621343D02*
D03*
X332253D02*
D03*
X306854D02*
D03*
X281453D02*
D03*
X256054D02*
D03*
X230653D02*
D03*
X205254D02*
D03*
X179853D02*
D03*
X230453Y-494342D02*
D03*
X255854D02*
D03*
X281254D02*
D03*
X306653D02*
D03*
X332053D02*
D03*
X357453D02*
D03*
X847454Y-689342D02*
D03*
X822054D02*
D03*
X796654D02*
D03*
X771254D02*
D03*
X745854D02*
D03*
X720453D02*
D03*
X669854Y-816342D02*
D03*
X695254D02*
D03*
X720654D02*
D03*
X746053D02*
D03*
X771453D02*
D03*
X796853D02*
D03*
X822253D02*
D03*
X847654D02*
D03*
D85*
X700600Y-418350D02*
D03*
Y-443750D02*
D03*
X258700Y-52500D02*
D03*
X843400D02*
D03*
D86*
X355200Y-75000D02*
D03*
X417900D02*
D03*
X530600D02*
D03*
X64200Y-917500D02*
D03*
X173800D02*
D03*
X285000D02*
D03*
X359200D02*
D03*
X470000D02*
D03*
X579600D02*
D03*
D87*
X177500Y-342500D02*
D03*
X222500D02*
D03*
Y-407500D02*
D03*
X177500D02*
D03*
X259890Y-408730D02*
D03*
X304890D02*
D03*
Y-343730D02*
D03*
X259890D02*
D03*
M02*
