M48
;Layer_Color=9474304
;FILE_FORMAT=4:4
METRIC,LZ
;TYPE=PLATED
T01F00S00C0.3000
T03F00S00C0.9000
T04F00S00C1.0000
T05F00S00C1.1000
T06F00S00C1.2000
T07F00S00C1.3000
T08F00S00C3.0000
;TYPE=NON_PLATED
T09F00S00C0.6500
T10F00S00C1.1000
%
T01
X00324Y-0088
X00364
X00545Y-007275
X0057Y-0072
X00595Y-007125
X00698Y-0075
X00735Y-007425
X0076Y-00735
X007875Y-007275
X0081Y-0072
X00835Y-007125
X00884Y-00805
X00607Y-00545
X00587Y-00537096
X00563Y-00531
X00661Y-00477
X0051075Y-005245
X00494Y-00518
X005Y-00567
X00514Y-00559
X00476Y-00585
X00391Y-00588
X00344Y-00586
X00287Y-00545
X00281Y-00538
X00275Y-00531
X00268Y-00524
X00262Y-00517
X0027Y-00735
X00295Y-007275
X0032Y-0072
X00345Y-007125
X00413Y-00754
X004975Y-007425
X0052Y-00735
X002425Y-007425
X00137Y-00324
X00138Y-00312
X0010338Y-00316
X0019625Y-0019825
X00194Y-00141
Y-00127
X00168Y-00158
X00271Y-00091
X00305
X004Y-00152
X00388Y-00185
X00394Y-00209
X00406Y-00216
X0043Y-0024
X00417Y-00265
Y-00275
X00416Y-00284
X00407Y-00296
Y-00306
X00378Y-00314
X0037Y-00306
X0044Y-00301923
X00444Y-00319002
X00451Y-00324
X00474Y-00316466
X00483Y-0032
X00486505Y-00278495
X00477448Y-00278552
X00466702Y-00279815
X00496017Y-00277464
X00506076Y-00276306
X00465Y-00219
X0038Y-0024
X00277Y-0026175
X00353Y-00407
X00379Y-00443664
X00388
X00397
X0040599
X00415
X00424336
X00434
X00444
X00426Y-00389
X00424Y-00379
X00492Y-00383
X00535Y-00425904
X00538962Y-00403
X00545096Y-00371013
X00552Y-00377
X00559Y-00383
X00566Y-00389
X00573Y-00394904
X0058Y-00401
X00586Y-00408
X00594Y-00414474
X00628277Y-00409732
X00638Y-00411
X0064769Y-00411311
X00657Y-00412
X00645Y-00428
X00636Y-0043
X00676Y-00429
X00647Y-00461
X00660399Y-00352601
X0067Y-00354
X0068
X00566Y-00316
X00571273Y-00274773
X00592Y-00249
X00543194Y-00249194
X00540956Y-00202702
X0061725Y-00218
X00716Y-00201
X00957Y-00079
T03
X00655Y-009275
X0068
X00705
X0073
X0079
X00815
X0084
X00865
X00935Y-00925
Y-009
Y-00875
Y-0085
Y-0079
Y-00765
Y-0074
Y-00715
Y-00579
Y-00554
Y-00529
Y-00504
Y-00446
Y-00421
Y-00396
Y-00371
X00792Y-0006225
X00767
X00742
X00717
X006556Y-0006314
X006306
X006056
X005806
T04
X00935Y-0066
Y-00635
X0030489Y-0040873
X0025989
X002225Y-004075
X001775
Y-003425
X002225
X0025989Y-0034373
X0030489
T05
X00556853Y-00815842
X00582253
X00607654
X00669854Y-00816342
X00695254
X00720654
X00746053
X00771453
X00796853
X00822253
X00847654
X00847454Y-00689342
X00822054
X00796654
X00771254
X00745854
X00720453
X00695053
X00669653
X00607453Y-00688842
X00582053
X00556654
X00551853Y-00621343
X00577253
X00602654
X006686Y-00621
X00694
X007194
X007448
X007702
X007956
X00821
X008464
X008462Y-00494
X008208
X007954
X0077
X007446
X007192
X006938
X006684
X00602453Y-00494342
X00577053
X00551654
X00526254
X00500854
X00475453
X00450053
X00424654
X00357453
X00332053
X00306653
X00281254
X00255854
X00230453
X00205054
X00179653
X00179853Y-00621343
X00205254
X00230653
X00256054
X00281453
X00306854
X00332253
X00357654
X00424854
X00450253
X00475653
X00501054
X00526454
X00531254Y-00688842
X00505854
X00480453
X00455053
X00429654
X00356054Y-00687842
X00330653
X00305254
X00279853
X00254454
X00229053
X00203654
X00178253
X00178454Y-00814843
X00203853
X00229254
X00254653
X00280054
X00305453
X00330854
X00356254
X00429854Y-00815842
X00455253
X00480653
X00506054
X00531454
T06
X007006Y-0044375
Y-0041835
X007263
X007264Y-0044375
X00752
Y-0041835
X007774
Y-0044375
X008031
Y-0041835
X008288
Y-0044375
X00945Y-000525
X009196
X008942
X008688
X008434
X002587
X002333
X002079
X001825
T07
X000642Y-009175
X00089514Y-00917587
X00115Y-009175
X001404
X001738
X00199114Y-00917587
X002246Y-009175
X0025
X00285
X003104
X003592
X00384514Y-00917587
X0041Y-009175
X004354
X0047
X00495314Y-00917587
X005208Y-009175
X005462
X005796
X00605
X00085Y-008631
Y-008377
X00084913Y-00812214
X00085Y-007869
Y-007504
Y-00725
X00084913Y-00699514
X00085Y-006742
X00085Y-006354
Y-0061
Y-00576984
Y-00551584
X00084913Y-00526097
X00085Y-00500784
X00085087Y-0046747
Y-0044207
X00085Y-00416584
X00085087Y-0039127
X00085Y-002431
Y-002177
X00084913Y-00192214
X00085Y-001669
X00085087Y-00130886
Y-00105486
X00085Y-0008
X009225Y-001048
Y-001302
Y-001648
Y-001902
Y-002248
Y-002502
Y-002823
Y-003077
X005306Y-00075
X00505286Y-00074913
X004798Y-00075
X004544
X004179
X003925
X003552
X003298
X00085087Y-00054686
T08
X0087Y-0038
X00025Y-0007
T09
X0011215Y-003449
Y-002871
T10
X00915Y-00619
M30
